<?xml version="1.0" standalone="no"?>
<!DOCTYPE svg PUBLIC "-//W3C//DTD SVG 1.1//EN" "http://www.w3.org/Graphics/SVG/1.1/DTD/svg11.dtd" >
<svg xmlns="http://www.w3.org/2000/svg" xmlns:xlink="http://www.w3.org/1999/xlink" version="1.1">
<metadata>
Created by FontForge 20170910 at Thu Feb  9 18:56:34 2012
 By Jimmy Wärting
Copyright(c) 2011 DXKorea Inc. Seoul Korea All Rights Reserved. http://www.dxkorea.co.kr
</metadata>
<defs>
<font id="DXLBaB-KSCpc-EUC-H" horiz-adv-x="900" >
  <font-face 
    font-family="DXB"
    font-weight="400"
    font-stretch="normal"
    units-per-em="1000"
    panose-1="2 1 6 6 0 1 1 1 1 1"
    ascent="800"
    descent="-200"
    x-height="518"
    cap-height="656"
    bbox="-69 -208.091 909 801"
    underline-thickness="32"
    underline-position="-294"
    unicode-range="U+0011-FFE5"
  />
<missing-glyph 
d="M98 -90v781h703v-781h-703zM142 -42h615v683h-615v-683z" />
    <glyph glyph-name=".notdef" 
d="M98 -90v781h703v-781h-703zM142 -42h615v683h-615v-683z" />
    <glyph glyph-name="uni0011" horiz-adv-x="334" 
d="M271 518q0 -40 -35 -40q-36 0 -36 40v129q0 41 36 41q35 0 35 -41v-129zM134 518q0 -40 -35 -40q-36 0 -36 40v129q0 41 36 41q35 0 35 -41v-129z" />
    <glyph glyph-name="uni0012" horiz-adv-x="334" 
d="M271 518q0 -40 -35 -40q-36 0 -36 40v129q0 41 36 41q35 0 35 -41v-129zM134 518q0 -40 -35 -40q-36 0 -36 40v129q0 41 36 41q35 0 35 -41v-129z" />
    <glyph glyph-name="uni0013" horiz-adv-x="834" 
d="M826 346q0 -44 -49 -44h-69l-41 -266q-12 -78 -71 -77q-61 1 -78 76l-62 267h-74l-68 -267q-20 -77 -78 -76q-31 0 -51 27q-16 22 -20 51l-35 265h-72q-49 0 -49 44q0 48 49 48h59l-32 241q-3 23 10 43t36 24t42.5 -12.5t21.5 -40.5l25 -255h88l58 227q12 49 55 49
q45 0 56 -49l52 -227h90l33 255q3 24 20.5 39.5t40.5 12.5q28 -3 40 -29q9 -20 6 -38l-37 -240h55q49 0 49 -48zM435 394l-14 61l-15 -61h29zM607 302h-57l36 -158zM285 302h-56l16 -157z" />
    <glyph glyph-name="uni0014" 
d="M597 751q1 -10 1 -20q0 -69 -46 -115q-42 -43 -102 -48q1 76 38.5 126t108.5 57zM769 204q-21 -66 -64 -126q-55 -75 -107 -75q-22 0 -65 14.5t-67 14.5q-23 0 -62.5 -15.5t-60.5 -15.5q-68 0 -135 115.5t-67 228.5q0 91 43 156q49 76 136 76q28 0 76.5 -13.5t65.5 -13.5
q20 0 67.5 15.5t74.5 15.5q83 0 143 -74q-81 -61 -81 -159q0 -50 26 -88q27 -41 77 -56z" />
    <glyph glyph-name="uni0015" horiz-adv-x="399" 
d="M353 442h-164q-74 0 -112 -44t-35 -97q2 -59 47 -95.5t101 -31.5v-315h37v559h88v-559h37z" />
    <glyph glyph-name="space" unicode=" " horiz-adv-x="300" 
 />
    <glyph glyph-name="exclam" unicode="!" horiz-adv-x="296" 
d="M200 208q0 -20 -16 -35t-39 -15q-21 0 -35 15.5t-14 35.5v443q0 20 14 35.5t35 15.5q23 0 39 -15t16 -36v-444zM210 23q0 -23 -19.5 -42.5t-42.5 -19.5t-42.5 19.5t-19.5 42.5t19.5 42.5t42.5 19.5t42.5 -19.5t19.5 -42.5z" />
    <glyph glyph-name="quotedbl" unicode="&#x22;" horiz-adv-x="334" 
d="M286 515q0 -19 -14 -35.5t-36 -16.5q-23 0 -37 16t-14 36v135q0 19 14.5 36t36.5 17q23 0 36.5 -17t13.5 -36v-135zM149 515q0 -19 -14 -35.5t-36 -16.5q-23 0 -37 16t-14 36v135q0 19 14.5 36t36.5 17q23 0 36.5 -17t13.5 -36v-135z" />
    <glyph glyph-name="numbersign" unicode="#" horiz-adv-x="617" 
d="M591 449q0 -19 -13.5 -30.5t-30.5 -11.5h-78l-21 -150h71q15 0 28.5 -12.5t13.5 -29.5t-13.5 -29.5t-29.5 -12.5h-80l-24 -168q-6 -44 -51 -44q-19 0 -32.5 14t-11.5 31l24 167h-115l-23 -168q-6 -44 -52 -44q-19 0 -32 14t-11 31l24 167h-69q-15 0 -28.5 12t-13.5 30
t14 30t30 12h77l23 150h-71q-15 0 -29 12t-14 30t14 30t30 12h81l22 168q6 44 50 44q20 0 33.5 -14t11.5 -31l-23 -167h115l22 168q6 44 50 44q20 0 33.5 -14t11.5 -31l-24 -167h69q15 0 28.5 -12.5t13.5 -29.5zM376 407h-115l-22 -150h115z" />
    <glyph glyph-name="dollar" unicode="$" horiz-adv-x="481" 
d="M466 171q-4 -76 -53 -133q-51 -60 -135 -74v-51q0 -33 -33 -33t-33 33v47h-8q-72 4 -131.5 46.5t-58.5 81.5q1 21 16 34t33 12q9 0 59 -36.5t90 -39.5v256q-83 40 -122 80q-57 58 -53 138q3 59 51.5 107t123.5 60v52q0 14 10.5 24t22.5 10q33 0 33 -35v-50
q64 -6 113.5 -40.5t48.5 -67.5q-1 -18 -16.5 -30.5t-34.5 -11.5q-16 1 -55 29q-24 18 -56 25v-211q11 -6 32 -16q76 -39 110 -76q50 -55 46 -130zM212 427v177q-66 -15 -70 -79q-3 -53 70 -98zM364 174q5 63 -86 108v-218q80 25 86 110z" />
    <glyph glyph-name="percent" unicode="%" horiz-adv-x="728" 
d="M329 527q0 -59 -43.5 -103t-102.5 -44t-102.5 44t-43.5 103t44 102.5t102 43.5q59 0 102.5 -43.5t43.5 -102.5zM542 644l-272 -655q-11 -26 -41 -26q-18 0 -31.5 11t-13.5 29q0 9 4 19l272 656q11 26 43 26q44 0 44 -38q0 -11 -5 -22zM691 137q0 -59 -43.5 -103
t-102.5 -44t-103 44t-44 103t44 102.5t103 43.5t102.5 -43.5t43.5 -102.5zM235 526q0 27 -14.5 44t-37.5 17t-37.5 -17t-14.5 -44q0 -26 14.5 -43t37.5 -17t37.5 17t14.5 43zM596 136q0 27 -14.5 44t-37.5 17q-22 0 -36.5 -17t-14.5 -44q0 -26 14.5 -43t36.5 -17
q23 0 37.5 17t14.5 43z" />
    <glyph glyph-name="ampersand" unicode="&#x26;" horiz-adv-x="667" 
d="M630 287q-2 -44 -89 -147l83 -95q16 -19 16 -37q0 -19 -14.5 -32t-34.5 -13q-21 0 -36 17l-78 88q-85 -107 -223 -107q-91 0 -154 59q-67 63 -67 160q0 86 42 142q32 42 111 91q-23 26 -40 65.5t-16 70.5q2 69 44.5 112.5t113.5 43.5q61 0 100.5 -39.5t41.5 -96.5
q5 -121 -98 -177l143 -175q40 53 67 98q14 24 40 24q20 0 34.5 -14.5t13.5 -37.5zM331 553q-1 55 -48 56q-50 1 -50 -58q0 -42 39 -86q60 35 59 88zM413 142l-165 200q-62 -36 -86 -71t-24 -84q0 -57 31 -91q33 -38 94 -38q78 -1 150 84z" />
    <glyph glyph-name="quotesingle" unicode="'" horiz-adv-x="204" 
d="M152 515q0 -20 -13 -36t-36 -16t-37 16t-14 36v135q0 19 14.5 36t36.5 17q23 0 36 -16.5t13 -36.5v-135z" />
    <glyph glyph-name="parenleft" unicode="(" horiz-adv-x="241" 
d="M213 -49q0 -15 -10 -26q-12 -14 -33 -14q-33 0 -52 51q-59 156 -59 369q0 237 63 377q19 42 48 42q41 0 41 -40q-53 -189 -53 -379q0 -207 55 -380z" />
    <glyph glyph-name="parenright" unicode=")" horiz-adv-x="241" 
d="M187 331q0 -217 -59 -369q-20 -51 -52 -51q-21 0 -33 14q-10 11 -10 26q55 173 55 380q0 190 -53 379q0 40 41 40q32 0 52 -51q59 -152 59 -368z" />
    <glyph glyph-name="asterisk" unicode="*" horiz-adv-x="526" 
d="M467 235q0 -18 -15.5 -33t-35.5 -15q-21 0 -59 29q-21 18 -55 45q0 -13 7 -55.5t7 -63.5q0 -17 -15.5 -32.5t-37.5 -15.5t-37.5 15.5t-15.5 32.5q0 21 7 63.5t7 55.5q-17 -14 -55 -44t-59 -30q-19 0 -35 15.5t-16 32.5q0 35 33 49l95 39l-95 39q-33 14 -33 49
q0 17 16 32.5t35 15.5q24 0 59 -28q22 -18 55 -46q0 13 -7 55.5t-7 63.5q0 18 15.5 33t37.5 15t37.5 -15t15.5 -33q0 -21 -7 -63.5t-7 -55.5q17 15 55 46q35 28 59 28q20 0 35.5 -15t15.5 -33q0 -35 -33 -49l-95 -39l95 -39q33 -14 33 -49z" />
    <glyph glyph-name="plus" unicode="+" horiz-adv-x="600" 
d="M562 325q0 -23 -14.5 -35t-32.5 -12h-165v-166q0 -17 -13.5 -31.5t-36.5 -14.5t-36.5 14.5t-13.5 31.5v166h-165q-18 0 -31 11q-16 13 -16 36t16 36q13 11 31 11h165v172q0 17 13.5 31.5t36.5 14.5t36.5 -14.5t13.5 -31.5v-172h165q18 0 32.5 -12t14.5 -35z" />
    <glyph glyph-name="comma" unicode="," horiz-adv-x="250" 
d="M186 -7l-56 -110q-19 -37 -58 -37q-46 0 -46 48q0 17 9 35l56 110q20 39 55 39q11 0 20 -5q28 -15 28 -48q0 -16 -8 -32z" />
    <glyph glyph-name="hyphen" unicode="-" horiz-adv-x="465" 
d="M442 325q0 -18 -13.5 -32t-28.5 -14h-336q-14 0 -28 14t-14 32q0 17 14 32t28 15h337q14 0 27.5 -15t13.5 -32z" />
    <glyph glyph-name="period" unicode="." horiz-adv-x="250" 
d="M185 21q0 -23 -18.5 -41.5t-41.5 -18.5t-41.5 18.5t-18.5 41.5t18.5 41.5t41.5 18.5t41.5 -18.5t18.5 -41.5z" />
    <glyph glyph-name="slash" unicode="/" horiz-adv-x="407" 
d="M396 657q0 -17 -14 -48l-273 -613q-16 -35 -49 -35q-20 0 -34.5 13.5t-14.5 32.5q0 17 14 48l273 613q16 35 49 35q20 0 34.5 -13.5t14.5 -32.5z" />
    <glyph glyph-name="zero" unicode="0" horiz-adv-x="556" 
d="M533 332q0 -169 -77 -273q-73 -98 -177 -98t-176 98q-78 104 -78 273t78 273q72 98 176 98t177 -98q77 -104 77 -273zM425 332q0 138 -44 214q-40 69 -102 69t-102 -69q-44 -76 -44 -214t44 -214q40 -69 102 -69t102 69q44 76 44 214z" />
    <glyph glyph-name="one" unicode="1" horiz-adv-x="292" 
d="M227 11q0 -20 -15.5 -35t-37.5 -15q-21 0 -37 15t-16 34v582l-54 -16q-6 -2 -12 -2q-21 0 -38 14t-17 34q0 19 16 36q13 14 28 18l99 25q11 3 20 3q30 0 49 -24q15 -20 15 -41v-628z" />
    <glyph glyph-name="two" unicode="2" horiz-adv-x="513" 
d="M490 11q0 -18 -14.5 -31.5t-29.5 -13.5h-352q-54 0 -54 54q0 26 16 47l250 320q54 69 54 123q0 45 -28.5 72.5t-74.5 27.5q-112 0 -112 -141q0 -20 -17 -36.5t-38 -15.5q-44 2 -45 63q-2 91 49 153q58 71 164 71q87 0 145 -59q54 -54 56 -128q2 -81 -53 -154l-230 -305
h273q13 0 27 -15t14 -32z" />
    <glyph glyph-name="three" unicode="3" horiz-adv-x="501" 
d="M474 186q0 -101 -67.5 -163t-167.5 -62q-102 0 -164 65q-50 52 -50 108q0 45 40 51q42 6 59 -45q29 -87 115 -87q56 0 95.5 36.5t39.5 88.5q0 68 -42 101q-34 26 -86 23q-30 -1 -46.5 12.5t-16.5 33.5q0 35 52 47q105 25 105 108q0 47 -28 77t-72 30q-88 0 -95 -96
q-4 -50 -54 -50q-19 0 -32 14.5t-13 32.5q0 78 55 135t143 57q85 0 141 -58q53 -56 53 -135q0 -45 -21 -88.5t-50 -58.5q40 -9 73 -61q34 -55 34 -116z" />
    <glyph glyph-name="four" unicode="4" horiz-adv-x="539" 
d="M532 178q0 -18 -13 -32t-26 -14h-74v-123q0 -18 -16 -33t-38 -15t-34 15t-12 35v121h-254q-27 0 -41 18t-14 43q0 19 8 33l251 422q33 55 75 55q33 0 54 -19.5t21 -54.5v-405h74q13 0 26 -14t13 -32zM319 224v323l-187 -323h187z" />
    <glyph glyph-name="five" unicode="5" horiz-adv-x="478" 
d="M455 217q0 -107 -68.5 -181t-172.5 -75q-84 -1 -140 45q-46 38 -47 78q0 19 14.5 31t32.5 12q20 0 30 -14q27 -37 47 -47.5t66 -10.5q60 0 100 45q37 42 39 105t-32 104t-94 41q-29 0 -57 -10q-21 -7 -42 -15q-8 -2 -15 -2q-24 0 -36 20q-10 17 -8 36l28 269q2 24 20 37
q14 11 31 11h255q15 0 28.5 -14t13.5 -32t-13.5 -32t-27.5 -14h-216l-18 -174q25 10 81 9q83 -1 142 -68t59 -154z" />
    <glyph glyph-name="six" unicode="6" horiz-adv-x="490" 
d="M466 204q0 -101 -62 -172q-63 -74 -158 -74t-158 73.5t-63 181.5q0 143 85 281q66 106 167 191q22 19 49 19q39 0 39 -40q0 -26 -25 -47q-46 -37 -95 -97q-45 -55 -63 -90q51 16 93 13q85 -6 138 -74t53 -165zM368 205q1 71 -30.5 112t-92.5 41q-59 0 -93 -47
q-30 -42 -30 -106q0 -65 30 -110q34 -51 93 -51t92 49q30 45 31 112z" />
    <glyph glyph-name="seven" unicode="7" horiz-adv-x="460" 
d="M439 601l-243 -599q-16 -40 -52 -40q-8 0 -17 3q-31 11 -31 47q0 14 5 27l233 566h-289q-14 0 -27 14t-13 32t13.5 32t28.5 14h342q24 0 40.5 -18.5t16.5 -45.5q0 -16 -7 -32z" />
    <glyph glyph-name="eight" unicode="8" horiz-adv-x="505" 
d="M483 191q0 -94 -68.5 -162.5t-162.5 -68.5t-162.5 68.5t-68.5 162.5q0 123 106 194q-60 55 -60 134q0 74 55 129t130 55t130 -55t55 -129q0 -79 -60 -134q106 -71 106 -194zM341 519q0 41 -25 67t-64 26t-64 -26t-25 -67t25 -67.5t64 -26.5q38 0 63.5 27t25.5 67z
M387 191q0 60 -38.5 100.5t-96.5 40.5t-96.5 -40.5t-38.5 -100.5t38.5 -100t96.5 -40t96.5 40t38.5 100z" />
    <glyph glyph-name="nine" unicode="9" horiz-adv-x="479" 
d="M452 461q0 -143 -78 -287q-69 -126 -166 -203q-17 -14 -40 -14q-43 0 -43 39q0 25 24 44q88 68 170 222q-60 -30 -114 -27q-72 4 -124 67q-55 67 -55 161q0 101 59.5 170.5t154.5 69.5q91 0 150 -65q62 -68 62 -177zM354 462q0 66 -26 107q-31 46 -91 46q-55 0 -85 -46
q-27 -41 -27 -105q0 -141 111 -141q52 0 85 39.5t33 99.5z" />
    <glyph glyph-name="colon" unicode=":" horiz-adv-x="250" 
d="M187 536q0 -23 -19 -42t-43 -19t-43 19t-19 42q0 24 19 43t43 19t43 -19t19 -43zM187 145q0 -24 -19 -43t-43 -19t-43 19t-19 43q0 23 19 42t43 19t43 -19t19 -42z" />
    <glyph glyph-name="semicolon" unicode=";" horiz-adv-x="250" 
d="M187 536q0 -23 -19 -42t-43 -19t-43 19t-19 42q0 24 19 43t43 19t43 -19t19 -43zM171 120l-47 -94q-19 -37 -57 -37q-47 0 -47 47q0 18 9 36l48 94q20 39 54 39q11 0 20 -5q28 -15 28 -48q0 -15 -8 -32z" />
    <glyph glyph-name="less" unicode="&#x3c;" horiz-adv-x="569" 
d="M545 608q0 -27 -29 -45l-345 -213l349 -213q26 -16 26 -48q0 -15 -6 -25q-13 -19 -42 -19q-14 0 -25 7l-394 243q-40 25 -40 54q0 28 40 53l389 243q13 8 29 8q21 0 34.5 -12.5t13.5 -32.5z" />
    <glyph glyph-name="equal" unicode="=" horiz-adv-x="533" 
d="M488 421q0 -44 -49 -44h-346q-49 0 -49 44q0 48 49 48h346q49 0 49 -48zM488 228q0 -44 -49 -44h-346q-49 0 -49 44q0 48 49 48h346q49 0 49 -48z" />
    <glyph glyph-name="greater" unicode="&#x3e;" horiz-adv-x="569" 
d="M530 349q0 -29 -40 -54l-394 -243q-11 -7 -26 -7q-29 0 -41 19q-7 10 -7 24q0 33 27 49l349 213l-345 213q-29 18 -29 45q0 20 13.5 32.5t34.5 12.5q16 0 29 -8l389 -243q40 -25 40 -53z" />
    <glyph glyph-name="question" unicode="?" horiz-adv-x="444" 
d="M433 507q-1 -76 -49 -129t-123 -68v-102q0 -20 -13.5 -35t-35.5 -15t-36.5 15.5t-14.5 36.5v102q0 37 13 57q17 26 64 35q92 17 92 99q0 48 -32 76.5t-82 28.5q-83 0 -111 -81q-14 -41 -51 -38q-20 2 -34 19t-11 40q8 67 69 111t135 44q93 0 157 -57t63 -139zM277 23
q0 -23 -19.5 -42.5t-42.5 -19.5t-42.5 19.5t-19.5 42.5t19.5 42.5t42.5 19.5t42.5 -19.5t19.5 -42.5z" />
    <glyph glyph-name="at" unicode="@" horiz-adv-x="800" 
d="M770 396q0 -137 -87 -221q-77 -73 -168 -67q-47 3 -67 47q-8 -11 -43 -26q-42 -17 -77 -17q-64 0 -110 52.5t-46 119.5q0 102 65 179q69 81 167 82q37 0 74 -20q34 -20 44 -42l5 13q14 37 45 37q18 0 30 -13.5t12 -30.5q0 -7 -2 -13l-67 -222q-7 -23 -7 -33q0 -24 27 -24
q41 0 78.5 57.5t37.5 129.5q0 109 -81 174q-75 61 -186 60q-123 -1 -207 -83t-84 -203q0 -128 82.5 -206t213.5 -78q97 0 174 48q20 15 41 30q29 21 51 21q11 0 21.5 -9t10.5 -19q0 -48 -100 -101q-103 -55 -203 -55q-161 0 -274 107t-113 262q0 153 114.5 262t272.5 109
q147 0 251.5 -87t104.5 -220zM475 373q0 82 -68 82q-62 0 -100 -58q-33 -50 -33 -111q0 -81 73 -81q62 0 99 65q29 50 29 103z" />
    <glyph glyph-name="A" unicode="A" horiz-adv-x="612" 
d="M605 37q5 -13 5 -28q0 -35 -29 -45q-9 -3 -18 -3q-39 0 -53 39l-50 135h-307l-48 -135q-14 -39 -57 -39q-9 0 -17 3q-29 11 -29 42q0 16 7 34l226 603q22 60 71 60q48 0 71 -60zM428 226l-122 343l-122 -343h244z" />
    <glyph glyph-name="B" unicode="B" horiz-adv-x="556" 
d="M532 180q2 -90 -60 -150q-66 -63 -178 -63h-176q-21 0 -37 19t-16 39v615q0 20 16.5 38.5t39.5 18.5h161q90 0 147 -59q50 -53 51 -122q1 -55 -29 -106q-25 -44 -50 -53q16 -7 33 -13q38 -21 62 -54q34 -46 36 -110zM378 500q0 105 -107 105h-106v-214h94q52 0 85.5 31
t33.5 78zM430 179q0 55 -36 87.5t-102 32.5h-127v-240h128q62 0 99.5 32t37.5 88z" />
    <glyph glyph-name="C" unicode="C" horiz-adv-x="593" 
d="M585 72q0 -39 -72 -74q-77 -37 -171 -37q-148 0 -236 118q-80 106 -80 253q0 149 80 254q90 117 242 117q90 0 161 -44q61 -38 61 -71q0 -20 -13.5 -35.5t-31.5 -15.5q-15 0 -36 15l-28 22q-49 36 -113 36q-107 0 -166 -89q-51 -77 -51 -189q0 -111 51 -189
q59 -89 161 -89q61 0 124 33.5t75 33.5q17 0 30 -14t13 -35z" />
    <glyph glyph-name="D" unicode="D" horiz-adv-x="607" 
d="M583 336q0 -165 -80 -265q-84 -104 -228 -104h-153q-21 0 -38.5 19t-17.5 38v616q0 20 16.5 38.5t39.5 18.5h142q154 0 241 -109q78 -99 78 -252zM482 336q0 119 -48 189q-55 80 -166 80h-101v-547h107q109 0 163 85q45 73 45 193z" />
    <glyph glyph-name="E" unicode="E" horiz-adv-x="526" 
d="M491 11q0 -44 -50 -44h-322q-21 0 -37 18t-16 37v620q0 19 16 37t37 18h323q49 0 49 -46t-48 -46h-276v-224h267q48 0 48 -46q0 -23 -14.5 -35t-32.5 -12h-268v-229h277q18 0 31 -11q16 -14 16 -37z" />
    <glyph glyph-name="F" unicode="F" horiz-adv-x="507" 
d="M491 651q0 -45 -48 -45h-276v-230h258q48 0 48 -46q0 -23 -14.5 -35t-32.5 -12h-259v-272q0 -20 -14 -35t-36 -15t-37 15t-15 36v629q0 19 17 37.5t38 18.5h322q49 0 49 -46z" />
    <glyph glyph-name="G" unicode="G" horiz-adv-x="673" 
d="M643 312q3 -131 -55 -225q-78 -125 -244 -126q-151 -1 -240 117q-79 105 -79 254t80 253q90 117 246 117q102 0 186 -61q71 -52 70 -87q-1 -19 -15 -32.5t-32 -13.5q-17 0 -44 22l-34 30q-60 47 -133 47q-108 0 -169 -87q-53 -77 -53 -188q0 -114 49 -187q58 -87 170 -88
q94 -1 150 69q47 58 47 134v34h-140q-18 0 -34 12.5t-15 33.5t16.5 33.5t34.5 12.5h166q70 0 72 -74z" />
    <glyph glyph-name="H" unicode="H" horiz-adv-x="659" 
d="M594 17q0 -25 -15.5 -40.5t-38.5 -15.5q-46 0 -46 56v279h-329v-279q0 -56 -46 -56q-23 0 -38.5 15.5t-15.5 40.5v630q0 24 15.5 40t38.5 16q46 0 46 -56v-259h329v259q0 56 46 56q23 0 38.5 -16t15.5 -40v-630z" />
    <glyph glyph-name="I" unicode="I" horiz-adv-x="233" 
d="M168 12q0 -21 -14.5 -36t-36.5 -15t-36.5 15.5t-14.5 35.5v640q0 20 14.5 35.5t36.5 15.5t36.5 -15t14.5 -36v-640z" />
    <glyph glyph-name="J" unicode="J" horiz-adv-x="406" 
d="M360 154q0 -86 -48 -138q-51 -55 -142 -57q-47 -1 -98 31q-59 36 -64 88q-2 17 16.5 33t37.5 16q18 0 48.5 -34.5t65.5 -35.5q84 -1 84 97v498q0 21 14.5 36t36.5 15t35.5 -15.5t13.5 -36.5v-497z" />
    <glyph glyph-name="K" unicode="K" horiz-adv-x="562" 
d="M500 -35q-26 0 -45 19l-290 295v-270q0 -19 -15.5 -33.5t-37.5 -14.5t-34.5 15.5t-12.5 36.5v638q0 21 12.5 36.5t34.5 15.5t37.5 -14.5t15.5 -32.5v-247l267 275q20 20 43 20q20 0 34 -12.5t14 -32.5q0 -25 -19 -44l-266 -272l291 -289q19 -18 19 -41q0 -24 -14.5 -36
t-33.5 -12z" />
    <glyph glyph-name="L" unicode="L" horiz-adv-x="506" 
d="M492 11q0 -44 -50 -44h-325q-21 0 -36.5 18.5t-15.5 38.5v628q0 20 14 35.5t36 15.5t36 -15t14 -35v-594h280q18 0 31 -11q16 -14 16 -37z" />
    <glyph glyph-name="M" unicode="M" horiz-adv-x="734" 
d="M669 11q0 -20 -14 -35t-36 -15q-20 0 -35 13.5t-15 31.5v449l-149 -377q-19 -47 -53 -47t-53 47l-149 377v-449q0 -18 -15.5 -31.5t-38.5 -13.5q-21 0 -33.5 15t-12.5 36v618q0 65 57 73q50 7 74 -56l171 -441l171 441q25 64 75 56q56 -9 56 -73v-619z" />
    <glyph glyph-name="N" unicode="N" horiz-adv-x="680" 
d="M615 29q0 -27 -12 -46q-14 -22 -35 -22q-39 0 -72 50l-331 496v-497q0 -19 -14 -34t-36 -15t-36 15.5t-14 35.5v623q0 27 13 47.5t34 20.5q38 0 71 -50l333 -499v500q0 19 14 34t36 15t35.5 -15t13.5 -36v-623z" />
    <glyph glyph-name="O" unicode="O" horiz-adv-x="756" 
d="M731 331q0 -152 -104 -261.5t-249 -109.5t-249.5 109.5t-104.5 261.5t104.5 261.5t249.5 109.5t249 -109.5t104 -261.5zM628 331q0 118 -73 200t-177 82q-105 0 -177.5 -82t-72.5 -200t72.5 -199.5t177.5 -81.5q104 0 177 81.5t73 199.5z" />
    <glyph glyph-name="P" unicode="P" horiz-adv-x="576" 
d="M551 469q0 -95 -67.5 -160t-161.5 -65h-155v-234q0 -19 -15.5 -34t-36.5 -15q-22 0 -36 15.5t-14 35.5v628q0 19 16.5 38t38.5 19h190q107 0 174 -65.5t67 -162.5zM450 470q0 57 -31 92q-38 42 -110 42h-142v-268h146q62 0 99.5 37t37.5 97z" />
    <glyph glyph-name="Q" unicode="Q" horiz-adv-x="756" 
d="M731 331q0 -135 -85 -239l61 -61q10 -10 10 -23q0 -19 -18 -35.5t-39 -16.5q-18 0 -32 14l-54 54q-89 -64 -196 -64q-145 0 -249.5 109.5t-104.5 261.5t104.5 261.5t249.5 109.5t249 -109.5t104 -261.5zM628 331q0 118 -73 200t-177 82q-105 0 -177.5 -82t-72.5 -200
t72.5 -199.5t177.5 -81.5q71 0 130 40l-45 46q-14 14 -14 31q0 20 16 35.5t36 15.5q18 0 32 -14l44 -44q51 75 51 171z" />
    <glyph glyph-name="R" unicode="R" horiz-adv-x="576" 
d="M551 30q5 -11 5 -21q0 -20 -16 -33t-36 -13q-29 0 -42 27l-129 274h-11h-155v-254q0 -19 -15.5 -34t-36.5 -15q-22 0 -36 15.5t-14 35.5v628q0 19 16.5 38t38.5 19h190q108 0 174.5 -61t66.5 -157q0 -64 -33 -113.5t-87 -76.5zM450 480q0 124 -140 124h-143v-248h147
q62 0 99 33t37 91z" />
    <glyph glyph-name="S" unicode="S" horiz-adv-x="523" 
d="M506 171q-5 -94 -74 -154q-74 -65 -188 -57q-73 5 -137 47t-63 81q1 21 16 34t33 12q9 0 63.5 -36.5t95.5 -39.5q65 -5 106.5 27t45.5 89q3 41 -27 70q-21 20 -71 44q-118 56 -153 85q-80 65 -76 159q3 70 66 120q68 55 165 49q68 -4 125.5 -39.5t56.5 -69.5
q-1 -18 -16.5 -30.5t-34.5 -11.5q-16 1 -55.5 29.5t-93.5 28.5q-44 0 -73 -20q-33 -23 -35 -63q-3 -49 59 -91q5 -3 109 -57q76 -39 110 -76q50 -55 46 -130z" />
    <glyph glyph-name="T" unicode="T" horiz-adv-x="508" 
d="M503 652q1 -22 -14 -35t-32 -13h-152v-593q0 -20 -14.5 -35t-36.5 -15t-36.5 15t-14.5 35v593h-152q-17 0 -32 14t-14 34q1 18 15.5 31.5t31.5 13.5h403q18 0 32.5 -12.5t15.5 -32.5z" />
    <glyph glyph-name="U" unicode="U" horiz-adv-x="656" 
d="M591 253q0 -292 -263 -292t-263 293v398q0 21 15 36t38 15q21 0 34 -15t13 -36v-419q0 -180 163 -180t163 180v420q0 20 14.5 35t36.5 15t35.5 -15.5t13.5 -36.5v-398z" />
    <glyph glyph-name="V" unicode="V" horiz-adv-x="576" 
d="M565 623l-217 -605q-20 -57 -59 -57q-40 0 -60 57l-218 607q-5 13 -5 25q0 22 14.5 36.5t36.5 14.5q36 0 51 -44l180 -514l180 515q15 43 54 43q8 0 15 -3q33 -8 33 -50q0 -12 -5 -25z" />
    <glyph glyph-name="W" unicode="W" horiz-adv-x="834" 
d="M784 634l-101 -598q-13 -77 -71 -77q-57 0 -78 76l-118 420l-125 -420q-23 -76 -78 -76q-59 0 -71 78l-92 598q-4 23 9.5 43t36.5 24t42 -12.5t22 -40.5l63 -504l139 476q14 49 55 49q43 0 56 -49l129 -477l75 505q4 24 21 39.5t40 13.5q22 -2 36 -23.5t10 -44.5z" />
    <glyph glyph-name="X" unicode="X" horiz-adv-x="594" 
d="M569 52q16 -21 16 -41t-13 -33.5t-32 -13.5q-34 0 -55 29l-187 254l-187 -254q-21 -29 -55 -29q-19 0 -32 13.5t-13 33.5t16 41l207 281l-207 281q-13 18 -13 39q0 47 44 47q33 0 52 -26l188 -255l188 255q19 26 52 26q44 0 44 -47q0 -21 -13 -39l-207 -281z" />
    <glyph glyph-name="Y" unicode="Y" horiz-adv-x="545" 
d="M528 622l-205 -327v-285q0 -20 -14 -35.5t-36 -15.5q-23 0 -36.5 15t-13.5 36v285l-204 321q-11 17 -11 34q0 20 14.5 34t34.5 14q31 0 48 -27l168 -271l168 272q17 28 49 28q15 0 28 -7q19 -14 19 -40q0 -17 -9 -31z" />
    <glyph glyph-name="Z" unicode="Z" horiz-adv-x="595" 
d="M557 15q0 -21 -13 -34.5t-32 -13.5h-433q-28 0 -44 16.5t-16 40.5q0 25 15 47l358 533h-299q-18 0 -32 12.5t-14 33.5q0 20 14.5 33.5t33.5 13.5h365q58 0 58 -54q0 -24 -15 -47l-358 -538h368q18 0 31 -11.5t13 -31.5z" />
    <glyph glyph-name="bracketleft" unicode="[" horiz-adv-x="241" 
d="M228 -31q0 -18 -14 -32t-30 -14h-77q-23 0 -37 16.5t-14 36.5v712q0 20 14.5 36.5t37.5 16.5h77q15 0 29 -14.5t14 -32.5q0 -17 -13 -31t-25 -14h-34v-634h34q12 0 25 -14t13 -32z" />
    <glyph glyph-name="backslash" unicode="\" horiz-adv-x="407" 
d="M396 4q0 -19 -14.5 -32.5t-34.5 -13.5q-33 0 -49 35l-273 613q-14 31 -14 48q0 19 14.5 32.5t34.5 13.5q33 0 49 -35l273 -613q14 -31 14 -48z" />
    <glyph glyph-name="bracketright" unicode="]" horiz-adv-x="241" 
d="M184 -24q0 -20 -14.5 -36.5t-37.5 -16.5h-77q-15 0 -29 14.5t-14 32.5q0 17 13 31t25 14h34v634h-34q-12 0 -25 14t-13 32t14 32t30 14h77q23 0 37 -16.5t14 -36.5v-712z" />
    <glyph glyph-name="asciicircum" unicode="^" horiz-adv-x="600" 
d="M501 462q7 -11 7 -24q0 -19 -13.5 -34.5t-32.5 -15.5q-31 0 -48 30l-118 208l-109 -207q-17 -33 -53 -33q-13 0 -22 6q-21 15 -21 38q0 15 9 32l137 244q26 46 59 46t60 -45z" />
    <glyph glyph-name="underscore" unicode="_" horiz-adv-x="500" 
d="M538 -124q0 -14 -11 -24t-22 -10h-510q-11 0 -22 10t-11 24t11 24t22 10h510q11 0 22 -10t11 -24z" />
    <glyph glyph-name="grave" unicode="`" horiz-adv-x="204" 
d="M192 569q-13 -15 -38 -15q-22 0 -40 16l-92 85q-18 17 -18 40q0 45 44 45q21 0 41 -18l92 -83q20 -18 20 -44q0 -16 -9 -26z" />
    <glyph glyph-name="a" unicode="a" horiz-adv-x="587" 
d="M522 5q0 -19 -16.5 -31.5t-33.5 -12.5t-32 10q-18 12 -18 29v34q-7 -20 -53 -46q-49 -27 -90 -27q-112 0 -185 87q-70 81 -70 194t70 195q73 86 184 86q43 0 91 -25q44 -22 53 -43v32q0 15 18 26q15 10 32 10t32 -11q18 -14 18 -33v-474zM421 242q0 75 -32 126
q-39 61 -111 61t-113 -61q-35 -52 -35 -126t35 -126q41 -61 113 -61t111 61q32 51 32 126z" />
    <glyph glyph-name="b" unicode="b" horiz-adv-x="569" 
d="M548 242q0 -113 -66 -194q-70 -87 -176 -87q-48 0 -94 26q-37 20 -47 39v-26q0 -14 -16 -26.5t-37 -12.5q-22 0 -34.5 15.5t-12.5 36.5v692q0 21 12.5 36.5t34.5 15.5t37.5 -14t15.5 -31v-251q54 62 141 62q106 0 176 -86q66 -82 66 -195zM443 242q0 74 -33 127
q-39 61 -110 60q-69 -1 -109 -61q-35 -53 -35 -126q0 -74 34 -126q39 -61 110 -61q70 0 109 61q34 52 34 126z" />
    <glyph glyph-name="c" unicode="c" horiz-adv-x="473" 
d="M443 448q10 -15 10 -34q0 -26 -17 -37q-12 -8 -27 -8q-30 0 -48 25q-26 37 -81 37q-72 0 -113 -61q-35 -53 -35 -128t35 -127q40 -62 112 -62q47 0 85 35q20 18 42 18q20 0 33 -13.5t13 -30.5q0 -25 -19 -44q-57 -57 -153 -57q-118 0 -189 87q-66 79 -66 194
q0 112 66 192q72 89 189 89q53 0 101 -25q43 -22 62 -50z" />
    <glyph glyph-name="d" unicode="d" horiz-adv-x="569" 
d="M508 13q0 -21 -13 -36.5t-35 -15.5q-23 0 -37.5 12t-14.5 29v21q-8 -17 -46 -37q-47 -25 -95 -25q-107 0 -176 87q-66 81 -66 194t65 195q70 87 177 86q74 0 141 -61v250q0 17 15 31t38 14q22 0 34.5 -15.5t12.5 -36.5v-692zM417 242q0 72 -36 126q-40 60 -108 61
q-71 1 -110 -60q-33 -53 -33 -127t34 -126q39 -61 109 -61t110 61q34 52 34 126z" />
    <glyph glyph-name="e" unicode="e" horiz-adv-x="537" 
d="M511 268q0 -25 -16.5 -42t-41.5 -17h-324q4 -60 41 -103q43 -49 110 -49q48 0 79 12q26 11 65 43q16 13 35 13q15 0 26.5 -10t11.5 -26q0 -15 -11 -34q-21 -36 -75 -63q-61 -31 -133 -31q-123 0 -192 87q-62 78 -61 194q1 119 65 197q69 84 183 84q110 0 177 -81
q60 -73 61 -174zM404 301q-2 49 -35 86q-37 41 -97 41q-61 0 -99 -37t-40 -90h271z" />
    <glyph glyph-name="f" unicode="f" horiz-adv-x="355" 
d="M350 710q0 -45 -49 -45h-65q-39 0 -39 -31v-115h61q16 0 31 -14t15 -33q0 -20 -14.5 -32.5t-31.5 -12.5h-61v-416q0 -20 -14.5 -35t-36.5 -15q-23 0 -36 15t-13 36v415h-45q-18 0 -32 12.5t-14 32.5q0 19 14.5 33t31.5 14h45v124q0 51 38 84q36 30 88 30h81q18 0 32 -14
t14 -33z" />
    <glyph glyph-name="g" unicode="g" horiz-adv-x="568" 
d="M503 56q0 -116 -67 -181.5t-179 -65.5q-71 0 -139 38.5t-68 75.5q0 17 12.5 31.5t32.5 14.5q15 0 66.5 -31t97.5 -31q72 0 113 44q31 33 31 71v28q-7 -16 -47 -41q-46 -29 -84 -28q-111 2 -180 88q-64 80 -64 193t65 194q69 87 179 87q38 0 85 -26q37 -21 45 -32v21
q0 14 15.5 26t36.5 13t35 -13.5t14 -35.5v-440zM412 262q0 76 -31 127q-38 60 -109 60t-109 -60q-31 -51 -31 -127t31 -126q38 -61 109 -61t109 61q31 50 31 126z" />
    <glyph glyph-name="h" unicode="h" horiz-adv-x="570" 
d="M505 12q0 -20 -14 -35.5t-36 -15.5t-36 15t-14 35v284q0 66 -40 103q-34 31 -83 31t-80 -29q-37 -34 -37 -101v-287q0 -21 -13.5 -36t-35.5 -15t-36.5 15t-14.5 36v694q0 21 14.5 36t36.5 15t35.5 -14.5t13.5 -32.5v-249q14 24 58 41.5t86 17.5q70 0 129 -53
q67 -60 67 -155v-300z" />
    <glyph glyph-name="i" unicode="i" horiz-adv-x="241" 
d="M184 640q0 -25 -19.5 -44t-43.5 -19q-25 0 -44.5 19t-19.5 44t19.5 44t43.5 19q25 0 44.5 -19t19.5 -44zM173 11q0 -20 -16 -35t-38 -15t-36.5 15t-14.5 36v460q0 21 14.5 36t36.5 15t38 -15t16 -35v-462z" />
    <glyph glyph-name="j" unicode="j" horiz-adv-x="230" 
d="M182 640q0 -25 -19 -44t-44 -19t-44 19t-19 44t19 44t44 19t44 -19t19 -44zM166 -72q0 -54 -37 -86t-90 -32h-62q-17 0 -31.5 15t-14.5 34q0 20 13.5 33.5t34.5 13.5h48q39 0 39 34v533q0 20 15 35t38 15q22 0 34.5 -15.5t12.5 -36.5v-543z" />
    <glyph glyph-name="k" unicode="k" horiz-adv-x="463" 
d="M415 -38q-23 0 -44 21l-222 225v-200q0 -18 -14.5 -32.5t-36.5 -14.5t-35.5 15t-13.5 36v694q0 21 13.5 36t35.5 15t36.5 -15t14.5 -34v-364l207 166q19 16 42 16q21 0 34 -17q10 -13 10 -29q0 -29 -25 -49l-198 -156l227 -221q17 -17 17 -40q0 -27 -15.5 -39.5
t-32.5 -12.5z" />
    <glyph glyph-name="l" unicode="l" horiz-adv-x="233" 
d="M168 12q0 -21 -14.5 -36t-36.5 -15t-36.5 15t-14.5 36v694q0 21 14.5 36t36.5 15t36.5 -15t14.5 -36v-694z" />
    <glyph glyph-name="m" unicode="m" horiz-adv-x="834" 
d="M726 12q0 -21 -15.5 -36t-37.5 -15q-21 0 -34 15t-13 36v298q0 119 -90 119q-92 0 -92 -120v-298q0 -20 -15.5 -35t-37.5 -15q-21 0 -34 15t-13 36v298q0 119 -90 119q-40 0 -64 -30q-25 -33 -25 -90v-297q0 -20 -14 -35.5t-36 -15.5t-36 15.5t-14 35.5v459q0 21 14 37.5
t36 16.5q43 0 50 -39v-11q58 48 109 48q41 0 77 -19.5t51 -48.5q14 25 52 45q44 23 99 23q71 0 118 -47q55 -56 55 -160v-304z" />
    <glyph glyph-name="n" unicode="n" horiz-adv-x="579" 
d="M514 15q0 -21 -14.5 -38.5t-37.5 -17.5q-22 0 -35 17t-13 39v283q0 59 -37 95t-89 36q-47 0 -85 -40.5t-38 -93.5v-280q0 -22 -13.5 -39t-37.5 -17t-36.5 17t-12.5 39v454q0 21 14 38.5t35 17.5q24 0 39 -17q12 -14 12 -28v-19q10 15 44 34q46 27 93 28q65 1 125 -41
q87 -61 87 -184v-283z" />
    <glyph glyph-name="o" unicode="o" horiz-adv-x="588" 
d="M563 243q0 -115 -79.5 -198.5t-189.5 -83.5t-189.5 83.5t-79.5 198.5t79.5 198.5t189.5 83.5t189.5 -83.5t79.5 -198.5zM462 243q0 82 -48.5 138t-119.5 56t-120 -56t-49 -138t49 -138t120 -56t119.5 56t48.5 138z" />
    <glyph glyph-name="p" unicode="p" horiz-adv-x="570" 
d="M546 255q0 -113 -64 -193q-69 -85 -176 -85q-81 0 -140 63v-188q0 -17 -15 -33.5t-36 -16.5q-22 0 -35.5 14.5t-13.5 35.5v630q0 21 13.5 36t35.5 15q21 0 35.5 -12.5t14.5 -27.5v-27q15 21 56 43q46 24 86 24q107 0 175 -85q64 -80 64 -193zM443 255q0 74 -32 125
q-39 59 -111 59t-110 -59q-33 -51 -33 -125t33 -125q38 -59 110 -59t111 59q32 51 32 125z" />
    <glyph glyph-name="q" unicode="q" horiz-adv-x="570" 
d="M506 -149q0 -20 -14 -34.5t-36 -14.5q-21 0 -35.5 16t-14.5 33v188q-66 -62 -140 -62q-107 0 -176 85q-64 80 -64 193t64 193q68 85 175 85q41 0 84 -22q39 -20 57 -43v26q0 13 15 26t36 13q22 0 35.5 -15.5t13.5 -36.5v-630zM415 255q0 74 -32 125q-39 59 -111 59
t-110 -59q-33 -51 -33 -125t33 -125q38 -59 110 -59t111 59q32 51 32 125z" />
    <glyph glyph-name="r" unicode="r" horiz-adv-x="381" 
d="M383 474q0 -46 -70 -54q-53 -6 -94 -38q-54 -42 -54 -113v-258q0 -20 -14 -35t-36 -15t-36 15.5t-14 35.5v460q0 20 14 35.5t36 15.5q20 0 35 -13t15 -23l-1 -34q10 14 61 41q60 32 94 31q64 -2 64 -51z" />
    <glyph glyph-name="s" unicode="s" horiz-adv-x="441" 
d="M412 127q2 -83 -55 -127q-51 -39 -134 -39q-82 0 -143 43q-55 39 -55 81q0 19 18 30q14 10 32 10q14 0 35 -17q13 -12 27 -24q44 -28 90 -28q86 0 86 61q0 34 -45 62q-20 13 -81 38q-137 57 -137 150q0 73 55 117q50 41 124 39q61 -1 119 -34t60 -72q1 -18 -13 -32
t-37 -12q-16 2 -57 30.5t-81 28.5q-69 0 -69 -59q0 -38 77 -69q84 -34 119 -61q63 -48 65 -116z" />
    <glyph glyph-name="t" unicode="t" horiz-adv-x="331" 
d="M309 9q0 -18 -16 -30.5t-37 -12.5h-27q-50 0 -84.5 34.5t-34.5 87.5v338l-43 -1q-24 -1 -39 13t-14 34q1 18 13.5 31.5t30.5 13.5h52v113q0 19 14 34t36 15t35.5 -15t13.5 -34v-113h51q18 0 31 -13.5t13 -32.5t-13 -32.5t-31 -13.5h-51v-329q0 -19 6 -26.5t29 -7.5h21
q21 0 32.5 -16t11.5 -37z" />
    <glyph glyph-name="u" unicode="u" horiz-adv-x="553" 
d="M487 178q0 -110 -64 -167q-56 -50 -146 -50t-147 50q-65 57 -65 167v293q0 21 14.5 36.5t36.5 15.5t36 -15.5t14 -35.5v-282q0 -71 26 -103.5t85 -32.5t85 32.5t26 103.5v282q0 21 13.5 36t36.5 15q22 0 35.5 -15.5t13.5 -36.5v-293z" />
    <glyph glyph-name="v" unicode="v" horiz-adv-x="457" 
d="M440 448l-156 -436q-18 -51 -55 -51q-38 0 -56 51l-157 439q-4 12 -4 23q0 20 13.5 35.5t33.5 15.5q42 0 56 -42l114 -342l113 342q14 42 58 42q20 0 32.5 -14.5t12.5 -35.5q0 -13 -5 -27z" />
    <glyph glyph-name="w" unicode="w" horiz-adv-x="722" 
d="M685 446l-105 -432q-13 -53 -62 -53q-40 0 -57 52l-101 310l-100 -310q-17 -52 -58 -52q-48 0 -61 53l-103 430q-3 12 -3 22q0 24 14.5 39t38.5 15q43 0 54 -54l63 -321l91 281q22 67 64 67q44 0 65 -67l90 -282l68 323q11 54 53 54q23 0 37.5 -15.5t14.5 -39.5
q0 -10 -3 -20z" />
    <glyph glyph-name="x" unicode="x" horiz-adv-x="494" 
d="M455 436l-146 -196l144 -194q15 -20 15 -39t-14 -31t-34 -12q-26 0 -42 22l-130 174l-130 -174q-17 -23 -43 -23q-20 0 -34.5 13t-14.5 33q0 18 14 37l147 196l-145 194q-15 20 -15 39t14.5 32.5t33.5 13.5q25 0 42 -23l131 -176l132 176q16 21 42 21q19 0 33.5 -12.5
t14.5 -31.5t-15 -39z" />
    <glyph glyph-name="y" unicode="y" horiz-adv-x="444" 
d="M434 460l-217 -620q-13 -36 -50 -36q-46 0 -46 49q0 10 3 18l49 143l-157 440q-4 11 -4 21q0 20 14 34t34 14q37 0 50 -37l115 -336l113 335q13 37 49 37q8 0 15 -2q34 -11 34 -47q0 -6 -2 -13z" />
    <glyph glyph-name="z" unicode="z" horiz-adv-x="466" 
d="M453 12q0 -20 -14 -32.5t-35 -12.5h-339q-50 0 -50 54q0 25 13 43l263 362h-206q-18 0 -31 13.5t-13 32.5q0 20 13.5 33t34.5 13h283q23 0 36.5 -16t13.5 -38t-13 -40l-263 -365h262q18 0 31.5 -14t13.5 -33z" />
    <glyph glyph-name="braceleft" unicode="{" horiz-adv-x="302" 
d="M298 -36q0 -39 -48 -39h-41q-51 0 -78.5 31t-27.5 83v123q0 64 -6 87q-8 31 -34 39q-51 15 -51 46q0 33 51 46q26 7 34 39q6 22 6 87v124q0 113 110 113h41q44 0 44 -39t-43 -39h-14q-43 0 -43 -46v-160q0 -46 -16 -76q-11 -22 -32 -36l-24 -14q33 -23 41 -32
q31 -36 31 -92v-160q0 -46 44 -46h14q42 0 42 -39z" />
    <glyph glyph-name="bar" unicode="|" horiz-adv-x="222" 
d="M161 -17q0 -18 -13.5 -32.5t-36.5 -14.5t-36.5 14.5t-13.5 32.5v702q0 18 13.5 32.5t36.5 14.5t36.5 -14.5t13.5 -32.5v-702z" />
    <glyph glyph-name="braceright" unicode="}" horiz-adv-x="302" 
d="M295 331q0 -31 -51 -46q-26 -8 -34 -39q-6 -23 -6 -87v-123q0 -52 -27.5 -83t-78.5 -31h-41q-48 0 -48 39t42 39h14q44 0 44 46v160q0 56 31 92q8 9 41 32l-24 14q-21 14 -32 36q-16 30 -16 76v160q0 46 -43 46h-14q-43 0 -43 39t44 39h41q110 0 110 -113v-124
q0 -65 6 -87q8 -32 34 -39q51 -13 51 -46z" />
    <glyph glyph-name="asciitilde" unicode="~" horiz-adv-x="600" 
d="M549 365q0 -46 -45.5 -85t-94.5 -39q-52 0 -122.5 31.5t-87.5 31.5q-18 0 -46 -34q-25 -37 -58 -36q-18 0 -31 15t-13 26q0 46 46 86t94 40q52 0 122.5 -31.5t88.5 -31.5q22 0 45 31q27 37 58 36q18 0 31 -15t13 -25z" />
    <glyph glyph-name="uni007F" horiz-adv-x="50" 
 />
    <glyph glyph-name="uni0081" horiz-adv-x="400" 
d="M279 325q0 -32 -23 -55t-55 -23t-55 23t-23 55q0 33 23 56t55 23t55 -23t23 -56z" />
    <glyph glyph-name="uni0082" horiz-adv-x="799" 
d="M650 305h-500v50h500v-50z" />
    <glyph glyph-name="uni0082" unicode="&#x2013;" horiz-adv-x="799" 
d="M650 305h-500v50h500v-50z" />
    <glyph glyph-name="uni0083" horiz-adv-x="1000" 
d="M494 682q-179 0 -285 -119q-95 -107 -95 -262q0 -154 95 -261q106 -119 285 -119q180 0 286 119q95 107 95 261q0 155 -95 262q-106 119 -286 119zM494 -50q-166 0 -263 110q-88 99 -88 241q0 143 88 242q97 110 263 110t264 -110q87 -99 87 -242q0 -142 -87 -241
q-98 -110 -264 -110zM605 538q4 -1 8 -1q14 0 26 18q6 10 12 19q18 3 18 -2l6 -186q-7 -3 -22 -4q-18 45 -36 89q-46 87 -121 80q-68 -5 -97 -72t-24 -215q8 -209 134 -209q63 0 102 39t46 112q1 6 10 6q15 0 14 -12q-21 -168 -175 -175q-93 -4 -166 67.5t-81 173.5
q-8 121 58 210t168 100q38 4 83 -17q39 -19 37 -21z" />
    <glyph glyph-name="uni0083" unicode="&#xa9;" horiz-adv-x="1000" 
d="M494 682q-179 0 -285 -119q-95 -107 -95 -262q0 -154 95 -261q106 -119 285 -119q180 0 286 119q95 107 95 261q0 155 -95 262q-106 119 -286 119zM494 -50q-166 0 -263 110q-88 99 -88 241q0 143 88 242q97 110 263 110t264 -110q87 -99 87 -242q0 -142 -87 -241
q-98 -110 -264 -110zM605 538q4 -1 8 -1q14 0 26 18q6 10 12 19q18 3 18 -2l6 -186q-7 -3 -22 -4q-18 45 -36 89q-46 87 -121 80q-68 -5 -97 -72t-24 -215q8 -209 134 -209q63 0 102 39t46 112q1 6 10 6q15 0 14 -12q-21 -168 -175 -175q-93 -4 -166 67.5t-81 173.5
q-8 121 58 210t168 100q38 4 83 -17q39 -19 37 -21z" />
    <glyph glyph-name="uni0084" 
d="M900 -196h-900v32h900v-32z" />
    <glyph glyph-name="uni0084" unicode="&#xff3f;" 
d="M900 -196h-900v32h900v-32z" />
    <glyph glyph-name="ydieresis" unicode="&#xff;" 
d="M328 325q0 -32 -23 -55t-55 -23t-55 23t-23 55q0 33 23 56t55 23t55 -23t23 -56zM526 325q0 -32 -23 -55t-55 -23t-55 23t-23 55q0 33 23 56t55 23t55 -23t23 -56zM726 325q0 -32 -23 -55t-55 -23t-55 23t-23 55q0 33 23 56t55 23t55 -23t23 -56z" />
    <glyph glyph-name="uniAC00" unicode="&#xac00;" 
d="M847 268h-128v-324q0 -40 -50 -40t-50 40v709q0 38 51 38q49 0 49 -38v-293h128q32 0 32 -46t-32 -46zM483 456q-13 -109 -65 -194q-91 -150 -281 -189q-7 -1 -13 -1q-22 0 -34 14t-12 34q0 38 33 50q84 1 166 73q97 87 100 220h-274q-38 0 -38 45q0 47 41 47h309
q69 0 69 -80q0 -9 -1 -19z" />
    <glyph glyph-name="uniAC01" unicode="&#xac01;" 
d="M847 390h-127v-154q0 -37 -50 -37q-51 0 -51 37v416q0 38 51 38q50 0 50 -38v-169h127q32 0 32 -46q0 -47 -32 -47zM462 549q-5 -92 -62 -178q-88 -132 -266 -171q-27 -2 -42 12t-15 35q0 36 34 48q77 6 152 67q92 74 95 183l-240 -1q-46 0 -46 49q0 43 34 43h288
q73 0 68 -87zM712 -135q0 -40 -52 -40q-49 0 -49 36v194h-409q-33 0 -33 46q0 47 35 47h434q74 0 74 -85v-198z" />
    <glyph glyph-name="uniAC04" unicode="&#xac04;" 
d="M847 350h-127v-215q0 -38 -51 -38q-50 0 -50 37v518q0 38 51 38q50 0 50 -37v-210h127q32 0 32 -46q0 -47 -32 -47zM466 519q-5 -91 -64 -178q-90 -132 -268 -171q-27 -2 -42 12.5t-15 35.5q0 37 34 49q78 6 153 65q92 73 95 182h-247q-42 0 -42 43q0 19 11 34t29 15h284
q77 0 72 -87zM698 -68q34 0 34 -46q0 -48 -36 -48h-426q-29 0 -55 20.5t-26 51.5v201q0 41 53 41q48 0 48 -36v-184h408z" />
    <glyph glyph-name="uniAC07" unicode="&#xac07;" 
d="M847 390h-127v-154q0 -37 -50 -37q-51 0 -51 37v416q0 38 51 38q50 0 50 -38v-169h127q32 0 32 -46q0 -47 -32 -47zM462 549q-5 -92 -62 -178q-88 -132 -266 -171q-27 -2 -42 12t-15 35q0 36 34 48q77 6 152 67q92 74 95 183l-240 -1q-46 0 -46 49q0 43 34 43h288
q73 0 68 -87zM684 59h-413v-132h412q33 0 33 -45q0 -47 -35 -47h-447q-22 0 -42.5 19t-20.5 44v194q0 21 20 40.5t42 19.5h447q16 0 25.5 -15t9.5 -35q0 -43 -31 -43z" />
    <glyph glyph-name="uniAC08" unicode="&#xac08;" 
d="M847 390h-127v-154q0 -37 -50 -37q-51 0 -51 37v416q0 38 51 38q50 0 50 -38v-169h127q32 0 32 -46q0 -47 -32 -47zM462 549q-5 -92 -62 -178q-88 -132 -266 -171q-27 -2 -42 12t-15 35q0 36 34 48q77 6 152 67q92 74 95 183l-240 -1q-46 0 -46 49q0 43 34 43h288
q73 0 68 -87zM700 32q0 -67 -72 -67h-344v-49h395q33 0 33 -45q0 -47 -35 -47h-411q-34 0 -57 16q-27 18 -27 53v97q0 23 21 41t41 18h353v49h-382q-34 0 -34 45q0 47 36 47h418q34 0 52 -27q13 -21 13 -43v-88z" />
    <glyph glyph-name="uniAC09" unicode="&#xac09;" 
d="M847 390h-127v-154q0 -37 -50 -37q-51 0 -51 37v416q0 38 51 38q50 0 50 -38v-169h127q32 0 32 -46q0 -47 -32 -47zM462 549q-5 -92 -62 -178q-88 -132 -266 -171q-27 -2 -42 12t-15 35q0 36 34 48q77 6 152 67q92 74 95 183l-240 -1q-46 0 -46 49q0 43 34 43h288
q73 0 68 -87zM705 -136q0 -39 -52 -39q-50 0 -50 36v229h-142q-19 0 -28 21v-84q0 -64 -70 -64h-109v-45h159q33 0 33 -43q0 -45 -36 -45h-167q-36 0 -60 16q-28 18 -28 53v95q0 23 21 40t40 17h119v43h-146q-33 0 -33 43q0 47 38 47h170q49 0 65 -46q2 45 36 45h162
q78 0 78 -85v-234z" />
    <glyph glyph-name="uniAC0A" unicode="&#xac0a;" 
d="M847 390h-127v-154q0 -37 -50 -37q-51 0 -51 37v416q0 38 51 38q50 0 50 -38v-169h127q32 0 32 -46q0 -47 -32 -47zM462 549q-5 -92 -62 -178q-88 -132 -266 -171q-27 -2 -42 12t-15 35q0 36 34 48q77 6 152 67q92 74 95 183l-240 -1q-46 0 -46 49q0 43 34 43h288
q73 0 68 -87zM715 -99q0 -28 -19 -47.5t-48 -19.5h-127q-30 0 -50 19t-20 47v216q0 28 20 47.5t49 19.5h128q26 0 46.5 -22t20.5 -45v-215zM433 27q0 -64 -70 -64h-109v-45h159q33 0 33 -43q0 -45 -36 -45h-167q-36 0 -60 16q-28 18 -28 53v95q0 23 21 40t40 17h119v43h-146
q-33 0 -33 43q0 47 38 47h170q37 0 56 -28q13 -19 13 -43v-86zM613 -74v165h-62v-165h62z" />
    <glyph glyph-name="uniAC10" unicode="&#xac10;" 
d="M847 390h-127v-154q0 -37 -50 -37q-51 0 -51 37v416q0 38 51 38q50 0 50 -38v-169h127q32 0 32 -46q0 -47 -32 -47zM462 549q-5 -92 -62 -178q-88 -132 -266 -171q-27 -2 -42 12t-15 35q0 36 34 48q77 6 152 67q92 74 95 183l-240 -1q-46 0 -46 49q0 43 34 43h288
q73 0 68 -87zM713 -99q0 -28 -18.5 -47.5t-46.5 -19.5h-408q-28 0 -45.5 19.5t-17.5 47.5v182q0 28 17.5 47.5t45.5 19.5h408q25 0 45 -22t20 -45v-182zM611 -74v132h-334v-132h334z" />
    <glyph glyph-name="uniAC11" unicode="&#xac11;" 
d="M847 390h-127v-154q0 -37 -50 -37q-51 0 -51 37v416q0 38 51 38q50 0 50 -38v-169h127q32 0 32 -46q0 -47 -32 -47zM462 549q-5 -92 -62 -178q-88 -132 -266 -171q-27 -2 -42 12t-15 35q0 36 34 48q77 6 152 67q92 74 95 183l-240 -1q-46 0 -46 49q0 43 34 43h288
q73 0 68 -87zM715 -79q0 -87 -73 -87h-389q-33 0 -52 29q-16 24 -16 55v230q0 38 52 38q48 0 48 -34v-70h331v73q0 35 49 35q50 0 50 -36v-233zM616 -73v64h-331v-64h331z" />
    <glyph glyph-name="uniAC12" unicode="&#xac12;" 
d="M847 390h-127v-154q0 -37 -50 -37q-51 0 -51 37v416q0 38 51 38q50 0 50 -38v-169h127q32 0 32 -46q0 -47 -32 -47zM462 549q-5 -92 -62 -178q-88 -132 -266 -171q-27 -2 -42 12t-15 35q0 36 34 48q77 6 152 67q92 74 95 183l-240 -1q-46 0 -46 49q0 43 34 43h288
q73 0 68 -87zM743 -93q12 -17 12 -33q0 -21 -18.5 -35.5t-39.5 -14.5q-17 0 -26 10q-48 29 -76 90q-25 -57 -77 -89q-16 -10 -32 -10q-37 0 -50 35q-18 -30 -61 -30h-146q-68 0 -68 78v241q0 38 52 38q48 0 48 -34v-85h87v88q0 34 49 34q50 0 50 -35v-242q43 20 69 59
q29 43 29 97v84q0 39 51 39q50 0 50 -37v-86q0 -108 97 -162zM348 -77v53h-87v-53h87z" />
    <glyph glyph-name="uniAC13" unicode="&#xac13;" 
d="M847 350h-127v-215q0 -38 -51 -38q-50 0 -50 37v518q0 38 51 38q50 0 50 -37v-210h127q32 0 32 -46q0 -47 -32 -47zM466 519q-5 -91 -64 -178q-90 -132 -268 -171q-27 -2 -42 12.5t-15 35.5q0 37 34 49q78 6 153 65q92 73 95 182h-247q-42 0 -42 43q0 19 11 34t29 15h284
q77 0 72 -87zM702 -94q15 -15 15 -34q0 -21 -17 -38t-40 -17q-13 0 -25 7q-43 17 -107 65q-67 50 -78 75q-11 -24 -80 -75q-65 -47 -106 -65q-14 -6 -28 -6q-24 0 -40 16t-16 36q0 22 19 36q201 72 201 190v57q0 38 51 38q49 0 49 -36v-58q0 -116 202 -191z" />
    <glyph glyph-name="uniAC14" unicode="&#xac14;" 
d="M847 390h-127v-154q0 -37 -50 -37q-51 0 -51 37v416q0 38 51 38q50 0 50 -38v-169h127q32 0 32 -46q0 -47 -32 -47zM462 549q-5 -92 -62 -178q-88 -132 -266 -171q-27 -2 -42 12t-15 35q0 36 34 48q77 6 152 67q92 74 95 183l-240 -1q-46 0 -46 49q0 43 34 43h288
q73 0 68 -87zM746 -93q12 -17 12 -33q0 -21 -18.5 -35.5t-39.5 -14.5q-17 0 -26 10q-22 14 -49.5 43t-37.5 49q-7 -18 -50 -58q-53 -48 -89 -48q-31 0 -83 48q-40 38 -51 58q-10 -20 -37.5 -49.5t-49.5 -43.5q-16 -10 -32 -10q-22 0 -37.5 15t-15.5 36q0 18 12 34
q45 20 76 61q33 45 33 99v77q0 39 51 39q50 0 50 -37v-78q0 -93 87 -147q85 51 85 146v78q0 38 51 38q50 0 50 -37v-79q0 -102 109 -161z" />
    <glyph glyph-name="uniAC15" unicode="&#xac15;" 
d="M847 390h-127v-154q0 -37 -50 -37q-51 0 -51 37v416q0 38 51 38q50 0 50 -38v-169h127q32 0 32 -46q0 -47 -32 -47zM462 549q-5 -92 -62 -178q-88 -132 -266 -171q-27 -2 -42 12t-15 35q0 36 34 48q77 6 152 67q92 74 95 183l-240 -1q-46 0 -46 49q0 43 34 43h288
q73 0 68 -87zM695 16q0 -85 -63.5 -147.5t-149.5 -62.5t-149.5 62.5t-63.5 147.5t63.5 148t149.5 63t149.5 -63t63.5 -148zM598 16q0 49 -33 81.5t-83 32.5t-83 -32.5t-33 -81.5t33 -81.5t83 -32.5t83 32.5t33 81.5z" />
    <glyph glyph-name="uniAC16" unicode="&#xac16;" 
d="M847 390h-127v-154q0 -37 -50 -37q-51 0 -51 37v416q0 38 51 38q50 0 50 -38v-169h127q32 0 32 -46q0 -47 -32 -47zM462 549q-5 -92 -62 -178q-88 -132 -266 -171q-27 -2 -42 12t-15 35q0 36 34 48q77 6 152 67q92 74 95 183l-240 -1q-46 0 -46 49q0 43 34 43h288
q73 0 68 -87zM707 -95q15 -15 15 -34q0 -21 -17 -37t-39 -16q-14 0 -26 7q-44 18 -109 63q-70 49 -81 73q-11 -23 -83 -73q-65 -44 -108 -63q-14 -6 -29 -6q-23 0 -39 15t-16 35q0 22 19 36q185 65 204 161h-168q-41 0 -41 46q0 45 41 45h444q42 0 42 -45q0 -46 -42 -46
h-172q17 -92 205 -161z" />
    <glyph glyph-name="uniAC17" unicode="&#xac17;" 
d="M847 390h-127v-154q0 -37 -50 -37q-51 0 -51 37v416q0 38 51 38q50 0 50 -38v-169h127q32 0 32 -46q0 -47 -32 -47zM462 549q-5 -92 -62 -178q-88 -132 -266 -171q-27 -2 -42 12t-15 35q0 36 34 48q77 6 152 67q92 74 95 183l-240 -1q-46 0 -46 49q0 43 34 43h288
q73 0 68 -87zM702 -94q15 -15 15 -34q0 -21 -17.5 -38t-40.5 -17q-13 0 -25 7q-43 17 -108 64.5t-76 72.5q-10 -24 -80 -73q-65 -46 -107 -64q-14 -6 -28 -6q-24 0 -39.5 15.5t-15.5 36.5q0 22 19 36q152 54 190 135h-175q-41 0 -41 46q0 45 41 45h186v56q0 44 51 44
q49 0 49 -42v-58h185q42 0 42 -45q0 -46 -42 -46h-173q36 -79 190 -135z" />
    <glyph glyph-name="uniAC19" unicode="&#xac19;" 
d="M847 390h-127v-154q0 -37 -50 -37q-51 0 -51 37v416q0 38 51 38q50 0 50 -38v-169h127q32 0 32 -46q0 -47 -32 -47zM462 549q-5 -92 -62 -178q-88 -132 -266 -171q-27 -2 -42 12t-15 35q0 36 34 48q77 6 152 67q92 74 95 183l-240 -1q-46 0 -46 49q0 43 34 43h288
q73 0 68 -87zM686 78h-408v-35h403q29 0 29 -41t-29 -41h-403v-35h407q33 0 33 -46q0 -47 -35 -47h-443q-21 0 -42 19t-21 43v215q0 22 20 41t42 19h443q16 0 25.5 -15t9.5 -35q0 -42 -31 -42z" />
    <glyph glyph-name="uniAC1A" unicode="&#xac1a;" 
d="M847 390h-127v-154q0 -37 -50 -37q-51 0 -51 37v416q0 38 51 38q50 0 50 -38v-169h127q32 0 32 -46q0 -47 -32 -47zM462 549q-5 -92 -62 -178q-88 -132 -266 -171q-27 -2 -42 12t-15 35q0 36 34 48q77 6 152 67q92 74 95 183l-240 -1q-46 0 -46 49q0 43 34 43h288
q73 0 68 -87zM676 -164h-456q-41 0 -41 46q0 45 41 45h67v117q0 14 8 24h-69q-41 0 -41 46q0 45 41 45h444q42 0 42 -45q0 -46 -42 -46h-68q8 -10 8 -24v-117h66q42 0 42 -45q0 -46 -42 -46zM518 68h-139q8 -10 8 -24v-117h122v117q0 14 9 24z" />
    <glyph glyph-name="uniAC1B" unicode="&#xac1b;" 
d="M847 390h-127v-154q0 -37 -50 -37q-51 0 -51 37v416q0 38 51 38q50 0 50 -38v-169h127q32 0 32 -46q0 -47 -32 -47zM462 549q-5 -92 -62 -178q-88 -132 -266 -171q-27 -2 -42 12t-15 35q0 36 34 48q77 6 152 67q92 74 95 183l-240 -1q-46 0 -46 49q0 43 34 43h288
q73 0 68 -87zM680 70h-62q36 -40 36 -95q0 -74 -59 -122.5t-141 -48.5q-83 0 -142 48.5t-59 122.5q0 55 36 95h-73q-38 0 -38 46q0 45 41 45h182v38q0 21 15 33t36 12t36 -12t15 -33v-38h177q41 0 41 -45q0 -46 -41 -46zM553 -24q0 38 -27 60.5t-72 22.5t-72.5 -22.5
t-27.5 -60.5t28 -60.5t72 -22.5t71.5 22.5t27.5 60.5z" />
    <glyph glyph-name="uniAC1C" unicode="&#xac1c;" 
d="M787 -56q0 -40 -51 -40t-51 40v344h-94v-344q0 -40 -50 -40q-51 0 -51 40v709q0 38 51 38q50 0 50 -38v-273h94v273q0 38 52 38q50 0 50 -38v-709zM434 466q-5 -92 -59 -188q-80 -145 -235 -203q-28 -4 -44 11t-16 38q0 37 32 48q70 16 141 98q80 93 77 193h-227
q-33 0 -33 45q0 47 36 47h258q75 0 70 -89z" />
    <glyph glyph-name="uniAC1D" unicode="&#xac1d;" 
d="M787 238q0 -41 -50 -41q-21 0 -36.5 11t-15.5 30v153h-94v-139q0 -41 -50 -41q-20 0 -35.5 11t-15.5 30v399q0 19 15.5 29.5t36.5 10.5q49 0 49 -39v-169h94v168q0 19 15.5 29.5t36.5 10.5q50 0 50 -39v-414zM433 549q-5 -79 -66 -172q-84 -127 -229 -175
q-28 -4 -44 10.5t-16 36.5q0 34 32 46q67 11 141 87q80 83 80 162h-221q-44 0 -44 46t42 46h256q74 0 69 -87zM769 -135q0 -40 -52 -40q-49 0 -49 36v194h-409q-33 0 -33 46q0 47 35 47h434q74 0 74 -85v-198z" />
    <glyph glyph-name="uniAC20" unicode="&#xac20;" 
d="M787 138q0 -41 -50 -41q-21 0 -36.5 11t-15.5 30v210h-94v-210q0 -41 -50 -41q-20 0 -35.5 11t-15.5 30v514q0 39 52 39q49 0 49 -38v-213h94v212q0 39 52 39q50 0 50 -38v-515zM434 519q-5 -79 -66 -172q-84 -126 -229 -174q-28 -2 -45 13.5t-17 37.5q0 33 32 45
q67 11 140 86q79 81 79 160l-220 -1q-41 0 -41 43q0 19 11 34t28 15h257q76 0 71 -87zM745 -68q34 0 34 -46q0 -48 -36 -48h-426q-29 0 -55 20.5t-26 51.5v201q0 41 53 41q48 0 48 -36v-184h408z" />
    <glyph glyph-name="uniAC24" unicode="&#xac24;" 
d="M787 238q0 -41 -50 -41q-21 0 -36.5 11t-15.5 30v153h-94v-139q0 -41 -50 -41q-20 0 -35.5 11t-15.5 30v399q0 19 15.5 29.5t36.5 10.5q49 0 49 -39v-169h94v168q0 19 15.5 29.5t36.5 10.5q50 0 50 -39v-414zM433 549q-5 -79 -66 -172q-84 -127 -229 -175
q-28 -4 -44 10.5t-16 36.5q0 34 32 46q67 11 141 87q80 83 80 162h-221q-44 0 -44 46t42 46h256q74 0 69 -87zM770 32q0 -67 -72 -67h-344v-49h395q33 0 33 -45q0 -47 -35 -47h-411q-34 0 -57 16q-27 18 -27 53v97q0 23 21 41t41 18h353v49h-382q-34 0 -34 45q0 47 36 47
h418q34 0 52 -27q13 -21 13 -43v-88z" />
    <glyph glyph-name="uniAC2C" unicode="&#xac2c;" 
d="M787 238q0 -41 -50 -41q-21 0 -36.5 11t-15.5 30v153h-94v-139q0 -41 -50 -41q-20 0 -35.5 11t-15.5 30v399q0 19 15.5 29.5t36.5 10.5q49 0 49 -39v-169h94v168q0 19 15.5 29.5t36.5 10.5q50 0 50 -39v-414zM433 549q-5 -79 -66 -172q-84 -127 -229 -175
q-28 -4 -44 10.5t-16 36.5q0 34 32 46q67 11 141 87q80 83 80 162h-221q-44 0 -44 46t42 46h256q74 0 69 -87zM771 -99q0 -28 -18.5 -47.5t-46.5 -19.5h-408q-28 0 -45.5 19.5t-17.5 47.5v182q0 28 17.5 47.5t45.5 19.5h408q25 0 45 -22t20 -45v-182zM669 -74v132h-334v-132
h334z" />
    <glyph glyph-name="uniAC2D" unicode="&#xac2d;" 
d="M787 238q0 -41 -50 -41q-21 0 -36.5 11t-15.5 30v153h-94v-139q0 -41 -50 -41q-20 0 -35.5 11t-15.5 30v399q0 19 15.5 29.5t36.5 10.5q49 0 49 -39v-169h94v168q0 19 15.5 29.5t36.5 10.5q50 0 50 -39v-414zM433 549q-5 -79 -66 -172q-84 -127 -229 -175
q-28 -4 -44 10.5t-16 36.5q0 34 32 46q67 11 141 87q80 83 80 162h-221q-44 0 -44 46t42 46h256q74 0 69 -87zM774 -79q0 -87 -73 -87h-389q-33 0 -52 29q-16 24 -16 55v230q0 38 52 38q48 0 48 -34v-70h331v73q0 35 49 35q50 0 50 -36v-233zM675 -73v64h-331v-64h331z" />
    <glyph glyph-name="uniAC2F" unicode="&#xac2f;" 
d="M787 138q0 -41 -50 -41q-21 0 -36.5 11t-15.5 30v210h-94v-164q0 -41 -50 -41q-12 0 -22 3v-49q0 -116 202 -191q15 -15 15 -34q0 -21 -17 -38t-40 -17q-13 0 -25 7q-42 17 -108 66.5t-77 74.5q-11 -24 -80 -75q-65 -48 -106 -66q-14 -6 -28 -6q-24 0 -40 16t-16 36
q0 22 19 36q201 72 201 190v57q0 38 51 38q11 0 20 -3v464q0 39 52 39q49 0 49 -38v-213h94v212q0 39 52 39q50 0 50 -38v-515zM434 519q-5 -79 -66 -172q-84 -126 -229 -174q-28 -2 -45 13.5t-17 37.5q0 33 32 45q67 11 140 86q79 81 79 160l-220 -1q-41 0 -41 43
q0 19 11 34t28 15h257q76 0 71 -87z" />
    <glyph glyph-name="uniAC30" unicode="&#xac30;" 
d="M787 238q0 -41 -50 -41q-21 0 -36.5 11t-15.5 30v153h-94v-139q0 -41 -50 -41q-20 0 -35.5 11t-15.5 30v399q0 19 15.5 29.5t36.5 10.5q49 0 49 -39v-169h94v168q0 19 15.5 29.5t36.5 10.5q50 0 50 -39v-414zM433 549q-5 -79 -66 -172q-84 -127 -229 -175
q-28 -4 -44 10.5t-16 36.5q0 34 32 46q67 11 141 87q80 83 80 162h-221q-44 0 -44 46t42 46h256q74 0 69 -87zM766 -93q12 -17 12 -33q0 -21 -18.5 -35.5t-39.5 -14.5q-17 0 -26 10q-22 14 -49.5 43t-37.5 49q-7 -18 -50 -58q-53 -48 -89 -48q-31 0 -83 48q-40 38 -51 58
q-10 -20 -37.5 -49.5t-49.5 -43.5q-16 -10 -32 -10q-22 0 -37.5 15t-15.5 36q0 18 12 34q45 20 76 61q33 45 33 99v77q0 39 51 39q50 0 50 -37v-78q0 -93 87 -147q85 51 85 146v78q0 38 51 38q50 0 50 -37v-79q0 -102 109 -161z" />
    <glyph glyph-name="uniAC31" unicode="&#xac31;" 
d="M787 238q0 -41 -50 -41q-21 0 -36.5 11t-15.5 30v153h-94v-119q0 -41 -50 -41q-20 0 -35.5 11t-15.5 30v379q0 19 15.5 29.5t36.5 10.5q49 0 49 -39v-169h94v168q0 19 15.5 29.5t36.5 10.5q50 0 50 -39v-414zM433 549q-5 -79 -66 -172q-84 -127 -229 -175
q-28 -4 -44 10.5t-16 36.5q0 34 32 46q67 11 141 87q80 83 80 162h-221q-44 0 -44 46t42 46h256q74 0 69 -87zM721 16q0 -85 -63.5 -147.5t-149.5 -62.5t-149.5 62.5t-63.5 147.5t63.5 148t149.5 63t149.5 -63t63.5 -148zM624 16q0 49 -33 81.5t-83 32.5t-83 -32.5
t-33 -81.5t33 -81.5t83 -32.5t83 32.5t33 81.5z" />
    <glyph glyph-name="uniAC38" unicode="&#xac38;" 
d="M847 166h-128v-222q0 -40 -50 -40t-50 40v709q0 38 51 38q49 0 49 -38v-148h128q32 0 32 -46t-32 -46h-128v-155h128q32 0 32 -46t-32 -46zM483 456q-13 -109 -65 -194q-91 -150 -281 -189q-7 -1 -13 -1q-22 0 -34 14t-12 34q0 38 33 50q84 1 166 73q97 87 100 220h-274
q-38 0 -38 45q0 47 41 47h309q69 0 69 -80q0 -9 -1 -19z" />
    <glyph glyph-name="uniAC39" unicode="&#xac39;" 
d="M847 306h-127v-74q0 -37 -50 -37q-51 0 -51 37v420q0 38 51 38q50 0 50 -38v-83h127q32 0 32 -46t-32 -46h-127v-78h127q32 0 32 -46q0 -47 -32 -47zM462 549q-5 -92 -62 -178q-88 -132 -266 -171q-27 -2 -42 12t-15 35q0 36 34 48q77 6 152 67q92 74 95 183l-240 -1
q-46 0 -46 49q0 43 34 43h288q73 0 68 -87zM712 -135q0 -40 -52 -40q-49 0 -49 36v194h-409q-33 0 -33 46q0 47 35 47h434q74 0 74 -85v-198z" />
    <glyph glyph-name="uniAC3C" unicode="&#xac3c;" 
d="M847 263h-127v-129q0 -38 -51 -38q-50 0 -50 37v519q0 38 51 38q50 0 50 -37v-107h127q32 0 32 -46t-32 -46h-127v-98h127q32 0 32 -46q0 -47 -32 -47zM466 519q-5 -91 -64 -178q-90 -132 -268 -171q-27 -2 -42 12.5t-15 35.5q0 37 34 49q78 6 153 65q92 73 95 182h-247
q-42 0 -42 43q0 19 11 34t29 15h284q77 0 72 -87zM698 -68q34 0 34 -46q0 -48 -36 -48h-426q-29 0 -55 20.5t-26 51.5v201q0 41 53 41q48 0 48 -36v-184h408z" />
    <glyph glyph-name="uniAC40" unicode="&#xac40;" 
d="M847 306h-127v-74q0 -37 -50 -37q-51 0 -51 37v420q0 38 51 38q50 0 50 -38v-83h127q32 0 32 -46t-32 -46h-127v-78h127q32 0 32 -46q0 -47 -32 -47zM462 549q-5 -92 -62 -178q-88 -132 -266 -171q-27 -2 -42 12t-15 35q0 36 34 48q77 6 152 67q92 74 95 183l-240 -1
q-46 0 -46 49q0 43 34 43h288q73 0 68 -87zM700 32q0 -67 -72 -67h-344v-49h395q33 0 33 -45q0 -47 -35 -47h-411q-34 0 -57 16q-27 18 -27 53v97q0 23 21 41t41 18h353v49h-382q-34 0 -34 45q0 47 36 47h418q34 0 52 -27q13 -21 13 -43v-88z" />
    <glyph glyph-name="uniAC4B" unicode="&#xac4b;" 
d="M847 263h-127v-129q0 -38 -51 -38q-50 0 -50 37v519q0 38 51 38q50 0 50 -37v-107h127q32 0 32 -46t-32 -46h-127v-98h127q32 0 32 -46q0 -47 -32 -47zM466 519q-5 -91 -64 -178q-90 -132 -268 -171q-27 -2 -42 12.5t-15 35.5q0 37 34 49q78 6 153 65q92 73 95 182h-247
q-42 0 -42 43q0 19 11 34t29 15h284q77 0 72 -87zM702 -94q15 -15 15 -34q0 -21 -17 -38t-40 -17q-13 0 -25 7q-43 17 -107 65q-67 50 -78 75q-11 -24 -80 -75q-65 -47 -106 -65q-14 -6 -28 -6q-24 0 -40 16t-16 36q0 22 19 36q201 72 201 190v57q0 38 51 38q49 0 49 -36
v-58q0 -116 202 -191z" />
    <glyph glyph-name="uniAC4D" unicode="&#xac4d;" 
d="M847 306h-127v-74q0 -37 -50 -37q-51 0 -51 37v420q0 38 51 38q50 0 50 -38v-83h127q32 0 32 -46t-32 -46h-127v-78h127q32 0 32 -46q0 -47 -32 -47zM462 549q-5 -92 -62 -178q-88 -132 -266 -171q-27 -2 -42 12t-15 35q0 36 34 48q77 6 152 67q92 74 95 183l-240 -1
q-46 0 -46 49q0 43 34 43h288q73 0 68 -87zM695 16q0 -85 -63.5 -147.5t-149.5 -62.5t-149.5 62.5t-63.5 147.5t63.5 148t149.5 63t149.5 -63t63.5 -148zM598 16q0 49 -33 81.5t-83 32.5t-83 -32.5t-33 -81.5t33 -81.5t83 -32.5t83 32.5t33 81.5z" />
    <glyph glyph-name="uniAC54" unicode="&#xac54;" 
d="M787 -56q0 -40 -51 -40t-51 40v236h-94v-236q0 -40 -50 -40q-51 0 -51 40v709q0 38 51 38q50 0 50 -38v-157h94v157q0 38 52 38q50 0 50 -38v-709zM434 466q-5 -92 -59 -188q-80 -145 -235 -203q-28 -4 -44 11t-16 38q0 37 32 48q70 16 141 98q80 93 77 193h-227
q-33 0 -33 45q0 47 36 47h258q75 0 70 -89zM685 272v132h-94v-132h94z" />
    <glyph glyph-name="uniAC58" unicode="&#xac58;" 
d="M787 138q0 -41 -50 -41q-21 0 -36.5 11t-15.5 30v131h-94v-131q0 -41 -50 -41q-20 0 -35.5 11t-15.5 30v514q0 39 52 39q49 0 49 -38v-125h94v124q0 39 52 39q50 0 50 -38v-515zM434 519q-5 -79 -66 -172q-84 -126 -229 -174q-28 -2 -45 13.5t-17 37.5q0 33 32 45
q67 11 140 86q79 81 79 160l-220 -1q-41 0 -41 43q0 19 11 34t28 15h257q76 0 71 -87zM745 -68q34 0 34 -46q0 -48 -36 -48h-426q-29 0 -55 20.5t-26 51.5v201q0 41 53 41q48 0 48 -36v-184h408zM685 361v75h-94v-75h94z" />
    <glyph glyph-name="uniAC5C" unicode="&#xac5c;" 
d="M787 239q0 -41 -50 -41q-21 0 -36.5 11t-15.5 30v77h-94v-58q0 -41 -50 -41q-20 0 -35.5 11t-15.5 30v393q0 19 15.5 29.5t36.5 10.5q49 0 49 -39v-84h94v83q0 19 15.5 29.5t36.5 10.5q50 0 50 -39v-413zM433 549q-5 -79 -66 -172q-84 -127 -229 -175q-28 -4 -44 10.5
t-16 36.5q0 34 32 46q67 11 141 87q80 83 80 162h-221q-44 0 -44 46t42 46h256q74 0 69 -87zM770 32q0 -67 -72 -67h-344v-49h395q33 0 33 -45q0 -47 -35 -47h-411q-34 0 -57 16q-27 18 -27 53v97q0 23 21 41t41 18h353v49h-382q-34 0 -34 45q0 47 36 47h418q34 0 52 -27
q13 -21 13 -43v-88zM685 408v68h-94v-68h94z" />
    <glyph glyph-name="uniAC70" unicode="&#xac70;" 
d="M751 -56q0 -40 -50 -40t-50 40v351h-144q-32 0 -32 46t32 46h144v266q0 38 51 38q49 0 49 -38v-709zM483 456q-13 -109 -65 -194q-91 -150 -281 -189q-7 -1 -13 -1q-22 0 -34 14t-12 34q0 38 33 50q84 1 166 73q97 87 100 220h-274q-38 0 -38 45q0 47 41 47h309
q69 0 69 -80q0 -9 -1 -19z" />
    <glyph glyph-name="uniAC71" unicode="&#xac71;" 
d="M752 235q0 -37 -50 -37q-51 0 -51 37v155h-154q-32 0 -32 47q0 46 32 46h154v169q0 38 51 38q50 0 50 -38v-417zM462 549q-5 -92 -62 -178q-88 -132 -266 -171q-27 -2 -42 12t-15 35q0 36 34 48q77 6 152 67q92 74 95 183l-240 -1q-46 0 -46 49q0 43 34 43h288
q73 0 68 -87zM729 -135q0 -40 -52 -40q-49 0 -49 36v194h-409q-33 0 -33 46q0 47 35 47h434q74 0 74 -85v-198z" />
    <glyph glyph-name="uniAC74" unicode="&#xac74;" 
d="M752 133q0 -38 -51 -38q-50 0 -50 37v226h-154q-32 0 -32 47q0 46 32 46h154v201q0 38 51 38q50 0 50 -37v-520zM466 519q-5 -91 -64 -178q-90 -132 -268 -171q-27 -2 -42 12.5t-15 35.5q0 37 34 49q78 6 153 65q92 73 95 182h-247q-42 0 -42 43q0 19 11 34t29 15h284
q77 0 72 -87zM715 -68q34 0 34 -46q0 -48 -36 -48h-426q-29 0 -55 20.5t-26 51.5v201q0 41 53 41q48 0 48 -36v-184h408z" />
    <glyph glyph-name="uniAC77" unicode="&#xac77;" 
d="M752 235q0 -37 -50 -37q-51 0 -51 37v155h-154q-32 0 -32 47q0 46 32 46h154v169q0 38 51 38q50 0 50 -38v-417zM462 549q-5 -92 -62 -178q-88 -132 -266 -171q-27 -2 -42 12t-15 35q0 36 34 48q77 6 152 67q92 74 95 183l-240 -1q-46 0 -46 49q0 43 34 43h288
q73 0 68 -87zM711 59h-413v-132h412q33 0 33 -45q0 -47 -35 -47h-447q-22 0 -42.5 19t-20.5 44v194q0 21 20 40.5t42 19.5h447q16 0 25.5 -15t9.5 -35q0 -43 -31 -43z" />
    <glyph glyph-name="uniAC78" unicode="&#xac78;" 
d="M752 235q0 -37 -50 -37q-51 0 -51 37v155h-154q-32 0 -32 47q0 46 32 46h154v169q0 38 51 38q50 0 50 -38v-417zM462 549q-5 -92 -62 -178q-88 -132 -266 -171q-27 -2 -42 12t-15 35q0 36 34 48q77 6 152 67q92 74 95 183l-240 -1q-46 0 -46 49q0 43 34 43h288
q73 0 68 -87zM738 33q0 -67 -72 -67h-344v-50h395q33 0 33 -45q0 -47 -35 -47h-411q-34 0 -57 16q-27 18 -27 53v96q0 23 21 41t41 18h353v50h-382q-34 0 -34 45q0 47 36 47h418q34 0 52 -27q13 -21 13 -43v-87z" />
    <glyph glyph-name="uniAC7A" unicode="&#xac7a;" 
d="M752 235q0 -37 -50 -37q-51 0 -51 37v155h-154q-32 0 -32 47q0 46 32 46h154v169q0 38 51 38q50 0 50 -38v-417zM462 549q-5 -92 -62 -178q-88 -132 -266 -171q-27 -2 -42 12t-15 35q0 36 34 48q77 6 152 67q92 74 95 183l-240 -1q-46 0 -46 49q0 43 34 43h288
q73 0 68 -87zM746 -99q0 -28 -19 -47.5t-48 -19.5h-127q-30 0 -50 19t-20 47v216q0 28 20 47.5t49 19.5h128q26 0 46.5 -22t20.5 -45v-215zM464 27q0 -64 -70 -64h-109v-45h159q33 0 33 -43q0 -45 -36 -45h-167q-36 0 -60 16q-28 18 -28 53v95q0 23 21 40t40 17h119v43h-146
q-33 0 -33 43q0 47 38 47h170q37 0 56 -28q13 -19 13 -43v-86zM644 -74v165h-62v-165h62zM0 0z" />
    <glyph glyph-name="uniAC80" unicode="&#xac80;" 
d="M752 235q0 -37 -50 -37q-51 0 -51 37v155h-154q-32 0 -32 47q0 46 32 46h154v169q0 38 51 38q50 0 50 -38v-417zM462 549q-5 -92 -62 -178q-88 -132 -266 -171q-27 -2 -42 12t-15 35q0 36 34 48q77 6 152 67q92 74 95 183l-240 -1q-46 0 -46 49q0 43 34 43h288
q73 0 68 -87zM739 -99q0 -28 -18.5 -47.5t-46.5 -19.5h-408q-28 0 -45.5 19.5t-17.5 47.5v182q0 28 17.5 47.5t45.5 19.5h408q25 0 45 -22t20 -45v-182zM637 -74v132h-334v-132h334z" />
    <glyph glyph-name="uniAC81" unicode="&#xac81;" 
d="M752 235q0 -37 -50 -37q-51 0 -51 37v155h-154q-32 0 -32 47q0 46 32 46h154v169q0 38 51 38q50 0 50 -38v-417zM462 549q-5 -92 -62 -178q-88 -132 -266 -171q-27 -2 -42 12t-15 35q0 36 34 48q77 6 152 67q92 74 95 183l-240 -1q-46 0 -46 49q0 43 34 43h288
q73 0 68 -87zM738 -79q0 -87 -73 -87h-389q-33 0 -52 29q-16 24 -16 55v230q0 38 52 38q48 0 48 -34v-70h331v73q0 35 49 35q50 0 50 -36v-233zM639 -73v64h-331v-64h331z" />
    <glyph glyph-name="uniAC83" unicode="&#xac83;" 
d="M752 133q0 -38 -51 -38q-50 0 -50 37v226h-154q-32 0 -32 47q0 46 32 46h154v201q0 38 51 38q50 0 50 -37v-520zM466 519q-5 -91 -64 -178q-90 -132 -268 -171q-27 -2 -42 12.5t-15 35.5q0 37 34 49q78 6 153 65q92 73 95 182h-247q-42 0 -42 43q0 19 11 34t29 15h284
q77 0 72 -87zM702 -94q15 -15 15 -34q0 -21 -17 -38t-40 -17q-13 0 -25 7q-43 17 -107 65q-67 50 -78 75q-11 -24 -80 -75q-65 -47 -106 -65q-14 -6 -28 -6q-24 0 -40 16t-16 36q0 22 19 36q201 72 201 190v57q0 38 51 38q49 0 49 -36v-58q0 -116 202 -191z" />
    <glyph glyph-name="uniAC84" unicode="&#xac84;" 
d="M752 235q0 -37 -50 -37q-51 0 -51 37v155h-154q-32 0 -32 47q0 46 32 46h154v169q0 38 51 38q50 0 50 -38v-417zM462 549q-5 -92 -62 -178q-88 -132 -266 -171q-27 -2 -42 12t-15 35q0 36 34 48q77 6 152 67q92 74 95 183l-240 -1q-46 0 -46 49q0 43 34 43h288
q73 0 68 -87zM746 -93q12 -17 12 -33q0 -21 -18.5 -35.5t-39.5 -14.5q-17 0 -26 10q-22 14 -49.5 43t-37.5 49q-7 -18 -50 -58q-53 -48 -89 -48q-31 0 -83 48q-40 38 -51 58q-10 -20 -37.5 -49.5t-49.5 -43.5q-16 -10 -32 -10q-22 0 -37.5 15t-15.5 36q0 18 12 34
q45 20 76 61q33 45 33 99v77q0 39 51 39q50 0 50 -37v-78q0 -93 87 -147q85 51 85 146v78q0 38 51 38q50 0 50 -37v-79q0 -102 109 -161z" />
    <glyph glyph-name="uniAC85" unicode="&#xac85;" 
d="M752 235q0 -37 -50 -37q-51 0 -51 37v155h-154q-32 0 -32 47q0 46 32 46h154v169q0 38 51 38q50 0 50 -38v-417zM462 549q-5 -92 -62 -178q-88 -132 -266 -171q-27 -2 -42 12t-15 35q0 36 34 48q77 6 152 67q92 74 95 183l-240 -1q-46 0 -46 49q0 43 34 43h288
q73 0 68 -87zM713 16q0 -85 -63.5 -147.5t-149.5 -62.5t-149.5 62.5t-63.5 147.5t63.5 148t149.5 63t149.5 -63t63.5 -148zM616 16q0 49 -33 81.5t-83 32.5t-83 -32.5t-33 -81.5t33 -81.5t83 -32.5t83 32.5t33 81.5z" />
    <glyph glyph-name="uniAC86" unicode="&#xac86;" 
d="M752 235q0 -37 -50 -37q-51 0 -51 37v155h-154q-32 0 -32 47q0 46 32 46h154v169q0 38 51 38q50 0 50 -38v-417zM462 549q-5 -92 -62 -178q-88 -132 -266 -171q-27 -2 -42 12t-15 35q0 36 34 48q77 6 152 67q92 74 95 183l-240 -1q-46 0 -46 49q0 43 34 43h288
q73 0 68 -87zM707 -95q15 -15 15 -34q0 -21 -17 -37t-39 -16q-14 0 -26 7q-44 18 -109 63q-70 49 -81 73q-11 -23 -83 -73q-65 -44 -108 -63q-14 -6 -29 -6q-23 0 -39 15t-16 35q0 22 19 36q185 65 204 161h-168q-41 0 -41 46q0 45 41 45h444q42 0 42 -45q0 -46 -42 -46
h-172q17 -92 205 -161z" />
    <glyph glyph-name="uniAC89" unicode="&#xac89;" 
d="M752 235q0 -37 -50 -37q-51 0 -51 37v155h-154q-32 0 -32 47q0 46 32 46h154v169q0 38 51 38q50 0 50 -38v-417zM462 549q-5 -92 -62 -178q-88 -132 -266 -171q-27 -2 -42 12t-15 35q0 36 34 48q77 6 152 67q92 74 95 183l-240 -1q-46 0 -46 49q0 43 34 43h288
q73 0 68 -87zM702 78h-408v-36h403q29 0 29 -41t-29 -41h-403v-34h407q33 0 33 -46q0 -47 -35 -47h-443q-21 0 -42 19t-21 43v215q0 22 20 41t42 19h443q16 0 25.5 -15t9.5 -35q0 -42 -31 -42z" />
    <glyph glyph-name="uniAC8A" unicode="&#xac8a;" 
d="M752 235q0 -37 -50 -37q-51 0 -51 37v155h-154q-32 0 -32 47q0 46 32 46h154v169q0 38 51 38q50 0 50 -38v-417zM462 549q-5 -92 -62 -178q-88 -132 -266 -171q-27 -2 -42 12t-15 35q0 36 34 48q77 6 152 67q92 74 95 183l-240 -1q-46 0 -46 49q0 43 34 43h288
q73 0 68 -87zM686 -164h-456q-41 0 -41 46q0 45 41 45h67v117q0 14 8 24h-69q-41 0 -41 46q0 45 41 45h444q42 0 42 -45q0 -46 -42 -46h-68q8 -10 8 -24v-117h66q42 0 42 -45q0 -46 -42 -46zM528 68h-139q8 -10 8 -24v-117h122v117q0 14 9 24z" />
    <glyph glyph-name="uniAC8B" unicode="&#xac8b;" 
d="M752 235q0 -37 -50 -37q-51 0 -51 37v155h-154q-32 0 -32 47q0 46 32 46h154v169q0 38 51 38q50 0 50 -38v-417zM462 549q-5 -92 -62 -178q-88 -132 -266 -171q-27 -2 -42 12t-15 35q0 36 34 48q77 6 152 67q92 74 95 183l-240 -1q-46 0 -46 49q0 43 34 43h288
q73 0 68 -87zM700 70h-62q36 -40 36 -95q0 -74 -59 -122.5t-141 -48.5q-83 0 -142 48.5t-59 122.5q0 55 36 95h-73q-38 0 -38 46q0 45 41 45h182v38q0 21 15 33t36 12t36 -12t15 -33v-38h177q41 0 41 -45q0 -46 -41 -46zM573 -24q0 38 -27 60.5t-72 22.5t-72.5 -22.5
t-27.5 -60.5t28 -60.5t72 -22.5t71.5 22.5t27.5 60.5z" />
    <glyph glyph-name="uniAC8C" unicode="&#xac8c;" 
d="M787 -56q0 -40 -51 -40t-51 40v709q0 38 52 38q50 0 50 -38v-709zM611 -56q0 -40 -50 -40q-51 0 -51 40v356h-117q-3 0 -6 1q-79 -164 -247 -226q-28 -4 -44 11t-16 38q0 37 32 48q70 16 141 98q80 93 77 193h-227q-33 0 -33 45q0 47 36 47h258q75 0 70 -89
q-2 -33 -13 -74h89v261q0 38 51 38q50 0 50 -38v-709z" />
    <glyph glyph-name="uniAC90" unicode="&#xac90;" 
d="M787 137q0 -41 -50 -41q-21 0 -36.5 11t-15.5 30v515q0 39 52 39q50 0 50 -38v-516zM624 137q0 -41 -50 -41q-20 0 -35.5 11t-15.5 30v228h-127q-8 0 -14 4q-85 -144 -243 -196q-28 -2 -45 13.5t-17 37.5q0 33 32 45q67 11 140 86q79 81 79 160l-220 -1q-41 0 -41 43
q0 19 11 34t28 15h257q76 0 71 -87q-2 -26 -13 -62h102v195q0 39 52 39q49 0 49 -38v-516zM745 -68q34 0 34 -46q0 -48 -36 -48h-426q-29 0 -55 20.5t-26 51.5v201q0 41 53 41q48 0 48 -36v-184h408z" />
    <glyph glyph-name="uniAC94" unicode="&#xac94;" 
d="M787 239q0 -41 -50 -41q-21 0 -36.5 11t-15.5 30v412q0 19 15.5 29.5t36.5 10.5q50 0 50 -39v-413zM624 242q0 -41 -50 -41q-20 0 -35.5 11t-15.5 30v146h-127q-10 0 -18 6q-84 -141 -240 -192q-28 -4 -44 10.5t-16 36.5q0 34 32 46q67 11 141 87q80 83 80 162h-221
q-44 0 -44 46t42 46h256q74 0 69 -87q-2 -29 -15 -69h105v171q0 19 15.5 29.5t36.5 10.5q49 0 49 -39v-410zM770 32q0 -67 -72 -67h-344v-49h395q33 0 33 -45q0 -47 -35 -47h-411q-34 0 -57 16q-27 18 -27 53v97q0 23 21 41t41 18h353v49h-382q-34 0 -34 45q0 47 36 47h418
q34 0 52 -27q13 -21 13 -43v-88z" />
    <glyph glyph-name="uniAC9C" unicode="&#xac9c;" 
d="M787 239q0 -41 -50 -41q-21 0 -36.5 11t-15.5 30v412q0 19 15.5 29.5t36.5 10.5q50 0 50 -39v-413zM624 242q0 -41 -50 -41q-20 0 -35.5 11t-15.5 30v146h-127q-10 0 -18 6q-84 -141 -240 -192q-28 -4 -44 10.5t-16 36.5q0 34 32 46q67 11 141 87q80 83 80 162h-221
q-44 0 -44 46t42 46h256q74 0 69 -87q-2 -29 -15 -69h105v171q0 19 15.5 29.5t36.5 10.5q49 0 49 -39v-410zM771 -99q0 -28 -18.5 -47.5t-46.5 -19.5h-408q-28 0 -45.5 19.5t-17.5 47.5v182q0 28 17.5 47.5t45.5 19.5h408q25 0 45 -22t20 -45v-182zM669 -74v132h-334v-132
h334z" />
    <glyph glyph-name="uniAC9D" unicode="&#xac9d;" 
d="M787 239q0 -41 -50 -41q-21 0 -36.5 11t-15.5 30v412q0 19 15.5 29.5t36.5 10.5q50 0 50 -39v-413zM624 242q0 -41 -50 -41q-20 0 -35.5 11t-15.5 30v146h-127q-10 0 -18 6q-84 -141 -240 -192q-28 -4 -44 10.5t-16 36.5q0 34 32 46q67 11 141 87q80 83 80 162h-221
q-44 0 -44 46t42 46h256q74 0 69 -87q-2 -29 -15 -69h105v171q0 19 15.5 29.5t36.5 10.5q49 0 49 -39v-410zM774 -79q0 -87 -73 -87h-389q-33 0 -52 29q-16 24 -16 55v230q0 38 52 38q48 0 48 -34v-70h331v73q0 35 49 35q50 0 50 -36v-233zM675 -73v64h-331v-64h331z" />
    <glyph glyph-name="uniAC9F" unicode="&#xac9f;" 
d="M787 137q0 -41 -50 -41q-21 0 -36.5 11t-15.5 30v515q0 39 52 39q50 0 50 -38v-516zM624 160q0 -41 -50 -41q-20 0 -35.5 11t-15.5 30v205h-127q-8 0 -14 4q-85 -144 -243 -196q-28 -2 -45 13.5t-17 37.5q0 33 32 45q67 11 140 86q79 81 79 160l-220 -1q-41 0 -41 43
q0 19 11 34t28 15h257q76 0 71 -87q-2 -26 -13 -62h102v195q0 39 52 39q49 0 49 -38v-493zM721 -94q15 -15 15 -34q0 -21 -17 -38t-40 -17q-13 0 -25 7q-42 17 -108 66.5t-77 74.5q-11 -24 -80 -75q-65 -48 -106 -66q-14 -6 -28 -6q-24 0 -40 16t-16 36q0 22 19 36
q201 72 201 190v57q0 38 51 38q49 0 49 -36v-58q0 -116 202 -191z" />
    <glyph glyph-name="uniACA0" unicode="&#xaca0;" 
d="M787 239q0 -41 -50 -41q-21 0 -36.5 11t-15.5 30v412q0 19 15.5 29.5t36.5 10.5q50 0 50 -39v-413zM624 242q0 -41 -50 -41q-20 0 -35.5 11t-15.5 30v146h-127q-10 0 -18 6q-84 -141 -240 -192q-28 -4 -44 10.5t-16 36.5q0 34 32 46q67 11 141 87q80 83 80 162h-221
q-44 0 -44 46t42 46h256q74 0 69 -87q-2 -29 -15 -69h105v171q0 19 15.5 29.5t36.5 10.5q49 0 49 -39v-410zM766 -93q12 -17 12 -33q0 -21 -18.5 -35.5t-39.5 -14.5q-17 0 -26 10q-22 14 -49.5 43t-37.5 49q-7 -18 -50 -58q-53 -48 -89 -48q-31 0 -83 48q-40 38 -51 58
q-10 -20 -37.5 -49.5t-49.5 -43.5q-16 -10 -32 -10q-22 0 -37.5 15t-15.5 36q0 18 12 34q45 20 76 61q33 45 33 99v77q0 39 51 39q50 0 50 -37v-78q0 -93 87 -147q85 51 85 146v78q0 38 51 38q50 0 50 -37v-79q0 -102 109 -161z" />
    <glyph glyph-name="uniACA1" unicode="&#xaca1;" 
d="M787 239q0 -41 -50 -41q-21 0 -36.5 11t-15.5 30v412q0 19 15.5 29.5t36.5 10.5q50 0 50 -39v-413zM624 267q0 -41 -50 -41q-20 0 -35.5 11t-15.5 30v121h-127q-10 0 -18 6q-84 -141 -240 -192q-28 -4 -44 10.5t-16 36.5q0 34 32 46q67 11 141 87q80 83 80 162h-221
q-44 0 -44 46t42 46h256q74 0 69 -87q-2 -29 -15 -69h105v171q0 19 15.5 29.5t36.5 10.5q49 0 49 -39v-385zM721 16q0 -85 -63.5 -147.5t-149.5 -62.5t-149.5 62.5t-63.5 147.5t63.5 148t149.5 63t149.5 -63t63.5 -148zM624 16q0 49 -33 81.5t-83 32.5t-83 -32.5t-33 -81.5
t33 -81.5t83 -32.5t83 32.5t33 81.5z" />
    <glyph glyph-name="uniACA8" unicode="&#xaca8;" 
d="M751 -56q0 -40 -50 -40t-50 40v224h-136q-32 0 -32 46t32 46h136v118h-136q-32 0 -32 46t32 46h136v183q0 38 51 38q49 0 49 -38v-709zM483 456q-13 -109 -65 -194q-91 -150 -281 -189q-7 -1 -13 -1q-22 0 -34 14t-12 34q0 38 33 50q84 1 166 73q97 87 100 220h-274
q-38 0 -38 45q0 47 41 47h309q69 0 69 -80q0 -9 -1 -19z" />
    <glyph glyph-name="uniACA9" unicode="&#xaca9;" 
d="M752 232q0 -37 -50 -37q-51 0 -51 37v58h-139q-32 0 -32 46t32 46h139v95h-139q-32 0 -32 46t32 46h139v83q0 38 51 38q50 0 50 -38v-420zM462 549q-5 -92 -62 -178q-88 -132 -266 -171q-27 -2 -42 12t-15 35q0 36 34 48q77 6 152 67q92 74 95 183l-240 -1q-46 0 -46 49
q0 43 34 43h288q73 0 68 -87zM729 -135q0 -40 -52 -40q-49 0 -49 36v194h-409q-33 0 -33 46q0 47 35 47h434q74 0 74 -85v-198z" />
    <glyph glyph-name="uniACAA" unicode="&#xacaa;" 
d="M752 232q0 -37 -50 -37q-51 0 -51 37v58h-139q-32 0 -32 46t32 46h139v95h-139q-32 0 -32 46t32 46h139v83q0 38 51 38q50 0 50 -38v-420zM462 549q-5 -92 -62 -178q-88 -132 -266 -171q-27 -2 -42 12t-15 35q0 36 34 48q77 6 152 67q92 74 95 183l-240 -1q-46 0 -46 49
q0 43 34 43h288q73 0 68 -87zM738 -135q0 -40 -53 -40q-49 0 -49 36v194h-152q-5 0 -9 1v-191q0 -40 -53 -40q-49 0 -49 36v194h-174q-33 0 -33 45q0 48 37 48h195q39 0 59 -22q9 22 31 22h173q77 0 77 -85v-198z" />
    <glyph glyph-name="uniACAC" unicode="&#xacac;" 
d="M752 133q0 -38 -51 -38q-50 0 -50 37v139h-144q-32 0 -32 46t32 46h144v89h-144q-32 0 -32 46t32 46h144v108q0 38 51 38q50 0 50 -37v-520zM466 519q-5 -91 -64 -178q-90 -132 -268 -171q-27 -2 -42 12.5t-15 35.5q0 37 34 49q78 6 153 65q92 73 95 182h-247
q-42 0 -42 43q0 19 11 34t29 15h284q77 0 72 -87zM715 -68q34 0 34 -46q0 -48 -36 -48h-426q-29 0 -55 20.5t-26 51.5v201q0 41 53 41q48 0 48 -36v-184h408z" />
    <glyph glyph-name="uniACAF" unicode="&#xacaf;" 
d="M752 232q0 -37 -50 -37q-51 0 -51 37v58h-139q-32 0 -32 46t32 46h139v95h-139q-32 0 -32 46t32 46h139v83q0 38 51 38q50 0 50 -38v-420zM462 549q-5 -92 -62 -178q-88 -132 -266 -171q-27 -2 -42 12t-15 35q0 36 34 48q77 6 152 67q92 74 95 183l-240 -1q-46 0 -46 49
q0 43 34 43h288q73 0 68 -87zM711 59h-413v-132h412q33 0 33 -45q0 -47 -35 -47h-447q-22 0 -42.5 19t-20.5 44v194q0 21 20 40.5t42 19.5h447q16 0 25.5 -15t9.5 -35q0 -43 -31 -43z" />
    <glyph glyph-name="uniACB0" unicode="&#xacb0;" 
d="M752 232q0 -37 -50 -37q-51 0 -51 37v58h-139q-32 0 -32 46t32 46h139v95h-139q-32 0 -32 46t32 46h139v83q0 38 51 38q50 0 50 -38v-420zM462 549q-5 -92 -62 -178q-88 -132 -266 -171q-27 -2 -42 12t-15 35q0 36 34 48q77 6 152 67q92 74 95 183l-240 -1q-46 0 -46 49
q0 43 34 43h288q73 0 68 -87zM738 33q0 -67 -72 -67h-344v-50h395q33 0 33 -45q0 -47 -35 -47h-411q-34 0 -57 16q-27 18 -27 53v96q0 23 21 41t41 18h353v50h-382q-34 0 -34 45q0 47 36 47h418q34 0 52 -27q13 -21 13 -43v-87z" />
    <glyph glyph-name="uniACB8" unicode="&#xacb8;" 
d="M752 232q0 -37 -50 -37q-51 0 -51 37v58h-139q-32 0 -32 46t32 46h139v95h-139q-32 0 -32 46t32 46h139v83q0 38 51 38q50 0 50 -38v-420zM462 549q-5 -92 -62 -178q-88 -132 -266 -171q-27 -2 -42 12t-15 35q0 36 34 48q77 6 152 67q92 74 95 183l-240 -1q-46 0 -46 49
q0 43 34 43h288q73 0 68 -87zM739 -99q0 -28 -18.5 -47.5t-46.5 -19.5h-408q-28 0 -45.5 19.5t-17.5 47.5v182q0 28 17.5 47.5t45.5 19.5h408q25 0 45 -22t20 -45v-182zM637 -74v132h-334v-132h334z" />
    <glyph glyph-name="uniACB9" unicode="&#xacb9;" 
d="M752 232q0 -37 -50 -37q-51 0 -51 37v58h-139q-32 0 -32 46t32 46h139v95h-139q-32 0 -32 46t32 46h139v83q0 38 51 38q50 0 50 -38v-420zM462 549q-5 -92 -62 -178q-88 -132 -266 -171q-27 -2 -42 12t-15 35q0 36 34 48q77 6 152 67q92 74 95 183l-240 -1q-46 0 -46 49
q0 43 34 43h288q73 0 68 -87zM738 -79q0 -87 -73 -87h-389q-33 0 -52 29q-16 24 -16 55v230q0 38 52 38q48 0 48 -34v-70h331v73q0 35 49 35q50 0 50 -36v-233zM639 -73v64h-331v-64h331z" />
    <glyph glyph-name="uniACBB" unicode="&#xacbb;" 
d="M752 133q0 -38 -51 -38q-50 0 -50 37v139h-144q-32 0 -32 46t32 46h144v89h-144q-32 0 -32 46t32 46h144v108q0 38 51 38q50 0 50 -37v-520zM466 519q-5 -91 -64 -178q-90 -132 -268 -171q-27 -2 -42 12.5t-15 35.5q0 37 34 49q78 6 153 65q92 73 95 182h-247
q-42 0 -42 43q0 19 11 34t29 15h284q77 0 72 -87zM702 -94q15 -15 15 -34q0 -21 -17 -38t-40 -17q-13 0 -25 7q-43 17 -107 65q-67 50 -78 75q-11 -24 -80 -75q-65 -47 -106 -65q-14 -6 -28 -6q-24 0 -40 16t-16 36q0 22 19 36q201 72 201 190v57q0 38 51 38q49 0 49 -36
v-58q0 -116 202 -191z" />
    <glyph glyph-name="uniACBC" unicode="&#xacbc;" 
d="M752 232q0 -37 -50 -37q-51 0 -51 37v58h-139q-32 0 -32 46t32 46h139v95h-139q-32 0 -32 46t32 46h139v83q0 38 51 38q50 0 50 -38v-420zM462 549q-5 -92 -62 -178q-88 -132 -266 -171q-27 -2 -42 12t-15 35q0 36 34 48q77 6 152 67q92 74 95 183l-240 -1q-46 0 -46 49
q0 43 34 43h288q73 0 68 -87zM746 -93q12 -17 12 -33q0 -21 -18.5 -35.5t-39.5 -14.5q-17 0 -26 10q-22 14 -49.5 43t-37.5 49q-7 -18 -50 -58q-53 -48 -89 -48q-31 0 -83 48q-40 38 -51 58q-10 -20 -37.5 -49.5t-49.5 -43.5q-16 -10 -32 -10q-22 0 -37.5 15t-15.5 36
q0 18 12 34q45 20 76 61q33 45 33 99v77q0 39 51 39q50 0 50 -37v-78q0 -93 87 -147q85 51 85 146v78q0 38 51 38q50 0 50 -37v-79q0 -102 109 -161z" />
    <glyph glyph-name="uniACBD" unicode="&#xacbd;" 
d="M752 232q0 -37 -50 -37q-51 0 -51 37v58h-139q-32 0 -32 46t32 46h139v95h-139q-32 0 -32 46t32 46h139v83q0 38 51 38q50 0 50 -38v-420zM462 549q-5 -92 -62 -178q-88 -132 -266 -171q-27 -2 -42 12t-15 35q0 36 34 48q77 6 152 67q92 74 95 183l-240 -1q-46 0 -46 49
q0 43 34 43h288q73 0 68 -87zM713 16q0 -85 -63.5 -147.5t-149.5 -62.5t-149.5 62.5t-63.5 147.5t63.5 148t149.5 63t149.5 -63t63.5 -148zM616 16q0 49 -33 81.5t-83 32.5t-83 -32.5t-33 -81.5t33 -81.5t83 -32.5t83 32.5t33 81.5z" />
    <glyph glyph-name="uniACC1" unicode="&#xacc1;" 
d="M752 232q0 -37 -50 -37q-51 0 -51 37v58h-139q-32 0 -32 46t32 46h139v95h-139q-32 0 -32 46t32 46h139v83q0 38 51 38q50 0 50 -38v-420zM462 549q-5 -92 -62 -178q-88 -132 -266 -171q-27 -2 -42 12t-15 35q0 36 34 48q77 6 152 67q92 74 95 183l-240 -1q-46 0 -46 49
q0 43 34 43h288q73 0 68 -87zM702 78h-408v-36h403q29 0 29 -41t-29 -41h-403v-34h407q33 0 33 -46q0 -47 -35 -47h-443q-21 0 -42 19t-21 43v215q0 22 20 41t42 19h443q16 0 25.5 -15t9.5 -35q0 -42 -31 -42z" />
    <glyph glyph-name="uniACC4" unicode="&#xacc4;" 
d="M787 -56q0 -40 -51 -40t-51 40v709q0 38 52 38q50 0 50 -38v-709zM625 -56q0 -40 -50 -40q-51 0 -51 40v256h-118q-33 0 -33 47q0 46 33 46h118v102h-102q-25 -96 -82 -171q-77 -103 -200 -149q-28 -4 -44 11t-16 38q0 37 32 48q70 16 141 98q80 93 77 193h-227
q-33 0 -33 45q0 47 36 47h258q66 0 70 -68h90v166q0 38 51 38q50 0 50 -38v-709z" />
    <glyph glyph-name="uniACC8" unicode="&#xacc8;" 
d="M787 137q0 -41 -50 -41q-21 0 -36.5 11t-15.5 30v515q0 39 52 39q50 0 50 -38v-516zM624 137q0 -41 -50 -41q-20 0 -35.5 11t-15.5 30v135h-117q-33 0 -33 46t33 46h117v96h-101q-26 -85 -86 -156q-79 -92 -197 -131q-28 -2 -45 13.5t-17 37.5q0 33 32 45q67 11 140 86
q79 81 79 160l-220 -1q-41 0 -41 43q0 19 11 34t28 15h257q60 0 70 -53h90v99q0 39 52 39q49 0 49 -38v-516zM745 -68q34 0 34 -46q0 -48 -36 -48h-426q-29 0 -55 20.5t-26 51.5v201q0 41 53 41q48 0 48 -36v-184h408z" />
    <glyph glyph-name="uniACCC" unicode="&#xaccc;" 
d="M787 240q0 -41 -50 -41q-21 0 -36.5 11t-15.5 30v411q0 19 15.5 29.5t36.5 10.5q50 0 50 -39v-412zM624 244q0 -41 -50 -41q-20 0 -35.5 11t-15.5 30v46h-127q-33 0 -33 46t33 46h127v96h-106q-29 -84 -88 -151q-78 -88 -191 -125q-28 -4 -44 10.5t-16 36.5q0 34 32 46
q67 11 141 87q80 83 80 162h-221q-44 0 -44 46t42 46h256q65 0 69 -65h90v80q0 19 15.5 29.5t36.5 10.5q49 0 49 -39v-408zM770 32q0 -67 -72 -67h-344v-49h395q33 0 33 -45q0 -47 -35 -47h-411q-34 0 -57 16q-27 18 -27 53v97q0 23 21 41t41 18h353v49h-382q-34 0 -34 45
q0 47 36 47h418q34 0 52 -27q13 -21 13 -43v-88z" />
    <glyph glyph-name="uniACD5" unicode="&#xacd5;" 
d="M787 240q0 -41 -50 -41q-21 0 -36.5 11t-15.5 30v411q0 19 15.5 29.5t36.5 10.5q50 0 50 -39v-412zM624 244q0 -41 -50 -41q-20 0 -35.5 11t-15.5 30v46h-127q-33 0 -33 46t33 46h127v96h-106q-29 -84 -88 -151q-78 -88 -191 -125q-28 -4 -44 10.5t-16 36.5q0 34 32 46
q67 11 141 87q80 83 80 162h-221q-44 0 -44 46t42 46h256q65 0 69 -65h90v80q0 19 15.5 29.5t36.5 10.5q49 0 49 -39v-408zM774 -79q0 -87 -73 -87h-389q-33 0 -52 29q-16 24 -16 55v230q0 38 52 38q48 0 48 -34v-70h331v73q0 35 49 35q50 0 50 -36v-233zM675 -73v64h-331
v-64h331z" />
    <glyph glyph-name="uniACD7" unicode="&#xacd7;" 
d="M787 137q0 -41 -50 -41q-21 0 -36.5 11t-15.5 30v515q0 39 52 39q50 0 50 -38v-516zM624 178q0 -41 -50 -41q-20 0 -35.5 11t-15.5 30v94h-117q-33 0 -33 46t33 46h117v96h-101q-26 -85 -86 -156q-79 -92 -197 -131q-28 -2 -45 13.5t-17 37.5q0 33 32 45q67 11 140 86
q79 81 79 160l-220 -1q-41 0 -41 43q0 19 11 34t28 15h257q60 0 70 -53h90v99q0 39 52 39q49 0 49 -38v-475zM721 -94q15 -15 15 -34q0 -21 -17 -38t-40 -17q-13 0 -25 7q-42 17 -108 66.5t-77 74.5q-11 -24 -80 -75q-65 -48 -106 -66q-14 -6 -28 -6q-24 0 -40 16t-16 36
q0 22 19 36q201 72 201 190v57q0 38 51 38q49 0 49 -36v-58q0 -116 202 -191z" />
    <glyph glyph-name="uniACE0" unicode="&#xace0;" 
d="M694 334q0 -55 -7.5 -93.5t-49.5 -38.5q-21 0 -37 12t-16 31q0 6 2 13q6 20 6 77v181h-368q-39 0 -39 45q0 47 41 47h393q75 0 75 -79v-195zM799 9h-700q-41 0 -41 46q0 45 41 45h228v165q0 19 15.5 29.5t36.5 10.5q50 0 50 -39v-166h370q42 0 42 -45q0 -46 -42 -46z" />
    <glyph glyph-name="uniACE1" unicode="&#xace1;" 
d="M694 492q0 -55 -7.5 -93.5t-49.5 -38.5q-21 0 -37 12t-16 31q0 6 2 13q6 20 6 76v107h-368q-40 0 -40 46t42 46h393q75 0 75 -79v-120zM800 213h-699q-41 0 -41 46q0 45 41 45h226v122q0 41 51 41t51 -41v-122h371q42 0 42 -45q0 -46 -42 -46zM694 -48q0 -59 -7 -94
q-8 -39 -51 -39q-20 0 -36 11.5t-16 30.5q0 6 2 13q6 19 6 76v92h-368q-34 0 -34 45q0 47 36 47h393q75 0 75 -78v-104z" />
    <glyph glyph-name="uniACE4" unicode="&#xace4;" 
d="M694 472q0 -55 -7.5 -93.5t-49.5 -38.5q-21 0 -37 12t-16 31q0 6 2 13q6 20 6 76v107h-368q-40 0 -40 46t42 46h393q75 0 75 -79v-120zM799 176h-700q-41 0 -41 46q0 45 41 45h228v150q0 40 51 40t51 -40v-150h370q42 0 42 -45q0 -46 -42 -46zM684 -71q34 0 34 -47
q0 -48 -36 -48h-395q-32 0 -54 18q-26 20 -26 54v188q0 41 52 41q48 0 48 -36v-170h377z" />
    <glyph glyph-name="uniACE7" unicode="&#xace7;" 
d="M694 492q0 -55 -7.5 -93.5t-49.5 -38.5q-21 0 -37 12t-16 31q0 6 2 13q6 20 6 76v107h-368q-40 0 -40 46t42 46h393q75 0 75 -79v-120zM800 220h-699q-41 0 -41 46q0 45 41 45h226v122q0 41 51 41t51 -41v-122h371q42 0 42 -45q0 -46 -42 -46zM674 52h-366v-127h365
q34 0 34 -45q0 -47 -36 -47h-402q-21 0 -42 18.5t-21 42.5v190q0 22 20 41t42 19h402q16 0 25.5 -15t9.5 -35q0 -42 -31 -42z" />
    <glyph glyph-name="uniACE8" unicode="&#xace8;" 
d="M694 492q0 -55 -7.5 -93.5t-49.5 -38.5q-21 0 -37 12t-16 31q0 6 2 13q6 20 6 76v107h-368q-40 0 -40 46t42 46h393q75 0 75 -79v-120zM800 224h-699q-41 0 -41 46q0 45 41 45h226v122q0 41 51 41t51 -41v-122h371q42 0 42 -45q0 -46 -42 -46zM694 13q0 -63 -72 -63h-313
v-41h366q33 0 33 -45q0 -47 -35 -47h-381q-35 0 -58 16q-27 19 -27 54v86q0 24 22 42q19 17 40 17h322v43h-353q-33 0 -33 45q0 47 36 47h387q34 0 53 -28q13 -20 13 -43v-83z" />
    <glyph glyph-name="uniACEA" unicode="&#xacea;" 
d="M694 492q0 -55 -7.5 -93.5t-49.5 -38.5q-21 0 -37 12t-16 31q0 6 2 13q6 20 6 76v107h-368q-40 0 -40 46t42 46h393q75 0 75 -79v-120zM800 224h-699q-41 0 -41 46q0 45 41 45h226v122q0 41 51 41t51 -41v-122h371q42 0 42 -45q0 -46 -42 -46zM719 -115q0 -28 -19 -47.5
t-48 -19.5h-122q-30 0 -50 19t-20 47v202q0 28 20 47.5t49 19.5h123q26 0 46.5 -22t20.5 -45v-201zM445 6q0 -68 -69 -68h-104v-29h154q33 0 33 -45q0 -47 -36 -47h-167q-36 0 -59 16q-27 19 -27 54v84q0 24 22 42q19 17 39 17h111v31h-139q-33 0 -33 44q0 48 38 48h168
q37 0 56 -28q13 -20 13 -44v-75zM617 -90v151h-57v-151h57z" />
    <glyph glyph-name="uniACEC" unicode="&#xacec;" 
d="M694 492q0 -55 -7.5 -93.5t-49.5 -38.5q-21 0 -37 12t-16 31q0 6 2 13q6 20 6 76v107h-368q-40 0 -40 46t42 46h393q75 0 75 -79v-120zM800 224h-699q-41 0 -41 46q0 45 41 45h226v122q0 41 51 41t51 -41v-122h371q42 0 42 -45q0 -46 -42 -46zM734 -105q12 -17 12 -33
q0 -21 -18.5 -35.5t-39.5 -14.5q-17 0 -26 10q-55 35 -76 77q-17 -39 -77 -76q-30 -18 -58 -3q-6 -3 -13 -3h-167q-36 0 -59 16q-27 19 -27 54v84q0 24 22 42q19 17 39 17h111v31h-139q-33 0 -33 44q0 48 38 48h168q37 0 56 -28q13 -20 13 -44v-75q0 -68 -69 -68h-104v-29
h154q5 0 10 -2q85 49 85 147v68q0 39 51 39q50 0 50 -37v-69q0 -106 97 -160z" />
    <glyph glyph-name="uniACEF" unicode="&#xacef;" 
d="M694 492q0 -55 -7.5 -93.5t-49.5 -38.5q-21 0 -37 12t-16 31q0 6 2 13q6 20 6 76v107h-368q-40 0 -40 46t42 46h393q75 0 75 -79v-120zM800 224h-699q-41 0 -41 46q0 45 41 45h226v122q0 41 51 41t51 -41v-122h371q42 0 42 -45q0 -46 -42 -46zM735 -46q0 -55 -42 -97
t-97 -42t-96.5 42t-41.5 97q0 42 25 75h-20q-10 0 -18 5v-28q0 -68 -69 -68h-104v-29h154q33 0 33 -45q0 -47 -36 -47h-167q-36 0 -59 16q-27 19 -27 54v84q0 24 22 42q19 17 39 17h111v31h-139q-33 0 -33 44q0 48 38 48h168q50 0 65 -48q10 9 24 9h83v43q0 21 14.5 33
t34.5 12q47 0 47 -45v-43h85q36 0 36 -42q0 -43 -36 -43h-19q25 -33 25 -75zM639 -46q0 44 -43 44q-42 0 -42 -44q0 -19 12 -31.5t30 -12.5q19 0 31 12.5t12 31.5z" />
    <glyph glyph-name="uniACF0" unicode="&#xacf0;" 
d="M694 492q0 -55 -7.5 -93.5t-49.5 -38.5q-21 0 -37 12t-16 31q0 6 2 13q6 20 6 76v107h-368q-40 0 -40 46t42 46h393q75 0 75 -79v-120zM800 224h-699q-41 0 -41 46q0 45 41 45h226v122q0 41 51 41t51 -41v-122h371q42 0 42 -45q0 -46 -42 -46zM694 -99q0 -27 -19 -47
t-47 -20h-358q-28 0 -45.5 19.5t-17.5 47.5v176q0 28 17.5 48t45.5 20h359q25 0 45 -22t20 -45v-177zM592 -74v127h-285v-127h285z" />
    <glyph glyph-name="uniACF1" unicode="&#xacf1;" 
d="M694 492q0 -55 -7.5 -93.5t-49.5 -38.5q-21 0 -37 12t-16 31q0 6 2 13q6 20 6 76v107h-368q-40 0 -40 46t42 46h393q75 0 75 -79v-120zM800 224h-699q-41 0 -41 46q0 45 41 45h226v122q0 41 51 41t51 -41v-122h371q42 0 42 -45q0 -46 -42 -46zM693 -80q0 -85 -74 -85
h-346q-33 0 -52 29q-16 24 -16 55v210q0 18 16 28.5t37 10.5q47 0 47 -34v-60h288v63q0 35 49 35q51 0 51 -37v-215zM593 -71v53h-288v-53h288z" />
    <glyph glyph-name="uniACF3" unicode="&#xacf3;" 
d="M694 492q0 -55 -7.5 -93.5t-49.5 -38.5q-21 0 -37 12t-16 31q0 6 2 13q6 20 6 76v107h-368q-40 0 -40 46t42 46h393q75 0 75 -79v-120zM800 224h-699q-41 0 -41 46q0 45 41 45h226v122q0 41 51 41t51 -41v-122h371q42 0 42 -45q0 -46 -42 -46zM695 -102q16 -13 16 -39
q0 -21 -12.5 -37t-35.5 -16q-11 0 -23 4q-51 18 -112 59q-68 46 -83 79q-17 -33 -83 -78q-60 -40 -112 -60q-13 -5 -24 -5q-22 0 -35 16t-13 37q0 25 17 39q70 21 124 59q76 54 76 120v61q0 38 50 38t50 -37v-62q0 -65 77 -119q55 -39 123 -59z" />
    <glyph glyph-name="uniACF5" unicode="&#xacf5;" 
d="M694 492q0 -55 -7.5 -93.5t-49.5 -38.5q-21 0 -37 12t-16 31q0 6 2 13q6 20 6 76v107h-368q-40 0 -40 46t42 46h393q75 0 75 -79v-120zM800 238h-699q-41 0 -41 46q0 45 41 45h226v122q0 41 51 41t51 -41v-122h371q42 0 42 -45q0 -46 -42 -46zM653 8q0 -82 -60 -141.5
t-143 -59.5t-143.5 59.5t-60.5 141.5t60.5 141.5t143.5 59.5t143 -59.5t60 -141.5zM557 8q0 45 -30.5 75t-76.5 30t-76.5 -30t-30.5 -75t30.5 -75t76.5 -30t76.5 30t30.5 75z" />
    <glyph glyph-name="uniACF6" unicode="&#xacf6;" 
d="M694 492q0 -55 -7.5 -93.5t-49.5 -38.5q-21 0 -37 12t-16 31q0 6 2 13q6 20 6 76v107h-368q-40 0 -40 46t42 46h393q75 0 75 -79v-120zM800 216h-699q-41 0 -41 46q0 45 41 45h226v122q0 41 51 41t51 -41v-122h371q42 0 42 -45q0 -46 -42 -46zM701 -92q17 -13 17 -38
q0 -21 -13 -35q-13 -17 -36 -17q-10 0 -22 4q-53 16 -112 52q-69 42 -86 76q-19 -35 -85 -75q-54 -33 -109 -53q-13 -5 -24 -5q-22 0 -35 15.5t-13 35.5q0 25 17 39q188 60 199 145h-168q-41 0 -41 46q0 45 41 45h439q42 0 42 -45q0 -46 -42 -46h-169q7 -53 82 -96
q52 -31 118 -48z" />
    <glyph glyph-name="uniACFC" unicode="&#xacfc;" 
d="M847 268h-127v-324q0 -40 -50 -40q-51 0 -51 40v709q0 38 51 38q50 0 50 -38v-293h127q32 0 32 -46t-32 -46zM489 407q0 -62 -7 -97q-8 -39 -50 -39q-21 0 -36.5 11.5t-15.5 30.5q0 6 2 13q6 19 6 80v119h-279q-38 0 -38 45q0 47 41 47h303q74 0 74 -78v-132zM553 81
h-485q-41 0 -41 46q0 45 41 45h114v141q0 19 15.5 29.5t35.5 10.5q50 0 50 -40v-141h270q42 0 42 -45q0 -46 -42 -46z" />
    <glyph glyph-name="uniACFD" unicode="&#xacfd;" 
d="M847 390h-127v-175q0 -37 -50 -37q-51 0 -51 37v457q0 38 51 38q50 0 50 -37v-190h127q32 0 32 -46q0 -47 -32 -47zM489 487q0 -62 -7 -97q-8 -39 -50 -39q-21 0 -36.5 11.5t-15.5 30.5q0 6 2 13q6 19 6 79v91h-279q-38 0 -38 45q0 46 41 46h303q74 0 74 -78v-102z
M554 209h-485q-41 0 -41 46q0 45 41 45h113v117q0 19 15.5 30t36.5 11q49 0 49 -40v-118h271q42 0 42 -45q0 -46 -42 -46zM705 -135q0 -40 -52 -40q-49 0 -49 36v174h-409q-33 0 -33 46q0 47 35 47h434q74 0 74 -85v-178z" />
    <glyph glyph-name="uniAD00" unicode="&#xad00;" 
d="M847 368h-127v-254q0 -37 -50 -37q-51 0 -51 37v558q0 38 51 38q50 0 50 -37v-212h127q32 0 32 -46q0 -47 -32 -47zM489 467q0 -62 -7 -97q-8 -39 -50 -39q-21 0 -36.5 11.5t-15.5 30.5q0 6 2 13q6 19 6 79v91h-279q-33 0 -33 44q0 47 36 47h303q74 0 74 -78v-102z
M552 168h-485q-41 0 -41 46q0 45 41 45h115v117q0 19 15.5 30t36.5 11q49 0 49 -40v-118h269q42 0 42 -45q0 -46 -42 -46zM688 -72q34 0 34 -46q0 -48 -36 -48h-426q-29 0 -55 20.5t-26 51.5v185q0 40 52 40q49 0 49 -35v-168h408z" />
    <glyph glyph-name="uniAD04" unicode="&#xad04;" 
d="M847 390h-127v-175q0 -37 -50 -37q-51 0 -51 37v457q0 38 51 38q50 0 50 -37v-190h127q32 0 32 -46q0 -47 -32 -47zM489 487q0 -62 -7 -97q-8 -39 -50 -39q-21 0 -36.5 11.5t-15.5 30.5q0 6 2 13q6 19 6 79v91h-279q-38 0 -38 45q0 46 41 46h303q74 0 74 -78v-102z
M554 224h-485q-41 0 -41 46q0 45 41 45h113v117q0 19 15.5 30t36.5 11q49 0 49 -40v-118h271q42 0 42 -45q0 -46 -42 -46zM704 20q0 -67 -72 -67h-344v-40h395q33 0 33 -45q0 -47 -35 -47h-411q-34 0 -57 16q-27 18 -27 53v85q0 24 22 43q19 17 40 17h353v40h-382
q-34 0 -34 45q0 47 36 47h418q34 0 52 -27q13 -21 13 -43v-77z" />
    <glyph glyph-name="uniAD06" unicode="&#xad06;" 
d="M847 390h-127v-175q0 -37 -50 -37q-51 0 -51 37v457q0 38 51 38q50 0 50 -37v-190h127q32 0 32 -46q0 -47 -32 -47zM489 487q0 -62 -7 -97q-8 -39 -50 -39q-21 0 -36.5 11.5t-15.5 30.5q0 6 2 13q6 19 6 79v91h-279q-38 0 -38 45q0 46 41 46h303q74 0 74 -78v-102z
M554 222h-485q-41 0 -41 46q0 45 41 45h113v117q0 19 15.5 30t36.5 11q49 0 49 -40v-118h271q42 0 42 -45q0 -46 -42 -46zM705 -99q0 -28 -19 -47.5t-48 -19.5h-127q-30 0 -50 19t-20 47v196q0 28 20 47.5t49 19.5h128q26 0 46.5 -22t20.5 -45v-195zM423 18q0 -65 -70 -65
h-109v-35h159q33 0 33 -43q0 -45 -36 -45h-167q-36 0 -60 16q-28 18 -28 53v84q0 24 21 41t40 17h119v33h-146q-33 0 -33 43q0 47 38 47h170q37 0 56 -28q13 -19 13 -43v-75zM603 -74v145h-62v-145h62z" />
    <glyph glyph-name="uniAD0C" unicode="&#xad0c;" 
d="M847 390h-127v-175q0 -37 -50 -37q-51 0 -51 37v457q0 38 51 38q50 0 50 -37v-190h127q32 0 32 -46q0 -47 -32 -47zM489 487q0 -62 -7 -97q-8 -39 -50 -39q-21 0 -36.5 11.5t-15.5 30.5q0 6 2 13q6 19 6 79v91h-279q-38 0 -38 45q0 46 41 46h303q74 0 74 -78v-102z
M554 209h-485q-41 0 -41 46q0 45 41 45h113v117q0 19 15.5 30t36.5 11q49 0 49 -40v-118h271q42 0 42 -45q0 -46 -42 -46zM702 -99q0 -28 -18.5 -47.5t-46.5 -19.5h-408q-28 0 -45.5 19.5t-17.5 47.5v168q0 28 17.5 48t45.5 20h408q25 0 45 -22t20 -45v-169zM600 -74v119
h-334v-119h334z" />
    <glyph glyph-name="uniAD0D" unicode="&#xad0d;" 
d="M847 390h-127v-175q0 -37 -50 -37q-51 0 -51 37v457q0 38 51 38q50 0 50 -37v-190h127q32 0 32 -46q0 -47 -32 -47zM489 487q0 -62 -7 -97q-8 -39 -50 -39q-21 0 -36.5 11.5t-15.5 30.5q0 6 2 13q6 19 6 79v91h-279q-38 0 -38 45q0 46 41 46h303q74 0 74 -78v-102z
M554 209h-485q-41 0 -41 46q0 45 41 45h113v117q0 19 15.5 30t36.5 11q49 0 49 -40v-118h271q42 0 42 -45q0 -46 -42 -46zM712 -79q0 -87 -73 -87h-389q-33 0 -52 29q-16 24 -16 55v209q0 18 16 28.5t37 10.5q47 0 47 -34v-57h331v60q0 35 49 35q50 0 50 -37v-212zM613 -73
v57h-331v-57h331z" />
    <glyph glyph-name="uniAD0F" unicode="&#xad0f;" 
d="M847 368h-127v-254q0 -37 -50 -37q-51 0 -51 37v558q0 38 51 38q50 0 50 -37v-212h127q32 0 32 -46q0 -47 -32 -47zM489 487q0 -62 -7 -97q-8 -39 -50 -39q-21 0 -36.5 11.5t-15.5 30.5q0 6 2 13q6 19 6 79v91h-279q-33 0 -33 44q0 47 36 47h303q74 0 74 -78v-102z
M552 203h-485q-41 0 -41 46q0 45 41 45h115v117q0 19 15.5 30t36.5 11q49 0 49 -40v-118h269q42 0 42 -45q0 -46 -42 -46zM708 -94q15 -15 15 -34q0 -21 -17 -38t-40 -17q-13 0 -25 7q-44 18 -107 60q-67 46 -78 70q-11 -23 -81 -70q-61 -41 -105 -60q-14 -6 -28 -6
q-24 0 -40 16t-16 36q0 22 19 36q201 71 201 181v32q0 37 51 37q49 0 49 -36v-32q0 -108 202 -182z" />
    <glyph glyph-name="uniAD11" unicode="&#xad11;" 
d="M847 390h-127v-175q0 -37 -50 -37q-51 0 -51 37v457q0 38 51 38q50 0 50 -37v-190h127q32 0 32 -46q0 -47 -32 -47zM489 487q0 -62 -7 -97q-8 -39 -50 -39q-21 0 -36.5 11.5t-15.5 30.5q0 6 2 13q6 19 6 79v91h-279q-38 0 -38 45q0 46 41 46h303q74 0 74 -78v-102z
M554 226h-485q-41 0 -41 46q0 45 41 45h113v117q0 19 15.5 30t36.5 11q49 0 49 -40v-118h271q42 0 42 -45q0 -46 -42 -46zM677 9q0 -80 -60 -139.5t-142 -59.5t-142 59.5t-60 139.5q0 81 60 140t142 59t142 -59t60 -140zM579 9q0 44 -29.5 73.5t-74.5 29.5t-74.5 -29.5
t-29.5 -73.5t29.5 -73t74.5 -29t74.5 29t29.5 73z" />
    <glyph glyph-name="uniAD18" unicode="&#xad18;" 
d="M787 -56q0 -40 -51 -40t-51 40v344h-84v-344q0 -40 -50 -40q-51 0 -51 40v709q0 38 51 38q50 0 50 -38v-273h84v273q0 38 52 38q50 0 50 -38v-709zM449 407q0 -62 -7 -97q-8 -39 -50 -39q-21 0 -36.5 11.5t-15.5 30.5q0 6 2 13q6 19 6 80v119h-239q-33 0 -33 45
q0 47 36 47h262q75 0 75 -78v-132zM448 81h-375q-41 0 -41 46q0 45 41 45h96v148q0 19 15.5 29.5t35.5 10.5q50 0 50 -40v-148h178q42 0 42 -45q0 -46 -42 -46z" />
    <glyph glyph-name="uniAD1C" unicode="&#xad1c;" 
d="M787 121q0 -40 -50 -40q-21 0 -36.5 11t-15.5 30v232h-74v-202q0 -41 -50 -41q-20 0 -35.5 11t-15.5 30v520q0 39 52 39q49 0 49 -38v-227h74v226q0 39 52 39q50 0 50 -38v-552zM449 464q0 -61 -7 -96q-8 -40 -50 -40q-21 0 -36.5 12t-15.5 31q0 6 2 13q6 20 6 79v93
h-239q-33 0 -33 45q0 47 36 47h263q74 0 74 -79v-105zM462 167h-395q-41 0 -41 46q0 45 41 45h102v134q0 19 15.5 30t36.5 11q49 0 49 -40v-135h192q42 0 42 -45q0 -46 -42 -46zM736 -72q34 0 34 -46q0 -48 -36 -48h-426q-29 0 -55 20.5t-26 51.5v175q0 40 52 40
q49 0 49 -35v-158h408z" />
    <glyph glyph-name="uniAD20" unicode="&#xad20;" 
d="M787 221q0 -41 -50 -41q-21 0 -36.5 11t-15.5 30v168h-74v-152q0 -41 -50 -41q-20 0 -35.5 11t-15.5 30v435q0 39 52 39q49 0 49 -38v-192h74v191q0 39 52 39q50 0 50 -38v-452zM449 484q0 -61 -7 -96q-8 -40 -50 -40q-21 0 -36.5 12t-15.5 31q0 6 2 13q6 20 6 79v93
h-239q-33 0 -33 45q0 47 36 47h263q74 0 74 -79v-105zM460 217h-392q-41 0 -41 46q0 45 41 45h101v106q0 19 15.5 30t36.5 11q49 0 49 -40v-107h190q42 0 42 -45q0 -46 -42 -46zM772 20q0 -67 -72 -67h-344v-40h395q33 0 33 -45q0 -47 -35 -47h-411q-34 0 -57 16
q-27 18 -27 53v85q0 24 22 43q19 17 40 17h353v40h-382q-34 0 -34 45q0 47 36 47h418q34 0 52 -27q13 -21 13 -43v-77z" />
    <glyph glyph-name="uniAD29" unicode="&#xad29;" 
d="M787 221q0 -41 -50 -41q-21 0 -36.5 11t-15.5 30v168h-74v-152q0 -41 -50 -41q-20 0 -35.5 11t-15.5 30v435q0 39 52 39q49 0 49 -38v-192h74v191q0 39 52 39q50 0 50 -38v-452zM449 484q0 -61 -7 -96q-8 -40 -50 -40q-21 0 -36.5 12t-15.5 31q0 6 2 13q6 20 6 79v93
h-239q-33 0 -33 45q0 47 36 47h263q74 0 74 -79v-105zM460 213h-392q-41 0 -41 46q0 45 41 45h101v106q0 19 15.5 30t36.5 11q49 0 49 -40v-107h190q42 0 42 -45q0 -46 -42 -46zM773 -79q0 -87 -73 -87h-389q-33 0 -52 29q-16 24 -16 55v209q0 18 16 28.5t37 10.5
q47 0 47 -34v-57h331v60q0 35 49 35q50 0 50 -37v-212zM674 -73v57h-331v-57h331z" />
    <glyph glyph-name="uniAD2C" unicode="&#xad2c;" 
d="M787 221q0 -41 -50 -41q-21 0 -36.5 11t-15.5 30v168h-74v-152q0 -41 -50 -41q-20 0 -35.5 11t-15.5 30v435q0 39 52 39q49 0 49 -38v-192h74v191q0 39 52 39q50 0 50 -38v-452zM449 484q0 -61 -7 -96q-8 -40 -50 -40q-21 0 -36.5 12t-15.5 31q0 6 2 13q6 20 6 79v93
h-239q-33 0 -33 45q0 47 36 47h263q74 0 74 -79v-105zM460 199h-392q-41 0 -41 46q0 45 41 45h101v106q0 19 15.5 30t36.5 11q49 0 49 -40v-107h190q42 0 42 -45q0 -46 -42 -46zM755 -93q12 -17 12 -33q0 -21 -18.5 -35.5t-39.5 -14.5q-17 0 -26 10q-64 40 -87 87
q-8 -18 -51 -54q-52 -45 -88 -45q-31 0 -82 45q-42 36 -52 54q-9 -20 -36.5 -47t-50.5 -41q-16 -9 -32 -9q-22 0 -37.5 14.5t-15.5 35.5q0 18 12 34q46 21 76 58q33 44 33 97v42q0 39 51 39q50 0 50 -37v-43q0 -90 87 -144q85 51 85 143v42q0 39 51 39q50 0 50 -37v-43
q0 -98 109 -157z" />
    <glyph glyph-name="uniAD2D" unicode="&#xad2d;" 
d="M787 221q0 -41 -50 -41q-21 0 -36.5 11t-15.5 30v168h-74v-133q0 -41 -50 -41q-20 0 -35.5 11t-15.5 30v416q0 39 52 39q49 0 49 -38v-192h74v191q0 39 52 39q50 0 50 -38v-452zM449 484q0 -61 -7 -96q-8 -40 -50 -40q-21 0 -36.5 12t-15.5 31q0 6 2 13q6 20 6 79v93
h-239q-33 0 -33 45q0 47 36 47h263q74 0 74 -79v-105zM460 215h-392q-41 0 -41 46q0 45 41 45h101v106q0 19 15.5 30t36.5 11q49 0 49 -40v-107h190q42 0 42 -45q0 -46 -42 -46zM722 9q0 -80 -60 -139.5t-142 -59.5t-142 59.5t-60 139.5q0 81 60 140t142 59t142 -59t60 -140
zM624 9q0 44 -29.5 73.5t-74.5 29.5t-74.5 -29.5t-29.5 -73.5t29.5 -73t74.5 -29t74.5 29t29.5 73z" />
    <glyph glyph-name="uniAD34" unicode="&#xad34;" 
d="M745 -56q0 -40 -50 -40q-51 0 -51 40v709q0 38 51 38q50 0 50 -38v-709zM489 407q0 -62 -7 -97q-8 -39 -50 -39q-21 0 -36.5 11.5t-15.5 30.5q0 6 2 13q6 19 6 80v119h-279q-38 0 -38 45q0 47 41 47h303q74 0 74 -78v-132zM571 82h-502q-41 0 -41 46q0 45 41 45h112v137
q0 19 15.5 29.5t35.5 10.5q50 0 50 -40v-137h289q42 0 42 -45q0 -46 -42 -46z" />
    <glyph glyph-name="uniAD35" unicode="&#xad35;" 
d="M745 212q0 -37 -50 -37q-51 0 -51 37v460q0 38 51 38q50 0 50 -37v-461zM489 487q0 -62 -7 -97q-8 -39 -50 -39q-21 0 -36.5 11.5t-15.5 30.5q0 6 2 13q6 19 6 79v91h-279q-38 0 -38 45q0 46 41 46h303q74 0 74 -78v-102zM554 197h-485q-41 0 -41 46q0 45 41 45h113v113
q0 19 15.5 30t35.5 11q50 0 50 -41v-113h271q42 0 42 -45q0 -46 -42 -46zM722 -135q0 -40 -52 -40q-49 0 -49 36v174h-409q-33 0 -33 46q0 47 35 47h434q74 0 74 -85v-178z" />
    <glyph glyph-name="uniAD38" unicode="&#xad38;" 
d="M745 114q0 -37 -50 -37q-51 0 -51 37v558q0 38 51 38q50 0 50 -37v-559zM489 467q0 -62 -7 -97q-8 -39 -50 -39q-21 0 -36.5 11.5t-15.5 30.5q0 6 2 13q6 19 6 79v91h-279q-33 0 -33 44q0 47 36 47h303q74 0 74 -78v-102zM552 168h-485q-41 0 -41 46q0 45 41 45h115v134
q0 19 15.5 30t36.5 11q49 0 49 -40v-135h269q42 0 42 -45q0 -46 -42 -46zM710 -72q34 0 34 -46q0 -48 -36 -48h-426q-29 0 -55 20.5t-26 51.5v185q0 40 52 40q49 0 49 -35v-168h408z" />
    <glyph glyph-name="uniAD3C" unicode="&#xad3c;" 
d="M745 212q0 -37 -50 -37q-51 0 -51 37v460q0 38 51 38q50 0 50 -37v-461zM489 487q0 -62 -7 -97q-8 -39 -50 -39q-21 0 -36.5 11.5t-15.5 30.5q0 6 2 13q6 19 6 79v91h-279q-38 0 -38 45q0 46 41 46h303q74 0 74 -78v-102zM554 219h-485q-41 0 -41 46q0 45 41 45h113v113
q0 19 15.5 30t35.5 11q50 0 50 -41v-113h271q42 0 42 -45q0 -46 -42 -46zM728 20q0 -67 -72 -67h-344v-40h395q33 0 33 -45q0 -47 -35 -47h-411q-34 0 -57 16q-27 18 -27 53v85q0 24 22 43q19 17 40 17h353v40h-382q-34 0 -34 45q0 47 36 47h418q34 0 52 -27q13 -21 13 -43
v-77z" />
    <glyph glyph-name="uniAD44" unicode="&#xad44;" 
d="M745 212q0 -37 -50 -37q-51 0 -51 37v460q0 38 51 38q50 0 50 -37v-461zM489 487q0 -62 -7 -97q-8 -39 -50 -39q-21 0 -36.5 11.5t-15.5 30.5q0 6 2 13q6 19 6 79v91h-279q-38 0 -38 45q0 46 41 46h303q74 0 74 -78v-102zM554 197h-485q-41 0 -41 46q0 45 41 45h113v113
q0 19 15.5 30t35.5 11q50 0 50 -41v-113h271q42 0 42 -45q0 -46 -42 -46zM726 -99q0 -28 -18.5 -47.5t-46.5 -19.5h-408q-28 0 -45.5 19.5t-17.5 47.5v168q0 28 17.5 48t45.5 20h408q25 0 45 -22t20 -45v-169zM624 -74v119h-334v-119h334z" />
    <glyph glyph-name="uniAD45" unicode="&#xad45;" 
d="M745 212q0 -37 -50 -37q-51 0 -51 37v460q0 38 51 38q50 0 50 -37v-461zM489 487q0 -62 -7 -97q-8 -39 -50 -39q-21 0 -36.5 11.5t-15.5 30.5q0 6 2 13q6 19 6 79v91h-279q-38 0 -38 45q0 46 41 46h303q74 0 74 -78v-102zM554 213h-485q-41 0 -41 46q0 45 41 45h113v113
q0 19 15.5 30t35.5 11q50 0 50 -41v-113h271q42 0 42 -45q0 -46 -42 -46zM730 -79q0 -87 -73 -87h-389q-33 0 -52 29q-16 24 -16 55v209q0 18 16 28.5t37 10.5q47 0 47 -34v-57h331v60q0 35 49 35q50 0 50 -37v-212zM631 -73v57h-331v-57h331z" />
    <glyph glyph-name="uniAD47" unicode="&#xad47;" 
d="M745 114q0 -37 -50 -37q-51 0 -51 37v558q0 38 51 38q50 0 50 -37v-559zM489 487q0 -62 -7 -97q-8 -39 -50 -39q-21 0 -36.5 11.5t-15.5 30.5q0 6 2 13q6 19 6 79v91h-279q-33 0 -33 44q0 47 36 47h303q74 0 74 -78v-102zM552 200h-485q-41 0 -41 46q0 45 41 45h115v134
q0 19 15.5 30t36.5 11q49 0 49 -40v-135h269q42 0 42 -45q0 -46 -42 -46zM708 -94q15 -15 15 -34q0 -21 -17 -38t-40 -17q-13 0 -25 7q-44 18 -107 60q-67 46 -78 70q-11 -23 -81 -70q-61 -41 -105 -60q-14 -6 -28 -6q-24 0 -40 16t-16 36q0 22 19 36q201 71 201 181v32
q0 37 51 37q49 0 49 -36v-32q0 -108 202 -182z" />
    <glyph glyph-name="uniAD49" unicode="&#xad49;" 
d="M745 212q0 -37 -50 -37q-51 0 -51 37v460q0 38 51 38q50 0 50 -37v-461zM489 487q0 -62 -7 -97q-8 -39 -50 -39q-21 0 -36.5 11.5t-15.5 30.5q0 6 2 13q6 19 6 79v91h-279q-38 0 -38 45q0 46 41 46h303q74 0 74 -78v-102zM554 219h-485q-41 0 -41 46q0 45 41 45h113v113
q0 19 15.5 30t35.5 11q50 0 50 -41v-113h271q42 0 42 -45q0 -46 -42 -46zM692 9q0 -80 -60 -139.5t-142 -59.5t-142 59.5t-60 139.5q0 81 60 140t142 59t142 -59t60 -140zM594 9q0 44 -29.5 73.5t-74.5 29.5t-74.5 -29.5t-29.5 -73.5t29.5 -73t74.5 -29t74.5 29t29.5 73z
" />
    <glyph glyph-name="uniAD50" unicode="&#xad50;" 
d="M694 334q0 -55 -7.5 -93.5t-49.5 -38.5q-21 0 -37 12t-16 31q0 6 2 13q6 20 6 77v181h-368q-39 0 -39 45q0 47 41 47h393q75 0 75 -79v-195zM800 10h-699q-41 0 -41 46q0 45 41 45h139v166q0 19 15.5 29.5t36.5 10.5q49 0 49 -39v-167h93v166q0 19 15.5 29.5t36.5 10.5
q49 0 49 -39v-167h265q42 0 42 -45q0 -46 -42 -46z" />
    <glyph glyph-name="uniAD54" unicode="&#xad54;" 
d="M694 472q0 -55 -7.5 -93.5t-49.5 -38.5q-21 0 -37 12t-16 31q0 6 2 13q6 20 6 76v107h-368q-40 0 -40 46t42 46h393q75 0 75 -79v-120zM800 169h-699q-41 0 -41 46q0 45 41 45h138v133q0 40 51 40q50 0 50 -40v-133h94v133q0 40 51 40q50 0 50 -40v-133h265q42 0 42 -45
q0 -46 -42 -46zM684 -71q34 0 34 -47q0 -48 -36 -48h-395q-32 0 -54 18q-26 20 -26 54v188q0 41 52 41q48 0 48 -36v-170h377z" />
    <glyph glyph-name="uniAD58" unicode="&#xad58;" 
d="M694 492q0 -55 -7.5 -93.5t-49.5 -38.5q-21 0 -37 12t-16 31q0 6 2 13q6 20 6 76v107h-368q-40 0 -40 46t42 46h393q75 0 75 -79v-120zM800 223h-699q-41 0 -41 46q0 45 41 45h138v123q0 41 51 41q50 0 50 -41v-123h94v123q0 41 51 41q50 0 50 -41v-123h265q42 0 42 -45
q0 -46 -42 -46zM694 13q0 -63 -72 -63h-313v-41h366q33 0 33 -45q0 -47 -35 -47h-381q-35 0 -58 16q-27 19 -27 54v86q0 24 22 42q19 17 40 17h322v43h-353q-33 0 -33 45q0 47 36 47h387q34 0 53 -28q13 -20 13 -43v-83z" />
    <glyph glyph-name="uniAD61" unicode="&#xad61;" 
d="M694 492q0 -55 -7.5 -93.5t-49.5 -38.5q-21 0 -37 12t-16 31q0 6 2 13q6 20 6 76v107h-368q-40 0 -40 46t42 46h393q75 0 75 -79v-120zM800 223h-699q-41 0 -41 46q0 45 41 45h138v123q0 41 51 41q50 0 50 -41v-123h94v123q0 41 51 41q50 0 50 -41v-123h265q42 0 42 -45
q0 -46 -42 -46zM693 -80q0 -85 -74 -85h-346q-33 0 -52 29q-16 24 -16 55v210q0 18 16 28.5t37 10.5q47 0 47 -34v-60h288v63q0 35 49 35q51 0 51 -37v-215zM593 -71v53h-288v-53h288z" />
    <glyph glyph-name="uniAD63" unicode="&#xad63;" 
d="M694 492q0 -55 -7.5 -93.5t-49.5 -38.5q-21 0 -37 12t-16 31q0 6 2 13q6 20 6 76v107h-368q-40 0 -40 46t42 46h393q75 0 75 -79v-120zM800 206h-699q-41 0 -41 46q0 45 41 45h138v123q0 41 51 41q50 0 50 -41v-123h94v123q0 41 51 41q50 0 50 -41v-123h265q42 0 42 -45
q0 -46 -42 -46zM695 -102q16 -13 16 -39q0 -21 -12.5 -37t-35.5 -16q-11 0 -23 4q-51 18 -112 59q-68 46 -83 79q-17 -33 -83 -78q-60 -40 -112 -60q-13 -5 -24 -5q-22 0 -35 16t-13 37q0 25 17 39q70 21 124 59q76 54 76 120v61q0 38 50 38t50 -37v-62q0 -65 77 -119
q55 -39 123 -59z" />
    <glyph glyph-name="uniAD6C" unicode="&#xad6c;" 
d="M694 364q0 -55 -7.5 -93.5t-49.5 -38.5q-21 0 -37 12t-16 31q0 6 2 13q6 20 6 77v181h-368q-38 0 -38 46t40 46h393q75 0 75 -79v-195zM801 82h-301v-184q0 -40 -49 -40q-21 0 -36 11t-15 30v183h-302q-41 0 -41 46q0 45 41 45h703q42 0 42 -45q0 -46 -42 -46z" />
    <glyph glyph-name="uniAD6D" unicode="&#xad6d;" 
d="M694 492q0 -55 -7.5 -93.5t-49.5 -38.5q-21 0 -37 12t-16 31q0 6 2 13q6 20 6 76v107h-368q-40 0 -40 46t42 46h393q75 0 75 -79v-120zM801 233h-305v-99h123q75 0 75 -78v-104q0 -59 -7 -94q-8 -39 -51 -39q-20 0 -36 11.5t-16 30.5q0 6 2 13q6 19 6 76v92h-368
q-34 0 -34 45q0 47 36 47h169v99h-297q-41 0 -41 46q0 45 41 45h703q42 0 42 -45q0 -46 -42 -46z" />
    <glyph glyph-name="uniAD70" unicode="&#xad70;" 
d="M694 472q0 -55 -7.5 -93.5t-49.5 -38.5q-21 0 -37 12t-16 31q0 6 2 13q6 20 6 76v107h-368q-40 0 -40 46t42 46h393q75 0 75 -79v-120zM800 209h-275v-146q0 -42 -50 -42q-21 0 -36 11.5t-15 31.5v145h-327q-41 0 -41 46q0 45 41 45h703q42 0 42 -45q0 -46 -42 -46z
M684 -71q34 0 34 -47q0 -48 -36 -48h-395q-32 0 -54 18q-26 20 -26 54v188q0 41 52 41q48 0 48 -36v-170h377z" />
    <glyph glyph-name="uniAD73" unicode="&#xad73;" 
d="M694 492q0 -55 -7.5 -93.5t-49.5 -38.5q-21 0 -37 12t-16 31q0 6 2 13q6 20 6 76v107h-368q-40 0 -40 46t42 46h393q75 0 75 -79v-120zM801 236h-305v-92h174q16 0 25.5 -15t9.5 -35q0 -42 -31 -42h-366v-127h365q34 0 34 -45q0 -47 -36 -47h-402q-21 0 -42 18.5
t-21 42.5v190q0 22 20 41t42 19h127v92h-297q-41 0 -41 46q0 45 41 45h703q42 0 42 -45q0 -46 -42 -46z" />
    <glyph glyph-name="uniAD74" unicode="&#xad74;" 
d="M694 492q0 -55 -7.5 -93.5t-49.5 -38.5q-21 0 -37 12t-16 31q0 6 2 13q6 20 6 76v107h-368q-40 0 -40 46t42 46h393q75 0 75 -79v-120zM801 239h-305v-72h132q34 0 53 -28q13 -20 13 -43v-83q0 -63 -72 -63h-313v-41h366q33 0 33 -45q0 -47 -35 -47h-381q-35 0 -58 16
q-27 19 -27 54v86q0 24 22 42q19 17 40 17h322v43h-353q-33 0 -33 45q0 47 36 47h154v72h-297q-41 0 -41 46q0 45 41 45h703q42 0 42 -45q0 -46 -42 -46z" />
    <glyph glyph-name="uniAD75" unicode="&#xad75;" 
d="M694 492q0 -55 -7.5 -93.5t-49.5 -38.5q-21 0 -37 12t-16 31q0 6 2 13q6 20 6 76v107h-368q-40 0 -40 46t42 46h393q75 0 75 -79v-120zM801 239h-305v-88h146q78 0 78 -85v-210q0 -39 -52 -39q-50 0 -50 36v205h-142q-12 0 -21 10v-62q0 -68 -69 -68h-104v-29h162
q33 0 33 -45q0 -47 -36 -47h-175q-36 0 -59 16q-27 19 -27 54v84q0 24 22 42q19 17 39 17h111v31h-139q-33 0 -33 44q0 48 38 48h168h9v86h-297q-41 0 -41 46q0 45 41 45h703q42 0 42 -45q0 -46 -42 -46z" />
    <glyph glyph-name="uniAD76" unicode="&#xad76;" 
d="M694 492q0 -55 -7.5 -93.5t-49.5 -38.5q-21 0 -37 12t-16 31q0 6 2 13q6 20 6 76v107h-368q-40 0 -40 46t42 46h393q75 0 75 -79v-120zM801 239h-305v-94q15 8 33 8h123q26 0 46.5 -22t20.5 -45v-201q0 -28 -19 -47.5t-48 -19.5h-122q-30 0 -50 19t-20 47v202q0 9 2 17
q-9 -3 -20 -2q3 -10 3 -20v-75q0 -68 -69 -68h-104v-29h154q33 0 33 -45q0 -47 -36 -47h-167q-36 0 -59 16q-27 19 -27 54v84q0 24 22 42q19 17 39 17h111v31h-139q-33 0 -33 44q0 48 38 48h168q10 0 19 -2v88h-297q-41 0 -41 46q0 45 41 45h703q42 0 42 -45q0 -46 -42 -46z
M617 -90v151h-57v-151h57z" />
    <glyph glyph-name="uniAD7B" unicode="&#xad7b;" 
d="M694 492q0 -55 -7.5 -93.5t-49.5 -38.5q-21 0 -37 12t-16 31q0 6 2 13q6 20 6 76v107h-368q-40 0 -40 46t42 46h393q75 0 75 -79v-120zM801 239h-305v-95q0 -18 -13 -30h65v43q0 21 14.5 33t34.5 12q47 0 47 -45v-43h85q36 0 36 -42q0 -43 -36 -43h-19q25 -33 25 -75
q0 -55 -42 -97t-97 -42t-96.5 42t-41.5 97q0 42 25 75h-20q-10 0 -18 5v-28q0 -68 -69 -68h-104v-29h154q33 0 33 -45q0 -47 -36 -47h-167q-36 0 -59 16q-27 19 -27 54v84q0 24 22 42q19 17 39 17h111v31h-139q-33 0 -33 44q0 48 38 48h168q10 0 19 -2v88h-297q-41 0 -41 46
q0 45 41 45h703q42 0 42 -45q0 -46 -42 -46zM639 -46q0 44 -43 44q-42 0 -42 -44q0 -19 12 -31.5t30 -12.5q19 0 31 12.5t12 31.5z" />
    <glyph glyph-name="uniAD7C" unicode="&#xad7c;" 
d="M694 492q0 -55 -7.5 -93.5t-49.5 -38.5q-21 0 -37 12t-16 31q0 6 2 13q6 20 6 76v107h-368q-40 0 -40 46t42 46h393q75 0 75 -79v-120zM801 240h-305v-95h133q25 0 45 -22t20 -45v-177q0 -27 -19 -47t-47 -20h-358q-28 0 -45.5 19.5t-17.5 47.5v176q0 28 17.5 48t45.5 20
h125v95h-297q-41 0 -41 46q0 45 41 45h703q42 0 42 -45q0 -46 -42 -46zM592 -74v127h-285v-127h285z" />
    <glyph glyph-name="uniAD7D" unicode="&#xad7d;" 
d="M694 492q0 -55 -7.5 -93.5t-49.5 -38.5q-21 0 -37 12t-16 31q0 6 2 13q6 20 6 76v107h-368q-40 0 -40 46t42 46h393q75 0 75 -79v-120zM801 236h-305v-95q0 -43 -50 -43q-21 0 -36 11.5t-15 31.5v95h-297q-41 0 -41 46q0 45 41 45h703q42 0 42 -45q0 -46 -42 -46z
M693 -80q0 -85 -74 -85h-346q-33 0 -52 29q-16 24 -16 55v210q0 18 16 28.5t37 10.5q47 0 47 -34v-60h288v63q0 35 49 35q51 0 51 -37v-215zM593 -71v53h-288v-53h288z" />
    <glyph glyph-name="uniAD7F" unicode="&#xad7f;" 
d="M694 492q0 -55 -7.5 -93.5t-49.5 -38.5q-21 0 -37 12t-16 31q0 6 2 13q6 20 6 76v107h-368q-40 0 -40 46t42 46h393q75 0 75 -79v-120zM801 219h-305v-95q0 -5 -1 -10v-38q0 -65 77 -119q55 -39 123 -59q16 -13 16 -39q0 -21 -12.5 -37t-35.5 -16q-11 0 -23 4
q-51 18 -112 59q-68 46 -83 79q-17 -33 -83 -78q-60 -40 -112 -60q-13 -5 -24 -5q-22 0 -35 16t-13 37q0 25 17 39q70 21 124 59q76 54 76 120v143h-297q-41 0 -41 46q0 45 41 45h703q42 0 42 -45q0 -46 -42 -46z" />
    <glyph glyph-name="uniAD81" unicode="&#xad81;" 
d="M694 492q0 -55 -7.5 -93.5t-49.5 -38.5q-21 0 -37 12t-16 31q0 6 2 13q6 20 6 76v107h-368q-40 0 -40 46t42 46h393q75 0 75 -79v-120zM800 255h-300v-52q66 -18 109.5 -72.5t43.5 -122.5q0 -82 -60 -141.5t-143 -59.5t-143.5 59.5t-60.5 141.5q0 68 43.5 122.5
t109.5 71.5v53h-302q-41 0 -41 46q0 45 41 45h703q42 0 42 -45q0 -46 -42 -46zM557 8q0 45 -30.5 75t-76.5 30t-76.5 -30t-30.5 -75t30.5 -75t76.5 -30t76.5 30t30.5 75z" />
    <glyph glyph-name="uniAD82" unicode="&#xad82;" 
d="M694 492q0 -55 -7.5 -93.5t-49.5 -38.5q-21 0 -37 12t-16 31q0 6 2 13q6 20 6 76v107h-368q-40 0 -40 46t42 46h393q75 0 75 -79v-120zM801 235h-305v-92h174q42 0 42 -45q0 -46 -42 -46h-169q7 -53 82 -96q52 -31 118 -48q17 -13 17 -38q0 -21 -13 -35q-13 -17 -36 -17
q-10 0 -22 4q-53 16 -112 52q-69 42 -86 76q-19 -35 -85 -75q-54 -33 -109 -53q-13 -5 -24 -5q-22 0 -35 15.5t-13 35.5q0 25 17 39q188 60 199 145h-168q-41 0 -41 46q0 45 41 45h164v92h-297q-41 0 -41 46q0 45 41 45h703q42 0 42 -45q0 -46 -42 -46z" />
    <glyph glyph-name="uniAD88" unicode="&#xad88;" 
d="M751 -56q0 -40 -50 -40t-50 40v111h-133q-38 0 -38 47q0 45 38 45h133v506q0 38 51 38q49 0 49 -38v-709zM489 427q0 -62 -7 -97q-8 -39 -50 -39q-21 0 -36.5 11.5t-15.5 30.5q0 6 2 13q6 19 6 80v119h-279q-33 0 -33 45q0 47 36 47h303q74 0 74 -78v-132zM532 176h-199
v-175q0 -40 -50 -40q-20 0 -35.5 10.5t-15.5 29.5v175h-165q-41 0 -41 46q0 45 41 45h465q42 0 42 -45q0 -46 -42 -46z" />
    <glyph glyph-name="uniAD89" unicode="&#xad89;" 
d="M751 214q0 -42 -50 -42t-50 42v124h-122q-39 0 -39 47q0 45 38 45h123v242q0 39 51 39q49 0 49 -38v-459zM489 507q0 -62 -7 -97q-8 -39 -50 -39q-21 0 -36.5 11.5t-15.5 30.5q0 6 2 13q6 19 6 79v91h-279q-33 0 -33 44q0 47 36 47h303q74 0 74 -78v-102zM743 -135
q0 -40 -52 -40q-49 0 -49 36v174h-409q-33 0 -33 46q0 16 7 28q-27 11 -27 37v77h-113q-41 0 -41 46q0 45 41 45h485q42 0 42 -45q0 -46 -42 -46h-271v-78q0 -9 -4 -17h392q74 0 74 -85v-178z" />
    <glyph glyph-name="uniAD8C" unicode="&#xad8c;" 
d="M751 116q0 -42 -50 -42t-50 42v212h-122q-39 0 -39 47q0 45 38 45h123v252q0 39 51 39q49 0 49 -38v-557zM489 487q0 -62 -7 -97q-8 -39 -50 -39q-21 0 -36.5 11.5t-15.5 30.5q0 6 2 13q6 19 6 79v91h-279q-33 0 -33 44q0 47 36 47h303q74 0 74 -78v-102zM717 -72
q34 0 34 -46q0 -48 -36 -48h-416q-29 0 -55 20.5t-26 51.5v165q0 8 3 14q-41 7 -41 41v87h-113q-41 0 -41 46q0 45 41 45h485q42 0 42 -45q0 -46 -42 -46h-271v-88q0 -8 -3 -14q41 -4 41 -35v-148h398z" />
    <glyph glyph-name="uniAD90" unicode="&#xad90;" 
d="M751 214q0 -42 -50 -42t-50 42v141h-122q-39 0 -39 47q0 45 38 45h123v225q0 39 51 39q49 0 49 -38v-459zM489 507q0 -62 -7 -97q-8 -39 -50 -39q-21 0 -36.5 11.5t-15.5 30.5q0 6 2 13q6 19 6 79v91h-279q-33 0 -33 44q0 47 36 47h303q74 0 74 -78v-102zM733 20
q0 -67 -72 -67h-344v-40h395q33 0 33 -45q0 -47 -35 -47h-411q-34 0 -57 16q-27 18 -27 53v85q0 24 22 43q19 17 40 17h353v40h-382q-17 0 -26 15.5t-7 35.5q-35 9 -35 41v68h-113q-41 0 -41 46q0 45 41 45h487q42 0 42 -45q0 -46 -42 -46h-273v-68h387q34 0 52 -27
q13 -21 13 -43v-77z" />
    <glyph glyph-name="uniAD9C" unicode="&#xad9c;" 
d="M751 214q0 -42 -50 -42t-50 42v124h-122q-39 0 -39 47q0 45 38 45h123v242q0 39 51 39q49 0 49 -38v-459zM489 507q0 -62 -7 -97q-8 -39 -50 -39q-21 0 -36.5 11.5t-15.5 30.5q0 6 2 13q6 19 6 79v91h-279q-33 0 -33 44q0 47 36 47h303q74 0 74 -78v-102zM554 223h-273
v-67q0 -43 -50 -43q-20 0 -35.5 11.5t-15.5 31.5v67h-113q-41 0 -41 46q0 45 41 45h487q42 0 42 -45q0 -46 -42 -46zM754 -93q12 -17 12 -33q0 -21 -18.5 -35.5t-39.5 -14.5q-17 0 -26 10q-64 40 -87 87q-8 -18 -51 -54q-52 -45 -88 -45q-31 0 -82 45q-42 36 -52 54
q-9 -20 -36.5 -47t-50.5 -41q-16 -9 -32 -9q-22 0 -37.5 14.5t-15.5 35.5q0 18 12 34q46 21 76 58q33 44 33 97v42q0 39 51 39q50 0 50 -37v-43q0 -90 87 -144q85 51 85 143v42q0 39 51 39q50 0 50 -37v-43q0 -98 109 -157z" />
    <glyph glyph-name="uniAD9D" unicode="&#xad9d;" 
d="M751 214q0 -42 -50 -42t-50 42v124h-122q-39 0 -39 47q0 45 38 45h123v242q0 39 51 39q49 0 49 -38v-459zM489 507q0 -62 -7 -97q-8 -39 -50 -39q-21 0 -36.5 11.5t-15.5 30.5q0 6 2 13q6 19 6 79v91h-279q-33 0 -33 44q0 47 36 47h303q74 0 74 -78v-102zM554 233h-273
v-99q0 -43 -50 -43q-20 0 -35.5 11.5t-15.5 31.5v99h-113q-41 0 -41 46q0 45 41 45h487q42 0 42 -45q0 -46 -42 -46zM692 9q0 -80 -60 -139.5t-142 -59.5t-142 59.5t-60 139.5q0 81 60 140t142 59t142 -59t60 -140zM594 9q0 44 -29.5 73.5t-74.5 29.5t-74.5 -29.5
t-29.5 -73.5t29.5 -73t74.5 -29t74.5 29t29.5 73zM0 0z" />
    <glyph glyph-name="uniADA4" unicode="&#xada4;" 
d="M786 -56q0 -40 -50 -40q-51 0 -51 40v709q0 38 51 38q50 0 50 -38v-709zM634 -56q0 -40 -50 -40t-50 40v92h-106q-39 0 -39 47q0 45 38 45h107v525q0 38 51 38q49 0 49 -38v-709zM449 425q0 -61 -7 -96q-8 -40 -50 -40q-21 0 -36.5 12t-15.5 31q0 6 2 13q6 20 6 79v120
h-239q-33 0 -33 45q0 47 36 47h262q75 0 75 -78v-133zM480 173h-166v-172q0 -40 -50 -40q-20 0 -35.5 10.5t-15.5 29.5v172h-145q-41 0 -41 46q0 45 41 45h412q42 0 42 -45q0 -46 -42 -46z" />
    <glyph glyph-name="uniADB7" unicode="&#xadb7;" 
d="M787 108q0 -40 -50 -40q-21 0 -36.5 11t-15.5 30v563q0 39 52 39q50 0 50 -38v-565zM635 112q0 -40 -49 -40q-21 0 -36.5 11t-15.5 30v47h-106q-39 0 -39 47q0 45 38 45h107v420q0 39 52 39q49 0 49 -38v-561zM449 504q0 -61 -7 -96q-8 -40 -50 -40q-21 0 -36.5 12
t-15.5 31q0 6 2 13q6 20 6 79v93h-239q-33 0 -33 45q0 47 36 47h263q74 0 74 -79v-105zM480 264h-183v-124q0 -41 -50 -41q-51 0 -51 41v124h-128q-41 0 -41 46q0 45 41 45h412q42 0 42 -45q0 -46 -42 -46zM708 -94q15 -15 15 -34q0 -21 -17 -38t-40 -17q-13 0 -25 7
q-44 18 -107 60q-67 46 -78 70q-11 -23 -81 -70q-61 -41 -105 -60q-14 -6 -28 -6q-24 0 -40 16t-16 36q0 22 19 36q88 31 125 54q76 48 76 117v32q0 37 51 37q49 0 49 -36v-32q0 -68 76 -116q35 -22 126 -56z" />
    <glyph glyph-name="uniADC0" unicode="&#xadc0;" 
d="M747 -56q0 -40 -50 -40t-50 40v709q0 38 51 38q49 0 49 -38v-709zM489 427q0 -62 -7 -97q-8 -39 -50 -39q-21 0 -36.5 11.5t-15.5 30.5q0 6 2 13q6 19 6 80v119h-279q-33 0 -33 45q0 47 36 47h303q74 0 74 -78v-132zM546 156h-205v-155q0 -40 -50 -40q-20 0 -35.5 10.5
t-15.5 29.5v155h-172q-41 0 -41 46q0 45 41 45h478q42 0 42 -45q0 -46 -42 -46z" />
    <glyph glyph-name="uniADC1" unicode="&#xadc1;" 
d="M747 213q0 -42 -50 -42t-50 42v459q0 39 51 39q49 0 49 -38v-460zM489 507q0 -62 -7 -97q-8 -39 -50 -39q-21 0 -36.5 11.5t-15.5 30.5q0 6 2 13q6 19 6 79v91h-279q-33 0 -33 44q0 47 36 47h303q74 0 74 -78v-102zM722 -135q0 -40 -52 -40q-49 0 -49 36v174h-409
q-33 0 -33 46q0 47 35 47h1q-28 11 -28 38v57h-119q-41 0 -41 46q0 45 41 45h478q42 0 42 -45q0 -46 -42 -46h-258v-57q0 -28 -27 -38h387q74 0 74 -85v-178z" />
    <glyph glyph-name="uniADC4" unicode="&#xadc4;" 
d="M747 114q0 -40 -49 -40q-21 0 -36 11t-15 30v557q0 39 51 39q49 0 49 -38v-559zM489 487q0 -62 -7 -97q-8 -39 -50 -39q-21 0 -36.5 11.5t-15.5 30.5q0 6 2 13q6 19 6 79v91h-279q-33 0 -33 44q0 47 36 47h303q74 0 74 -78v-102zM710 -72q34 0 34 -46q0 -48 -36 -48h-426
q-29 0 -55 20.5t-26 51.5v165q0 5 1 9q-15 11 -15 30v93h-119q-41 0 -41 46q0 45 41 45h478q42 0 42 -45q0 -46 -42 -46h-258v-93q0 -4 -1 -8q15 -10 15 -26v-148h408z" />
    <glyph glyph-name="uniADC8" unicode="&#xadc8;" 
d="M747 213q0 -42 -50 -42t-50 42v459q0 39 51 39q49 0 49 -38v-460zM489 507q0 -62 -7 -97q-8 -39 -50 -39q-21 0 -36.5 11.5t-15.5 30.5q0 6 2 13q6 19 6 79v91h-279q-33 0 -33 44q0 47 36 47h303q74 0 74 -78v-102zM728 20q0 -67 -72 -67h-344v-40h395q33 0 33 -45
q0 -47 -35 -47h-411q-34 0 -57 16q-27 18 -27 53v85q0 24 22 43q19 17 40 17h353v40h-382q-34 0 -34 45q0 14 6 25q-28 11 -28 38v57h-119q-41 0 -41 46q0 45 41 45h478q42 0 42 -45q0 -46 -42 -46h-258v-57q0 -9 -3 -16h378q34 0 52 -27q13 -21 13 -43v-77z" />
    <glyph glyph-name="uniADD0" unicode="&#xadd0;" 
d="M747 213q0 -42 -50 -42t-50 42v459q0 39 51 39q49 0 49 -38v-460zM489 507q0 -62 -7 -97q-8 -39 -50 -39q-21 0 -36.5 11.5t-15.5 30.5q0 6 2 13q6 19 6 79v91h-279q-33 0 -33 44q0 47 36 47h303q74 0 74 -78v-102zM726 -99q0 -28 -18.5 -47.5t-46.5 -19.5h-408
q-28 0 -45.5 19.5t-17.5 47.5v168q0 38 28 57q-31 10 -31 39v77h-119q-41 0 -41 46q0 45 41 45h478q42 0 42 -45q0 -46 -42 -46h-258v-77q0 -17 -11 -28h384q25 0 45 -22t20 -45v-169zM624 -74v119h-334v-119h334z" />
    <glyph glyph-name="uniADD1" unicode="&#xadd1;" 
d="M747 223q0 -42 -50 -42t-50 42v449q0 39 51 39q49 0 49 -38v-450zM489 507q0 -62 -7 -97q-8 -39 -50 -39q-21 0 -36.5 11.5t-15.5 30.5q0 6 2 13q6 19 6 79v91h-279q-33 0 -33 44q0 47 36 47h303q74 0 74 -78v-102zM730 -79q0 -87 -73 -87h-389q-33 0 -52 29
q-16 24 -16 55v209q0 13 8 22q-21 12 -21 35v57h-119q-41 0 -41 46q0 45 41 45h478q42 0 42 -45q0 -46 -42 -46h-258v-57q0 -14 -8 -24q20 -9 20 -28v-57h331v60q0 35 49 35q50 0 50 -37v-212zM631 -73v57h-331v-57h331z" />
    <glyph glyph-name="uniADD3" unicode="&#xadd3;" 
d="M747 114q0 -40 -49 -40q-21 0 -36 11t-15 30v557q0 39 51 39q49 0 49 -38v-559zM489 507q0 -62 -7 -97q-8 -39 -50 -39q-21 0 -36.5 11.5t-15.5 30.5q0 6 2 13q6 19 6 79v91h-279q-33 0 -33 44q0 47 36 47h303q74 0 74 -78v-102zM546 213h-258v-103q0 -41 -50 -41
q-20 0 -35.5 11t-15.5 30v103h-119q-41 0 -41 46q0 45 41 45h478q42 0 42 -45q0 -46 -42 -46zM708 -94q15 -15 15 -34q0 -21 -17 -38t-40 -17q-13 0 -25 7q-44 18 -107 60q-67 46 -78 70q-11 -23 -81 -70q-61 -41 -105 -60q-14 -6 -28 -6q-24 0 -40 16t-16 36q0 22 19 36
q201 71 201 181v32q0 37 51 37q49 0 49 -36v-32q0 -108 202 -182z" />
    <glyph glyph-name="uniADDC" unicode="&#xaddc;" 
d="M694 364q0 -55 -7.5 -93.5t-49.5 -38.5q-21 0 -37 12t-16 31q0 6 2 13q6 20 6 77v181h-368q-38 0 -38 46t40 46h393q75 0 75 -79v-195zM800 88h-156v-190q0 -40 -49 -40q-21 0 -36 11t-15 30v189h-196v-190q0 -40 -49 -40q-21 0 -36 11t-15 30v189h-148q-41 0 -41 46
q0 45 41 45h700q42 0 42 -45q0 -46 -42 -46z" />
    <glyph glyph-name="uniADE0" unicode="&#xade0;" 
d="M694 492q0 -55 -7.5 -93.5t-49.5 -38.5q-21 0 -37 12t-16 31q0 6 2 13q6 20 6 76v107h-368q-40 0 -40 46t42 46h393q75 0 75 -79v-120zM800 209h-166v-146q0 -42 -50 -42q-21 0 -36 11.5t-15 31.5v145h-103v-146q0 -42 -50 -42q-21 0 -36.5 11.5t-15.5 31.5v145h-228
q-41 0 -41 46q0 45 41 45h700q42 0 42 -45q0 -46 -42 -46zM684 -71q34 0 34 -47q0 -48 -36 -48h-395q-32 0 -54 18q-26 20 -26 54v188q0 41 52 41q48 0 48 -36v-170h377z" />
    <glyph glyph-name="uniADE4" unicode="&#xade4;" 
d="M694 492q0 -55 -7.5 -93.5t-49.5 -38.5q-21 0 -37 12t-16 31q0 6 2 13q6 20 6 76v107h-368q-40 0 -40 46t42 46h393q75 0 75 -79v-120zM800 247h-180v-80h8q34 0 53 -28q13 -20 13 -43v-83q0 -63 -72 -63h-313v-41h366q33 0 33 -45q0 -47 -35 -47h-381q-35 0 -58 16
q-27 19 -27 54v86q0 24 22 42q19 17 40 17h322v43h-353q-33 0 -33 45q0 47 36 47h39v80h-180q-41 0 -41 46q0 45 41 45h700q42 0 42 -45q0 -46 -42 -46zM519 167v80h-138v-80h138z" />
    <glyph glyph-name="uniADF8" unicode="&#xadf8;" 
d="M694 334q0 -55 -7.5 -93.5t-49.5 -38.5q-21 0 -37 12t-16 31q0 6 2 13q6 20 6 77v181h-368q-39 0 -39 45q0 47 41 47h393q75 0 75 -79v-195zM800 8h-700q-41 0 -41 46q0 45 41 45h700q42 0 42 -45q0 -46 -42 -46z" />
    <glyph glyph-name="uniADF9" unicode="&#xadf9;" 
d="M694 492q0 -55 -7.5 -93.5t-49.5 -38.5q-21 0 -37 12t-16 31q0 6 2 13q6 20 6 76v107h-368q-40 0 -40 46t42 46h393q75 0 75 -79v-120zM800 230h-700q-41 0 -41 46q0 45 41 45h700q42 0 42 -45q0 -46 -42 -46zM694 -48q0 -59 -7 -94q-8 -39 -51 -39q-20 0 -36 11.5
t-16 30.5q0 6 2 13q6 19 6 76v92h-368q-34 0 -34 45q0 47 36 47h393q75 0 75 -78v-104z" />
    <glyph glyph-name="uniADFC" unicode="&#xadfc;" 
d="M694 472q0 -55 -7.5 -93.5t-49.5 -38.5q-21 0 -37 12t-16 31q0 6 2 13q6 20 6 76v107h-368q-40 0 -40 46t42 46h393q75 0 75 -79v-120zM800 184h-700q-41 0 -41 46q0 45 41 45h700q42 0 42 -45q0 -46 -42 -46zM684 -71q34 0 34 -47q0 -48 -36 -48h-395q-32 0 -54 18
q-26 20 -26 54v188q0 41 52 41q48 0 48 -36v-170h377z" />
    <glyph glyph-name="uniADFF" unicode="&#xadff;" 
d="M694 492q0 -55 -7.5 -93.5t-49.5 -38.5q-21 0 -37 12t-16 31q0 6 2 13q6 20 6 76v107h-368q-40 0 -40 46t42 46h393q75 0 75 -79v-120zM800 230h-700q-41 0 -41 46q0 45 41 45h700q42 0 42 -45q0 -46 -42 -46zM674 52h-366v-127h365q34 0 34 -45q0 -47 -36 -47h-402
q-21 0 -42 18.5t-21 42.5v190q0 22 20 41t42 19h402q16 0 25.5 -15t9.5 -35q0 -42 -31 -42z" />
    <glyph glyph-name="uniAE00" unicode="&#xae00;" 
d="M694 492q0 -55 -7.5 -93.5t-49.5 -38.5q-21 0 -37 12t-16 31q0 6 2 13q6 20 6 76v107h-368q-40 0 -40 46t42 46h393q75 0 75 -79v-120zM800 235h-700q-41 0 -41 46q0 45 41 45h700q42 0 42 -45q0 -46 -42 -46zM694 13q0 -63 -72 -63h-313v-41h366q33 0 33 -45
q0 -47 -35 -47h-381q-35 0 -58 16q-27 19 -27 54v86q0 24 22 42q19 17 40 17h322v43h-353q-33 0 -33 45q0 47 36 47h387q34 0 53 -28q13 -20 13 -43v-83z" />
    <glyph glyph-name="uniAE01" unicode="&#xae01;" 
d="M694 492q0 -55 -7.5 -93.5t-49.5 -38.5q-21 0 -37 12t-16 31q0 6 2 13q6 20 6 76v107h-368q-40 0 -40 46t42 46h393q75 0 75 -79v-120zM800 230h-700q-41 0 -41 46q0 45 41 45h700q42 0 42 -45q0 -46 -42 -46zM720 -144q0 -39 -52 -39q-50 0 -50 36v205h-142
q-12 0 -21 10v-62q0 -68 -69 -68h-104v-29h162q33 0 33 -45q0 -47 -36 -47h-175q-36 0 -59 16q-27 19 -27 54v84q0 24 22 42q19 17 39 17h111v31h-139q-33 0 -33 44q0 48 38 48h168q42 0 59 -34q8 32 35 32h162q78 0 78 -85v-210z" />
    <glyph glyph-name="uniAE08" unicode="&#xae08;" 
d="M694 492q0 -55 -7.5 -93.5t-49.5 -38.5q-21 0 -37 12t-16 31q0 6 2 13q6 20 6 76v107h-368q-40 0 -40 46t42 46h393q75 0 75 -79v-120zM800 230h-700q-41 0 -41 46q0 45 41 45h700q42 0 42 -45q0 -46 -42 -46zM694 -99q0 -27 -19 -47t-47 -20h-358q-28 0 -45.5 19.5
t-17.5 47.5v176q0 28 17.5 48t45.5 20h359q25 0 45 -22t20 -45v-177zM592 -74v127h-285v-127h285z" />
    <glyph glyph-name="uniAE09" unicode="&#xae09;" 
d="M694 492q0 -55 -7.5 -93.5t-49.5 -38.5q-21 0 -37 12t-16 31q0 6 2 13q6 20 6 76v107h-368q-40 0 -40 46t42 46h393q75 0 75 -79v-120zM800 230h-700q-41 0 -41 46q0 45 41 45h700q42 0 42 -45q0 -46 -42 -46zM693 -80q0 -85 -74 -85h-346q-33 0 -52 29q-16 24 -16 55
v210q0 18 16 28.5t37 10.5q47 0 47 -34v-60h288v63q0 35 49 35q51 0 51 -37v-215zM593 -71v53h-288v-53h288z" />
    <glyph glyph-name="uniAE0B" unicode="&#xae0b;" 
d="M694 492q0 -55 -7.5 -93.5t-49.5 -38.5q-21 0 -37 12t-16 31q0 6 2 13q6 20 6 76v107h-368q-40 0 -40 46t42 46h393q75 0 75 -79v-120zM800 220h-700q-41 0 -41 46q0 45 41 45h700q42 0 42 -45q0 -46 -42 -46zM695 -102q16 -13 16 -39q0 -21 -12.5 -37t-35.5 -16
q-11 0 -23 4q-51 18 -112 59q-68 46 -83 79q-17 -33 -83 -78q-60 -40 -112 -60q-13 -5 -24 -5q-22 0 -35 16t-13 37q0 25 17 39q70 21 124 59q76 54 76 120v61q0 38 50 38t50 -37v-62q0 -65 77 -119q55 -39 123 -59z" />
    <glyph glyph-name="uniAE0D" unicode="&#xae0d;" 
d="M694 492q0 -55 -7.5 -93.5t-49.5 -38.5q-21 0 -37 12t-16 31q0 6 2 13q6 20 6 76v107h-368q-40 0 -40 46t42 46h393q75 0 75 -79v-120zM800 240h-700q-41 0 -41 46q0 45 41 45h700q42 0 42 -45q0 -46 -42 -46zM653 8q0 -82 -60 -141.5t-143 -59.5t-143.5 59.5
t-60.5 141.5t60.5 141.5t143.5 59.5t143 -59.5t60 -141.5zM557 8q0 45 -30.5 75t-76.5 30t-76.5 -30t-30.5 -75t30.5 -75t76.5 -30t76.5 30t30.5 75z" />
    <glyph glyph-name="uniAE14" unicode="&#xae14;" 
d="M745 -56q0 -40 -50 -40q-51 0 -51 40v709q0 38 51 38q50 0 50 -38v-709zM489 407q0 -62 -7 -97q-8 -39 -50 -39q-21 0 -36.5 11.5t-15.5 30.5q0 6 2 13q6 19 6 80v119h-279q-38 0 -38 45q0 47 41 47h303q74 0 74 -78v-132zM570 82h-502q-41 0 -41 46q0 45 41 45h502
q42 0 42 -45q0 -46 -42 -46z" />
    <glyph glyph-name="uniAE30" unicode="&#xae30;" 
d="M755 -56q0 -40 -50 -40q-51 0 -51 40v709q0 38 51 38q50 0 50 -38v-709zM483 456q-13 -109 -65 -194q-91 -150 -281 -189q-7 -1 -13 -1q-22 0 -34 14t-12 34q0 38 33 50q84 1 166 73q97 87 100 220h-274q-38 0 -38 45q0 47 41 47h309q69 0 69 -80q0 -9 -1 -19z" />
    <glyph glyph-name="uniAE31" unicode="&#xae31;" 
d="M755 242q0 -37 -50 -37q-51 0 -51 37v410q0 38 51 38q50 0 50 -38v-410zM462 549q-5 -92 -62 -178q-88 -132 -266 -171q-27 -2 -42 12t-15 35q0 36 34 48q77 6 152 67q92 74 95 183l-240 -1q-46 0 -46 49q0 43 34 43h288q73 0 68 -87zM736 -135q0 -40 -52 -40
q-49 0 -49 36v194h-409q-33 0 -33 46q0 47 35 47h434q74 0 74 -85v-198z" />
    <glyph glyph-name="uniAE34" unicode="&#xae34;" 
d="M755 132q0 -38 -51 -38q-50 0 -50 37v521q0 38 51 38q50 0 50 -37v-521zM466 519q-5 -91 -64 -178q-90 -132 -268 -171q-27 -2 -42 12.5t-15 35.5q0 37 34 49q78 6 153 65q92 73 95 182h-247q-42 0 -42 43q0 19 11 34t29 15h284q77 0 72 -87zM721 -68q34 0 34 -46
q0 -48 -36 -48h-426q-29 0 -55 20.5t-26 51.5v201q0 41 53 41q48 0 48 -36v-184h408z" />
    <glyph glyph-name="uniAE37" unicode="&#xae37;" 
d="M755 242q0 -37 -50 -37q-51 0 -51 37v410q0 38 51 38q50 0 50 -38v-410zM462 549q-5 -92 -62 -178q-88 -132 -266 -171q-27 -2 -42 12t-15 35q0 36 34 48q77 6 152 67q92 74 95 183l-240 -1q-46 0 -46 49q0 43 34 43h288q73 0 68 -87zM716 59h-413v-132h412q33 0 33 -45
q0 -47 -35 -47h-447q-22 0 -42.5 19t-20.5 44v194q0 21 20 40.5t42 19.5h447q16 0 25.5 -15t9.5 -35q0 -43 -31 -43z" />
    <glyph glyph-name="uniAE38" unicode="&#xae38;" 
d="M755 242q0 -37 -50 -37q-51 0 -51 37v410q0 38 51 38q50 0 50 -38v-410zM462 549q-5 -92 -62 -178q-88 -132 -266 -171q-27 -2 -42 12t-15 35q0 36 34 48q77 6 152 67q92 74 95 183l-240 -1q-46 0 -46 49q0 43 34 43h288q73 0 68 -87zM741 33q0 -67 -72 -67h-344v-50h395
q33 0 33 -45q0 -47 -35 -47h-411q-34 0 -57 16q-27 18 -27 53v96q0 23 21 41t41 18h353v50h-382q-34 0 -34 45q0 47 36 47h418q34 0 52 -27q13 -21 13 -43v-87z" />
    <glyph glyph-name="uniAE3A" unicode="&#xae3a;" 
d="M755 242q0 -37 -50 -37q-51 0 -51 37v410q0 38 51 38q50 0 50 -38v-410zM462 549q-5 -92 -62 -178q-88 -132 -266 -171q-27 -2 -42 12t-15 35q0 36 34 48q77 6 152 67q92 74 95 183l-240 -1q-46 0 -46 49q0 43 34 43h288q73 0 68 -87zM745 -99q0 -28 -19 -47.5t-48 -19.5
h-127q-30 0 -50 19t-20 47v216q0 28 20 47.5t49 19.5h128q26 0 46.5 -22t20.5 -45v-215zM463 27q0 -64 -70 -64h-109v-45h159q33 0 33 -43q0 -45 -36 -45h-167q-36 0 -60 16q-28 18 -28 53v95q0 23 21 40t40 17h119v43h-146q-33 0 -33 43q0 47 38 47h170q37 0 56 -28
q13 -19 13 -43v-86zM643 -74v165h-62v-165h62z" />
    <glyph glyph-name="uniAE40" unicode="&#xae40;" 
d="M755 242q0 -37 -50 -37q-51 0 -51 37v410q0 38 51 38q50 0 50 -38v-410zM462 549q-5 -92 -62 -178q-88 -132 -266 -171q-27 -2 -42 12t-15 35q0 36 34 48q77 6 152 67q92 74 95 183l-240 -1q-46 0 -46 49q0 43 34 43h288q73 0 68 -87zM743 -99q0 -28 -18.5 -47.5
t-46.5 -19.5h-408q-28 0 -45.5 19.5t-17.5 47.5v182q0 28 17.5 47.5t45.5 19.5h408q25 0 45 -22t20 -45v-182zM641 -74v132h-334v-132h334z" />
    <glyph glyph-name="uniAE41" unicode="&#xae41;" 
d="M755 242q0 -37 -50 -37q-51 0 -51 37v410q0 38 51 38q50 0 50 -38v-410zM462 549q-5 -92 -62 -178q-88 -132 -266 -171q-27 -2 -42 12t-15 35q0 36 34 48q77 6 152 67q92 74 95 183l-240 -1q-46 0 -46 49q0 43 34 43h288q73 0 68 -87zM740 -79q0 -87 -73 -87h-389
q-33 0 -52 29q-16 24 -16 55v230q0 38 52 38q48 0 48 -34v-70h331v73q0 35 49 35q50 0 50 -36v-233zM641 -73v64h-331v-64h331z" />
    <glyph glyph-name="uniAE43" unicode="&#xae43;" 
d="M755 132q0 -38 -51 -38q-50 0 -50 37v521q0 38 51 38q50 0 50 -37v-521zM466 519q-5 -91 -64 -178q-90 -132 -268 -171q-27 -2 -42 12.5t-15 35.5q0 37 34 49q78 6 153 65q92 73 95 182h-247q-42 0 -42 43q0 19 11 34t29 15h284q77 0 72 -87zM719 -94q15 -15 15 -34
q0 -21 -17 -38t-40 -17q-13 0 -25 7q-42 17 -108 66.5t-77 74.5q-11 -24 -80 -75q-65 -48 -106 -66q-14 -6 -28 -6q-24 0 -40 16t-16 36q0 22 19 36q201 72 201 190v57q0 38 51 38q49 0 49 -36v-58q0 -116 202 -191z" />
    <glyph glyph-name="uniAE45" unicode="&#xae45;" 
d="M755 242q0 -37 -50 -37q-51 0 -51 37v410q0 38 51 38q50 0 50 -38v-410zM462 549q-5 -92 -62 -178q-88 -132 -266 -171q-27 -2 -42 12t-15 35q0 36 34 48q77 6 152 67q92 74 95 183l-240 -1q-46 0 -46 49q0 43 34 43h288q73 0 68 -87zM703 16q0 -85 -63.5 -147.5
t-149.5 -62.5t-149.5 62.5t-63.5 147.5t63.5 148t149.5 63t149.5 -63t63.5 -148zM606 16q0 49 -33 81.5t-83 32.5t-83 -32.5t-33 -81.5t33 -81.5t83 -32.5t83 32.5t33 81.5z" />
    <glyph glyph-name="uniAE46" unicode="&#xae46;" 
d="M755 242q0 -37 -50 -37q-51 0 -51 37v410q0 38 51 38q50 0 50 -38v-410zM462 549q-5 -92 -62 -178q-88 -132 -266 -171q-27 -2 -42 12t-15 35q0 36 34 48q77 6 152 67q92 74 95 183l-240 -1q-46 0 -46 49q0 43 34 43h288q73 0 68 -87zM729 -95q15 -15 15 -34
q0 -21 -17 -37t-39 -16q-14 0 -26 7q-44 18 -109 63q-70 49 -81 73q-11 -23 -83 -73q-65 -44 -108 -63q-14 -6 -29 -6q-23 0 -39 15t-16 35q0 22 19 36q185 65 204 161h-168q-41 0 -41 46q0 45 41 45h444q42 0 42 -45q0 -46 -42 -46h-172q17 -92 205 -161z" />
    <glyph glyph-name="uniAE4A" unicode="&#xae4a;" 
d="M755 242q0 -37 -50 -37q-51 0 -51 37v410q0 38 51 38q50 0 50 -38v-410zM462 549q-5 -92 -62 -178q-88 -132 -266 -171q-27 -2 -42 12t-15 35q0 36 34 48q77 6 152 67q92 74 95 183l-240 -1q-46 0 -46 49q0 43 34 43h288q73 0 68 -87zM706 -164h-456q-41 0 -41 46
q0 45 41 45h67v117q0 14 8 24h-69q-41 0 -41 46q0 45 41 45h444q42 0 42 -45q0 -46 -42 -46h-68q8 -10 8 -24v-117h66q42 0 42 -45q0 -46 -42 -46zM548 68h-139q8 -10 8 -24v-117h122v117q0 14 9 24z" />
    <glyph glyph-name="uniAE4C" unicode="&#xae4c;" 
d="M856 268h-117v-324q0 -40 -50 -40t-50 40v709q0 38 51 38q49 0 49 -38v-293h117q32 0 32 -46t-32 -46zM546 483q8 -77 -42 -217q-61 -167 -158 -238q-16 -7 -30 -7q-23 0 -36.5 16t-13.5 37q0 20 13 31q50 25 106 139q60 122 56 219h-105q-5 -84 -45 -177
q-54 -125 -148 -191q-15 -7 -29 -7q-22 0 -35 17q-13 14 -13 34t13 31q41 24 91 101q66 100 63 192h-144q-39 0 -39 45q0 47 42 47h167q23 0 40 -8q9 8 21 8h146q73 0 80 -72z" />
    <glyph glyph-name="uniAE4D" unicode="&#xae4d;" 
d="M856 389h-117v-151q0 -41 -50 -41t-50 41v413q0 19 15 29.5t36 10.5q49 0 49 -39v-171h117q32 0 32 -46t-32 -46zM554 542q-7 -86 -48 -172q-55 -115 -154 -180q-17 -7 -31 -7q-44 0 -44 49q0 17 8 29q151 106 167 283h-119q-4 -86 -61 -173.5t-134 -126.5q-15 -8 -29 -8
q-21 0 -33 15t-12 35q0 23 15 35q142 83 150 222h-126q-45 0 -45 46t45 46h153q23 0 40 -9q10 10 24 10h161q31 0 53 -21.5t22 -54.5q0 -9 -2 -18zM735 -135q0 -40 -52 -40q-49 0 -49 36v194h-409q-33 0 -33 46q0 47 35 47h434q74 0 74 -85v-198z" />
    <glyph glyph-name="uniAE4E" unicode="&#xae4e;" 
d="M856 389h-117v-151q0 -41 -50 -41t-50 41v413q0 19 15 29.5t36 10.5q49 0 49 -39v-171h117q32 0 32 -46t-32 -46zM554 542q-7 -86 -48 -172q-55 -115 -154 -180q-17 -7 -31 -7q-44 0 -44 49q0 17 8 29q151 106 167 283h-119q-4 -86 -61 -173.5t-134 -126.5q-15 -8 -29 -8
q-21 0 -33 15t-12 35q0 23 15 35q142 83 150 222h-126q-45 0 -45 46t45 46h153q23 0 40 -9q10 10 24 10h161q31 0 53 -21.5t22 -54.5q0 -9 -2 -18zM731 -135q0 -40 -53 -40q-49 0 -49 36v194h-152q-5 0 -9 1v-191q0 -40 -53 -40q-49 0 -49 36v194h-174q-33 0 -33 45
q0 48 37 48h195q39 0 59 -22q9 22 31 22h173q77 0 77 -85v-198z" />
    <glyph glyph-name="uniAE50" unicode="&#xae50;" 
d="M856 350h-117v-214q0 -41 -49 -41q-21 0 -36 11t-15 30v516q0 39 51 39q49 0 49 -38v-211h117q32 0 32 -46t-32 -46zM557 512q-9 -92 -47 -172q-53 -115 -154 -180q-17 -7 -31 -7q-22 0 -34.5 15t-12.5 36q0 15 7 26q152 106 168 284h-121q-4 -87 -59 -174t-132 -126
q-16 -8 -30 -8q-21 0 -33.5 15t-12.5 35q0 21 14 33q144 84 152 224h-128q-45 0 -45 46t45 46h153q23 0 40 -9q9 10 24 10h159q29 0 54.5 -22.5t25.5 -55.5q0 -8 -2 -16zM711 -68q34 0 34 -46q0 -48 -36 -48h-436q-29 0 -55 20.5t-26 51.5v201q0 41 53 41q48 0 48 -36v-184
h418z" />
    <glyph glyph-name="uniAE54" unicode="&#xae54;" 
d="M856 389h-117v-151q0 -41 -50 -41t-50 41v413q0 19 15 29.5t36 10.5q49 0 49 -39v-171h117q32 0 32 -46t-32 -46zM554 542q-7 -85 -46 -165q-53 -107 -152 -173q-17 -7 -31 -7q-44 0 -44 49q0 17 8 29q148 103 163 269h-119q-4 -86 -61 -173.5t-134 -126.5q-15 -8 -29 -8
q-21 0 -33 15t-12 35q0 23 15 35q142 83 150 222h-126q-45 0 -45 46t45 46h153q23 0 40 -9q10 10 24 10h161q31 0 53 -21.5t22 -54.5q0 -9 -2 -18zM728 33q0 -67 -72 -67h-344v-50h395q33 0 33 -45q0 -47 -35 -47h-411q-34 0 -57 16q-27 18 -27 53v96q0 23 21 41t41 18h353
v50h-382q-34 0 -34 45q0 47 36 47h418q34 0 52 -27q13 -21 13 -43v-87z" />
    <glyph glyph-name="uniAE56" unicode="&#xae56;" 
d="M856 389h-117v-151q0 -41 -50 -41t-50 41v413q0 19 15 29.5t36 10.5q49 0 49 -39v-171h117q32 0 32 -46t-32 -46zM554 542q-7 -84 -47 -164q-54 -106 -153 -172q-17 -7 -31 -7q-44 0 -44 49q0 17 8 29q150 105 165 267h-119q-4 -86 -61 -173.5t-134 -126.5q-15 -8 -29 -8
q-21 0 -33 15t-12 35q0 23 15 35q142 83 150 222h-126q-45 0 -45 46t45 46h153q23 0 40 -9q10 10 24 10h161q31 0 53 -21.5t22 -54.5q0 -9 -2 -18zM735 -99q0 -28 -19 -47.5t-48 -19.5h-127q-30 0 -50 19t-20 47v216q0 28 20 47.5t49 19.5h128q26 0 46.5 -22t20.5 -45v-215z
M453 27q0 -64 -70 -64h-109v-45h159q33 0 33 -43q0 -45 -36 -45h-167q-36 0 -60 16q-28 18 -28 53v95q0 23 21 40t40 17h119v43h-146q-33 0 -33 43q0 47 38 47h170q37 0 56 -28q13 -19 13 -43v-86zM633 -74v165h-62v-165h62z" />
    <glyph glyph-name="uniAE5C" unicode="&#xae5c;" 
d="M856 389h-117v-151q0 -41 -50 -41t-50 41v413q0 19 15 29.5t36 10.5q49 0 49 -39v-171h117q32 0 32 -46t-32 -46zM554 542q-7 -86 -48 -172q-55 -115 -154 -180q-17 -7 -31 -7q-44 0 -44 49q0 17 8 29q151 106 167 283h-119q-4 -86 -61 -173.5t-134 -126.5q-15 -8 -29 -8
q-21 0 -33 15t-12 35q0 23 15 35q142 83 150 222h-126q-45 0 -45 46t45 46h153q23 0 40 -9q10 10 24 10h161q31 0 53 -21.5t22 -54.5q0 -9 -2 -18zM732 -99q0 -28 -18.5 -47.5t-46.5 -19.5h-408q-28 0 -45.5 19.5t-17.5 47.5v182q0 28 17.5 47.5t45.5 19.5h408q25 0 45 -22
t20 -45v-182zM630 -74v132h-334v-132h334z" />
    <glyph glyph-name="uniAE5D" unicode="&#xae5d;" 
d="M856 389h-117v-151q0 -41 -50 -41t-50 41v413q0 19 15 29.5t36 10.5q49 0 49 -39v-171h117q32 0 32 -46t-32 -46zM554 542q-7 -86 -48 -172q-55 -115 -154 -180q-17 -7 -31 -7q-44 0 -44 49q0 17 8 29q151 106 167 283h-119q-4 -86 -61 -173.5t-134 -126.5q-15 -8 -29 -8
q-21 0 -33 15t-12 35q0 23 15 35q142 83 150 222h-126q-45 0 -45 46t45 46h153q23 0 40 -9q10 10 24 10h161q31 0 53 -21.5t22 -54.5q0 -9 -2 -18zM734 -79q0 -87 -73 -87h-389q-33 0 -52 29q-16 24 -16 55v230q0 38 52 38q48 0 48 -34v-70h331v73q0 35 49 35q50 0 50 -36
v-233zM635 -73v64h-331v-64h331z" />
    <glyph glyph-name="uniAE5F" unicode="&#xae5f;" 
d="M856 350h-117v-214q0 -41 -49 -41q-21 0 -36 11t-15 30v516q0 39 51 39q49 0 49 -38v-211h117q32 0 32 -46t-32 -46zM557 512q-9 -92 -47 -172q-53 -115 -154 -180q-17 -7 -31 -7q-22 0 -34.5 15t-12.5 36q0 15 7 26q152 106 168 284h-121q-4 -87 -59 -174t-132 -126
q-16 -8 -30 -8q-21 0 -33.5 15t-12.5 35q0 21 14 33q144 84 152 224h-128q-45 0 -45 46t45 46h153q23 0 40 -9q9 10 24 10h159q29 0 54.5 -22.5t25.5 -55.5q0 -8 -2 -16zM721 -94q15 -15 15 -34q0 -21 -17 -38t-40 -17q-13 0 -25 7q-43 17 -107 65q-67 50 -78 75
q-11 -24 -80 -75q-65 -47 -106 -65q-14 -6 -28 -6q-24 0 -40 16t-16 36q0 22 19 36q201 72 201 190v57q0 38 51 38q49 0 49 -36v-58q0 -116 202 -191z" />
    <glyph glyph-name="uniAE60" unicode="&#xae60;" 
d="M856 389h-117v-151q0 -41 -50 -41t-50 41v413q0 19 15 29.5t36 10.5q49 0 49 -39v-171h117q32 0 32 -46t-32 -46zM554 542q-7 -85 -47 -168q-54 -110 -153 -176q-17 -7 -31 -7q-44 0 -44 49q0 17 8 29q150 105 165 275h-119q-4 -86 -61 -173.5t-134 -126.5q-15 -8 -29 -8
q-21 0 -33 15t-12 35q0 23 15 35q142 83 150 222h-126q-45 0 -45 46t45 46h153q23 0 40 -9q10 10 24 10h161q31 0 53 -21.5t22 -54.5q0 -9 -2 -18zM756 -93q12 -17 12 -33q0 -21 -18.5 -35.5t-39.5 -14.5q-17 0 -26 10q-22 14 -49.5 43t-37.5 49q-7 -18 -50 -58
q-53 -48 -89 -48q-31 0 -83 48q-40 38 -51 58q-10 -20 -37.5 -49.5t-49.5 -43.5q-16 -10 -32 -10q-22 0 -37.5 15t-15.5 36q0 18 12 34q45 20 76 61q33 45 33 99v77q0 39 51 39q50 0 50 -37v-78q0 -93 87 -147q85 51 85 146v78q0 38 51 38q50 0 50 -37v-79q0 -102 109 -161z
" />
    <glyph glyph-name="uniAE61" unicode="&#xae61;" 
d="M856 389h-117v-151q0 -41 -50 -41t-50 41v413q0 19 15 29.5t36 10.5q49 0 49 -39v-171h117q32 0 32 -46t-32 -46zM554 542q-7 -86 -48 -172q-55 -115 -154 -180q-17 -7 -31 -7q-44 0 -44 49q0 17 8 29q151 106 167 283h-119q-4 -86 -61 -173.5t-134 -126.5q-15 -8 -29 -8
q-21 0 -33 15t-12 35q0 23 15 35q142 83 150 222h-126q-45 0 -45 46t45 46h153q23 0 40 -9q10 10 24 10h161q31 0 53 -21.5t22 -54.5q0 -9 -2 -18zM717 16q0 -85 -63.5 -147.5t-149.5 -62.5t-149.5 62.5t-63.5 147.5t63.5 148t149.5 63t149.5 -63t63.5 -148zM620 16
q0 49 -33 81.5t-83 32.5t-83 -32.5t-33 -81.5t33 -81.5t83 -32.5t83 32.5t33 81.5z" />
    <glyph glyph-name="uniAE65" unicode="&#xae65;" 
d="M856 389h-117v-151q0 -41 -50 -41t-50 41v413q0 19 15 29.5t36 10.5q49 0 49 -39v-171h117q32 0 32 -46t-32 -46zM554 542q-7 -86 -48 -172q-55 -115 -154 -180q-17 -7 -31 -7q-44 0 -44 49q0 17 8 29q151 106 167 283h-119q-4 -86 -61 -173.5t-134 -126.5q-15 -8 -29 -8
q-21 0 -33 15t-12 35q0 23 15 35q142 83 150 222h-126q-45 0 -45 46t45 46h153q23 0 40 -9q10 10 24 10h161q31 0 53 -21.5t22 -54.5q0 -9 -2 -18zM704 78h-408v-36h403q29 0 29 -41t-29 -41h-403v-34h407q33 0 33 -46q0 -47 -35 -47h-443q-21 0 -42 19t-21 43v215
q0 22 20 41t42 19h443q16 0 25.5 -15t9.5 -35q0 -42 -31 -42z" />
    <glyph glyph-name="uniAE68" unicode="&#xae68;" 
d="M797 -56q0 -40 -51 -40t-51 40v344h-53v-344q0 -40 -50 -40q-51 0 -51 40v709q0 38 51 38q50 0 50 -38v-273h53v273q0 38 52 38q50 0 50 -38v-709zM491 483q5 -79 -42 -201q-59 -152 -161 -223q-16 -8 -31 -8q-23 0 -36.5 16t-13.5 36q0 19 13 30q51 26 107 126
q60 109 61 204h-84q-5 -79 -48 -167q-57 -116 -157 -182q-13 -5 -25 -5q-23 0 -36.5 16.5t-13.5 36.5q0 21 13 32q43 24 93 92q66 90 69 177h-120q-36 0 -36 45q0 47 40 47h140q22 0 39 -7q8 7 20 7h128q42 0 60 -15.5t21 -56.5z" />
    <glyph glyph-name="uniAE69" unicode="&#xae69;" 
d="M796 234q0 -41 -50 -41q-21 0 -36.5 11t-15.5 30v163h-52v-151q0 -41 -50 -41q-20 0 -35.5 11t-15.5 30v405q0 19 15.5 29.5t36.5 10.5q49 0 49 -39v-163h52v162q0 19 15.5 29.5t36.5 10.5q50 0 50 -39v-418zM505 537q-2 -75 -45 -179q-53 -128 -131 -180q-17 -5 -31 -5
q-45 0 -45 44q0 16 7 28q64 56 103 138q35 74 37 140h-97l-1 -4q-35 -214 -184 -303q-14 -7 -28 -7q-21 0 -33.5 15.5t-12.5 34.5q0 17 10 29q124 78 146 234l-110 1q-45 0 -45 46t45 46h140q20 0 37 -8q9 9 23 9h141q76 0 74 -79zM769 -135q0 -40 -52 -40q-49 0 -49 36v194
h-409q-33 0 -33 46q0 47 35 47h434q74 0 74 -85v-198z" />
    <glyph glyph-name="uniAE6C" unicode="&#xae6c;" 
d="M796 136q0 -42 -51 -42q-20 0 -35.5 11t-15.5 31v214h-52v-214q0 -42 -50 -42q-51 0 -51 42v516q0 39 52 39q49 0 49 -38v-211h52v210q0 39 52 39q50 0 50 -38v-517zM504 528q-2 -78 -42 -177q-52 -126 -137 -185q-17 -5 -30 -5q-43 0 -43 43q0 17 8 31q64 56 103 138
q36 75 38 140l-96 -1l-1 -4q-13 -77 -47 -146q-51 -104 -139 -156q-14 -7 -28 -7q-21 0 -33.5 15.5t-12.5 34.5q0 17 10 29q125 80 147 235h-111q-45 0 -45 46t45 46h140q21 0 38 -9q9 9 22 9h141q35 0 54.5 -21t18.5 -56zM745 -68q34 0 34 -46q0 -48 -36 -48h-426
q-29 0 -55 20.5t-26 51.5v201q0 41 53 41q48 0 48 -36v-184h408z" />
    <glyph glyph-name="uniAE70" unicode="&#xae70;" 
d="M796 234q0 -41 -50 -41q-21 0 -36.5 11t-15.5 30v163h-52v-151q0 -41 -50 -41q-20 0 -35.5 11t-15.5 30v405q0 19 15.5 29.5t36.5 10.5q49 0 49 -39v-163h52v162q0 19 15.5 29.5t36.5 10.5q50 0 50 -39v-418zM505 537q-2 -73 -42 -165q-49 -114 -127 -166q-15 -5 -28 -5
q-48 0 -48 47q0 14 7 25q130 114 133 250h-97l-1 -4q-35 -214 -184 -303q-14 -7 -28 -7q-21 0 -33.5 15.5t-12.5 34.5q0 17 10 29q124 78 146 234l-110 1q-45 0 -45 46t45 46h140q20 0 37 -8q9 9 23 9h141q76 0 74 -79zM770 32q0 -67 -72 -67h-344v-49h395q33 0 33 -45
q0 -47 -35 -47h-411q-34 0 -57 16q-27 18 -27 53v97q0 23 21 41t41 18h353v49h-382q-34 0 -34 45q0 47 36 47h418q34 0 52 -27q13 -21 13 -43v-88z" />
    <glyph glyph-name="uniAE78" unicode="&#xae78;" 
d="M796 234q0 -41 -50 -41q-21 0 -36.5 11t-15.5 30v163h-52v-151q0 -41 -50 -41q-20 0 -35.5 11t-15.5 30v405q0 19 15.5 29.5t36.5 10.5q49 0 49 -39v-163h52v162q0 19 15.5 29.5t36.5 10.5q50 0 50 -39v-418zM505 537q-2 -75 -45 -179q-53 -128 -131 -180q-17 -5 -31 -5
q-45 0 -45 44q0 16 7 28q64 56 103 138q35 74 37 140h-97l-1 -4q-35 -214 -184 -303q-14 -7 -28 -7q-21 0 -33.5 15.5t-12.5 34.5q0 17 10 29q124 78 146 234l-110 1q-45 0 -45 46t45 46h140q20 0 37 -8q9 9 23 9h141q76 0 74 -79zM771 -99q0 -28 -18.5 -47.5t-46.5 -19.5
h-408q-28 0 -45.5 19.5t-17.5 47.5v182q0 28 17.5 47.5t45.5 19.5h408q25 0 45 -22t20 -45v-182zM669 -74v132h-334v-132h334z" />
    <glyph glyph-name="uniAE79" unicode="&#xae79;" 
d="M796 244q0 -41 -50 -41q-21 0 -36.5 11t-15.5 30v153h-52v-151q0 -41 -50 -41q-20 0 -35.5 11t-15.5 30v405q0 19 15.5 29.5t36.5 10.5q49 0 49 -39v-163h52v162q0 19 15.5 29.5t36.5 10.5q50 0 50 -39v-408zM505 537q-2 -74 -42 -169q-49 -118 -127 -170q-17 -5 -31 -5
q-45 0 -45 44q0 16 7 28q129 113 133 258h-97l-1 -4q-35 -214 -184 -303q-14 -7 -28 -7q-21 0 -33.5 15.5t-12.5 34.5q0 17 10 29q124 78 146 234l-110 1q-45 0 -45 46t45 46h140q20 0 37 -8q9 9 23 9h141q76 0 74 -79zM774 -79q0 -87 -73 -87h-389q-33 0 -52 29
q-16 24 -16 55v230q0 38 52 38q48 0 48 -34v-70h331v73q0 35 49 35q50 0 50 -36v-233zM675 -73v64h-331v-64h331z" />
    <glyph glyph-name="uniAE7B" unicode="&#xae7b;" 
d="M796 136q0 -42 -51 -42q-20 0 -35.5 11t-15.5 31v214h-58v-188q0 -42 -50 -42q-51 0 -51 42v490q0 39 52 39q49 0 49 -38v-211h58v210q0 39 52 39q50 0 50 -38v-517zM504 528q-2 -79 -41 -177q-51 -127 -136 -185q-17 -5 -30 -5q-45 0 -45 45q0 16 8 29q64 56 103 138
q36 75 38 140l-96 -1l-1 -4q-13 -77 -47 -146q-51 -104 -139 -156q-14 -7 -28 -7q-21 0 -33.5 15.5t-12.5 34.5q0 17 10 29q125 80 147 235h-111q-45 0 -45 46t45 46h140q21 0 38 -9q9 9 22 9h141q35 0 54.5 -21t18.5 -56zM721 -94q15 -15 15 -34q0 -21 -17 -38t-40 -17
q-13 0 -25 7q-42 17 -108 66.5t-77 74.5q-11 -24 -80 -75q-65 -48 -106 -66q-14 -6 -28 -6q-24 0 -40 16t-16 36q0 22 19 36q201 72 201 190v57q0 38 51 38q49 0 49 -36v-58q0 -116 202 -191z" />
    <glyph glyph-name="uniAE7C" unicode="&#xae7c;" 
d="M796 234q0 -41 -50 -41q-21 0 -36.5 11t-15.5 30v163h-52v-151q0 -41 -50 -41q-20 0 -35.5 11t-15.5 30v405q0 19 15.5 29.5t36.5 10.5q49 0 49 -39v-163h52v162q0 19 15.5 29.5t36.5 10.5q50 0 50 -39v-418zM766 -93q12 -17 12 -33q0 -21 -18.5 -35.5t-39.5 -14.5
q-17 0 -26 10q-22 14 -49.5 43t-37.5 49q-7 -18 -50 -58q-53 -48 -89 -48q-31 0 -83 48q-40 38 -51 58q-10 -20 -37.5 -49.5t-49.5 -43.5q-16 -10 -32 -10q-22 0 -37.5 15t-15.5 36q0 18 12 34q45 20 76 61q33 45 33 99v77q0 17 13 28q-43 1 -43 44q0 16 7 28q64 56 103 138
q35 74 37 140h-97l-1 -4q-35 -214 -184 -303q-14 -7 -28 -7q-21 0 -33.5 15.5t-12.5 34.5q0 17 10 29q124 78 146 234l-110 1q-45 0 -45 46t45 46h140q20 0 37 -8q9 9 23 9h141q76 0 74 -79q-2 -72 -43 -174q-50 -124 -124 -179q46 -2 46 -37v-78q0 -93 87 -147
q85 51 85 146v78q0 38 51 38q50 0 50 -37v-79q0 -102 109 -161z" />
    <glyph glyph-name="uniAE7D" unicode="&#xae7d;" 
d="M796 234q0 -41 -50 -41q-21 0 -36.5 11t-15.5 30v163h-52v-130q0 -41 -50 -41q-20 0 -35.5 11t-15.5 30v384q0 19 15.5 29.5t36.5 10.5q49 0 49 -39v-163h52v162q0 19 15.5 29.5t36.5 10.5q50 0 50 -39v-418zM505 537q-2 -75 -45 -179q-53 -128 -131 -180q-17 -5 -31 -5
q-45 0 -45 44q0 16 7 28q64 56 103 138q35 74 37 140h-97l-1 -4q-35 -214 -184 -303q-14 -7 -28 -7q-21 0 -33.5 15.5t-12.5 34.5q0 17 10 29q124 78 146 234l-110 1q-45 0 -45 46t45 46h140q20 0 37 -8q9 9 23 9h141q76 0 74 -79zM721 16q0 -85 -63.5 -147.5t-149.5 -62.5
t-149.5 62.5t-63.5 147.5t63.5 148t149.5 63t149.5 -63t63.5 -148zM624 16q0 49 -33 81.5t-83 32.5t-83 -32.5t-33 -81.5t33 -81.5t83 -32.5t83 32.5t33 81.5z" />
    <glyph glyph-name="uniAE84" unicode="&#xae84;" 
d="M856 166h-117v-222q0 -40 -50 -40t-50 40v709q0 38 51 38q49 0 49 -38v-148h117q32 0 32 -46t-32 -46h-117v-155h117q32 0 32 -46t-32 -46zM546 483q8 -77 -42 -217q-61 -167 -158 -238q-16 -7 -30 -7q-23 0 -36.5 16t-13.5 37q0 20 13 31q50 25 106 139q60 122 56 219
h-105q-5 -84 -45 -177q-54 -125 -148 -191q-15 -7 -29 -7q-22 0 -35 17q-13 14 -13 34t13 31q41 24 91 101q66 100 63 192h-144q-39 0 -39 45q0 47 42 47h167q23 0 40 -8q9 8 21 8h146q73 0 80 -72z" />
    <glyph glyph-name="uniAE85" unicode="&#xae85;" 
d="M856 306h-117v-71q0 -41 -50 -41t-50 41v416q0 19 15 29.5t36 10.5q49 0 49 -39v-84h117q32 0 32 -46t-32 -46h-117v-78h117q32 0 32 -46t-32 -46zM554 542q-7 -86 -48 -172q-55 -115 -154 -180q-17 -7 -31 -7q-44 0 -44 49q0 17 8 29q151 106 167 283h-119
q-4 -86 -61 -173.5t-134 -126.5q-15 -8 -29 -8q-21 0 -33 15t-12 35q0 23 15 35q142 83 150 222h-126q-45 0 -45 46t45 46h153q23 0 40 -9q10 10 24 10h161q31 0 53 -21.5t22 -54.5q0 -9 -2 -18zM735 -135q0 -40 -52 -40q-49 0 -49 36v194h-409q-33 0 -33 46q0 47 35 47h434
q74 0 74 -85v-198z" />
    <glyph glyph-name="uniAE8C" unicode="&#xae8c;" 
d="M856 306h-117v-71q0 -41 -50 -41t-50 41v416q0 19 15 29.5t36 10.5q49 0 49 -39v-84h117q32 0 32 -46t-32 -46h-117v-78h117q32 0 32 -46t-32 -46zM554 542q-7 -86 -44 -163q-51 -105 -150 -171q-17 -7 -31 -7q-44 0 -44 49q0 17 8 29q144 101 159 265h-119
q-4 -86 -61 -173.5t-134 -126.5q-15 -8 -29 -8q-21 0 -33 15t-12 35q0 23 15 35q142 83 150 222h-126q-45 0 -45 46t45 46h153q23 0 40 -9q10 10 24 10h161q31 0 53 -21.5t22 -54.5q0 -9 -2 -18zM728 33q0 -67 -72 -67h-344v-50h395q33 0 33 -45q0 -47 -35 -47h-411
q-34 0 -57 16q-27 18 -27 53v96q0 23 21 41t41 18h353v50h-382q-34 0 -34 45q0 47 36 47h418q34 0 52 -27q13 -21 13 -43v-87z" />
    <glyph glyph-name="uniAEBC" unicode="&#xaebc;" 
d="M781 -56q0 -40 -50 -40t-50 40v338h-133q-22 0 -30 28q-60 -201 -172 -282q-16 -7 -30 -7q-23 0 -36.5 16t-13.5 37q0 20 13 31q50 25 106 139q60 122 56 219h-105q-5 -84 -45 -177q-54 -125 -148 -191q-15 -7 -29 -7q-22 0 -35 17q-13 14 -13 34t13 31q41 24 91 101
q66 100 63 192h-144q-39 0 -39 45q0 47 42 47h167q23 0 40 -8q9 8 21 8h146q73 0 80 -72q4 -39 -12 -113q6 4 14 4h133v279q0 38 51 38q49 0 49 -38v-709z" />
    <glyph glyph-name="uniAEBD" unicode="&#xaebd;" 
d="M781 237q0 -41 -49 -41q-21 0 -36 11t-15 30v153h-133q-17 0 -26 18q-54 -141 -170 -218q-17 -7 -31 -7q-44 0 -44 49q0 17 8 29q151 106 167 283h-119q-4 -86 -61 -173.5t-134 -126.5q-15 -8 -29 -8q-21 0 -33 15t-12 35q0 23 15 35q142 83 150 222h-126q-45 0 -45 46
t45 46h153q23 0 40 -9q10 10 24 10h161q31 0 53 -21.5t22 -54.5q0 -9 -2 -18q-2 -29 -9 -60h3h133v169q0 19 15 29.5t36 10.5q49 0 49 -39v-415zM763 -135q0 -40 -52 -40q-49 0 -49 36v194h-409q-33 0 -33 46q0 47 35 47h434q74 0 74 -85v-198z" />
    <glyph glyph-name="uniAEBE" unicode="&#xaebe;" 
d="M781 237q0 -41 -49 -41q-21 0 -36 11t-15 30v153h-133q-17 0 -26 18q-54 -141 -170 -218q-17 -7 -31 -7q-44 0 -44 49q0 17 8 29q151 106 167 283h-119q-4 -86 -61 -173.5t-134 -126.5q-15 -8 -29 -8q-21 0 -33 15t-12 35q0 23 15 35q142 83 150 222h-126q-45 0 -45 46
t45 46h153q23 0 40 -9q10 10 24 10h161q31 0 53 -21.5t22 -54.5q0 -9 -2 -18q-2 -29 -9 -60h3h133v169q0 19 15 29.5t36 10.5q49 0 49 -39v-415zM764 -135q0 -40 -53 -40q-49 0 -49 36v194h-152q-5 0 -9 1v-191q0 -40 -53 -40q-49 0 -49 36v194h-174q-33 0 -33 45
q0 48 37 48h195q39 0 59 -22q9 22 31 22h173q77 0 77 -85v-198z" />
    <glyph glyph-name="uniAEC0" unicode="&#xaec0;" 
d="M781 138q0 -41 -49 -41q-21 0 -36 11t-15 30v233h-133q-12 0 -21 10q-52 -144 -171 -221q-17 -7 -31 -7q-22 0 -34.5 15t-12.5 36q0 15 7 26q152 106 168 284h-121q-4 -87 -59 -174t-132 -126q-16 -8 -30 -8q-21 0 -33.5 15t-12.5 35q0 21 14 33q144 84 152 224h-128
q-45 0 -45 46t45 46h153q23 0 40 -9q9 10 24 10h159q29 0 54.5 -22.5t25.5 -55.5q0 -8 -2 -16q-2 -24 -7 -49h131v189q0 39 51 39q49 0 49 -38v-515zM740 -68q34 0 34 -46q0 -48 -36 -48h-426q-29 0 -55 20.5t-26 51.5v191q0 41 53 41q48 0 48 -36v-174h408z" />
    <glyph glyph-name="uniAEC4" unicode="&#xaec4;" 
d="M781 247q0 -41 -49 -41q-21 0 -36 11t-15 30v143h-133q-16 0 -25 16q-49 -126 -161 -200q-17 -7 -31 -7q-44 0 -44 49q0 17 8 29q142 99 157 267h-119q-4 -86 -61 -173.5t-134 -126.5q-15 -8 -29 -8q-21 0 -33 15t-12 35q0 23 15 35q142 83 150 222h-126q-45 0 -45 46
t45 46h153q23 0 40 -9q10 10 24 10h161q31 0 53 -21.5t22 -54.5q0 -9 -2 -18q-2 -30 -9 -60h3h133v169q0 19 15 29.5t36 10.5q49 0 49 -39v-405zM767 33q0 -67 -72 -67h-344v-50h395q33 0 33 -45q0 -47 -35 -47h-411q-34 0 -57 16q-27 18 -27 53v96q0 23 21 41t41 18h353v50
h-382q-34 0 -34 45q0 47 36 47h418q34 0 52 -27q13 -21 13 -43v-87z" />
    <glyph glyph-name="uniAECC" unicode="&#xaecc;" 
d="M781 237q0 -41 -49 -41q-21 0 -36 11t-15 30v153h-133q-17 0 -26 18q-54 -141 -170 -218q-17 -7 -31 -7q-44 0 -44 49q0 17 8 29q151 106 167 283h-119q-4 -86 -61 -173.5t-134 -126.5q-15 -8 -29 -8q-21 0 -33 15t-12 35q0 23 15 35q142 83 150 222h-126q-45 0 -45 46
t45 46h153q23 0 40 -9q10 10 24 10h161q31 0 53 -21.5t22 -54.5q0 -9 -2 -18q-2 -29 -9 -60h3h133v169q0 19 15 29.5t36 10.5q49 0 49 -39v-415zM765 -99q0 -28 -18.5 -47.5t-46.5 -19.5h-408q-28 0 -45.5 19.5t-17.5 47.5v182q0 28 17.5 47.5t45.5 19.5h408q25 0 45 -22
t20 -45v-182zM663 -74v132h-334v-132h334z" />
    <glyph glyph-name="uniAECD" unicode="&#xaecd;" 
d="M781 237q0 -41 -49 -41q-21 0 -36 11t-15 30v153h-133q-17 0 -26 18q-54 -141 -170 -218q-12 -6 -24 -6q-21 0 -36 16t-15 35q0 16 10 27q149 104 165 282h-119q-4 -86 -61 -173.5t-134 -126.5q-15 -8 -29 -8q-21 0 -33 15t-12 35q0 23 15 35q142 83 150 222h-126
q-45 0 -45 46t45 46h153q23 0 40 -9q10 10 24 10h161q31 0 53 -21.5t22 -54.5q0 -9 -2 -18q-2 -29 -9 -60h3h133v169q0 19 15 29.5t36 10.5q49 0 49 -39v-415zM766 -79q0 -87 -73 -87h-389q-33 0 -52 29q-16 24 -16 55v230q0 38 52 38q48 0 48 -34v-70h331v73q0 35 49 35
q50 0 50 -36v-233zM667 -73v64h-331v-64h331z" />
    <glyph glyph-name="uniAECF" unicode="&#xaecf;" 
d="M781 138q0 -41 -49 -41q-21 0 -36 11t-15 30v233h-133q-12 0 -21 10q-52 -144 -171 -221q-17 -7 -31 -7q-22 0 -34.5 15t-12.5 36q0 15 7 26q152 106 168 284h-121q-4 -87 -59 -174t-132 -126q-16 -8 -30 -8q-21 0 -33.5 15t-12.5 35q0 21 14 33q144 84 152 224h-128
q-45 0 -45 46t45 46h153q23 0 40 -9q9 10 24 10h159q29 0 54.5 -22.5t25.5 -55.5q0 -8 -2 -16q-2 -24 -7 -49h131v189q0 39 51 39q49 0 49 -38v-515zM741 -94q15 -15 15 -34q0 -21 -17 -38t-40 -17q-13 0 -25 7q-43 17 -107 65q-67 50 -78 75q-11 -24 -80 -75
q-65 -47 -106 -65q-14 -6 -28 -6q-24 0 -40 16t-16 36q0 22 19 36q201 72 201 190v57q0 38 51 38q49 0 49 -36v-58q0 -116 202 -191z" />
    <glyph glyph-name="uniAED0" unicode="&#xaed0;" 
d="M781 237q0 -41 -49 -41q-21 0 -36 11t-15 30v153h-133q-18 0 -27 19q-55 -140 -171 -217q-17 -7 -31 -7q-44 0 -44 49q0 17 8 29q153 107 169 281h-119q-4 -86 -61 -173.5t-134 -126.5q-15 -8 -29 -8q-21 0 -33 15t-12 35q0 23 15 35q142 83 150 222h-126q-45 0 -45 46
t45 46h153q23 0 40 -9q10 10 24 10h161q31 0 53 -21.5t22 -54.5q0 -9 -2 -18q-2 -28 -10 -60h4h133v169q0 19 15 29.5t36 10.5q49 0 49 -39v-415zM776 -93q12 -17 12 -33q0 -21 -18.5 -35.5t-39.5 -14.5q-17 0 -26 10q-22 14 -49.5 43t-37.5 49q-7 -18 -50 -58
q-53 -48 -89 -48q-31 0 -83 48q-40 38 -51 58q-10 -20 -37.5 -49.5t-49.5 -43.5q-16 -10 -32 -10q-22 0 -37.5 15t-15.5 36q0 18 12 34q45 20 76 61q33 45 33 99v77q0 39 51 39q50 0 50 -37v-78q0 -93 87 -147q85 51 85 146v78q0 38 51 38q50 0 50 -37v-79q0 -102 109 -161z
" />
    <glyph glyph-name="uniAED1" unicode="&#xaed1;" 
d="M781 237q0 -41 -49 -41q-21 0 -36 11t-15 30v153h-133q-17 0 -26 18q-54 -141 -170 -218q-17 -7 -31 -7q-44 0 -44 49q0 17 8 29q151 106 167 283h-119q-4 -86 -61 -173.5t-134 -126.5q-15 -8 -29 -8q-21 0 -33 15t-12 35q0 23 15 35q142 83 150 222h-126q-45 0 -45 46
t45 46h153q23 0 40 -9q10 10 24 10h161q31 0 53 -21.5t22 -54.5q0 -9 -2 -18q-2 -29 -9 -60h3h133v169q0 19 15 29.5t36 10.5q49 0 49 -39v-415zM737 16q0 -85 -63.5 -147.5t-149.5 -62.5t-149.5 62.5t-63.5 147.5t63.5 148t149.5 63t149.5 -63t63.5 -148zM640 16
q0 49 -33 81.5t-83 32.5t-83 -32.5t-33 -81.5t33 -81.5t83 -32.5t83 32.5t33 81.5z" />
    <glyph glyph-name="uniAED8" unicode="&#xaed8;" 
d="M797 -50q0 -40 -51 -40t-51 40v709q0 38 52 38q50 0 50 -38v-709zM658 -50q0 -40 -50 -40q-51 0 -51 40v348h-102q-59 -164 -167 -239q-16 -8 -31 -8q-23 0 -36.5 16t-13.5 36q0 19 13 30q51 26 107 126q60 109 61 204h-84q-5 -79 -48 -167q-57 -116 -157 -182
q-13 -5 -25 -5q-23 0 -36.5 16.5t-13.5 36.5q0 21 13 32q43 24 93 92q66 90 69 177h-120q-36 0 -36 45q0 47 40 47h140q22 0 39 -7q8 7 20 7h128q42 0 60 -15.5t21 -56.5q2 -35 -10 -93h76v269q0 38 51 38q50 0 50 -38v-709z" />
    <glyph glyph-name="uniAED9" unicode="&#xaed9;" 
d="M796 243q0 -42 -51 -42q-20 0 -35.5 11t-15.5 31v408q0 19 15.5 29.5t36.5 10.5q50 0 50 -39v-409zM659 243q0 -42 -50 -42q-51 0 -51 42v145h-87q-54 -151 -142 -210q-17 -5 -31 -5q-45 0 -45 44q0 16 7 28q64 56 103 138q35 74 37 140h-97l-1 -4q-35 -214 -184 -303
q-14 -7 -28 -7q-21 0 -33.5 15.5t-12.5 34.5q0 17 10 29q124 78 146 234l-110 1q-45 0 -45 46t45 46h140q20 0 37 -8q9 9 23 9h141q76 0 74 -79q-1 -23 -7 -57h60v171q0 19 15.5 29.5t36.5 10.5q49 0 49 -39v-409zM769 -135q0 -40 -52 -40q-49 0 -49 36v194h-409
q-33 0 -33 46q0 47 35 47h434q74 0 74 -85v-198z" />
    <glyph glyph-name="uniAEDC" unicode="&#xaedc;" 
d="M796 136q0 -42 -51 -42q-20 0 -35.5 11t-15.5 31v516q0 39 52 39q50 0 50 -38v-517zM659 136q0 -42 -50 -42q-51 0 -51 42v229h-90q-51 -137 -141 -199q-17 -5 -30 -5q-45 0 -45 45q0 16 8 29q64 56 103 138q36 75 38 140l-96 -1l-1 -4q-13 -77 -47 -146
q-51 -104 -139 -156q-14 -7 -28 -7q-21 0 -33.5 15.5t-12.5 34.5q0 17 10 29q125 80 147 235h-111q-45 0 -45 46t45 46h140q21 0 38 -9q9 9 22 9h141q35 0 54.5 -21t18.5 -56q-1 -30 -9 -71h63v195q0 39 52 39q49 0 49 -38v-517zM745 -68q34 0 34 -46q0 -48 -36 -48h-426
q-29 0 -55 20.5t-26 51.5v201q0 41 53 41q48 0 48 -36v-184h408z" />
    <glyph glyph-name="uniAEE8" unicode="&#xaee8;" 
d="M796 243q0 -42 -51 -42q-20 0 -35.5 11t-15.5 31v408q0 19 15.5 29.5t36.5 10.5q50 0 50 -39v-409zM659 243q0 -42 -50 -42q-51 0 -51 42v145h-87q-54 -151 -142 -210q-17 -5 -31 -5q-45 0 -45 44q0 16 7 28q64 56 103 138q35 74 37 140h-97l-1 -4q-35 -214 -184 -303
q-14 -7 -28 -7q-21 0 -33.5 15.5t-12.5 34.5q0 17 10 29q124 78 146 234l-110 1q-45 0 -45 46t45 46h140q20 0 37 -8q9 9 23 9h141q76 0 74 -79q-1 -23 -7 -57h60v171q0 19 15.5 29.5t36.5 10.5q49 0 49 -39v-409zM771 -99q0 -28 -18.5 -47.5t-46.5 -19.5h-408
q-28 0 -45.5 19.5t-17.5 47.5v182q0 28 17.5 47.5t45.5 19.5h408q25 0 45 -22t20 -45v-182zM669 -74v132h-334v-132h334z" />
    <glyph glyph-name="uniAEEB" unicode="&#xaeeb;" 
d="M796 136q0 -42 -51 -42q-20 0 -35.5 11t-15.5 31v516q0 39 52 39q50 0 50 -38v-517zM649 176q0 -42 -50 -42q-51 0 -51 42v189h-80q-51 -137 -141 -199q-17 -5 -30 -5q-45 0 -45 45q0 16 8 29q64 56 103 138q36 75 38 140l-96 -1l-1 -4q-13 -77 -47 -146
q-51 -104 -139 -156q-14 -7 -28 -7q-21 0 -33.5 15.5t-12.5 34.5q0 17 10 29q125 80 147 235h-111q-45 0 -45 46t45 46h140q21 0 38 -9q9 9 22 9h141q35 0 54.5 -21t18.5 -56q-1 -30 -9 -71h53v195q0 39 52 39q49 0 49 -38v-477zM721 -94q15 -15 15 -34q0 -21 -17 -38
t-40 -17q-13 0 -25 7q-42 17 -108 66.5t-77 74.5q-11 -24 -80 -75q-65 -48 -106 -66q-14 -6 -28 -6q-24 0 -40 16t-16 36q0 22 19 36q201 72 201 190v57q0 38 51 38q49 0 49 -36v-58q0 -116 202 -191z" />
    <glyph glyph-name="uniAEED" unicode="&#xaeed;" 
d="M796 243q0 -42 -51 -42q-20 0 -35.5 11t-15.5 31v408q0 19 15.5 29.5t36.5 10.5q50 0 50 -39v-409zM659 263q0 -42 -50 -42q-51 0 -51 42v125h-87q-54 -151 -142 -210q-17 -5 -31 -5q-45 0 -45 44q0 16 7 28q64 56 103 138q35 74 37 140h-97l-1 -4q-35 -214 -184 -303
q-14 -7 -28 -7q-21 0 -33.5 15.5t-12.5 34.5q0 17 10 29q124 78 146 234l-110 1q-45 0 -45 46t45 46h140q20 0 37 -8q9 9 23 9h141q76 0 74 -79q-1 -23 -7 -57h60v171q0 19 15.5 29.5t36.5 10.5q49 0 49 -39v-389zM721 16q0 -85 -63.5 -147.5t-149.5 -62.5t-149.5 62.5
t-63.5 147.5t63.5 148t149.5 63t149.5 -63t63.5 -148zM624 16q0 49 -33 81.5t-83 32.5t-83 -32.5t-33 -81.5t33 -81.5t83 -32.5t83 32.5t33 81.5z" />
    <glyph glyph-name="uniAEF4" unicode="&#xaef4;" 
d="M791 -56q0 -40 -50 -40t-50 40v224h-143q-32 0 -32 46t32 46h143v112h-143q-7 0 -13 3q-21 -100 -65 -188q-53 -107 -124 -159q-16 -7 -30 -7q-23 0 -36.5 16t-13.5 37q0 20 13 31q50 25 106 139q60 122 56 219h-105q-5 -84 -45 -177q-54 -125 -148 -191q-15 -7 -29 -7
q-22 0 -35 17q-13 14 -13 34t13 31q41 24 91 101q66 100 63 192h-144q-39 0 -39 45q0 47 42 47h167q23 0 40 -8q9 8 21 8h146q82 0 81 -90h1h143v188q0 38 51 38q49 0 49 -38v-709z" />
    <glyph glyph-name="uniAEF8" unicode="&#xaef8;" 
d="M781 137q0 -41 -49 -41q-21 0 -36 11t-15 30v103h-133q-32 0 -32 46t32 46h133v95h-133q-3 0 -6 1q-47 -178 -186 -268q-17 -7 -31 -7q-22 0 -34.5 15t-12.5 36q0 15 7 26q152 106 168 284h-121q-4 -87 -59 -174t-132 -126q-16 -8 -30 -8q-21 0 -33.5 15t-12.5 35
q0 21 14 33q144 84 152 224h-128q-45 0 -45 46t45 46h153q23 0 40 -9q9 10 24 10h159q31 0 56 -24q27 -27 23 -63h123v133q0 39 51 39q49 0 49 -38v-516zM740 -68q34 0 34 -46q0 -48 -36 -48h-426q-29 0 -55 20.5t-26 51.5v201q0 41 53 41q48 0 48 -36v-184h408z" />
    <glyph glyph-name="uniAEFC" unicode="&#xaefc;" 
d="M781 242q0 -41 -49 -41q-21 0 -36 11t-15 30v51h-133q-32 0 -32 46t32 46h133v95h-133h-3q-40 -177 -187 -274q-17 -7 -31 -7q-44 0 -44 49q0 17 8 29q146 102 161 267h-119q-4 -86 -61 -173.5t-134 -126.5q-15 -8 -29 -8q-21 0 -33 15t-12 35q0 23 15 35q142 83 150 222
h-126q-45 0 -45 46t45 46h153q23 0 40 -9q10 10 24 10h161q28 0 49 -18t25 -46h126v79q0 19 15 29.5t36 10.5q49 0 49 -39v-410zM767 33q0 -67 -72 -67h-344v-50h395q33 0 33 -45q0 -47 -35 -47h-411q-34 0 -57 16q-27 18 -27 53v96q0 23 21 41t41 18h353v50h-382
q-34 0 -34 45q0 47 36 47h418q34 0 52 -27q13 -21 13 -43v-87z" />
    <glyph glyph-name="uniAF07" unicode="&#xaf07;" 
d="M781 137q0 -41 -49 -41q-21 0 -36 11t-15 30v128h-133q-32 0 -32 46t32 46h133v95h-134q-42 -196 -191 -292q-17 -7 -31 -7q-22 0 -34.5 15t-12.5 36q0 15 7 26q152 106 168 284h-121q-4 -87 -59 -174t-132 -126q-16 -8 -30 -8q-21 0 -33.5 15t-12.5 35q0 21 14 33
q144 84 152 224h-128q-45 0 -45 46t45 46h153q23 0 40 -9q9 10 24 10h159q25 0 48 -17.5t30 -44.5h124v108q0 39 51 39q49 0 49 -38v-516zM741 -94q15 -15 15 -34q0 -21 -17 -38t-40 -17q-13 0 -25 7q-43 17 -107 65q-67 50 -78 75q-11 -24 -80 -75q-65 -47 -106 -65
q-14 -6 -28 -6q-24 0 -40 16t-16 36q0 22 19 36q201 72 201 190v57q0 38 51 38q49 0 49 -36v-58q0 -116 202 -191z" />
    <glyph glyph-name="uniAF08" unicode="&#xaf08;" 
d="M781 238q0 -41 -49 -41q-21 0 -36 11t-15 30v55h-133q-32 0 -32 46t32 46h133v95h-133h-4q-43 -192 -192 -290q-9 -4 -17 -6q49 0 49 -37v-78q0 -93 87 -147q85 51 85 146v78q0 38 51 38q50 0 50 -37v-79q0 -102 109 -161q12 -17 12 -33q0 -21 -18.5 -35.5t-39.5 -14.5
q-17 0 -26 10q-22 14 -49.5 43t-37.5 49q-7 -18 -50 -58q-53 -48 -89 -48q-31 0 -83 48q-40 38 -51 58q-10 -20 -37.5 -49.5t-49.5 -43.5q-16 -10 -32 -10q-22 0 -37.5 15t-15.5 36q0 18 12 34q45 20 76 61q33 45 33 99v77q0 30 36 38q-42 1 -42 49q0 17 8 29
q151 106 167 283h-119q-4 -86 -61 -173.5t-134 -126.5q-15 -8 -29 -8q-21 0 -33 15t-12 35q0 23 15 35q142 83 150 222h-126q-45 0 -45 46t45 46h153q23 0 40 -9q10 10 24 10h161q28 0 49 -18t25 -46h126v79q0 19 15 29.5t36 10.5q49 0 49 -39v-414z" />
    <glyph glyph-name="uniAF0D" unicode="&#xaf0d;" 
d="M781 238q0 -41 -49 -41q-21 0 -36 11t-15 30v55h-133q-32 0 -32 46t32 46h133v95h-133h-4q-43 -192 -192 -290q-17 -7 -31 -7q-44 0 -44 49q0 17 8 29q151 106 167 283h-119q-4 -86 -61 -173.5t-134 -126.5q-15 -8 -29 -8q-21 0 -33 15t-12 35q0 23 15 35q142 83 150 222
h-126q-45 0 -45 46t45 46h153q23 0 40 -9q10 10 24 10h161q28 0 49 -18t25 -46h126v79q0 19 15 29.5t36 10.5q49 0 49 -39v-414zM740 78h-408v-37h403q29 0 29 -41t-29 -41h-403v-33h407q33 0 33 -46q0 -47 -35 -47h-443q-21 0 -42 19t-21 43v215q0 22 20 41t42 19h443
q16 0 25.5 -15t9.5 -35q0 -42 -31 -42z" />
    <glyph glyph-name="uniAF10" unicode="&#xaf10;" 
d="M797 -50q0 -40 -51 -40t-51 40v709q0 38 52 38q50 0 50 -38v-709zM663 -50q0 -40 -50 -40q-51 0 -51 40v248h-105q-24 0 -32 30q-55 -112 -137 -169q-16 -8 -31 -8q-23 0 -36.5 16t-13.5 36q0 19 13 30q51 26 107 126q60 109 61 204h-84q-5 -79 -48 -167
q-57 -116 -157 -182q-13 -5 -25 -5q-23 0 -36.5 16.5t-13.5 36.5q0 21 13 32q43 24 93 92q66 90 69 177h-120q-36 0 -36 45q0 47 40 47h140q22 0 39 -7q8 7 20 7h128q40 0 58.5 -14.5t22.5 -51.5h71v170q0 38 51 38q50 0 50 -38v-709zM562 290v106h-80q-10 -53 -30 -106h5
h105z" />
    <glyph glyph-name="uniAF2C" unicode="&#xaf2c;" 
d="M710 334q0 -57 -7 -92q-8 -40 -50 -40q-21 0 -36.5 12t-15.5 31q0 6 2 13q6 20 6 77v181h-157q-34 0 -34 45q0 47 38 47h177q77 0 77 -79v-195zM800 9h-703q-41 0 -41 46q0 45 41 45h302v120q-14 -18 -40 -18q-21 0 -36.5 12t-15.5 31q0 6 2 13q6 19 6 77v181h-165
q-33 0 -33 45q0 47 37 47h185q77 0 77 -79v-195q0 -19 -2 -46q15 11 37 11q50 0 50 -40v-159h299q42 0 42 -45q0 -46 -42 -46z" />
    <glyph glyph-name="uniAF2D" unicode="&#xaf2d;" 
d="M710 490q0 -58 -7 -93q-8 -40 -51 -40q-22 0 -38 12t-16 31q0 6 2 13q9 30 9 76v109h-156q-34 0 -34 45q0 47 38 47h176q77 0 77 -78v-122zM800 216h-703q-41 0 -41 46q0 45 41 45h302v68q-15 -18 -41 -18q-21 0 -37 12t-16 31q0 6 2 13q8 26 8 76v109h-165q-33 0 -33 45
q0 47 37 47h185q77 0 77 -78v-122q0 -15 -1 -37q14 11 36 11q49 0 49 -42v-115h300q42 0 42 -45q0 -46 -42 -46zM694 -48q0 -59 -7 -94q-8 -39 -51 -39q-20 0 -36 11.5t-16 30.5q0 6 2 13q6 19 6 76v92h-368q-34 0 -34 45q0 47 36 47h393q75 0 75 -78v-104z" />
    <glyph glyph-name="uniAF30" unicode="&#xaf30;" 
d="M710 470q0 -58 -7 -93q-8 -40 -51 -40q-22 0 -38 12t-16 31q0 6 2 13q9 30 9 76v109h-156q-34 0 -34 45q0 47 38 47h176q77 0 77 -78v-122zM416 470q0 -58 -7 -93q-8 -40 -51 -40q-21 0 -37 12t-16 31q0 6 2 13q8 26 8 76v109h-165q-33 0 -33 45q0 47 37 47h185
q77 0 77 -78v-122zM801 164h-704q-41 0 -41 46q0 45 41 45h317v111q0 20 15.5 31.5t36.5 11.5q49 0 49 -42v-112h286q42 0 42 -45q0 -46 -42 -46zM684 -71q34 0 34 -47q0 -48 -36 -48h-395q-32 0 -54 18q-26 20 -26 54v188q0 41 52 41q48 0 48 -36v-170h377z" />
    <glyph glyph-name="uniAF32" unicode="&#xaf32;" 
d="M710 490q0 -58 -7 -93q-8 -40 -51 -40q-22 0 -38 12t-16 31q0 6 2 13q9 30 9 76v109h-156q-34 0 -34 45q0 47 38 47h176q77 0 77 -78v-122zM800 216h-703q-41 0 -41 46q0 45 41 45h302v68q-15 -18 -41 -18q-21 0 -37 12t-16 31q0 6 2 13q8 26 8 76v109h-165q-33 0 -33 45
q0 47 37 47h185q77 0 77 -78v-122q0 -15 -1 -37q14 11 36 11q49 0 49 -42v-115h300q42 0 42 -45q0 -46 -42 -46zM715 -42q0 -55 -42 -97t-97 -42q-59 0 -102 48q-8 -33 -37 -33h-173q-31 0 -57 20.5t-26 51.5v195q0 41 53 41q48 0 48 -36v-177h159q-3 14 -3 29q0 39 22 71
h-17q-36 0 -36 42q0 43 38 43h83v43q0 21 14.5 33t34.5 12q47 0 47 -45v-43h85q36 0 36 -42q0 -43 -36 -43h-16q22 -32 22 -71zM619 -42q0 44 -43 44q-42 0 -42 -44q0 -19 12 -31.5t30 -12.5q19 0 31 12.5t12 31.5z" />
    <glyph glyph-name="uniAF34" unicode="&#xaf34;" 
d="M710 490q0 -58 -7 -93q-8 -40 -51 -40q-22 0 -38 12t-16 31q0 6 2 13q9 30 9 76v109h-156q-34 0 -34 45q0 47 38 47h176q77 0 77 -78v-122zM800 216h-703q-41 0 -41 46q0 45 41 45h302v68q-15 -18 -41 -18q-21 0 -37 12t-16 31q0 6 2 13q8 26 8 76v109h-165q-33 0 -33 45
q0 47 37 47h185q77 0 77 -78v-122q0 -15 -1 -37q14 11 36 11q49 0 49 -42v-115h300q42 0 42 -45q0 -46 -42 -46zM694 13q0 -63 -72 -63h-313v-41h366q33 0 33 -45q0 -47 -35 -47h-381q-35 0 -58 16q-27 19 -27 54v86q0 24 22 42q19 17 40 17h322v43h-353q-33 0 -33 45
q0 47 36 47h387q34 0 53 -28q13 -20 13 -43v-83z" />
    <glyph glyph-name="uniAF3C" unicode="&#xaf3c;" 
d="M710 490q0 -58 -7 -93q-8 -40 -51 -40q-22 0 -38 12t-16 31q0 6 2 13q9 30 9 76v109h-156q-34 0 -34 45q0 47 38 47h176q77 0 77 -78v-122zM800 216h-703q-41 0 -41 46q0 45 41 45h302v68q-15 -18 -41 -18q-21 0 -37 12t-16 31q0 6 2 13q8 26 8 76v109h-165q-33 0 -33 45
q0 47 37 47h185q77 0 77 -78v-122q0 -15 -1 -37q14 11 36 11q49 0 49 -42v-115h300q42 0 42 -45q0 -46 -42 -46zM694 -99q0 -27 -19 -47t-47 -20h-358q-28 0 -45.5 19.5t-17.5 47.5v176q0 28 17.5 48t45.5 20h359q25 0 45 -22t20 -45v-177zM592 -74v127h-285v-127h285z" />
    <glyph glyph-name="uniAF3D" unicode="&#xaf3d;" 
d="M710 490q0 -58 -7 -93q-8 -40 -51 -40q-22 0 -38 12t-16 31q0 6 2 13q9 30 9 76v109h-156q-34 0 -34 45q0 47 38 47h176q77 0 77 -78v-122zM800 216h-703q-41 0 -41 46q0 45 41 45h302v68q-15 -18 -41 -18q-21 0 -37 12t-16 31q0 6 2 13q8 26 8 76v109h-165q-33 0 -33 45
q0 47 37 47h185q77 0 77 -78v-122q0 -15 -1 -37q14 11 36 11q49 0 49 -42v-115h300q42 0 42 -45q0 -46 -42 -46zM693 -80q0 -85 -74 -85h-346q-33 0 -52 29q-16 24 -16 55v210q0 18 16 28.5t37 10.5q47 0 47 -34v-60h288v63q0 35 49 35q51 0 51 -37v-215zM593 -71v53h-288
v-53h288z" />
    <glyph glyph-name="uniAF3F" unicode="&#xaf3f;" 
d="M710 490q0 -58 -7 -93q-8 -40 -51 -40q-22 0 -38 12t-16 31q0 6 2 13q9 30 9 76v109h-156q-34 0 -34 45q0 47 38 47h176q77 0 77 -78v-122zM800 216h-703q-41 0 -41 46q0 45 41 45h302v68q-15 -18 -41 -18q-21 0 -37 12t-16 31q0 6 2 13q8 26 8 76v109h-165q-33 0 -33 45
q0 47 37 47h185q77 0 77 -78v-122q0 -15 -1 -37q14 11 36 11q49 0 49 -42v-115h300q42 0 42 -45q0 -46 -42 -46zM695 -102q16 -13 16 -39q0 -21 -12.5 -37t-35.5 -16q-11 0 -23 4q-51 18 -112 59q-68 46 -83 79q-17 -33 -83 -78q-60 -40 -112 -60q-13 -5 -24 -5
q-22 0 -35 16t-13 37q0 25 17 39q70 21 124 59q76 54 76 120v61q0 38 50 38t50 -37v-62q0 -65 77 -119q55 -39 123 -59z" />
    <glyph glyph-name="uniAF41" unicode="&#xaf41;" 
d="M710 490q0 -58 -7 -93q-8 -40 -51 -40q-22 0 -38 12t-16 31q0 6 2 13q9 30 9 76v109h-156q-34 0 -34 45q0 47 38 47h176q77 0 77 -78v-122zM800 216h-703q-41 0 -41 46q0 45 41 45h302v68q-15 -18 -41 -18q-21 0 -37 12t-16 31q0 6 2 13q8 26 8 76v109h-165q-33 0 -33 45
q0 47 37 47h185q77 0 77 -78v-122q0 -15 -1 -37q14 11 36 11q49 0 49 -42v-115h300q42 0 42 -45q0 -46 -42 -46zM653 8q0 -82 -60 -141.5t-143 -59.5t-143.5 59.5t-60.5 141.5t60.5 141.5t143.5 59.5t143 -59.5t60 -141.5zM557 8q0 45 -30.5 75t-76.5 30t-76.5 -30
t-30.5 -75t30.5 -75t76.5 -30t76.5 30t30.5 75z" />
    <glyph glyph-name="uniAF42" unicode="&#xaf42;" 
d="M710 490q0 -58 -7 -93q-8 -40 -51 -40q-22 0 -38 12t-16 31q0 6 2 13q9 30 9 76v109h-156q-34 0 -34 45q0 47 38 47h176q77 0 77 -78v-122zM800 216h-703q-41 0 -41 46q0 45 41 45h302v68q-15 -18 -41 -18q-21 0 -37 12t-16 31q0 6 2 13q8 26 8 76v109h-165q-33 0 -33 45
q0 47 37 47h185q77 0 77 -78v-122q0 -15 -1 -37q14 11 36 11q49 0 49 -42v-115h300q42 0 42 -45q0 -46 -42 -46zM701 -92q17 -13 17 -38q0 -21 -13 -35q-13 -17 -36 -17q-10 0 -22 4q-53 16 -112 52q-69 42 -86 76q-19 -35 -85 -75q-54 -33 -109 -53q-13 -5 -24 -5
q-22 0 -35 15.5t-13 35.5q0 25 17 39q188 60 199 145h-168q-41 0 -41 46q0 45 41 45h439q42 0 42 -45q0 -46 -42 -46h-169q7 -53 82 -96q52 -31 118 -48z" />
    <glyph glyph-name="uniAF43" unicode="&#xaf43;" 
d="M710 490q0 -58 -7 -93q-8 -40 -51 -40q-22 0 -38 12t-16 31q0 6 2 13q9 30 9 76v109h-156q-34 0 -34 45q0 47 38 47h176q77 0 77 -78v-122zM800 216h-703q-41 0 -41 46q0 45 41 45h302v68q-15 -18 -41 -18q-21 0 -37 12t-16 31q0 6 2 13q8 26 8 76v109h-165q-33 0 -33 45
q0 47 37 47h185q77 0 77 -78v-122q0 -15 -1 -37q14 11 36 11q49 0 49 -42v-115h300q42 0 42 -45q0 -46 -42 -46zM700 -102q18 -12 18 -38q0 -22 -13.5 -38t-36.5 -16q-11 0 -23 4q-169 60 -195 119q-29 -56 -195 -119q-13 -5 -25 -5q-22 0 -35.5 15.5t-13.5 35.5q0 25 19 40
q75 22 108 38q69 33 86 81h-163q-41 0 -41 46q0 45 41 45h169v46q0 42 50 42t50 -42v-46h170q42 0 42 -45q0 -46 -42 -46h-164q17 -47 86 -80q34 -16 108 -37z" />
    <glyph glyph-name="uniAF48" unicode="&#xaf48;" 
d="M847 268h-127v-324q0 -40 -50 -40q-51 0 -51 40v709q0 38 51 38q50 0 50 -38v-293h127q32 0 32 -46t-32 -46zM552 82h-486q-41 0 -41 46q0 45 41 45h179v97q-8 -3 -18 -3q-20 0 -36 12t-16 31q0 6 2 13q6 21 6 76v131h-125q-33 0 -33 45q0 47 37 47h145q38 0 58 -21
q11 21 32 21h140q78 0 78 -79v-144q0 -57 -7 -92q-8 -40 -51 -40q-21 0 -36.5 12t-15.5 31q0 6 2 13q6 20 6 78v129h-120q-4 0 -8 1v-132q0 -37 -5 -75q8 2 16 2q50 0 50 -42v-111h206q42 0 42 -45q0 -46 -42 -46zM0 0z" />
    <glyph glyph-name="uniAF49" unicode="&#xaf49;" 
d="M847 390h-127v-175q0 -37 -50 -37q-51 0 -51 37v457q0 38 51 38q50 0 50 -37v-190h127q32 0 32 -46q0 -47 -32 -47zM550 204h-481q-41 0 -41 46q0 45 41 45h176v54q-8 -3 -18 -3q-20 0 -36 12t-16 31q0 6 2 13q6 21 6 76v97h-125q-33 0 -33 45q0 47 37 47h145
q38 0 58 -21q11 21 32 21h140q78 0 78 -79v-109q0 -58 -7 -93q-8 -40 -51 -40q-21 0 -36.5 12t-15.5 31q0 6 2 13q6 20 6 78v95h-120q-4 0 -8 1v-97q0 -26 -3 -59q7 1 14 1q50 0 50 -41v-85h204q42 0 42 -45q0 -46 -42 -46zM705 -135q0 -40 -52 -40q-49 0 -49 36v174h-409
q-33 0 -33 46q0 47 35 47h434q74 0 74 -85v-178z" />
    <glyph glyph-name="uniAF50" unicode="&#xaf50;" 
d="M847 390h-127v-175q0 -37 -50 -37q-51 0 -51 37v457q0 38 51 38q50 0 50 -37v-190h127q32 0 32 -46q0 -47 -32 -47zM550 204h-481q-41 0 -41 46q0 45 41 45h176v54q-8 -3 -18 -3q-20 0 -36 12t-16 31q0 6 2 13q6 21 6 76v97h-125q-33 0 -33 45q0 47 37 47h145
q38 0 58 -21q11 21 32 21h140q78 0 78 -79v-109q0 -58 -7 -93q-8 -40 -51 -40q-21 0 -36.5 12t-15.5 31q0 6 2 13q6 20 6 78v95h-120q-4 0 -8 1v-97q0 -26 -3 -59q7 1 14 1q50 0 50 -41v-85h204q42 0 42 -45q0 -46 -42 -46zM704 20q0 -67 -72 -67h-344v-40h395q33 0 33 -45
q0 -47 -35 -47h-411q-34 0 -57 16q-27 18 -27 53v85q0 24 22 43q19 17 40 17h353v40h-382q-34 0 -34 45q0 47 36 47h418q34 0 52 -27q13 -21 13 -43v-77z" />
    <glyph glyph-name="uniAF5C" unicode="&#xaf5c;" 
d="M847 390h-127v-175q0 -37 -50 -37q-51 0 -51 37v457q0 38 51 38q50 0 50 -37v-190h127q32 0 32 -46q0 -47 -32 -47zM550 204h-481q-41 0 -41 46q0 45 41 45h176v54q-8 -3 -18 -3q-20 0 -36 12t-16 31q0 6 2 13q6 21 6 76v97h-125q-33 0 -33 45q0 47 37 47h145
q38 0 58 -21q11 21 32 21h140q78 0 78 -79v-109q0 -58 -7 -93q-8 -40 -51 -40q-21 0 -36.5 12t-15.5 31q0 6 2 13q6 20 6 78v95h-120q-4 0 -8 1v-97q0 -26 -3 -59q7 1 14 1q50 0 50 -41v-85h204q42 0 42 -45q0 -46 -42 -46zM736 -93q12 -17 12 -33q0 -21 -18.5 -35.5
t-39.5 -14.5q-17 0 -26 10q-64 40 -87 87q-8 -18 -51 -54q-52 -45 -88 -45q-31 0 -82 45q-42 36 -52 54q-9 -20 -36.5 -47t-50.5 -41q-16 -9 -32 -9q-22 0 -37.5 14.5t-15.5 35.5q0 18 12 34q46 21 76 58q33 44 33 97v42q0 39 51 39q50 0 50 -37v-43q0 -90 87 -144
q85 51 85 143v42q0 39 51 39q50 0 50 -37v-43q0 -98 109 -157z" />
    <glyph glyph-name="uniAF5D" unicode="&#xaf5d;" 
d="M847 390h-127v-175q0 -37 -50 -37q-51 0 -51 37v457q0 38 51 38q50 0 50 -37v-190h127q32 0 32 -46q0 -47 -32 -47zM550 214h-481q-41 0 -41 46q0 45 41 45h176v44q-8 -3 -18 -3q-20 0 -36 12t-16 31q0 6 2 13q6 21 6 76v97h-125q-33 0 -33 45q0 47 37 47h145
q38 0 58 -21q11 21 32 21h140q78 0 78 -79v-109q0 -58 -7 -93q-8 -40 -51 -40q-21 0 -36.5 12t-15.5 31q0 6 2 13q6 20 6 78v95h-120q-4 0 -8 1v-97q0 -26 -3 -59q7 1 14 1q50 0 50 -41v-75h204q42 0 42 -45q0 -46 -42 -46zM677 9q0 -80 -60 -139.5t-142 -59.5t-142 59.5
t-60 139.5q0 81 60 140t142 59t142 -59t60 -140zM579 9q0 44 -29.5 73.5t-74.5 29.5t-74.5 -29.5t-29.5 -73.5t29.5 -73t74.5 -29t74.5 29t29.5 73z" />
    <glyph glyph-name="uniAF64" unicode="&#xaf64;" 
d="M787 -56q0 -40 -51 -40t-51 40v344h-66v-344q0 -40 -50 -40q-51 0 -51 40v709q0 38 51 38q50 0 50 -38v-273h66v273q0 38 52 38q50 0 50 -38v-709zM468 399q0 -57 -7 -92q-8 -40 -51 -40q-21 0 -36.5 12t-15.5 31q0 6 2 13q6 20 6 78v129h-94q-4 0 -8 1v-132
q0 -43 -5 -82q10 3 22 3q49 0 49 -40v-108h132q42 0 42 -45q0 -46 -42 -46h-395q-41 0 -41 46q0 45 41 45h162v100q-10 -5 -23 -5q-20 0 -36 12t-16 31q0 6 2 13q6 21 6 76v131h-100q-33 0 -33 44q0 48 38 48h118q39 0 60 -21q10 21 32 21h112q79 0 79 -79v-144z" />
    <glyph glyph-name="uniAF65" unicode="&#xaf65;" 
d="M787 217q0 -41 -50 -41q-21 0 -36.5 11t-15.5 30v168h-63v-153q0 -41 -50 -41q-20 0 -35.5 11t-15.5 30v440q0 39 52 39q49 0 49 -38v-196h63v195q0 39 52 39q50 0 50 -38v-456zM484 480q0 -58 -7 -93q-8 -40 -51 -40q-21 0 -36.5 12t-15.5 31q0 6 2 13q6 20 6 78v95
h-102q-4 0 -8 1v-97q0 -24 -3 -56q51 1 51 -41v-95h142q42 0 42 -45q0 -46 -42 -46h-393q-41 0 -41 46q0 45 41 45h150v59q-22 -1 -39.5 11t-17.5 32q0 6 2 13q6 21 6 76v97h-112q-33 0 -33 45q0 47 37 47h132q38 0 58 -21q11 21 32 21h121q79 0 79 -79v-109zM769 -135
q0 -40 -52 -40q-49 0 -49 36v174h-409q-33 0 -33 46q0 47 35 47h434q74 0 74 -85v-178z" />
    <glyph glyph-name="uniAF79" unicode="&#xaf79;" 
d="M787 217q0 -41 -50 -41q-21 0 -36.5 11t-15.5 30v168h-63v-129q0 -41 -50 -41q-20 0 -35.5 11t-15.5 30v416q0 39 52 39q49 0 49 -38v-196h63v195q0 39 52 39q50 0 50 -38v-456zM484 480q0 -58 -7 -93q-8 -40 -51 -40q-21 0 -36.5 12t-15.5 31q0 6 2 13q6 20 6 78v95
h-102q-4 0 -8 1v-97q0 -24 -3 -56q51 1 51 -41v-78h142q42 0 42 -45q0 -46 -42 -46h-393q-41 0 -41 46q0 45 41 45h150v42q-22 -1 -39.5 11t-17.5 32q0 6 2 13q6 21 6 76v97h-112q-33 0 -33 45q0 47 37 47h132q38 0 58 -21q11 21 32 21h121q79 0 79 -79v-109zM722 9
q0 -80 -60 -139.5t-142 -59.5t-142 59.5t-60 139.5q0 81 60 140t142 59t142 -59t60 -140zM624 9q0 44 -29.5 73.5t-74.5 29.5t-74.5 -29.5t-29.5 -73.5t29.5 -73t74.5 -29t74.5 29t29.5 73z" />
    <glyph glyph-name="uniAF80" unicode="&#xaf80;" 
d="M745 -56q0 -40 -50 -40q-51 0 -51 40v709q0 38 51 38q50 0 50 -38v-709zM572 81h-505q-41 0 -41 46q0 45 41 45h178v98q-8 -3 -18 -3q-20 0 -36 12t-16 31q0 6 2 13q6 21 6 76v131h-125q-33 0 -33 45q0 47 37 47h145q38 0 58 -21q11 21 32 21h140q78 0 78 -79v-144
q0 -57 -7 -92q-8 -40 -51 -40q-21 0 -36.5 12t-15.5 31q0 6 2 13q6 20 6 78v129h-120q-4 0 -8 1v-132q0 -42 -5 -81q8 2 16 2q50 0 50 -41v-107h226q42 0 42 -45q0 -46 -42 -46z" />
    <glyph glyph-name="uniAF84" unicode="&#xaf84;" 
d="M745 114q0 -37 -50 -37q-51 0 -51 37v558q0 38 51 38q50 0 50 -37v-559zM552 169h-485q-41 0 -41 46q0 45 41 45h178v89q-8 -3 -18 -3q-20 0 -36 12t-16 31q0 6 2 13q6 21 6 76v97h-125q-33 0 -33 45q0 47 37 47h145q38 0 58 -21q11 21 32 21h140q78 0 78 -79v-109
q0 -58 -7 -93q-8 -40 -51 -40q-21 0 -36.5 12t-15.5 31q0 6 2 13q6 20 6 78v95h-120q-4 0 -8 1v-97q0 -40 -5 -79q8 2 16 2q50 0 50 -41v-101h206q42 0 42 -45q0 -46 -42 -46zM710 -72q34 0 34 -46q0 -48 -36 -48h-426q-29 0 -55 20.5t-26 51.5v185q0 40 52 40q49 0 49 -35
v-168h408z" />
    <glyph glyph-name="uniAF88" unicode="&#xaf88;" 
d="M745 222q0 -37 -50 -37q-51 0 -51 37v450q0 38 51 38q50 0 50 -37v-451zM552 207h-485q-41 0 -41 46q0 45 41 45h178v51q-8 -3 -18 -3q-20 0 -36 12t-16 31q0 6 2 13q6 21 6 76v97h-125q-33 0 -33 45q0 47 37 47h145q38 0 58 -21q11 21 32 21h140q78 0 78 -79v-109
q0 -58 -7 -93q-8 -40 -51 -40q-21 0 -36.5 12t-15.5 31q0 6 2 13q6 20 6 78v95h-120q-4 0 -8 1v-97q0 -26 -3 -59q7 1 14 1q50 0 50 -41v-82h206q42 0 42 -45q0 -46 -42 -46zM730 20q0 -67 -72 -67h-344v-40h395q33 0 33 -45q0 -47 -35 -47h-411q-34 0 -57 16q-27 18 -27 53
v85q0 24 22 43q19 17 40 17h353v40h-382q-34 0 -34 45q0 47 36 47h418q34 0 52 -27q13 -21 13 -43v-77z" />
    <glyph glyph-name="uniAF90" unicode="&#xaf90;" 
d="M745 222q0 -37 -50 -37q-51 0 -51 37v450q0 38 51 38q50 0 50 -37v-451zM552 207h-485q-41 0 -41 46q0 45 41 45h178v51q-8 -3 -18 -3q-20 0 -36 12t-16 31q0 6 2 13q6 21 6 76v97h-125q-33 0 -33 45q0 47 37 47h145q38 0 58 -21q11 21 32 21h140q78 0 78 -79v-109
q0 -58 -7 -93q-8 -40 -51 -40q-21 0 -36.5 12t-15.5 31q0 6 2 13q6 20 6 78v95h-120q-4 0 -8 1v-97q0 -26 -3 -59q7 1 14 1q50 0 50 -41v-82h206q42 0 42 -45q0 -46 -42 -46zM733 -99q0 -28 -18.5 -47.5t-46.5 -19.5h-408q-28 0 -45.5 19.5t-17.5 47.5v168q0 28 17.5 48
t45.5 20h408q25 0 45 -22t20 -45v-169zM631 -74v119h-334v-119h334z" />
    <glyph glyph-name="uniAF91" unicode="&#xaf91;" 
d="M745 222q0 -37 -50 -37q-51 0 -51 37v450q0 38 51 38q50 0 50 -37v-451zM552 207h-485q-41 0 -41 46q0 45 41 45h178v51q-8 -3 -18 -3q-20 0 -36 12t-16 31q0 6 2 13q6 21 6 76v97h-125q-33 0 -33 45q0 47 37 47h145q38 0 58 -21q11 21 32 21h140q78 0 78 -79v-109
q0 -58 -7 -93q-8 -40 -51 -40q-21 0 -36.5 12t-15.5 31q0 6 2 13q6 20 6 78v95h-120q-4 0 -8 1v-97q0 -26 -3 -59q7 1 14 1q50 0 50 -41v-82h206q42 0 42 -45q0 -46 -42 -46zM730 -79q0 -87 -73 -87h-389q-33 0 -52 29q-16 24 -16 55v209q0 18 16 28.5t37 10.5q47 0 47 -34
v-57h331v60q0 35 49 35q50 0 50 -37v-212zM631 -73v57h-331v-57h331z" />
    <glyph glyph-name="uniAF95" unicode="&#xaf95;" 
d="M745 222q0 -37 -50 -37q-51 0 -51 37v450q0 38 51 38q50 0 50 -37v-451zM552 215h-485q-41 0 -41 46q0 45 41 45h188v47q-12 -7 -28 -7q-20 0 -36 12t-16 31q0 6 2 13q6 21 6 76v97h-125q-33 0 -33 45q0 47 37 47h145q38 0 58 -21q11 21 32 21h140q78 0 78 -79v-109
q0 -58 -7 -93q-8 -40 -51 -40q-21 0 -36.5 12t-15.5 31q0 6 2 13q6 20 6 78v95h-120q-4 0 -8 1v-97q0 -28 -3 -62q11 4 24 4q50 0 50 -41v-74h196q42 0 42 -45q0 -46 -42 -46zM691 9q0 -80 -60 -139.5t-142 -59.5t-142 59.5t-60 139.5q0 81 60 140t142 59t142 -59t60 -140z
M593 9q0 44 -29.5 73.5t-74.5 29.5t-74.5 -29.5t-29.5 -73.5t29.5 -73t74.5 -29t74.5 29t29.5 73z" />
    <glyph glyph-name="uniAF9C" unicode="&#xaf9c;" 
d="M800 10h-699q-41 0 -41 46q0 45 41 45h182v158q0 27 31 37q1 15 1 39v181h-165q-33 0 -33 45q0 47 37 47h185q77 0 77 -79v-195q0 -57 -7 -92q-5 -23 -24 -33v-108h136v158q0 19 15.5 29.5t36.5 10.5t35 -10q1 17 1 46v181h-157q-34 0 -34 45q0 47 38 47h177q77 0 77 -79
v-195q0 -57 -7 -92q-8 -40 -50 -40q-16 0 -30 8v-109h177q42 0 42 -45q0 -46 -42 -46z" />
    <glyph glyph-name="uniAFB8" unicode="&#xafb8;" 
d="M710 364q0 -57 -7 -92q-8 -40 -50 -40q-21 0 -36.5 12t-15.5 31q0 6 2 13q6 20 6 77v181h-155q-34 0 -34 45q0 47 38 47h175q77 0 77 -79v-195zM416 364q0 -57 -7 -92q-8 -40 -50 -40q-21 0 -36.5 12t-15.5 31q0 6 2 13q6 20 6 77v181h-165q-33 0 -33 45q0 47 37 47h185
q77 0 77 -79v-195zM801 82h-301v-184q0 -40 -49 -40q-21 0 -36 11t-15 30v183h-302q-41 0 -41 46q0 45 41 45h703q42 0 42 -45q0 -46 -42 -46z" />
    <glyph glyph-name="uniAFB9" unicode="&#xafb9;" 
d="M710 490q0 -58 -7 -93q-8 -40 -51 -40q-22 0 -38 12t-16 31q0 6 2 13q9 30 9 76v109h-156q-34 0 -34 45q0 47 38 47h176q77 0 77 -78v-122zM416 490q0 -58 -7 -93q-8 -40 -51 -40q-21 0 -37 12t-16 31q0 6 2 13q8 26 8 76v109h-165q-33 0 -33 45q0 47 37 47h185
q77 0 77 -78v-122zM801 229h-305v-95h123q75 0 75 -78v-104q0 -59 -7 -94q-8 -39 -51 -39q-20 0 -36 11.5t-16 30.5q0 6 2 13q6 19 6 76v92h-368q-34 0 -34 45q0 47 36 47h169v95h-297q-41 0 -41 46q0 45 41 45h703q42 0 42 -45q0 -46 -42 -46z" />
    <glyph glyph-name="uniAFBC" unicode="&#xafbc;" 
d="M710 470q0 -58 -7 -93q-8 -40 -51 -40q-22 0 -38 12t-16 31q0 6 2 13q9 30 9 76v109h-156q-34 0 -34 45q0 47 38 47h176q77 0 77 -78v-122zM416 470q0 -58 -7 -93q-8 -40 -51 -40q-21 0 -37 12t-16 31q0 6 2 13q8 26 8 76v109h-165q-33 0 -33 45q0 47 37 47h185
q77 0 77 -78v-122zM800 188h-275v-146q0 -42 -50 -42q-21 0 -36 11.5t-15 31.5v145h-327q-41 0 -41 46q0 45 41 45h703q42 0 42 -45q0 -46 -42 -46zM684 -71q34 0 34 -47q0 -48 -36 -48h-395q-32 0 -54 18q-26 20 -26 54v188q0 41 52 41q48 0 48 -36v-170h377z" />
    <glyph glyph-name="uniAFC0" unicode="&#xafc0;" 
d="M710 490q0 -58 -7 -93q-8 -40 -51 -40q-22 0 -38 12t-16 31q0 6 2 13q9 30 9 76v109h-156q-34 0 -34 45q0 47 38 47h176q77 0 77 -78v-122zM416 490q0 -58 -7 -93q-8 -40 -51 -40q-21 0 -37 12t-16 31q0 6 2 13q8 26 8 76v109h-165q-33 0 -33 45q0 47 37 47h185
q77 0 77 -78v-122zM801 238h-305v-71h132q34 0 53 -28q13 -20 13 -43v-83q0 -63 -72 -63h-313v-41h366q33 0 33 -45q0 -47 -35 -47h-381q-35 0 -58 16q-27 19 -27 54v86q0 24 22 42q19 17 40 17h322v43h-353q-33 0 -33 45q0 47 36 47h154v71h-297q-41 0 -41 46q0 45 41 45
h703q42 0 42 -45q0 -46 -42 -46z" />
    <glyph glyph-name="uniAFC7" unicode="&#xafc7;" 
d="M710 490q0 -58 -7 -93q-8 -40 -51 -40q-22 0 -38 12t-16 31q0 6 2 13q9 30 9 76v109h-156q-34 0 -34 45q0 47 38 47h176q77 0 77 -78v-122zM416 490q0 -58 -7 -93q-8 -40 -51 -40q-21 0 -37 12t-16 31q0 6 2 13q8 26 8 76v109h-165q-33 0 -33 45q0 47 37 47h185
q77 0 77 -78v-122zM801 232h-305v-95q0 -13 -7 -23h59v43q0 21 14.5 33t34.5 12q47 0 47 -45v-43h85q36 0 36 -42q0 -43 -36 -43h-19q25 -33 25 -75q0 -55 -42 -97t-97 -42t-96.5 42t-41.5 97q0 42 25 75h-20q-10 0 -18 5v-28q0 -68 -69 -68h-104v-29h154q33 0 33 -45
q0 -47 -36 -47h-167q-36 0 -59 16q-27 19 -27 54v84q0 24 22 42q19 17 39 17h111v31h-139q-33 0 -33 44q0 48 38 48h168q10 0 19 -2v81h-297q-41 0 -41 46q0 45 41 45h703q42 0 42 -45q0 -46 -42 -46zM639 -46q0 44 -43 44q-42 0 -42 -44q0 -19 12 -31.5t30 -12.5
q19 0 31 12.5t12 31.5z" />
    <glyph glyph-name="uniAFC8" unicode="&#xafc8;" 
d="M710 490q0 -58 -7 -93q-8 -40 -51 -40q-22 0 -38 12t-16 31q0 6 2 13q9 30 9 76v109h-156q-34 0 -34 45q0 47 38 47h176q77 0 77 -78v-122zM416 490q0 -58 -7 -93q-8 -40 -51 -40q-21 0 -37 12t-16 31q0 6 2 13q8 26 8 76v109h-165q-33 0 -33 45q0 47 37 47h185
q77 0 77 -78v-122zM801 230h-305v-85h133q25 0 45 -22t20 -45v-177q0 -27 -19 -47t-47 -20h-358q-28 0 -45.5 19.5t-17.5 47.5v176q0 28 17.5 48t45.5 20h125v85h-297q-41 0 -41 46q0 45 41 45h703q42 0 42 -45q0 -46 -42 -46zM592 -74v127h-285v-127h285z" />
    <glyph glyph-name="uniAFC9" unicode="&#xafc9;" 
d="M710 490q0 -58 -7 -93q-8 -40 -51 -40q-22 0 -38 12t-16 31q0 6 2 13q9 30 9 76v109h-156q-34 0 -34 45q0 47 38 47h176q77 0 77 -78v-122zM416 490q0 -58 -7 -93q-8 -40 -51 -40q-21 0 -37 12t-16 31q0 6 2 13q8 26 8 76v109h-165q-33 0 -33 45q0 47 37 47h185
q77 0 77 -78v-122zM801 233h-305v-95q0 -43 -50 -43q-21 0 -36 11.5t-15 31.5v95h-297q-41 0 -41 46q0 45 41 45h703q42 0 42 -45q0 -46 -42 -46zM693 -80q0 -85 -74 -85h-346q-33 0 -52 29q-16 24 -16 55v210q0 18 16 28.5t37 10.5q47 0 47 -34v-60h288v63q0 35 49 35
q51 0 51 -37v-215zM593 -71v53h-288v-53h288z" />
    <glyph glyph-name="uniAFCB" unicode="&#xafcb;" 
d="M710 490q0 -58 -7 -93q-8 -40 -51 -40q-22 0 -38 12t-16 31q0 6 2 13q9 30 9 76v109h-156q-34 0 -34 45q0 47 38 47h176q77 0 77 -78v-122zM416 490q0 -58 -7 -93q-8 -40 -51 -40q-21 0 -37 12t-16 31q0 6 2 13q8 26 8 76v109h-165q-33 0 -33 45q0 47 37 47h185
q77 0 77 -78v-122zM801 219h-305v-95q0 -5 -1 -10v-38q0 -65 77 -119q55 -39 123 -59q16 -13 16 -39q0 -21 -12.5 -37t-35.5 -16q-11 0 -23 4q-51 18 -112 59q-68 46 -83 79q-17 -33 -83 -78q-60 -40 -112 -60q-13 -5 -24 -5q-22 0 -35 16t-13 37q0 25 17 39q70 21 124 59
q76 54 76 120v143h-297q-41 0 -41 46q0 45 41 45h703q42 0 42 -45q0 -46 -42 -46z" />
    <glyph glyph-name="uniAFCD" unicode="&#xafcd;" 
d="M710 500q0 -58 -7 -93q-8 -40 -51 -40q-22 0 -38 12t-16 31q0 6 2 13q9 30 9 76v99h-156q-34 0 -34 45q0 47 38 47h176q77 0 77 -78v-112zM416 500q0 -58 -7 -93q-8 -40 -51 -40q-21 0 -37 12t-16 31q0 6 2 13q8 26 8 76v99h-165q-33 0 -33 45q0 47 37 47h185
q77 0 77 -78v-112zM800 247h-300v-44q66 -18 109.5 -72.5t43.5 -122.5q0 -82 -60 -141.5t-143 -59.5t-143.5 59.5t-60.5 141.5q0 68 43.5 122.5t109.5 71.5v45h-302q-41 0 -41 46q0 45 41 45h703q42 0 42 -45q0 -46 -42 -46zM557 8q0 45 -30.5 75t-76.5 30t-76.5 -30
t-30.5 -75t30.5 -75t76.5 -30t76.5 30t30.5 75z" />
    <glyph glyph-name="uniAFCE" unicode="&#xafce;" 
d="M710 490q0 -58 -7 -93q-8 -40 -51 -40q-22 0 -38 12t-16 31q0 6 2 13q9 30 9 76v109h-156q-34 0 -34 45q0 47 38 47h176q77 0 77 -78v-122zM416 490q0 -58 -7 -93q-8 -40 -51 -40q-21 0 -37 12t-16 31q0 6 2 13q8 26 8 76v109h-165q-33 0 -33 45q0 47 37 47h185
q77 0 77 -78v-122zM801 229h-305v-86h174q42 0 42 -45q0 -46 -42 -46h-169q7 -53 82 -96q52 -31 118 -48q17 -13 17 -38q0 -21 -13 -35q-13 -17 -36 -17q-10 0 -22 4q-53 16 -112 52q-69 42 -86 76q-19 -35 -85 -75q-54 -33 -109 -53q-13 -5 -24 -5q-22 0 -35 15.5t-13 35.5
q0 25 17 39q188 60 199 145h-168q-41 0 -41 46q0 45 41 45h164v86h-297q-41 0 -41 46q0 45 41 45h703q42 0 42 -45q0 -46 -42 -46z" />
    <glyph glyph-name="uniAFD4" unicode="&#xafd4;" 
d="M751 -56q0 -40 -50 -40t-50 40v97h-133q-38 0 -38 47q0 45 38 45h133v520q0 38 51 38q49 0 49 -38v-709zM515 414q0 -57 -7 -92q-8 -40 -51 -40q-21 0 -36.5 12t-15.5 31q0 6 2 13q6 20 6 78v129h-120q-4 0 -8 1v-132q0 -57 -7 -92q-8 -40 -51 -40q-20 0 -36 12t-16 31
q0 6 2 13q6 21 6 76v131h-125q-33 0 -33 45q0 47 37 47h145q38 0 58 -21q11 21 32 21h140q78 0 78 -79v-144zM532 161h-199v-160q0 -40 -50 -40q-20 0 -35.5 10.5t-15.5 29.5v160h-165q-41 0 -41 46q0 45 41 45h465q42 0 42 -45q0 -46 -42 -46z" />
    <glyph glyph-name="uniAFDC" unicode="&#xafdc;" 
d="M751 214q0 -42 -50 -42t-50 42v124h-92q-39 0 -39 47q0 45 38 45h93v242q0 39 51 39q49 0 49 -38v-459zM515 500q0 -58 -7 -93q-8 -40 -51 -40q-21 0 -36.5 12t-15.5 31q0 6 2 13q6 20 6 78v95h-120q-4 0 -8 1v-97q0 -58 -7 -93q-8 -40 -51 -40q-20 0 -36 12t-16 31
q0 6 2 13q6 21 6 76v97h-125q-33 0 -33 45q0 47 37 47h145q38 0 58 -21q11 21 32 21h140q78 0 78 -79v-109zM734 20q0 -67 -72 -67h-344v-40h395q33 0 33 -45q0 -47 -35 -47h-411q-34 0 -57 16q-27 18 -27 53v85q0 24 22 43q19 17 40 17h353v40h-382q-34 0 -34 45q0 14 5 25
q-40 7 -40 42v46h-113q-41 0 -41 46q0 45 41 45h487q42 0 42 -45q0 -46 -42 -46h-273v-46q0 -11 -5 -20h393q34 0 52 -27q13 -21 13 -43v-77z" />
    <glyph glyph-name="uniAFE8" unicode="&#xafe8;" 
d="M751 164q0 -42 -50 -42t-50 42v174h-92q-39 0 -39 47q0 45 38 45h93v242q0 39 51 39q49 0 49 -38v-509zM515 500q0 -58 -7 -93q-8 -40 -51 -40q-21 0 -36.5 12t-15.5 31q0 6 2 13q6 20 6 78v95h-120q-4 0 -8 1v-97q0 -58 -7 -93q-8 -40 -51 -40q-20 0 -36 12t-16 31
q0 6 2 13q6 21 6 76v97h-125q-33 0 -33 45q0 47 37 47h145q38 0 58 -21q11 21 32 21h140q78 0 78 -79v-109zM554 223h-273v-56q0 -43 -50 -43q-20 0 -35.5 11.5t-15.5 31.5v56h-113q-41 0 -41 46q0 45 41 45h487q42 0 42 -45q0 -46 -42 -46zM746 -93q12 -17 12 -33
q0 -21 -18.5 -35.5t-39.5 -14.5q-17 0 -26 10q-64 40 -87 87q-8 -18 -51 -54q-52 -45 -88 -45q-31 0 -82 45q-42 36 -52 54q-9 -20 -36.5 -47t-50.5 -41q-16 -9 -32 -9q-22 0 -37.5 14.5t-15.5 35.5q0 18 12 34q46 21 76 58q33 44 33 97v42q0 39 51 39q50 0 50 -37v-43
q0 -90 87 -144q85 51 85 143v42q0 39 51 39q50 0 50 -37v-43q0 -98 109 -157z" />
    <glyph glyph-name="uniAFE9" unicode="&#xafe9;" 
d="M751 214q0 -42 -50 -42t-50 42v124h-92q-39 0 -39 47q0 45 38 45h93v242q0 39 51 39q49 0 49 -38v-459zM515 500q0 -58 -7 -93q-8 -40 -51 -40q-21 0 -36.5 12t-15.5 31q0 6 2 13q6 20 6 78v95h-120q-4 0 -8 1v-97q0 -58 -7 -93q-8 -40 -51 -40q-20 0 -36 12t-16 31
q0 6 2 13q6 21 6 76v97h-125q-33 0 -33 45q0 47 37 47h145q38 0 58 -21q11 21 32 21h140q78 0 78 -79v-109zM554 223h-273v-86q0 -43 -50 -43q-20 0 -35.5 11.5t-15.5 31.5v86h-113q-41 0 -41 46q0 45 41 45h487q42 0 42 -45q0 -46 -42 -46zM696 9q0 -80 -60 -139.5
t-142 -59.5t-142 59.5t-60 139.5q0 81 60 140t142 59t142 -59t60 -140zM598 9q0 44 -29.5 73.5t-74.5 29.5t-74.5 -29.5t-29.5 -73.5t29.5 -73t74.5 -29t74.5 29t29.5 73z" />
    <glyph glyph-name="uniAFF0" unicode="&#xaff0;" 
d="M786 -56q0 -40 -50 -40q-51 0 -51 40v709q0 38 51 38q50 0 50 -38v-709zM634 -56q0 -40 -50 -40t-50 40v92h-106q-39 0 -39 47q0 45 38 45h107v525q0 38 51 38q49 0 49 -38v-709zM484 425q0 -57 -7 -92q-8 -40 -51 -40q-21 0 -36.5 12t-15.5 31q0 6 2 13q6 20 6 78v129
h-102q-4 0 -8 1v-132q0 -57 -7 -92q-8 -40 -51 -40q-20 0 -36 12t-16 31q0 6 2 13q6 21 6 76v131h-103q-33 0 -33 45q0 47 37 47h122q39 0 59 -21q11 21 32 21h121q79 0 79 -79v-144zM480 156h-166v-155q0 -40 -50 -40q-20 0 -35.5 10.5t-15.5 29.5v155h-145q-41 0 -41 46
q0 45 41 45h412q42 0 42 -45q0 -46 -42 -46z" />
    <glyph glyph-name="uniAFF1" unicode="&#xaff1;" 
d="M787 179q0 -41 -50 -41q-21 0 -36.5 11t-15.5 30v493q0 39 52 39q50 0 50 -38v-494zM635 183q0 -40 -47 -40q-26 0 -42 17h-118q-39 0 -39 45q0 42 38 42h107v413q0 24 18 37q15 13 37 13q46 0 46 -37v-490zM484 510q0 -48 -7 -83q-8 -40 -51 -40q-21 0 -36.5 12
t-15.5 31q0 6 2 13q6 20 6 68v85h-102q-4 0 -8 1v-87q0 -48 -7 -83q-8 -40 -51 -40q-20 0 -36 12t-16 31q0 6 2 13q6 21 6 66v87h-112q-33 0 -33 45q0 47 37 47h132q38 0 58 -21q11 21 32 21h121q79 0 79 -79v-99zM769 -135q0 -40 -52 -40q-49 0 -49 36v174h-409
q-33 0 -33 46q0 26 15 39q-47 3 -47 42v109h-126q-41 0 -41 46q0 45 41 45h412q42 0 42 -45q0 -46 -42 -46h-185v-109q0 -22 -20 -34h420q74 0 74 -85v-178z" />
    <glyph glyph-name="uniAFF4" unicode="&#xaff4;" 
d="M787 78q0 -40 -50 -40q-21 0 -36.5 11t-15.5 30v593q0 39 52 39q50 0 50 -38v-595zM635 82q0 -40 -49 -40q-21 0 -36.5 11t-15.5 30v27h-106q-39 0 -39 47q0 45 38 45h107v470q0 39 52 39q49 0 49 -38v-591zM484 480q0 -48 -7 -83q-8 -40 -51 -40q-21 0 -36.5 12
t-15.5 31q0 6 2 13q6 20 6 68v95h-102q-4 0 -8 1v-97q0 -48 -7 -83q-8 -40 -51 -40q-20 0 -36 12t-16 31q0 6 2 13q6 21 6 66v97h-112q-33 0 -33 45q0 47 37 47h132q38 0 58 -21q11 21 32 21h121q79 0 79 -79v-109zM736 -72q34 0 34 -46q0 -48 -36 -48h-426q-29 0 -55 20.5
t-26 51.5v155q0 11 6 20q-37 7 -37 39v114h-128q-41 0 -41 46q0 45 41 45h412q42 0 42 -45q0 -46 -42 -46h-183v-114q0 -11 -5 -20q36 -6 36 -34v-138h408z" />
    <glyph glyph-name="uniAFF8" unicode="&#xaff8;" 
d="M787 219q0 -41 -50 -41q-21 0 -36.5 11t-15.5 30v453q0 39 52 39q50 0 50 -38v-454zM635 673l-1 -453q0 -20 -15.5 -32.5t-36.5 -12.5t-35 13h-119q-39 0 -39 43q0 40 38 40h107v389q0 24 18 37q15 13 37 13q46 0 46 -37zM484 510q0 -48 -7 -83q-8 -40 -51 -40
q-21 0 -36.5 12t-15.5 31q0 6 2 13q6 20 6 68v85h-102q-4 0 -8 1v-87q0 -48 -7 -83q-8 -40 -51 -40q-20 0 -36 12t-16 31q0 6 2 13q6 21 6 66v87h-112q-33 0 -33 45q0 47 37 47h132q38 0 58 -21q11 21 32 21h121q79 0 79 -79v-99zM772 20q0 -67 -72 -67h-344v-40h395
q33 0 33 -45q0 -47 -35 -47h-411q-34 0 -57 16q-27 18 -27 53v85q0 24 22 43q19 17 40 17h353v40h-382q-34 0 -34 45q0 12 4 21q-6 -1 -12 -1q-51 0 -51 42v106h-126q-41 0 -41 42t41 42h412q42 0 42 -41q0 -43 -42 -43h-185v-106q0 -8 -3 -15h415q34 0 52 -27
q13 -21 13 -43v-77z" />
    <glyph glyph-name="uniB000" unicode="&#xb000;" 
d="M787 189q0 -41 -50 -41q-21 0 -36.5 11t-15.5 30v483q0 39 52 39q50 0 50 -38v-484zM635 673l-1 -481q0 -20 -15.5 -32.5t-36.5 -12.5q-27 0 -40 19h-114q-39 0 -39 45q0 42 38 42h107v407q0 24 18 37q15 13 37 13q46 0 46 -37zM484 500q0 -48 -7 -83q-8 -40 -51 -40
q-21 0 -36.5 12t-15.5 31q0 6 2 13q6 20 6 68v95h-102q-4 0 -8 1v-97q0 -48 -7 -83q-8 -40 -51 -40q-20 0 -36 12t-16 31q0 6 2 13q6 21 6 66v97h-112q-33 0 -33 45q0 47 37 47h132q38 0 58 -21q11 21 32 21h121q79 0 79 -79v-109zM769 -99q0 -28 -18.5 -47.5t-46.5 -19.5
h-408q-28 0 -45.5 19.5t-17.5 47.5v168q0 32 21 52q-23 -3 -40 7q-20 12 -20 34v114h-126q-41 0 -41 46q0 45 41 45h412q42 0 42 -45q0 -46 -42 -46h-185v-114q0 -15 -10 -26q6 1 11 1h408q25 0 45 -22t20 -45v-169zM667 -74v119h-334v-119h334z" />
    <glyph glyph-name="uniB001" unicode="&#xb001;" 
d="M635 178q0 -21 -16 -33t-37 -12q-27 0 -40 18h-114q-39 0 -39 45q0 42 38 42h107v422q0 24 18 37q15 13 37 13q46 0 46 -37v-495zM484 500q0 -48 -7 -83q-8 -40 -51 -40q-21 0 -36.5 12t-15.5 31q0 6 2 13q6 20 6 68v95h-102q-4 0 -8 1v-97q0 -48 -7 -83q-8 -40 -51 -40
q-20 0 -36 12t-16 31q0 6 2 13q6 21 6 66v97h-112q-33 0 -33 45q0 47 37 47h132q38 0 58 -21q11 21 32 21h121q79 0 79 -79v-109zM787 198q0 -28 -29 -38q15 -10 15 -27v-212q0 -87 -73 -87h-389q-33 0 -52 29q-16 24 -16 55v209q0 5 1 9q-50 1 -50 42v93h-126q-41 0 -41 46
q0 45 41 45h412q42 0 42 -45q0 -46 -42 -46h-185v-93q0 -6 -2 -12q50 1 50 -34v-57h331v60q0 23 28 32q-17 11 -17 31v474q0 39 52 39q50 0 50 -38v-475zM674 -73v57h-331v-57h331z" />
    <glyph glyph-name="uniB004" unicode="&#xb004;" 
d="M787 179q0 -41 -50 -41q-21 0 -36.5 11t-15.5 30v493q0 39 52 39q50 0 50 -38v-494zM635 193q0 -21 -16 -33t-37 -12q-27 0 -40 18h-114q-39 0 -39 45q0 42 38 42h107v407q0 24 18 37q15 13 37 13q46 0 46 -37v-480zM484 500q0 -48 -7 -83q-8 -40 -51 -40q-21 0 -36.5 12
t-15.5 31q0 6 2 13q6 20 6 68v95h-102q-4 0 -8 1v-97q0 -48 -7 -83q-8 -40 -51 -40q-20 0 -36 12t-16 31q0 6 2 13q6 21 6 66v97h-112q-33 0 -33 45q0 47 37 47h132q38 0 58 -21q11 21 32 21h121q79 0 79 -79v-109zM480 271h-185v-109q0 -42 -50 -42q-51 0 -51 42v109h-126
q-41 0 -41 46q0 45 41 45h412q42 0 42 -45q0 -46 -42 -46zM765 -93q12 -17 12 -33q0 -21 -18.5 -35.5t-39.5 -14.5q-17 0 -26 10q-64 40 -87 87q-8 -18 -51 -54q-52 -45 -88 -45q-31 0 -82 45q-42 36 -52 54q-9 -20 -36.5 -47t-50.5 -41q-16 -9 -32 -9q-22 0 -37.5 14.5
t-15.5 35.5q0 18 12 34q46 21 76 58q33 44 33 97v42q0 39 51 39q50 0 50 -37v-43q0 -90 87 -144q85 51 85 143v42q0 39 51 39q50 0 50 -37v-43q0 -98 109 -157z" />
    <glyph glyph-name="uniB00C" unicode="&#xb00c;" 
d="M747 -56q0 -40 -50 -40t-50 40v709q0 38 51 38q49 0 49 -38v-709zM515 414q0 -57 -7 -92q-8 -40 -51 -40q-21 0 -36.5 12t-15.5 31q0 6 2 13q6 20 6 78v129h-120q-4 0 -8 1v-132q0 -57 -7 -92q-8 -40 -51 -40q-20 0 -36 12t-16 31q0 6 2 13q6 21 6 76v131h-125
q-33 0 -33 45q0 47 37 47h145q38 0 58 -21q11 21 32 21h140q78 0 78 -79v-144zM546 156h-205v-155q0 -40 -50 -40q-20 0 -35.5 10.5t-15.5 29.5v155h-172q-41 0 -41 46q0 45 41 45h478q42 0 42 -45q0 -46 -42 -46z" />
    <glyph glyph-name="uniB010" unicode="&#xb010;" 
d="M747 114q0 -40 -49 -40q-21 0 -36 11t-15 30v557q0 39 51 39q49 0 49 -38v-559zM515 480q0 -58 -7 -93q-8 -40 -51 -40q-21 0 -36.5 12t-15.5 31q0 6 2 13q6 20 6 78v95h-120q-4 0 -8 1v-97q0 -58 -7 -93q-8 -40 -51 -40q-20 0 -36 12t-16 31q0 6 2 13q6 21 6 76v97h-125
q-33 0 -33 45q0 47 37 47h145q38 0 58 -21q11 21 32 21h140q78 0 78 -79v-109zM710 -72q34 0 34 -46q0 -48 -36 -48h-426q-29 0 -55 20.5t-26 51.5v155q0 9 4 17q-18 11 -18 32v93h-119q-41 0 -41 46q0 45 41 45h478q42 0 42 -45q0 -46 -42 -46h-258v-93q0 -9 -3 -16
q17 -10 17 -28v-138h408z" />
    <glyph glyph-name="uniB014" unicode="&#xb014;" 
d="M747 226q0 -42 -50 -42t-50 42v446q0 39 51 39q49 0 49 -38v-447zM515 500q0 -58 -7 -93q-8 -40 -51 -40q-21 0 -36.5 12t-15.5 31q0 6 2 13q6 20 6 78v95h-120q-4 0 -8 1v-97q0 -58 -7 -93q-8 -40 -51 -40q-20 0 -36 12t-16 31q0 6 2 13q6 21 6 76v97h-125q-33 0 -33 45
q0 47 37 47h145q38 0 58 -21q11 21 32 21h140q78 0 78 -79v-109zM730 20q0 -67 -72 -67h-344v-40h395q33 0 33 -45q0 -47 -35 -47h-411q-34 0 -57 16q-27 18 -27 53v85q0 24 22 43q19 17 40 17h353v40h-382q-34 0 -34 45q0 15 6 27q-30 10 -30 39v57h-119q-41 0 -41 46
q0 45 41 45h478q42 0 42 -45q0 -46 -42 -46h-258v-57q0 -11 -5 -19h382q34 0 52 -27q13 -21 13 -43v-77z" />
    <glyph glyph-name="uniB01C" unicode="&#xb01c;" 
d="M747 213q0 -42 -50 -42t-50 42v459q0 39 51 39q49 0 49 -38v-460zM515 500q0 -58 -7 -93q-8 -40 -51 -40q-21 0 -36.5 12t-15.5 31q0 6 2 13q6 20 6 78v95h-120q-4 0 -8 1v-97q0 -58 -7 -93q-8 -40 -51 -40q-20 0 -36 12t-16 31q0 6 2 13q6 21 6 76v97h-125q-33 0 -33 45
q0 47 37 47h145q38 0 58 -21q11 21 32 21h140q78 0 78 -79v-109zM733 -99q0 -28 -18.5 -47.5t-46.5 -19.5h-408q-28 0 -45.5 19.5t-17.5 47.5v168q0 37 27 57q-37 8 -37 40v57h-119q-41 0 -41 46q0 45 41 45h478q42 0 42 -45q0 -46 -42 -46h-258v-57q0 -18 -12 -29h392
q25 0 45 -22t20 -45v-169zM631 -74v119h-334v-119h334z" />
    <glyph glyph-name="uniB01D" unicode="&#xb01d;" 
d="M747 233q0 -42 -50 -42t-50 42v439q0 39 51 39q49 0 49 -38v-440zM515 500q0 -58 -7 -93q-8 -40 -51 -40q-21 0 -36.5 12t-15.5 31q0 6 2 13q6 20 6 78v95h-120q-4 0 -8 1v-97q0 -58 -7 -93q-8 -40 -51 -40q-20 0 -36 12t-16 31q0 6 2 13q6 21 6 76v97h-125q-33 0 -33 45
q0 47 37 47h145q38 0 58 -21q11 21 32 21h140q78 0 78 -79v-109zM730 -79q0 -87 -73 -87h-389q-33 0 -52 29q-16 24 -16 55v209q0 14 10 24q-23 11 -23 35v57h-119q-41 0 -41 46q0 45 41 45h478q42 0 42 -45q0 -46 -42 -46h-258v-57q0 -15 -9 -25q21 -9 21 -29v-57h331v60
q0 35 49 35q50 0 50 -37v-212zM631 -73v57h-331v-57h331z" />
    <glyph glyph-name="uniB028" unicode="&#xb028;" 
d="M710 364q0 -57 -7 -92q-8 -40 -50 -40q-21 0 -36.5 12t-15.5 31q0 6 2 13q6 20 6 77v181h-155q-34 0 -34 45q0 47 38 47h175q77 0 77 -79v-195zM416 364q0 -57 -7 -92q-8 -40 -50 -40q-21 0 -36.5 12t-15.5 31q0 6 2 13q6 20 6 77v181h-165q-33 0 -33 45q0 47 37 47h185
q77 0 77 -79v-195zM800 88h-156v-190q0 -40 -49 -40q-21 0 -36 11t-15 30v189h-196v-190q0 -40 -49 -40q-21 0 -36 11t-15 30v189h-148q-41 0 -41 46q0 45 41 45h700q42 0 42 -45q0 -46 -42 -46z" />
    <glyph glyph-name="uniB044" unicode="&#xb044;" 
d="M710 334q0 -57 -7 -92q-8 -40 -50 -40q-21 0 -36.5 12t-15.5 31q0 6 2 13q6 20 6 77v181h-157q-34 0 -34 45q0 47 38 47h177q77 0 77 -79v-195zM416 334q0 -57 -7 -92q-8 -40 -50 -40q-21 0 -36.5 12t-15.5 31q0 6 2 13q6 20 6 77v181h-165q-33 0 -33 45q0 47 37 47h185
q77 0 77 -79v-195zM800 8h-700q-41 0 -41 46q0 45 41 45h700q42 0 42 -45q0 -46 -42 -46z" />
    <glyph glyph-name="uniB045" unicode="&#xb045;" 
d="M710 490q0 -58 -7 -93q-8 -40 -51 -40q-22 0 -38 12t-16 31q0 6 2 13q9 30 9 76v109h-156q-34 0 -34 45q0 47 38 47h176q77 0 77 -78v-122zM416 490q0 -58 -7 -93q-8 -40 -51 -40q-21 0 -37 12t-16 31q0 6 2 13q8 26 8 76v109h-165q-33 0 -33 45q0 47 37 47h185
q77 0 77 -78v-122zM800 220h-700q-41 0 -41 46q0 45 41 45h700q42 0 42 -45q0 -46 -42 -46zM694 -48q0 -59 -7 -94q-8 -39 -51 -39q-20 0 -36 11.5t-16 30.5q0 6 2 13q6 19 6 76v92h-368q-34 0 -34 45q0 47 36 47h393q75 0 75 -78v-104z" />
    <glyph glyph-name="uniB048" unicode="&#xb048;" 
d="M710 470q0 -58 -7 -93q-8 -40 -51 -40q-22 0 -38 12t-16 31q0 6 2 13q9 30 9 76v109h-156q-34 0 -34 45q0 47 38 47h176q77 0 77 -78v-122zM416 470q0 -58 -7 -93q-8 -40 -51 -40q-21 0 -37 12t-16 31q0 6 2 13q8 26 8 76v109h-165q-33 0 -33 45q0 47 37 47h185
q77 0 77 -78v-122zM800 184h-700q-41 0 -41 46q0 45 41 45h700q42 0 42 -45q0 -46 -42 -46zM684 -71q34 0 34 -47q0 -48 -36 -48h-395q-32 0 -54 18q-26 20 -26 54v188q0 41 52 41q48 0 48 -36v-170h377z" />
    <glyph glyph-name="uniB04A" unicode="&#xb04a;" 
d="M710 490q0 -58 -7 -93q-8 -40 -51 -40q-22 0 -38 12t-16 31q0 6 2 13q9 30 9 76v109h-156q-34 0 -34 45q0 47 38 47h176q77 0 77 -78v-122zM416 490q0 -58 -7 -93q-8 -40 -51 -40q-21 0 -37 12t-16 31q0 6 2 13q8 26 8 76v109h-165q-33 0 -33 45q0 47 37 47h185
q77 0 77 -78v-122zM800 220h-700q-41 0 -41 46q0 45 41 45h700q42 0 42 -45q0 -46 -42 -46zM715 -42q0 -55 -42 -97t-97 -42q-59 0 -102 48q-8 -33 -37 -33h-173q-31 0 -57 20.5t-26 51.5v195q0 41 53 41q48 0 48 -36v-177h159q-3 14 -3 29q0 39 22 71h-17q-36 0 -36 42
q0 43 38 43h83v43q0 21 14.5 33t34.5 12q47 0 47 -45v-43h85q36 0 36 -42q0 -43 -36 -43h-16q22 -32 22 -71zM619 -42q0 44 -43 44q-42 0 -42 -44q0 -19 12 -31.5t30 -12.5q19 0 31 12.5t12 31.5z" />
    <glyph glyph-name="uniB04C" unicode="&#xb04c;" 
d="M710 490q0 -58 -7 -93q-8 -40 -51 -40q-22 0 -38 12t-16 31q0 6 2 13q9 30 9 76v109h-156q-34 0 -34 45q0 47 38 47h176q77 0 77 -78v-122zM416 490q0 -58 -7 -93q-8 -40 -51 -40q-21 0 -37 12t-16 31q0 6 2 13q8 26 8 76v109h-165q-33 0 -33 45q0 47 37 47h185
q77 0 77 -78v-122zM800 232h-700q-41 0 -41 46q0 45 41 45h700q42 0 42 -45q0 -46 -42 -46zM694 13q0 -63 -72 -63h-313v-41h366q33 0 33 -45q0 -47 -35 -47h-381q-35 0 -58 16q-27 19 -27 54v86q0 24 22 42q19 17 40 17h322v43h-353q-33 0 -33 45q0 47 36 47h387
q34 0 53 -28q13 -20 13 -43v-83z" />
    <glyph glyph-name="uniB04E" unicode="&#xb04e;" 
d="M710 490q0 -58 -7 -93q-8 -40 -51 -40q-22 0 -38 12t-16 31q0 6 2 13q9 30 9 76v109h-156q-34 0 -34 45q0 47 38 47h176q77 0 77 -78v-122zM416 490q0 -58 -7 -93q-8 -40 -51 -40q-21 0 -37 12t-16 31q0 6 2 13q8 26 8 76v109h-165q-33 0 -33 45q0 47 37 47h185
q77 0 77 -78v-122zM800 220h-700q-41 0 -41 46q0 45 41 45h700q42 0 42 -45q0 -46 -42 -46zM719 -115q0 -28 -19 -47.5t-48 -19.5h-122q-30 0 -50 19t-20 47v202q0 28 20 47.5t49 19.5h123q26 0 46.5 -22t20.5 -45v-201zM445 6q0 -68 -69 -68h-104v-29h154q33 0 33 -45
q0 -47 -36 -47h-167q-36 0 -59 16q-27 19 -27 54v84q0 24 22 42q19 17 39 17h111v31h-139q-33 0 -33 44q0 48 38 48h168q37 0 56 -28q13 -20 13 -44v-75zM617 -90v151h-57v-151h57z" />
    <glyph glyph-name="uniB053" unicode="&#xb053;" 
d="M710 490q0 -58 -7 -93q-8 -40 -51 -40q-22 0 -38 12t-16 31q0 6 2 13q9 30 9 76v109h-156q-34 0 -34 45q0 47 38 47h176q77 0 77 -78v-122zM416 490q0 -58 -7 -93q-8 -40 -51 -40q-21 0 -37 12t-16 31q0 6 2 13q8 26 8 76v109h-165q-33 0 -33 45q0 47 37 47h185
q77 0 77 -78v-122zM800 220h-700q-41 0 -41 46q0 45 41 45h700q42 0 42 -45q0 -46 -42 -46zM735 -46q0 -55 -42 -97t-97 -42t-96.5 42t-41.5 97q0 42 25 75h-20q-10 0 -18 5v-28q0 -68 -69 -68h-104v-29h154q33 0 33 -45q0 -47 -36 -47h-167q-36 0 -59 16q-27 19 -27 54v84
q0 24 22 42q19 17 39 17h111v31h-139q-33 0 -33 44q0 48 38 48h168q50 0 65 -48q10 9 24 9h83v43q0 21 14.5 33t34.5 12q47 0 47 -45v-43h85q36 0 36 -42q0 -43 -36 -43h-19q25 -33 25 -75zM639 -46q0 44 -43 44q-42 0 -42 -44q0 -19 12 -31.5t30 -12.5q19 0 31 12.5
t12 31.5z" />
    <glyph glyph-name="uniB054" unicode="&#xb054;" 
d="M710 490q0 -58 -7 -93q-8 -40 -51 -40q-22 0 -38 12t-16 31q0 6 2 13q9 30 9 76v109h-156q-34 0 -34 45q0 47 38 47h176q77 0 77 -78v-122zM416 490q0 -58 -7 -93q-8 -40 -51 -40q-21 0 -37 12t-16 31q0 6 2 13q8 26 8 76v109h-165q-33 0 -33 45q0 47 37 47h185
q77 0 77 -78v-122zM800 220h-700q-41 0 -41 46q0 45 41 45h700q42 0 42 -45q0 -46 -42 -46zM694 -99q0 -27 -19 -47t-47 -20h-358q-28 0 -45.5 19.5t-17.5 47.5v176q0 28 17.5 48t45.5 20h359q25 0 45 -22t20 -45v-177zM592 -74v127h-285v-127h285z" />
    <glyph glyph-name="uniB055" unicode="&#xb055;" 
d="M710 490q0 -58 -7 -93q-8 -40 -51 -40q-22 0 -38 12t-16 31q0 6 2 13q9 30 9 76v109h-156q-34 0 -34 45q0 47 38 47h176q77 0 77 -78v-122zM416 490q0 -58 -7 -93q-8 -40 -51 -40q-21 0 -37 12t-16 31q0 6 2 13q8 26 8 76v109h-165q-33 0 -33 45q0 47 37 47h185
q77 0 77 -78v-122zM800 220h-700q-41 0 -41 46q0 45 41 45h700q42 0 42 -45q0 -46 -42 -46zM693 -80q0 -85 -74 -85h-346q-33 0 -52 29q-16 24 -16 55v210q0 18 16 28.5t37 10.5q47 0 47 -34v-60h288v63q0 35 49 35q51 0 51 -37v-215zM593 -71v53h-288v-53h288z" />
    <glyph glyph-name="uniB057" unicode="&#xb057;" 
d="M710 490q0 -58 -7 -93q-8 -40 -51 -40q-22 0 -38 12t-16 31q0 6 2 13q9 30 9 76v109h-156q-34 0 -34 45q0 47 38 47h176q77 0 77 -78v-122zM416 490q0 -58 -7 -93q-8 -40 -51 -40q-21 0 -37 12t-16 31q0 6 2 13q8 26 8 76v109h-165q-33 0 -33 45q0 47 37 47h185
q77 0 77 -78v-122zM800 220h-700q-41 0 -41 46q0 45 41 45h700q42 0 42 -45q0 -46 -42 -46zM695 -102q16 -13 16 -39q0 -21 -12.5 -37t-35.5 -16q-11 0 -23 4q-51 18 -112 59q-68 46 -83 79q-17 -33 -83 -78q-60 -40 -112 -60q-13 -5 -24 -5q-22 0 -35 16t-13 37q0 25 17 39
q70 21 124 59q76 54 76 120v61q0 38 50 38t50 -37v-62q0 -65 77 -119q55 -39 123 -59z" />
    <glyph glyph-name="uniB059" unicode="&#xb059;" 
d="M710 490q0 -58 -7 -93q-8 -40 -51 -40q-22 0 -38 12t-16 31q0 6 2 13q9 30 9 76v109h-156q-34 0 -34 45q0 47 38 47h176q77 0 77 -78v-122zM416 490q0 -58 -7 -93q-8 -40 -51 -40q-21 0 -37 12t-16 31q0 6 2 13q8 26 8 76v109h-165q-33 0 -33 45q0 47 37 47h185
q77 0 77 -78v-122zM800 240h-700q-41 0 -41 46q0 45 41 45h700q42 0 42 -45q0 -46 -42 -46zM653 8q0 -82 -60 -141.5t-143 -59.5t-143.5 59.5t-60.5 141.5t60.5 141.5t143.5 59.5t143 -59.5t60 -141.5zM557 8q0 45 -30.5 75t-76.5 30t-76.5 -30t-30.5 -75t30.5 -75t76.5 -30
t76.5 30t30.5 75z" />
    <glyph glyph-name="uniB05D" unicode="&#xb05d;" 
d="M710 490q0 -58 -7 -93q-8 -40 -51 -40q-22 0 -38 12t-16 31q0 6 2 13q9 30 9 76v109h-156q-34 0 -34 45q0 47 38 47h176q77 0 77 -78v-122zM416 490q0 -58 -7 -93q-8 -40 -51 -40q-21 0 -37 12t-16 31q0 6 2 13q8 26 8 76v109h-165q-33 0 -33 45q0 47 37 47h185
q77 0 77 -78v-122zM800 220h-700q-41 0 -41 46q0 45 41 45h700q42 0 42 -45q0 -46 -42 -46zM674 58h-367v-34h362q29 0 29 -41t-29 -41h-362v-32h366q33 0 33 -46q0 -47 -35 -47h-402q-21 0 -42 19t-21 43v211q0 22 20 41t42 19h402q16 0 25.5 -15t9.5 -35q0 -42 -31 -42z
" />
    <glyph glyph-name="uniB07C" unicode="&#xb07c;" 
d="M765 -56q0 -40 -50 -40q-51 0 -51 40v709q0 38 51 38q50 0 50 -38v-709zM546 483q8 -77 -42 -217q-61 -167 -158 -238q-16 -7 -30 -7q-23 0 -36.5 16t-13.5 37q0 20 13 31q50 25 106 139q60 122 56 219h-105q-5 -84 -45 -177q-54 -125 -148 -191q-15 -7 -29 -7
q-22 0 -35 17q-13 14 -13 34t13 31q41 24 91 101q66 100 63 192h-144q-39 0 -39 45q0 47 42 47h167q23 0 40 -8q9 8 21 8h146q73 0 80 -72z" />
    <glyph glyph-name="uniB07D" unicode="&#xb07d;" 
d="M767 242q0 -37 -50 -37q-51 0 -51 37v410q0 38 51 38q50 0 50 -38v-410zM554 542q-7 -86 -48 -172q-55 -115 -154 -180q-17 -7 -31 -7q-44 0 -44 49q0 17 8 29q151 106 167 283h-119q-4 -86 -61 -173.5t-134 -126.5q-15 -8 -29 -8q-21 0 -33 15t-12 35q0 23 15 35
q142 83 150 222h-126q-45 0 -45 46t45 46h153q23 0 40 -9q10 10 24 10h161q31 0 53 -21.5t22 -54.5q0 -9 -2 -18zM753 -135q0 -40 -52 -40q-49 0 -49 36v194h-409q-33 0 -33 46q0 47 35 47h434q74 0 74 -85v-198z" />
    <glyph glyph-name="uniB080" unicode="&#xb080;" 
d="M767 133q0 -38 -51 -38q-50 0 -50 37v520q0 38 51 38q50 0 50 -37v-520zM557 512q-9 -92 -47 -172q-53 -115 -154 -180q-17 -7 -31 -7q-22 0 -34.5 15t-12.5 36q0 15 7 26q152 106 168 284h-121q-4 -87 -59 -174t-132 -126q-16 -8 -30 -8q-21 0 -33.5 15t-12.5 35
q0 21 14 33q144 84 152 224h-128q-45 0 -45 46t45 46h153q23 0 40 -9q9 10 24 10h159q29 0 54.5 -22.5t25.5 -55.5q0 -8 -2 -16zM737 -68q34 0 34 -46q0 -48 -36 -48h-426q-29 0 -55 20.5t-26 51.5v201q0 41 53 41q48 0 48 -36v-184h408z" />
    <glyph glyph-name="uniB084" unicode="&#xb084;" 
d="M767 242q0 -37 -50 -37q-51 0 -51 37v410q0 38 51 38q50 0 50 -38v-410zM554 542q-7 -86 -45 -165q-52 -107 -151 -173q-17 -7 -31 -7q-44 0 -44 49q0 17 8 29q146 102 161 269h-119q-4 -86 -61 -173.5t-134 -126.5q-15 -8 -29 -8q-21 0 -33 15t-12 35q0 23 15 35
q142 83 150 222h-126q-45 0 -45 46t45 46h153q23 0 40 -9q10 10 24 10h161q31 0 53 -21.5t22 -54.5q0 -9 -2 -18zM752 33q0 -67 -72 -67h-344v-50h395q33 0 33 -45q0 -47 -35 -47h-411q-34 0 -57 16q-27 18 -27 53v96q0 23 21 41t41 18h353v50h-382q-34 0 -34 45q0 47 36 47
h418q34 0 52 -27q13 -21 13 -43v-87z" />
    <glyph glyph-name="uniB08C" unicode="&#xb08c;" 
d="M767 242q0 -37 -50 -37q-51 0 -51 37v410q0 38 51 38q50 0 50 -38v-410zM554 542q-7 -86 -48 -172q-55 -115 -154 -180q-17 -7 -31 -7q-44 0 -44 49q0 17 8 29q151 106 167 283h-119q-4 -86 -61 -173.5t-134 -126.5q-15 -8 -29 -8q-21 0 -33 15t-12 35q0 23 15 35
q142 83 150 222h-126q-45 0 -45 46t45 46h153q23 0 40 -9q10 10 24 10h161q31 0 53 -21.5t22 -54.5q0 -9 -2 -18zM746 -99q0 -28 -18.5 -47.5t-46.5 -19.5h-408q-28 0 -45.5 19.5t-17.5 47.5v182q0 28 17.5 47.5t45.5 19.5h408q25 0 45 -22t20 -45v-182zM644 -74v132h-334
v-132h334z" />
    <glyph glyph-name="uniB08D" unicode="&#xb08d;" 
d="M767 242q0 -37 -50 -37q-51 0 -51 37v410q0 38 51 38q50 0 50 -38v-410zM554 542q-7 -86 -48 -172q-55 -115 -154 -180q-15 -5 -28 -5q-22 0 -34.5 14.5t-12.5 34.5q0 15 7 26q152 106 168 284h-119q-4 -86 -61 -173.5t-134 -126.5q-15 -8 -29 -8q-21 0 -33 15t-12 35
q0 23 15 35q142 83 150 222h-126q-45 0 -45 46t45 46h153q23 0 40 -9q10 10 24 10h161q31 0 53 -21.5t22 -54.5q0 -9 -2 -18zM755 -79q0 -87 -73 -87h-389q-33 0 -52 29q-16 24 -16 55v230q0 38 52 38q48 0 48 -34v-70h331v73q0 35 49 35q50 0 50 -36v-233zM656 -73v64h-331
v-64h331z" />
    <glyph glyph-name="uniB08F" unicode="&#xb08f;" 
d="M767 133q0 -38 -51 -38q-50 0 -50 37v520q0 38 51 38q50 0 50 -37v-520zM557 512q-9 -92 -47 -172q-53 -115 -154 -180q-17 -7 -31 -7q-22 0 -34.5 15t-12.5 36q0 15 7 26q152 106 168 284h-121q-4 -87 -59 -174t-132 -126q-16 -8 -30 -8q-21 0 -33.5 15t-12.5 35
q0 21 14 33q144 84 152 224h-128q-45 0 -45 46t45 46h153q23 0 40 -9q9 10 24 10h159q29 0 54.5 -22.5t25.5 -55.5q0 -8 -2 -16zM734 -94q15 -15 15 -34q0 -21 -17 -38t-40 -17q-13 0 -25 7q-43 17 -107 65q-67 50 -78 75q-11 -24 -80 -75q-65 -47 -106 -65q-14 -6 -28 -6
q-24 0 -40 16t-16 36q0 22 19 36q201 72 201 190v57q0 38 51 38q49 0 49 -36v-58q0 -116 202 -191z" />
    <glyph glyph-name="uniB091" unicode="&#xb091;" 
d="M767 242q0 -37 -50 -37q-51 0 -51 37v410q0 38 51 38q50 0 50 -38v-410zM554 542q-7 -86 -48 -172q-55 -115 -154 -180q-17 -7 -31 -7q-44 0 -44 49q0 17 8 29q151 106 167 283h-119q-4 -86 -61 -173.5t-134 -126.5q-15 -8 -29 -8q-21 0 -33 15t-12 35q0 23 15 35
q142 83 150 222h-126q-45 0 -45 46t45 46h153q23 0 40 -9q10 10 24 10h161q31 0 53 -21.5t22 -54.5q0 -9 -2 -18zM743 16q0 -85 -63.5 -147.5t-149.5 -62.5t-149.5 62.5t-63.5 147.5t63.5 148t149.5 63t149.5 -63t63.5 -148zM646 16q0 49 -33 81.5t-83 32.5t-83 -32.5
t-33 -81.5t33 -81.5t83 -32.5t83 32.5t33 81.5z" />
    <glyph glyph-name="uniB098" unicode="&#xb098;" 
d="M847 268h-128v-324q0 -40 -50 -40t-50 40v709q0 38 51 38q49 0 49 -38v-293h128q32 0 32 -46t-32 -46zM485 233q34 0 34 -47q0 -48 -36 -48h-309q-32 0 -55 18q-26 19 -26 53v332q0 39 52 39q48 0 48 -36v-311h292z" />
    <glyph glyph-name="uniB099" unicode="&#xb099;" 
d="M847 390h-127v-154q0 -37 -50 -37q-51 0 -51 37v416q0 38 51 38q50 0 50 -38v-169h127q32 0 32 -46q0 -47 -32 -47zM455 337q34 0 34 -46q0 -48 -36 -48h-299q-32 0 -55 18q-26 19 -26 53v291q0 40 52 40q48 0 48 -36v-272h282zM712 -135q0 -40 -52 -40q-49 0 -49 36v194
h-409q-33 0 -33 46q0 47 35 47h434q74 0 74 -85v-198z" />
    <glyph glyph-name="uniB09A" unicode="&#xb09a;" 
d="M847 390h-127v-154q0 -37 -50 -37q-51 0 -51 37v416q0 38 51 38q50 0 50 -38v-169h127q32 0 32 -46q0 -47 -32 -47zM455 337q34 0 34 -46q0 -48 -36 -48h-299q-32 0 -55 18q-26 19 -26 53v291q0 40 52 40q48 0 48 -36v-272h282zM723 -135q0 -40 -53 -40q-49 0 -49 36v194
h-152q-5 0 -9 1v-191q0 -40 -53 -40q-49 0 -49 36v194h-174q-33 0 -33 45q0 48 37 48h195q39 0 59 -22q9 22 31 22h173q77 0 77 -85v-198z" />
    <glyph glyph-name="uniB09C" unicode="&#xb09c;" 
d="M847 350h-127v-215q0 -38 -51 -38q-50 0 -50 37v518q0 38 51 38q50 0 50 -37v-210h127q32 0 32 -46q0 -47 -32 -47zM455 306q34 0 34 -46q0 -48 -36 -48h-299q-32 0 -55 18q-26 19 -26 53v302q0 39 51 39q49 0 49 -36v-282h282zM698 -68q34 0 34 -46q0 -48 -36 -48h-426
q-29 0 -55 20.5t-26 51.5v201q0 41 53 41q48 0 48 -36v-184h408z" />
    <glyph glyph-name="uniB09F" unicode="&#xb09f;" 
d="M847 390h-127v-154q0 -37 -50 -37q-51 0 -51 37v416q0 38 51 38q50 0 50 -38v-169h127q32 0 32 -46q0 -47 -32 -47zM455 337q34 0 34 -46q0 -48 -36 -48h-299q-32 0 -55 18q-26 19 -26 53v291q0 40 52 40q48 0 48 -36v-272h282zM684 59h-413v-132h412q33 0 33 -45
q0 -47 -35 -47h-447q-22 0 -42.5 19t-20.5 44v194q0 21 20 40.5t42 19.5h447q16 0 25.5 -15t9.5 -35q0 -43 -31 -43z" />
    <glyph glyph-name="uniB0A0" unicode="&#xb0a0;" 
d="M847 390h-127v-154q0 -37 -50 -37q-51 0 -51 37v416q0 38 51 38q50 0 50 -38v-169h127q32 0 32 -46q0 -47 -32 -47zM455 337q34 0 34 -46q0 -48 -36 -48h-299q-32 0 -55 18q-26 19 -26 53v291q0 40 52 40q48 0 48 -36v-272h282zM700 32q0 -67 -72 -67h-344v-49h395
q33 0 33 -45q0 -47 -35 -47h-411q-34 0 -57 16q-27 18 -27 53v97q0 23 21 41t41 18h353v49h-382q-34 0 -34 45q0 47 36 47h418q34 0 52 -27q13 -21 13 -43v-88z" />
    <glyph glyph-name="uniB0A1" unicode="&#xb0a1;" 
d="M847 390h-127v-154q0 -37 -50 -37q-51 0 -51 37v416q0 38 51 38q50 0 50 -38v-169h127q32 0 32 -46q0 -47 -32 -47zM455 337q34 0 34 -46q0 -48 -36 -48h-299q-32 0 -55 18q-26 19 -26 53v291q0 40 52 40q48 0 48 -36v-272h282zM705 -136q0 -39 -52 -39q-50 0 -50 36v229
h-142q-19 0 -28 21v-84q0 -64 -70 -64h-109v-45h159q33 0 33 -43q0 -45 -36 -45h-167q-36 0 -60 16q-28 18 -28 53v95q0 23 21 40t40 17h119v43h-146q-33 0 -33 43q0 47 38 47h170q49 0 65 -46q2 45 36 45h162q78 0 78 -85v-234z" />
    <glyph glyph-name="uniB0A2" unicode="&#xb0a2;" 
d="M847 390h-127v-154q0 -37 -50 -37q-51 0 -51 37v416q0 38 51 38q50 0 50 -38v-169h127q32 0 32 -46q0 -47 -32 -47zM455 337q34 0 34 -46q0 -48 -36 -48h-299q-32 0 -55 18q-26 19 -26 53v291q0 40 52 40q48 0 48 -36v-272h282zM715 -99q0 -28 -19 -47.5t-48 -19.5h-127
q-30 0 -50 19t-20 47v216q0 28 20 47.5t49 19.5h128q26 0 46.5 -22t20.5 -45v-215zM433 27q0 -64 -70 -64h-109v-45h159q33 0 33 -43q0 -45 -36 -45h-167q-36 0 -60 16q-28 18 -28 53v95q0 23 21 40t40 17h119v43h-146q-33 0 -33 43q0 47 38 47h170q37 0 56 -28
q13 -19 13 -43v-86zM613 -74v165h-62v-165h62z" />
    <glyph glyph-name="uniB0A8" unicode="&#xb0a8;" 
d="M847 390h-127v-154q0 -37 -50 -37q-51 0 -51 37v416q0 38 51 38q50 0 50 -38v-169h127q32 0 32 -46q0 -47 -32 -47zM455 337q34 0 34 -46q0 -48 -36 -48h-299q-32 0 -55 18q-26 19 -26 53v291q0 40 52 40q48 0 48 -36v-272h282zM713 -99q0 -28 -18.5 -47.5t-46.5 -19.5
h-408q-28 0 -45.5 19.5t-17.5 47.5v182q0 28 17.5 47.5t45.5 19.5h408q25 0 45 -22t20 -45v-182zM611 -74v132h-334v-132h334z" />
    <glyph glyph-name="uniB0A9" unicode="&#xb0a9;" 
d="M847 390h-127v-154q0 -37 -50 -37q-51 0 -51 37v416q0 38 51 38q50 0 50 -38v-169h127q32 0 32 -46q0 -47 -32 -47zM455 337q34 0 34 -46q0 -48 -36 -48h-299q-32 0 -55 18q-26 19 -26 53v291q0 40 52 40q48 0 48 -36v-272h282zM715 -79q0 -87 -73 -87h-389q-33 0 -52 29
q-16 24 -16 55v230q0 38 52 38q48 0 48 -34v-70h331v73q0 35 49 35q50 0 50 -36v-233zM616 -73v64h-331v-64h331z" />
    <glyph glyph-name="uniB0AB" unicode="&#xb0ab;" 
d="M847 350h-127v-215q0 -38 -51 -38q-50 0 -50 37v518q0 38 51 38q50 0 50 -37v-210h127q32 0 32 -46q0 -47 -32 -47zM455 306q34 0 34 -46q0 -48 -36 -48h-299q-32 0 -55 18q-26 19 -26 53v302q0 39 51 39q49 0 49 -36v-282h282zM702 -94q15 -15 15 -34q0 -21 -17 -38
t-40 -17q-13 0 -25 7q-43 17 -107 65q-67 50 -78 75q-11 -24 -80 -75q-65 -47 -106 -65q-14 -6 -28 -6q-24 0 -40 16t-16 36q0 22 19 36q201 72 201 190v57q0 38 51 38q49 0 49 -36v-58q0 -116 202 -191z" />
    </font>
</defs>
</svg>
