<svg xmlns="http://www.w3.org/2000/svg" xmlns:xlink="http://www.w3.org/1999/xlink" viewBox="0 0 121 46"><defs><style>.cls-1{fill:none;clip-rule:evenodd;}.cls-2{fill:#ff8585;}.cls-3{clip-path:url(#clip-path);}.cls-4{fill:#eb6363;}.cls-5{fill:#fff;}</style><clipPath id="clip-path" transform="translate(1 1)"><path id="SVGID" class="cls-1" d="M0,22A22,22,0,0,1,22,0H97a22,22,0,0,1,0,44H22A22,22,0,0,1,0,22Z"/></clipPath></defs><g id="레이어_2" data-name="레이어 2"><g id="Layer_2" data-name="Layer 2"><path class="cls-2" d="M0,22A22,22,0,0,1,22,0H97a22,22,0,0,1,0,44H22A22,22,0,0,1,0,22Z" transform="translate(1 1)"/><g class="cls-3"><path class="cls-4" d="M22-1A23,23,0,0,0-1,22H1A21,21,0,0,1,22,1ZM97,1a21,21,0,0,1,21,21h2A23,23,0,0,0,97-1Zm21,21A21,21,0,0,1,97,43v2a23,23,0,0,0,23-23ZM22,43A21,21,0,0,1,1,22H-1A23,23,0,0,0,22,45Zm75,0H22v2H97ZM22,1H97V-1H22Z" transform="translate(1 1)"/></g><ellipse class="cls-5" cx="14.417" cy="8.0389" rx="2.0999" ry="1.1999" transform="translate(-1.0847 8.6282) rotate(-27.7182)"/><path class="cls-5" d="M76.5735,17.216a.4684.4684,0,0,1,.096-.336.4964.4964,0,0,1,.352-.096h1.12a.4964.4964,0,0,1,.352.096.4684.4684,0,0,1,.096.336V27.488a.4684.4684,0,0,1-.096.336.4964.4964,0,0,1-.352.096h-1.12a.4964.4964,0,0,1-.352-.096.4684.4684,0,0,1-.096-.336Zm-10.384-.16a.4684.4684,0,0,1,.096-.336.4964.4964,0,0,1,.352-.096l7.456-.16a.5637.5637,0,0,1,.368.096.3584.3584,0,0,1,.08.336l-1.296,10.912a.52.52,0,0,1-.144.336.4964.4964,0,0,1-.352.096H71.63a.4964.4964,0,0,1-.352-.096.4414.4414,0,0,1-.048-.336l1.12-9.44-5.712.112a.4964.4964,0,0,1-.352-.096.4684.4684,0,0,1-.096-.336Zm-2.283,7.712a.3355.3355,0,0,1,.4.416v.992a.5257.5257,0,0,1-.096.368.4043.4043,0,0,1-.288.08l-3.952.064v3.04a.4684.4684,0,0,1-.096.336.4966.4966,0,0,1-.352.096h-1.12a.4964.4964,0,0,1-.352-.096.4684.4684,0,0,1-.096-.336V26.72l-3.952.064a.4714.4714,0,0,1-.304-.08.6036.6036,0,0,1-.08-.368v-.992a.4948.4948,0,0,1,.08-.336.5026.5026,0,0,1,.32-.08Zm-6.288-4.416a.6144.6144,0,0,0,.288-.208.9383.9383,0,0,0,.048-.368v-1.04l-3.888.064a.4714.4714,0,0,1-.304-.08.6036.6036,0,0,1-.08-.368V17.36a.4948.4948,0,0,1,.08-.336.5026.5026,0,0,1,.32-.08l3.872-.064V15.856a.4684.4684,0,0,1,.096-.336.4964.4964,0,0,1,.352-.096h1.12a.4966.4966,0,0,1,.352.096.4684.4684,0,0,1,.096.336v.992l3.84-.064a.3355.3355,0,0,1,.4.416v.992a.5257.5257,0,0,1-.096.368.4045.4045,0,0,1-.288.08l-3.856.064v1.04a1.3726,1.3726,0,0,0,.032.368.6263.6263,0,0,0,.304.208l4.032,1.728q.4.176.16.576l-.592.992a.4456.4456,0,0,1-.224.208.7182.7182,0,0,1-.352-.096l-4.416-1.984-4.224,2.112a.5951.5951,0,0,1-.384.096.5389.5389,0,0,1-.272-.256l-.528-.848a.5618.5618,0,0,1-.112-.336q.0319-.144.256-.256ZM44.3742,29.136l4.48-.096.064-1.904-4.608.096Zm-2.96-6.576,3.568-.096.1441-4.272-3.776.096Zm1.44,8.464a.4966.4966,0,0,1-.352-.096.5991.5991,0,0,1-.0959-.336l-.1441-4.752a.4267.4267,0,0,1,.08-.336.564.564,0,0,1,.3681-.096l7.8239-.16a.4963.4963,0,0,1,.352.096.3882.3882,0,0,1,.096.336l-.144,4.752a.5193.5193,0,0,1-.112.336.4349.4349,0,0,1-.336.096Zm6.6881-9.888-2.4961.064-.08,2.656a.5193.5193,0,0,1-.112.336.5448.5448,0,0,1-.336.096l-6.64.16a.4548.4548,0,0,1-.3521-.08.5339.5339,0,0,1-.096-.352l-.112-7.12a.4689.4689,0,0,1,.096-.336.4967.4967,0,0,1,.3521-.096l6.9759-.16a.4964.4964,0,0,1,.352.096.3882.3882,0,0,1,.096.336l-.08,2.608,2.4321-.064V16.896a.4684.4684,0,0,1,.0959-.336.4966.4966,0,0,1,.352-.096h1.12a.4964.4964,0,0,1,.352.096.4684.4684,0,0,1,.096.336v6.912a.4684.4684,0,0,1-.096.336.4964.4964,0,0,1-.352.096H49.99a.4966.4966,0,0,1-.352-.096.4684.4684,0,0,1-.0959-.336Z" transform="translate(1 1)"/></g></g></svg>