<svg xmlns="http://www.w3.org/2000/svg" viewBox="0 0 218.9734 35.832"><defs><style>.cls-1{fill:#fff;}.cls-2{fill:#ff7056;}.cls-3{fill:#ef4060;}</style></defs><g id="레이어_2" data-name="레이어 2"><g id="Layer_2" data-name="Layer 2"><path class="cls-1" d="M182.1137,30.3989l.0645-.0015.0644-.0035a5.2882,5.2882,0,0,0,2.6419-.8222,5.8159,5.8159,0,0,0,1.7562.2683h2.632a5.0378,5.0378,0,0,0,3.83-1.5946l.0689-.0776.0649-.081a5.5559,5.5559,0,0,0,1.1005-3.5068V14.04l4.2419-.0925-.8374,10.8859a6.243,6.243,0,0,0,.0869,1.7,4.6954,4.6954,0,0,0,1.2689,2.415A5.1544,5.1544,0,0,0,202.7935,30.4h2.604a5.1568,5.1568,0,0,0,3.3291-1.164,5.4942,5.4942,0,0,0,2.5509.604h2.6319a5.0378,5.0378,0,0,0,3.83-1.5946l.0689-.0776.0649-.081a5.5552,5.5552,0,0,0,1.1005-3.5068V7.332a6.7467,6.7467,0,0,0-.1565-1.5A4.9133,4.9133,0,0,0,217.864,3.86l.0089-.0072c-.0229-.0287-.0487-.0489-.0721-.0766s-.0377-.055-.0617-.0821l-.0084.0075a5.0342,5.0342,0,0,0-3.8213-1.63h-2.6319a5.8288,5.8288,0,0,0-1.5479.2144,5.2537,5.2537,0,0,0-2.9909-.7722V1.5129l-12.908.28v.0006a5.2785,5.2785,0,0,0-2.5454.6452,5.72,5.72,0,0,0-2.0126-.3667h-2.632a5.83,5.83,0,0,0-1.5479.2144,5.2532,5.2532,0,0,0-2.9908-.7722V1.5129l-12.908.28-.0676.0015-.0675.0038a6.0472,6.0472,0,0,0-1.373.2321,4.5833,4.5833,0,0,0-1.7708-.9013,5.9908,5.9908,0,0,0-1.5009-.177h-.0334l-.0334.0006h0l-16.7441.28v.0014a5.0506,5.0506,0,0,0-3.7743,1.6022h0l-.0082.0092-.0082.0093a4.7624,4.7624,0,0,0-1.0937,2.2439,6.5949,6.5949,0,0,0-.11,1.5446h0l.252,6.664.6219-.0235h0l-.6219.0235,0,.0113,0,.0114a7.2111,7.2111,0,0,0,.0856.8274,5.2462,5.2462,0,0,0-.4534,2.1628v1.904a5.1326,5.1326,0,0,0,.644,2.5292V22.732a4.7331,4.7331,0,0,0,.57,2.2444,6.5511,6.5511,0,0,0-.0072.6992h-.0006l.168,4.676.0005.0151.0007.0151a6.6208,6.6208,0,0,0,.1931,1.3647A4.78,4.78,0,0,0,145.08,33.71a4.5556,4.5556,0,0,0,2.4094,1.4224,5.8561,5.8561,0,0,0,1.5187.1378v.001l14.392-.28v-.003a5.587,5.587,0,0,0,1.3123-.1576,4.6354,4.6354,0,0,0,1.8755-.9808l.01.0112c.0438-.0375.0747-.0786.1161-.1169.0361-.0337.0735-.0561.1091-.0917l-.009-.009a4.7658,4.7658,0,0,0,1.3717-3.228,5.6049,5.6049,0,0,0,1.8884.262v.0015l12.04-.28m-8.4369-8.0029-.805.0114h0l.805-.0114Zm-12.4991,8.4164h0l.1971-.197h0Zm2.889-10.0536Zm5.3968-5.096v0l.119.1191h0Zm.1235.43h0l-.1088.0042h0Zm.2952-.0113h0Zm-6.5158,12.5423,0,0v0Zm6.5864-12.4718ZM169.25,8.6906h0l.0073.3341h0Zm1.698.491h0l-.6911-.9217h0Zm-.9041-1.2056-.693-.924v0l.693.9241Zm11.5329,15.9173h0l-.1637.2183.1637.2619v0l-.1637-.262-.2267.3023h0l.2267-.3023-.1676-.2682v0l.1676.2683Zm-1.2523,1.67.8619-1.1492h0l-.8619,1.1492ZM169.2808,10.104l-.0186-.8495h0l.0186.8495Zm-7.1816-4.2111.59.4919h0l-.59-.4919Zm1.3544,24.3,0,0h0l0,0Zm17.7918-6.35h0l-.6388-1.0219h0Zm24.9863,1.2788h0l-.4862-.0377h0ZM202.48,24.83h0l2.1231.1651L202.94,23.8313h0l1.6632,1.1642,1.0877.0846h0l-1.0877-.0846.0025.0017h0l-.0025-.0017ZM163.9942,30.824l-.2708-.3159h0l.2709.3159Zm5.9777-4.34h0l.0088.1945,0,.0014Zm34.6336-1.4868h0L206.21,26.12l0,0Z"/><rect class="cls-1" x="71.2574" y="16.401" height="0.7571"/><rect class="cls-1" x="40.9688" y="25.8665" height="0.2849"/><rect class="cls-1" x="42.241" y="27.1358" height="0.6377"/><rect class="cls-1" x="70.2236" y="15.1619" height="2.0805"/><polygon class="cls-1" points="28.403 22.131 28.449 22.18 28.497 22.228 31.326 19.4 28.403 22.131"/><rect class="cls-1" x="204.603" y="24.9955" height="0.0001"/><rect class="cls-1" x="71.2587" y="15.9591" width="1.404"/><rect class="cls-1" x="41.9221" y="24.7853" width="0.6377" height="0.0001" transform="translate(-5.1538 37.1283) rotate(-45)"/><rect class="cls-1" x="135.1497" y="12.6414"/><path class="cls-1" d="M55.7378,7.56l.0044-.0045c-.0872-.0872-.179-.1534-.2688-.23-.056-.0463-.1-.0967-.16-.1416l-.0023.0031a4.4039,4.4039,0,0,0-.9807-.5744,6.4525,6.4525,0,0,0-.15-1.341A4.9151,4.9151,0,0,0,53.2283,3.3l.009-.0072c-.0229-.0287-.0488-.0489-.0721-.0766s-.0377-.055-.0617-.0821l-.0085.0075a5.0338,5.0338,0,0,0-3.8211-1.63H46.6418a5.0494,5.0494,0,0,0-3.8131,1.6041L45.8019,5.792,45.7994,5.79,42.8287,3.1161l-.0083.0092-.0082.0092a4.38,4.38,0,0,0-.3477.4619,4.5721,4.5721,0,0,0-.4069-.5769l.0077-.0063c-.0481-.06-.1012-.1048-.1507-.161s-.09-.1141-.1443-.1686l-.0071.0071A5.0434,5.0434,0,0,0,38.13,1.232H35.4979a5.05,5.05,0,0,0-3.8133,1.6041L34.6578,5.512,34.6551,5.51l-2.97-2.6735-.0082.0092-.0082.0093A4.8113,4.8113,0,0,0,30.59,4.9917a6.7474,6.7474,0,0,0-.1566,1.5V7.7911A4.3592,4.3592,0,0,0,29.98,7.28l.0044-.0044c-.0866-.0867-.1778-.1523-.2668-.2283-.0567-.0469-.101-.0979-.1616-.1433l-.0023.0031a4.4049,4.4049,0,0,0-.9933-.58,6.1118,6.1118,0,0,0-.1369-1.0555A4.9138,4.9138,0,0,0,27.4705,3.3l.009-.0072c-.023-.0287-.0488-.0489-.0721-.0766s-.0377-.055-.0618-.0821l-.0084.0075a5.0338,5.0338,0,0,0-3.8211-1.63H20.884a5.8349,5.8349,0,0,0-1.541.2125,5.6093,5.6093,0,0,0-2.351-.4925h-2.52a5.1679,5.1679,0,0,0-3.128.968l1.4738,1.965h0L11.344,2.2l-.1042.0782-.0989.0848a4.2375,4.2375,0,0,0-.302.304l-.0161-.0142.0084-.01c-.04-.034-.0811-.0581-.1212-.09-.03-.0234-.0512-.05-.082-.0727l-.0056.0075A5.1153,5.1153,0,0,0,7.528,1.512H4.924a5.168,5.168,0,0,0-3.128.968l-.1042.0782-.099.0847L4.1958,5.68l0,0L1.5928,2.6429A4.7774,4.7774,0,0,0,0,6.324v.0337l.0006.0338L4,6.324h.0018L.0006,6.3915l.196,11.62.0007.0431.0017.0431,3.9956-.1537H4.196l-3.997.1537a5.6633,5.6633,0,0,0,1.1255,3.353l.0649.0812.069.0775,2.4694-2.195h0l-2.4694,2.195a4.6039,4.6039,0,0,0,2.2376,1.382v.1326a4.7332,4.7332,0,0,0,.5658,2.2374c-.0091.21-.0092.4062-.0024.5744H4.2589l.168,4.424,0,.011.0005.011a6.6208,6.6208,0,0,0,.1931,1.3647A4.78,4.78,0,0,0,5.6377,33.71a4.5556,4.5556,0,0,0,2.4094,1.4224,5.8582,5.8582,0,0,0,1.5253.1376v.0011l13.272-.28v-.0032a5.5747,5.5747,0,0,0,1.3057-.1573,4.6354,4.6354,0,0,0,1.8755-.9808l.01.0112c.0438-.0375.0747-.0786.1161-.1169.0361-.0337.0735-.0561.1091-.0917l-.009-.009A4.8548,4.8548,0,0,0,27.6281,30.18V28.612a5.89,5.89,0,0,0-.0416-.69c.0777-.1791.1385-.3411.1786-.4659a6.3472,6.3472,0,0,0,.2665-1.366l-1.0936-.0994h0l1.0936.0994.0064-.0707.0039-.0709.2192-3.97.1418.1517L31.3263,19.4l-2.8289,2.829a5.0066,5.0066,0,0,0,2.3379,1.3341A9.7631,9.7631,0,0,0,30.49,26.12a9.3013,9.3013,0,0,0,.9071,4.1019l.01.0195.01.02,3.5777-1.7889.0023-.0011-3.58,1.79A9.0989,9.0989,0,0,0,34.0352,33.43l-.0006.0008.0075.0051.0059.0051,0-.0007a10.8522,10.8522,0,0,0,3.6606,1.8l-.0007.0023.0353.009.0356.0116.0007-.0024a15.8475,15.8475,0,0,0,8.4277,0l.0007.0024c.0118-.0033.0232-.0082.0351-.0115l.0357-.0091-.0006-.0023a10.5927,10.5927,0,0,0,3.5854-1.77l.0031.0042c.0171-.0127.0316-.028.0486-.0407s.0364-.0241.0537-.0379l-.0035-.0042a8.7183,8.7183,0,0,0,2.553-3.0957l.0052.0027c.01-.0187.0154-.0384.0249-.0571s.0223-.0377.0318-.0578l-.0056-.0027a9.3735,9.3735,0,0,0,.0782-7.9433,4.5271,4.5271,0,0,0,.45-.4328l.0689-.0777.0649-.081A5.5557,5.5557,0,0,0,54.3378,18.14v-.0851a4.5387,4.5387,0,0,0,.901-.496l.0378-.027.0372-.0279-.976-1.3014h0l.976,1.3014a4.7276,4.7276,0,0,0,1.824-3.844V11.028A4.8307,4.8307,0,0,0,55.7378,7.56Zm-3.3021,6.65-.0326-.5868h0ZM43.1162,26.3174,42.95,26.12l.1659-.1975c.0062.0656.0216.1371.0216.1975S43.1224,26.2519,43.1162,26.3174Zm-.6728-1.7791-.4192.4791-.4422-.5263c.03-.0238.0621-.0527.0913-.0733.1064-.0036.2074-.01.3205-.01.1034,0,.1952.006.2929.009C42.3377,24.4537,42.3892,24.4911,42.4434,24.5383ZM40.85,26.12c0-.0659.0171-.1414.0241-.2118l.1853.2118-.1853.2118C40.867,26.2614,40.85,26.1859,40.85,26.12ZM8.536,14.948h0l.005.1738h0ZM24.58,9.992l.0075.254h0L24.58,9.992Zm.0965,3.2367-.0186-.6266h0l.0187.6266Zm-.13-.1118h0l-.0117-.3914h0Zm.0261.8771.0077.254h0l-.0076-.254ZM15.82,7.144l-.3447.2758h0L15.82,7.144Zm8.94,6.1551h0l.9263-1.2351h0Zm-.1017-.697h0l-.0492-1.6468h0Zm-.1234.1234h0l-.05-1.66h0ZM15.34,7.528h0l-.594.4752h0Zm11.2214,5.937h0l-.0073-.2436h0Zm-.8395-1.4488h0l.5709-.7613h0Zm6.2694,6.7622h0l.2516.3094h0Zm18.3128-5.3815-.0117-.3915h0l.0117.3915Zm-.0117-.3915-.05-1.66h0l.05,1.66ZM31.9716,18.7542h0l-.2034-.25h0Zm.5017.6172-.2193-.27h0l.22.27ZM50.33,14.274h0l.0075.254h0Zm.1872-.6949h0l.9263-1.2352h0ZM34.3777,11.7l-1.1319-.1332h0l1.1326.1333Zm-1.1456-.1348L31.38,11.3473h0l1.8521.2179ZM26.5529,13.18h0l-.0652-2.1844-.1222.1629h0l.1222-.1629-.0065-.2163v0l.0065.2163.0253-.0337h0l-.0253.0338ZM26.4577,9.992l.0235.7868v0l-.0235-.7869ZM30.22,16.6h0l1.5327,1.8855-.3085-2.7768h0l.3085,2.7768.0151.0186h0l-.0151-.0186.0119.1068h0l-.0119-.1068ZM51.48,12.2962h0l.571-.7613h0ZM35.8279,8.0031h0l.8459-.6767h0ZM26.513,10.9614h0l.6429-.8573,0,0Zm2.0559,7.029.46-.43,0,0-.46.43Zm3.1961.6019h0l.0336.303h0Zm.0466.42.074.6651,0,.0028-.0743-.668Zm2.05,4.19h0l1.1342.5671-.0023-.0011ZM39.83,27.5256l1.0451-1.1876-.0006-.0062.1853-.2117.0036.004v0l-.0036-.004.0036-.004v0l-.0036.0041-.1853-.2119.0006-.0061L39.83,24.7144h0l1.0451,1.1876a2.22,2.22,0,0,1,.2085-.7656,1.9661,1.9661,0,0,1,.4511-.607l.0478-.0383.4421.5263-.9612,1.0985v0l.9613-1.0986.0061.0073h0l-.0061-.0073.4192-.4791.0034.0026.0047.0051.0008-.0008h0l-.0007.0008a2.0076,2.0076,0,0,1,.4735.6478,2.1548,2.1548,0,0,1,.191.7287L42.95,26.12l-.92-1.0953h0l.92,1.0953-.92,1.0953h0l.92-1.0953.1658.1974a2.1547,2.1547,0,0,1-.191.7288,2.0076,2.0076,0,0,1-.4735.6478l.0007.0008-.0007-.0008-.0046.005-.0036.0028-.4193-.4791.0062-.0074h0l-.0062.0074-.9612-1.0986h0l.9612,1.0986-.4421.5262-.0478-.0383a1.9661,1.9661,0,0,1-.4511-.607,2.22,2.22,0,0,1-.2085-.7656L39.83,27.5256Zm2.1643.3064c-.1131,0-.2141-.0063-.3205-.01-.0292-.02-.0609-.0495-.0913-.0732l.4421-.5262.4193.4791c-.0542.0471-.1057.0845-.1567.1212C42.189,27.826,42.0972,27.832,41.9938,27.832ZM48.4561,24.03l.5094-.2615,0,0-.51.2618Zm3.7608-9.5017-.003-.0549V14.472l.0031.056Zm-.0936-3.09h0l.1221-.1629h0Zm.0936-1.166h0l.0426.7663h0ZM38.9418,5.512l0,0L36.6871,7.3158h0ZM13.4145,4.9606,13.744,5.4l0,0-.3293-.4391Zm9.5122,25.8115h0l.0552.9937Zm.5053.0519-.068-.0793h0l.0681.0793Zm24.0494-.5606-.1686-.2269v0l.1687.2271Zm1.4841-1.7916-.5094-.2615v0l.51.2618ZM53.0818,14.528l-.1676-.2234-.001-.0015.1686.2249Zm-.6807-.9418v0l-.13-2.3447-.0253.0337h0l.0253-.0338-.0113-.203h0l.0113.203.6429-.8572,0,0-.643.8573Z"/><rect class="cls-1" x="108.2814" y="27.408" height="0.0001"/><rect class="cls-1" x="26.4877" y="10.9951"/><path class="cls-1" d="M138.6167,8.96l.0045-.0044c-.0867-.0867-.1778-.1523-.2669-.2283-.0566-.0469-.101-.0979-.1616-.1433l-.0023.0031a4.4,4.4,0,0,0-.9737-.5713V6.772a6.7467,6.7467,0,0,0-.1565-1.5,4.9138,4.9138,0,0,0-.953-1.9713l.009-.0072c-.0229-.0287-.0488-.0489-.0721-.0766s-.0377-.055-.0617-.0821l-.0085.0075a5.0338,5.0338,0,0,0-3.8211-1.63h-2.632a6.0108,6.0108,0,0,0-1.0707.1021,5.1793,5.1793,0,0,0-1.9813-.3821h-.0413l-.0412.0008-13.58.28v.0045a5.0928,5.0928,0,0,0-1.98.432,5.635,5.635,0,0,0-2.19-.4373h-2.632a5.7376,5.7376,0,0,0-1.7016.2567,4.713,4.713,0,0,0-.97-.3737,5.5543,5.5543,0,0,0-1.5867-.1609V1.2329l-13.048.28h0l-.0523.0011-.0521.0025a6.0473,6.0473,0,0,0-1.4291.23,4.8921,4.8921,0,0,0-1.3073.63,5.7477,5.7477,0,0,0-1.8581-.3052h-2.632a5.69,5.69,0,0,0-1.7777.2787,5.59,5.59,0,0,0-1.9107-.2764V2.0728l-1.2163.0232c-.0719-.1047-.1555-.2062-.24-.3086l.0078-.0062c-.0481-.06-.1013-.1049-.1508-.161s-.09-.1142-.1443-.1687l-.0071.0071A5.0434,5.0434,0,0,0,72.2953,0h-2.632A5.05,5.05,0,0,0,65.85,1.6041l-.0082.0092-.0082.0093h0a4.429,4.429,0,0,0-.5062.7064l-1.2557.0237h0l-.0574.0011-.0574.0027a5.2,5.2,0,0,0-3.4781,1.4471l-.0831.0831-.0781.0878A4.81,4.81,0,0,0,59.24,6.1117a6.7474,6.7474,0,0,0-.1566,1.5V9.068a5.5557,5.5557,0,0,0,1.1,3.5068l.0726.0907.0777.0863c.1054.1171.2169.2118.3269.3127a9.6,9.6,0,0,0,.1268,7.135,4.7885,4.7885,0,0,0-1.5645,3.6525v2.632a4.777,4.777,0,0,0,1.5929,3.681l.0988.0848.1043.0782a5.1679,5.1679,0,0,0,3.128.968h.04l.0405-.0008h0l13.8319-.28v0a5.0534,5.0534,0,0,0,3.0135-.9743l.0056.0075c.0307-.0231.0523-.0493.082-.0728.04-.032.0814-.0561.1212-.09l-.0085-.01c.0143-.012.0273-.0244.0412-.0365.0162,0,.0365.0013.0521.0013h2.632a5.0377,5.0377,0,0,0,3.83-1.5946l.069-.0776.0649-.081a4.5581,4.5581,0,0,0,.4612-.7161V30.012a5.5559,5.5559,0,0,0,1.1,3.5068,4.8735,4.8735,0,0,0,4.04,1.7509v.0015l14.7-.28h0l.0618-.0012.0618-.0031a5.8965,5.8965,0,0,0,1.4386-.2419,4.66,4.66,0,0,0,1.9067-1.16l.0113.0113c.0435-.0434.0743-.09.115-.1342.0306-.0336.0635-.0559.0937-.091l-.009-.0077a4.5592,4.5592,0,0,0,.8368-1.3944,4.8,4.8,0,0,0,.82,1.55,4.8734,4.8734,0,0,0,4.04,1.7509v.0015l14.7-.28h0l.0618-.0012.0618-.0031a5.8958,5.8958,0,0,0,1.4386-.2419,4.66,4.66,0,0,0,1.9067-1.16l.0114.0113c.0434-.0434.0742-.09.1149-.1341.0306-.0335.0635-.056.0937-.0911l-.009-.0078a5.1019,5.1019,0,0,0,1.1679-3.3514V27.716a5.2353,5.2353,0,0,0-1.0033-3.1785l.0073-.0055c-.0237-.0316-.0509-.0529-.075-.0834-.04-.0492-.0705-.1-.1129-.1484l.0465-.0523.0649-.0812a5.5555,5.5555,0,0,0,1.1005-3.5067V19.4549a4.5387,4.5387,0,0,0,.901-.496l.0378-.027.0372-.0279-.976-1.3013h0l.976,1.3013a4.7275,4.7275,0,0,0,1.824-3.844V12.428A4.8313,4.8313,0,0,0,138.6167,8.96Zm-3.4783,3.4783v0l-.0426-.7664h0Zm.1762,3.1716-.0326-.5868h0Zm-71.25-9.2782h0l.02.992h0Zm69.23,7.95h0l-.0492-1.6467h0Zm-.1234.1234h0l.0117.3914h0Zm.1421.5032-.0187-.6266h0l.0187.6266Zm-.1421-.5032h0l-.0495-1.66h0Zm.2251.5736h0l.9264-1.2351h0Zm-69.23,9.0788,0,.0222v0l0-.0221Zm35.8146-17h0l-.4277-.3667h0Zm18.075,17.6242h0l.5326-.4734h0ZM92.7726,14.1686h0l-.2642-.3122-.0007-.0009ZM95.336,17.244l.2355-.3471h0l-.2355.3471Zm5.17,2.6757h0l-.3545-.2775h0Zm.0043.0035h0l.3306.2588h0Zm.3467.2714.0039.0031h0l-.0039-.0031Zm.0526.0413h0l.0308.024v0ZM118.4607,16.18l-.3972.0051h0l.3972-.0051Zm-3.999.1053h0l-.3969.0067h0ZM100.3506,7.3458h0l.5894-.5052h0Zm-.0222.0093h0l-.3474-.2977h0ZM113.9528,9.656l-.0043-.165h0l.0043.165ZM91.06,8.3345h0l-.6273-.5377h0ZM76.373,25.6186h0l-.288.3361h0Zm34.4487-2.7545Zm3.1217-13.5724h0l-.0585-2.2824h0ZM90.282,7.668h0L89.0262,6.5916h0ZM64.1176,8.8843h0l-.03-1.4723h0Zm.0516,15.3236h0l.0351,1.8733h0Zm70.1894-10.5117h0l.571-.7613h0Zm-1.1418-2.0242.0076.254h0l-.0076-.254ZM118.3749,9.48h0l-.0016-.08h0Zm-4.4978-2.7735h0l-.0214-.8364h0ZM97.716,9.572h0l-.0051-.2506h0ZM64.2067,26.2094h0l.0155.8265h0Zm4.4206-3.2534h0l.0047.2484h0ZM97.184,26.96h0l.0049.2407h0Zm8.54,2.3658h0l2.2945-1.7208h0Zm2.3978-1.7983h0l.136-.102h0Zm4.2985-3.2422h0l.0451.04.0312-.0349.0039,0V25.14a4.5655,4.5655,0,0,0-.3344-.5263c.1-.0941.2031-.18.2993-.2879Zm8.84,2.6747h0l.0049.2407h0Zm10.938.5675h0l.136-.102h0Zm1.0105-11.8535h0l.0076.254h0Zm1.8836.1992V15.872l.003.056h0Zm-.0906-3.0351h0l.1221-.1629h0ZM68.5574,4.0436l.2607.2317.0028.0025-.2635-.2342Zm-4.41,2.3074,0-.0149h0m29.33,24.7h0l.0107.2361h0Zm14.8041-3.6279-.0234.0175h0l.0234-.0175-.0374-.672h0l.0374.672.6349-.4762,0,0-.6346.476.1845,3.3219Zm9.2726,3.6279h0l.0108.2361v.0012Zm14.9886-.306-.18-3.2463h0Zm.45-3.7977-.6344.4758.0041.0756h0l-.0041-.0756-.0234.0175h0l.0234-.0175-.0374-.672h0l.0374.672.6346-.4761Zm0-5.2645,0,0m2.9681-5.74-.1681-.224,0,0,.1682.2242Zm-.6808-.9419h0l-.13-2.3447-.0253.0338h0l.0253-.0338-.0113-.203h0l.0113.203.643-.8573,0,0-.6431.8574Z"/><rect class="cls-1" x="52.2707" y="11.2413" width="0.0001"/><rect class="cls-1" x="40.9688" y="26.0886" height="0.2849"/><rect class="cls-1" x="31.7531" y="18.4854"/><polygon class="cls-1" points="41.066 26.12 42.03 27.215 42.03 27.215 41.066 26.12 42.03 25.025 42.03 25.025 41.066 26.12 41.063 26.116 41.063 26.116 41.066 26.12 41.063 26.124 41.063 26.124 41.066 26.12"/><rect class="cls-1" x="132.3581" y="27.408" height="0.0001"/><path class="cls-2" d="M41.9938,28.164a3.1312,3.1312,0,0,0,2.156-.616,1.8066,1.8066,0,0,0,0-2.856,3.1312,3.1312,0,0,0-2.156-.616,3.246,3.246,0,0,0-2.184.616,1.8532,1.8532,0,0,0,0,2.856A3.246,3.246,0,0,0,41.9938,28.164Zm3.584-21.392a1.5357,1.5357,0,0,1,.224-.98,1.0845,1.0845,0,0,1,.84-.28h2.632a1.0317,1.0317,0,0,1,.84.28,1.5357,1.5357,0,0,1,.224.98v3.5l1.876-.056a.9064.9064,0,0,1,.7.168.7651.7651,0,0,1,.224.644V13.66a.7651.7651,0,0,1-.224.644,1.4064,1.4064,0,0,1-.7.168l-1.876.056V18.14a1.6708,1.6708,0,0,1-.224,1.008,1.1006,1.1006,0,0,1-.84.252h-2.632a1.1589,1.1589,0,0,1-.84-.252,1.6708,1.6708,0,0,1-.224-1.008Zm-16.24,10.5q-.476-.5319.14-1.064l4.508-3.752a1.0442,1.0442,0,0,0,.392-.756,8.3686,8.3686,0,0,0,.056-.98V6.492a1.5357,1.5357,0,0,1,.224-.98,1.0842,1.0842,0,0,1,.84-.28H38.13a.9911.9911,0,0,1,.812.28,1.4061,1.4061,0,0,1,.252.98V10.72q0,.504.028.98a.9565.9565,0,0,0,.42.756l4.508,3.276q.364.252.364.504a.9832.9832,0,0,1-.224.56L42.47,19.12a.54.54,0,0,1-.532.28,2.3664,2.3664,0,0,1-.616-.308l-4.508-3.248-4.34,3.528a1.0626,1.0626,0,0,1-.588.308.7292.7292,0,0,1-.56-.28Zm12.656,14.56a10.898,10.898,0,0,1-3.136-.42,6.8953,6.8953,0,0,1-2.38-1.148,5.1,5.1,0,0,1-1.484-1.792,5.74,5.74,0,0,1,0-4.704,5.1,5.1,0,0,1,1.484-1.792,6.8953,6.8953,0,0,1,2.38-1.148,11.9177,11.9177,0,0,1,6.272,0,6.5924,6.5924,0,0,1,2.352,1.148,4.732,4.732,0,0,1,1.484,1.792,5.4652,5.4652,0,0,1,0,4.704,4.732,4.732,0,0,1-1.484,1.792,6.5924,6.5924,0,0,1-2.352,1.148A10.897,10.897,0,0,1,41.9938,31.832ZM8.536,14.948l4.872-.14.028-2.548-4.928.168ZM19.82,6.772a1.5357,1.5357,0,0,1,.224-.98,1.0845,1.0845,0,0,1,.84-.28h2.632a1.0317,1.0317,0,0,1,.84.28,1.5357,1.5357,0,0,1,.224.98v3.22l1.876-.056a.9066.9066,0,0,1,.7.168.7656.7656,0,0,1,.224.644V13.38a.7656.7656,0,0,1-.224.644,1.4067,1.4067,0,0,1-.7.168l-1.876.056V17.58a1.6708,1.6708,0,0,1-.224,1.008,1.1006,1.1006,0,0,1-.84.252H20.884a1.1589,1.1589,0,0,1-.84-.252,1.6708,1.6708,0,0,1-.224-1.008ZM13.072,27.268v.784l9.688-.28a.8123.8123,0,0,1,.672.168.9325.9325,0,0,1,.196.672V30.18a.8287.8287,0,0,1-.196.644.9729.9729,0,0,1-.672.168l-13.272.28a1.0674,1.0674,0,0,1-.84-.196,1.4758,1.4758,0,0,1-.224-.868l-.168-4.424a1.0674,1.0674,0,0,1,.196-.84,1.5922,1.5922,0,0,1,.868-.252l10.108-.532v-.868l-11.004.28a1.4416,1.4416,0,0,1-.588-.084q-.14-.084-.14-.364v-2.24q0-.308.14-.392a1.1207,1.1207,0,0,1,.588-.112l14.812-.28a1.17,1.17,0,0,1,.868.196,1.0232,1.0232,0,0,1,.196.868l-.252,4.564a1.2231,1.2231,0,0,1-.252.784,1.2764,1.2764,0,0,1-.812.252Zm3.92-22.036a1.0729,1.0729,0,0,1,.868.28,1.4493,1.4493,0,0,1,.196.98l-.392,11.172a1.6334,1.6334,0,0,1-.252.98,1.0671,1.0671,0,0,1-.812.28l-11.34.28a1.0559,1.0559,0,0,1-.812-.252,1.7845,1.7845,0,0,1-.252-1.008L4,6.324a.8287.8287,0,0,1,.196-.644,1.2306,1.2306,0,0,1,.728-.168H7.528a1.0969,1.0969,0,0,1,.7.168.7656.7656,0,0,1,.224.644V8.312l5.068-.168.028-2.1a.8287.8287,0,0,1,.196-.644,1.2306,1.2306,0,0,1,.728-.168Z"/><path class="cls-3" d="M202.9054,9.852l-8.9879.196a1.2309,1.2309,0,0,1-.7281-.168.8289.8289,0,0,1-.196-.644V6.604a.829.829,0,0,1,.196-.644,1.2309,1.2309,0,0,1,.7281-.168l12.9079-.28a1.0138,1.0138,0,0,1,.8681.252,1.3643,1.3643,0,0,1,.1959,1.008l-1.428,18.368a1.9605,1.9605,0,0,1-.2519.98.9431.9431,0,0,1-.8121.28h-2.604a1.1833,1.1833,0,0,1-.8679-.28,1.2646,1.2646,0,0,1-.1961-.98Zm7.308-2.52a1.5357,1.5357,0,0,1,.224-.98,1.0842,1.0842,0,0,1,.84-.28h2.632a1.0317,1.0317,0,0,1,.84.28,1.5357,1.5357,0,0,1,.224.98V24.58a1.6708,1.6708,0,0,1-.224,1.008,1.101,1.101,0,0,1-.84.252h-2.632a1.1589,1.1589,0,0,1-.84-.252,1.6708,1.6708,0,0,1-.224-1.008ZM173.6207,18.448l.056,3.948,8.344-.196a.906.906,0,0,1,.7.168.7651.7651,0,0,1,.224.644v2.576q0,.4759-.224.616a1.2026,1.2026,0,0,1-.7.196l-12.04.28a.9716.9716,0,0,1-.84-.252,2.0007,2.0007,0,0,1-.224-1.008l-.14-9.296a1.3341,1.3341,0,0,1,.196-.952,1.3058,1.3058,0,0,1,.868-.308l8.344-.756.084-4.2-8.988.196a1.1233,1.1233,0,0,1-.728-.14.9329.9329,0,0,1-.196-.672V6.604q0-.476.196-.616a1.3613,1.3613,0,0,1,.728-.196l12.908-.28a1.0135,1.0135,0,0,1,.868.252,1.57,1.57,0,0,1,.196,1.008l-.308,9.8a1.6609,1.6609,0,0,1-.224.952,1.2375,1.2375,0,0,1-.812.28Zm11.956-11.116a1.5357,1.5357,0,0,1,.224-.98,1.0842,1.0842,0,0,1,.84-.28h2.632a1.0314,1.0314,0,0,1,.84.28,1.5351,1.5351,0,0,1,.224.98V24.58a1.67,1.67,0,0,1-.224,1.008,1.1006,1.1006,0,0,1-.84.252h-2.632a1.1589,1.1589,0,0,1-.84-.252,1.6708,1.6708,0,0,1-.224-1.008ZM152.5142,27.016v1.092l10.808-.28a.8123.8123,0,0,1,.672.168.9325.9325,0,0,1,.196.672V30.18a.8287.8287,0,0,1-.196.644.9729.9729,0,0,1-.672.168l-14.392.28a1.0674,1.0674,0,0,1-.84-.196,1.4758,1.4758,0,0,1-.224-.868l-.168-4.676a1.0673,1.0673,0,0,1,.196-.84,1.3294,1.3294,0,0,1,.868-.252l11.228-.532V22.9l-12.124.28a1.4416,1.4416,0,0,1-.588-.084q-.14-.084-.14-.364V20.548q0-.3079.14-.392a1.12,1.12,0,0,1,.588-.112l15.932-.28a1.2442,1.2442,0,0,1,.868.224q.252.196.196.84l-.252,4.648a1.3717,1.3717,0,0,1-.252.812,1.1958,1.1958,0,0,1-.812.224Zm-1.148-18.088.028,1.68,12.796-.252q.588-.028.756.224a1.7165,1.7165,0,0,1,.168.896v1.54a1.7165,1.7165,0,0,1-.168.896q-.168.2239-.756.224l-5.824.112V15.34l6.188-.112a1.0969,1.0969,0,0,1,.7.168.7656.7656,0,0,1,.224.644v1.904a.7654.7654,0,0,1-.224.644,1.0969,1.0969,0,0,1-.7.168l-17.136.28a1.2306,1.2306,0,0,1-.728-.168.8287.8287,0,0,1-.196-.644V16.32a.8287.8287,0,0,1,.196-.644,1.2306,1.2306,0,0,1,.728-.168l6.188-.084V14.332l-5.684.084a.9418.9418,0,0,1-.812-.308,1.7625,1.7625,0,0,1-.252-.952l-.252-6.664a1.4493,1.4493,0,0,1,.196-.98,1.1262,1.1262,0,0,1,.868-.28l16.744-.28q.6161,0,.756.196a1.6138,1.6138,0,0,1,.168.924V7.528a1.6136,1.6136,0,0,1-.168.924q-.14.168-.756.196ZM118.4607,16.18l2.66-.056.084-6.608-2.828.056Zm9.996-9.408a1.5357,1.5357,0,0,1,.224-.98,1.0845,1.0845,0,0,1,.84-.28h2.632a1.0317,1.0317,0,0,1,.84.28,1.5351,1.5351,0,0,1,.224.98v4.9l1.876-.056a.9064.9064,0,0,1,.7.168.7653.7653,0,0,1,.224.644V15.06a.7653.7653,0,0,1-.224.644,1.4064,1.4064,0,0,1-.7.168l-1.876.056V20.66a1.67,1.67,0,0,1-.224,1.008,1.1006,1.1006,0,0,1-.84.252h-2.632a1.1589,1.1589,0,0,1-.84-.252,1.6708,1.6708,0,0,1-.224-1.008Zm-10.892,24.5a.9715.9715,0,0,1-.84-.252,1.6708,1.6708,0,0,1-.224-1.008v-7a1.5357,1.5357,0,0,1,.224-.98,1.0842,1.0842,0,0,1,.84-.28h2.632a1.0314,1.0314,0,0,1,.84.28,1.5351,1.5351,0,0,1,.224.98V26.96l11.06-.224a.75.75,0,0,1,.672.196,1.2024,1.2024,0,0,1,.196.784v2.296a1.0819,1.0819,0,0,1-.196.756,1.0412,1.0412,0,0,1-.728.224Zm-4.508-10.948a1.1339,1.1339,0,0,1-.56-.14q-.224-.14-.224-.644V17.104a.7656.7656,0,0,1,.224-.644.9556.9556,0,0,1,.588-.168h.98l-.112-6.636-1.092.028a1.1339,1.1339,0,0,1-.56-.14q-.224-.14-.224-.644V6.324a.7656.7656,0,0,1,.224-.644.9556.9556,0,0,1,.588-.168l13.58-.28a.82.82,0,0,1,.588.168q.196.14.196.616V8.62q0,.56-.224.672a1.2156,1.2156,0,0,1-.588.112l-.784.028-.168,6.608.868-.028a.82.82,0,0,1,.588.168q.196.14.196.616V19.26q0,.56-.224.672a1.2145,1.2145,0,0,1-.588.112ZM104.94,15.06l-2.324.056a1.1238,1.1238,0,0,1-.728-.14.9325.9325,0,0,1-.196-.672V11.672q0-.476.196-.616a1.361,1.361,0,0,1,.728-.196l2.324-.056V6.772a1.5357,1.5357,0,0,1,.224-.98,1.0845,1.0845,0,0,1,.84-.28h2.632a1.0317,1.0317,0,0,1,.84.28,1.5357,1.5357,0,0,1,.224.98V20.66a1.6708,1.6708,0,0,1-.224,1.008,1.1006,1.1006,0,0,1-.84.252h-2.632a1.1589,1.1589,0,0,1-.84-.252,1.6708,1.6708,0,0,1-.224-1.008ZM93.488,31.272a.9714.9714,0,0,1-.84-.252,1.6708,1.6708,0,0,1-.224-1.008v-7a1.5357,1.5357,0,0,1,.224-.98,1.0842,1.0842,0,0,1,.84-.28H96.12a1.0314,1.0314,0,0,1,.84.28,1.5357,1.5357,0,0,1,.224.98V26.96l11.06-.224a.75.75,0,0,1,.672.196,1.2024,1.2024,0,0,1,.196.784v2.296a1.0819,1.0819,0,0,1-.196.756,1.0414,1.0414,0,0,1-.728.224Zm9.268-22.904a1.6138,1.6138,0,0,1-.168.924q-.14.168-.756.196l-4.116.084V12.12q0,.504.028.98a.9565.9565,0,0,0,.42.756l4.788,3.276q.364.252.364.504a.9836.9836,0,0,1-.224.56l-1.82,2.324a.54.54,0,0,1-.532.28,2.3617,2.3617,0,0,1-.616-.308l-4.788-3.248-4.62,3.528a1.6276,1.6276,0,0,1-.588.308.73.73,0,0,1-.56-.28L87.58,18.672q-.504-.5321.14-1.064l4.788-3.752A1.0448,1.0448,0,0,0,92.9,13.1a8.39,8.39,0,0,0,.056-.98V9.684l-4.172.084q-.588.028-.756-.168a1.7743,1.7743,0,0,1-.168-.952V6.632a1.4623,1.4623,0,0,1,.168-.896,1.0911,1.0911,0,0,1,.756-.224l13.048-.28q.6161-.028.756.196a1.6136,1.6136,0,0,1,.168.924ZM70.9793,18.28a2.4425,2.4425,0,0,0,1.68-.504,1.7667,1.7667,0,0,0,0-2.632,2.3566,2.3566,0,0,0-1.68-.532,2.4638,2.4638,0,0,0-1.708.532,1.8263,1.8263,0,0,0,0,2.632A2.49,2.49,0,0,0,70.9793,18.28Zm7.84-9.492a1.5357,1.5357,0,0,1-.224.98,1.1758,1.1758,0,0,1-.84.28l-13.608.28a1.0155,1.0155,0,0,1-.84-.252,1.6706,1.6706,0,0,1-.224-1.008V7.612a1.5357,1.5357,0,0,1,.224-.98,1.2472,1.2472,0,0,1,.84-.28l4.452-.084V5.26a1.5357,1.5357,0,0,1,.224-.98,1.0842,1.0842,0,0,1,.84-.28h2.632a.9911.9911,0,0,1,.812.28,1.4061,1.4061,0,0,1,.252.98v.896l4.396-.084a.9719.9719,0,0,1,.84.252,1.6708,1.6708,0,0,1,.224,1.008Zm1.484-1.456a1.5357,1.5357,0,0,1,.224-.98,1.0842,1.0842,0,0,1,.84-.28h2.632a1.0314,1.0314,0,0,1,.84.28,1.5357,1.5357,0,0,1,.224.98V24.58a1.6708,1.6708,0,0,1-.224,1.008,1.1006,1.1006,0,0,1-.84.252h-2.632a1.1589,1.1589,0,0,1-.84-.252,1.6708,1.6708,0,0,1-.224-1.008ZM68.6273,22.956V21.528a6.0878,6.0878,0,0,1-3.416-1.736,4.8134,4.8134,0,0,1-1.176-3.332,4.7093,4.7093,0,0,1,1.792-3.892,8.1024,8.1024,0,0,1,5.152-1.428,8.1024,8.1024,0,0,1,5.152,1.428,4.7093,4.7093,0,0,1,1.792,3.892,4.7742,4.7742,0,0,1-1.176,3.304,6.0545,6.0545,0,0,1-3.36,1.764v1.344l4.592-.112a1.0969,1.0969,0,0,1,.7.168.7654.7654,0,0,1,.224.644v2.632a.7656.7656,0,0,1-.224.644,1.0969,1.0969,0,0,1-.7.168l-13.832.28a1.2306,1.2306,0,0,1-.728-.168.8287.8287,0,0,1-.196-.644V23.852a.8287.8287,0,0,1,.196-.644,1.2306,1.2306,0,0,1,.728-.168Z"/></g></g></svg>