<svg xmlns="http://www.w3.org/2000/svg" xmlns:xlink="http://www.w3.org/1999/xlink" viewBox="0 0 121 46"><defs><style>.cls-1{fill:none;clip-rule:evenodd;}.cls-2{fill:#74caff;}.cls-3{clip-path:url(#clip-path);}.cls-4{fill:#36b2ff;}.cls-5{fill:#fff;}</style><clipPath id="clip-path" transform="translate(1 1)"><path id="SVGID" class="cls-1" d="M0,22A22,22,0,0,1,22,0H97a22,22,0,0,1,0,44H22A22,22,0,0,1,0,22Z"/></clipPath></defs><g id="레이어_2" data-name="레이어 2"><g id="Layer_2" data-name="Layer 2"><path class="cls-2" d="M0,22A22,22,0,0,1,22,0H97a22,22,0,0,1,0,44H22A22,22,0,0,1,0,22Z" transform="translate(1 1)"/><g class="cls-3"><path class="cls-4" d="M22-1A23,23,0,0,0-1,22H1A21,21,0,0,1,22,1ZM97,1a21,21,0,0,1,21,21h2A23,23,0,0,0,97-1Zm21,21A21,21,0,0,1,97,43v2a23,23,0,0,0,23-23ZM22,43A21,21,0,0,1,1,22H-1A23,23,0,0,0,22,45Zm75,0H22v2H97ZM22,1H97V-1H22Z" transform="translate(1 1)"/></g><ellipse class="cls-5" cx="15.417" cy="8.0389" rx="2.0999" ry="1.1999" transform="matrix(0.8852, -0.4651, 0.4651, 0.8852, -0.9699, 9.0933)"/><path class="cls-5" d="M100.37,27.488V17.216c0-.32.112-.432.448-.432h1.12c.336,0,.448.112.448.432V27.488c0,.32-.112.432-.448.432h-1.12C100.4824,27.92,100.37,27.808,100.37,27.488Zm-10.384-9.44v-.992c0-.32.112-.432.448-.432l7.456-.16c.336,0,.496.112.448.432l-1.296,10.912c-.048.32-.16.432-.496.432h-1.12c-.336,0-.448-.112-.4-.432l1.12-9.44-5.712.112C90.0984,18.48,89.9864,18.368,89.9864,18.048Zm-3.7723,9.44V17.216c0-.32.112-.432.448-.432h1.12c.336,0,.448.112.448.432V27.488c0,.32-.112.432-.448.432h-1.12C86.3261,27.92,86.2141,27.808,86.2141,27.488Zm-2.032-10.592-.176,5.904c-.016.32-.112.384-.448.432l-5.456.448.032,2.832,5.424-.128c.336-.016.448.112.448.432v.992c0,.32-.112.416-.448.432l-6.96.16c-.336.016-.448-.112-.448-.432l-.08-5.552c0-.304.112-.368.448-.416l5.52-.48.08-3.168-5.84.128c-.336,0-.448-.112-.448-.416V17.04c0-.304.112-.416.448-.416l7.456-.16C84.07,16.464,84.1981,16.576,84.1821,16.896ZM72.8271,30.864l-8.4.16c-.272,0-.368-.08-.384-.448l-.096-2.864c-.016-.336.096-.4.4-.416l7.136-.32.032-.656-7.504.128c-.272,0-.384-.08-.384-.448v-.816c0-.336.096-.416.4-.416l9.168-.16c.304,0,.416.08.4.416l-.144,2.88c-.016.368-.112.432-.384.448l-7.072.32.016.64,6.8-.128c.304,0,.4.08.4.416v.816C73.2111,30.784,73.0991,30.864,72.8271,30.864Zm1.056-14.288v.992c0,.32-.112.432-.448.432l-8.048.144.048,1.376,7.856-.144c.336,0,.448.112.448.432V20.8c0,.32-.112.432-.448.432l-3.68.064v.8l3.936-.064c.304,0,.4.08.4.416v.912c0,.368-.112.448-.384.448l-9.92.16c-.272,0-.384-.08-.384-.448v-.912c0-.336.096-.416.4-.416l3.936-.064v-.8l-3.68.064c-.336,0-.432-.112-.448-.432l-.144-4.224c-.016-.32.112-.432.448-.432l9.664-.16C73.7711,16.144,73.8831,16.256,73.8831,16.576ZM46.8739,18.272l.064,4.592,1.936-.048.112-4.592Zm9.76,3.744-1.2.048v3.184c0,.32-.112.432-.448.432h-1.12c-.336,0-.448-.112-.448-.432V16.896c0-.32.112-.432.448-.432h1.12c.336,0,.448.112.448.432v3.312l1.2-.048c.304-.016.4.08.4.416V21.6C57.0339,21.936,56.9379,22,56.6339,22.016Zm-1.6,8.848-8.544.16c-.336,0-.448-.112-.448-.432V26.176c0-.32.112-.432.448-.432h1.12c.336,0,.448.112.448.432v2.96l6.96-.128c.304,0,.4.08.4.416v1.024C55.4179,30.784,55.3379,30.864,55.0339,30.864ZM51.7379,18.16l-.736.016-.112,4.592.832-.016c.336,0,.448.112.448.432v.992c0,.32-.112.432-.448.432l-7.6.16c-.336,0-.448-.112-.448-.432v-.992c0-.32.112-.432.448-.432l.8-.016-.064-4.592-.896.016c-.336,0-.448-.112-.448-.432v-.992c0-.32.112-.432.448-.432l7.776-.16c.336,0,.448.112.448.432v.992C52.1859,18.048,52.0739,18.16,51.7379,18.16ZM37.5016,19.664l2.4-.048v-2.72c0-.32.112-.432.448-.432h1.12c.336,0,.448.112.448.432v8.352c0,.32-.112.432-.448.432H40.35c-.336,0-.448-.112-.448-.432V21.472l-2.4.048c-.304,0-.4-.08-.4-.416V20.08C37.1016,19.744,37.1976,19.664,37.5016,19.664Zm3.696,11.2-8.544.16c-.336,0-.448-.112-.448-.432V26.176c0-.32.112-.432.448-.432h1.12c.336,0,.448.112.448.432v2.96l6.96-.128c.304,0,.4.08.4.416v1.024C41.5816,30.784,41.5016,30.864,41.1976,30.864Zm-11.2-14.4,7.712-.16c.304,0,.4.08.4.416v.992c0,.368-.112.448-.384.448l-2.848.064v2.24c0,.384-.048.624.256.832l3.024,2.144c.208.176.192.304.016.512l-.736.88c-.176.208-.32.208-.56.032l-2.992-2.128-2.944,2.336c-.24.176-.352.16-.56-.048l-.816-.816q-.288-.288,0-.528l3.04-2.4c.272-.24.256-.448.256-.832V18.272l-2.88.048c-.272,0-.384-.08-.384-.448V16.88C29.5976,16.544,29.6936,16.464,29.9976,16.464ZM19.9534,24.08c1.28,0,1.952-.624,1.952-1.44s-.672-1.44-1.952-1.44c-1.296,0-1.952.624-1.952,1.44S18.6574,24.08,19.9534,24.08Zm-4.032-7.056,3.024-.064v-.928c0-.32.112-.432.448-.432h1.12c.336,0,.448.112.448.432v.896l2.992-.064c.304,0,.4.08.4.416v.992c0,.368-.112.448-.384.448l-8.064.16c-.272,0-.384-.08-.384-.448V17.44C15.5214,17.104,15.6174,17.024,15.9214,17.024Zm9.824,10.464V17.216c0-.32.112-.432.448-.432h1.12c.336,0,.448.112.448.432V27.488c0,.32-.112.432-.448.432h-1.12C25.8574,27.92,25.7454,27.808,25.7454,27.488Zm-9.904-.592,3.12-.048V25.76a3.1362,3.1362,0,0,1-2.976-3.12c0-1.792,1.344-3.2,3.968-3.2s3.968,1.408,3.968,3.2a3.1188,3.1188,0,0,1-2.944,3.12V26.8l3.184-.064c.304,0,.4.08.4.416v.992c0,.368-.112.448-.384.448l-8.352.16c-.272,0-.384-.08-.384-.448v-.992C15.4414,26.976,15.5374,26.896,15.8414,26.896Z" transform="translate(1 1)"/></g></g></svg>