<svg xmlns="http://www.w3.org/2000/svg" viewBox="0 0 121.12 121.12"><defs><style>.cls-1{fill:#b5b5b6;}.cls-2{fill:#6c9bd2;}.cls-3{fill:#fff;}.cls-4{fill:#727171;}.cls-5{fill:#52a5dc;}.cls-6{fill:#0083c9;}</style></defs><g id="레이어_2" data-name="레이어 2"><g id="레이어_1-2" data-name="레이어 1"><path class="cls-1" d="M60.75,60.19h0Zm-.63,0h0Zm.63,0h0Zm-.63,0h0Z"/><path class="cls-2" d="M60.75,119.94a59.75,59.75,0,0,1-42.25-102A59.75,59.75,0,1,1,103,102.44a59.35,59.35,0,0,1-42.24,17.5"/><rect class="cls-3" x="75.47" y="115.51" width="0.83" height="2.08" transform="translate(-27.65 23.69) rotate(-15.04)"/><rect class="cls-3" x="74.39" y="111.48" width="0.83" height="2.08" transform="translate(-26.64 23.27) rotate(-15.04)"/><rect class="cls-3" x="73.31" y="107.46" width="0.83" height="2.08" transform="translate(-25.59 22.81) rotate(-15.02)"/><rect class="cls-3" x="72.23" y="103.43" width="0.83" height="2.08" transform="translate(-24.6 22.4) rotate(-15.02)"/><rect class="cls-3" x="71.14" y="99.4" width="0.83" height="2.08" transform="translate(-23.65 22.06) rotate(-15.07)"/><rect class="cls-3" x="70.06" y="95.38" width="0.83" height="2.08" transform="translate(-22.61 21.6) rotate(-15.04)"/><rect class="cls-3" x="68.98" y="91.35" width="0.83" height="2.08" transform="translate(-21.57 21.14) rotate(-15.02)"/><rect class="cls-3" x="67.9" y="87.33" width="0.83" height="2.08" transform="translate(-20.57 20.73) rotate(-15.02)"/><rect class="cls-3" x="66.82" y="83.3" width="0.83" height="2.08" transform="translate(-19.59 20.34) rotate(-15.04)"/><rect class="cls-3" x="65.74" y="79.27" width="0.83" height="2.08" transform="translate(-18.57 19.91) rotate(-15.04)"/><rect class="cls-3" x="64.66" y="75.25" width="0.83" height="2.08" transform="translate(-17.54 19.46) rotate(-15.02)"/><rect class="cls-3" x="63.57" y="71.22" width="0.83" height="2.08" transform="matrix(0.97, -0.26, 0.26, 0.97, -16.57, 19.09)"/><rect class="cls-3" x="62.49" y="67.2" width="0.83" height="2.08" transform="translate(-15.56 18.67) rotate(-15.04)"/><rect class="cls-3" x="61.41" y="63.17" width="0.83" height="2.08" transform="translate(-14.55 18.25) rotate(-15.04)"/><rect class="cls-3" x="60.33" y="59.14" width="0.83" height="2.08" transform="translate(-13.52 17.79) rotate(-15.02)"/><rect class="cls-3" x="59.25" y="55.12" width="0.83" height="2.08" transform="matrix(0.97, -0.26, 0.26, 0.97, -12.54, 17.42)"/><rect class="cls-3" x="58.17" y="51.09" width="0.83" height="2.08" transform="translate(-11.52 16.99) rotate(-15.04)"/><rect class="cls-3" x="57.09" y="47.07" width="0.83" height="2.08" transform="translate(-10.52 16.57) rotate(-15.04)"/><rect class="cls-3" x="56.01" y="43.04" width="0.83" height="2.08" transform="translate(-9.49 16.12) rotate(-15.01)"/><rect class="cls-3" x="54.92" y="39.02" width="0.83" height="2.08" transform="translate(-8.5 15.74) rotate(-15.04)"/><rect class="cls-3" x="53.84" y="34.99" width="0.83" height="2.08" transform="translate(-7.49 15.32) rotate(-15.04)"/><rect class="cls-3" x="52.76" y="30.96" width="0.83" height="2.08" transform="translate(-6.48 14.87) rotate(-15.02)"/><rect class="cls-3" x="51.68" y="26.94" width="0.83" height="2.08" transform="translate(-5.47 14.45) rotate(-15.02)"/><rect class="cls-3" x="50.6" y="22.91" width="0.83" height="2.08" transform="translate(-4.47 14.06) rotate(-15.04)"/><rect class="cls-3" x="49.52" y="18.89" width="0.83" height="2.08" transform="translate(-3.46 13.64) rotate(-15.04)"/><rect class="cls-3" x="48.43" y="14.86" width="0.83" height="2.08" transform="translate(-2.45 13.2) rotate(-15.02)"/><rect class="cls-3" x="47.35" y="10.83" width="0.83" height="2.08" transform="translate(-1.45 12.78) rotate(-15.02)"/><rect class="cls-3" x="46.27" y="6.81" width="0.83" height="2.08" transform="translate(-0.44 12.39) rotate(-15.04)"/><rect class="cls-3" x="45.19" y="2.78" width="0.83" height="2.08" transform="translate(0.57 11.97) rotate(-15.04)"/><rect class="cls-3" x="39.82" y="114.64" width="2.08" height="0.83" transform="translate(-81.23 114.28) rotate(-70.09)"/><rect class="cls-3" x="41.24" y="110.72" width="2.08" height="0.83" transform="translate(-76.61 112.96) rotate(-70.05)"/><rect class="cls-3" x="42.66" y="106.8" width="2.08" height="0.83" transform="translate(-71.99 111.77) rotate(-70.08)"/><rect class="cls-3" x="44.08" y="102.88" width="2.08" height="0.83" transform="matrix(0.34, -0.94, 0.94, 0.34, -67.37, 110.47)"/><rect class="cls-3" x="45.5" y="98.96" width="2.08" height="0.83" transform="translate(-62.75 109.29) rotate(-70.09)"/><rect class="cls-3" x="46.92" y="95.04" width="2.08" height="0.83" transform="translate(-58.13 108.01) rotate(-70.07)"/><rect class="cls-3" x="48.34" y="91.12" width="2.08" height="0.83" transform="translate(-53.5 106.79) rotate(-70.09)"/><rect class="cls-3" x="49.76" y="87.2" width="2.08" height="0.83" transform="translate(-48.89 105.53) rotate(-70.08)"/><rect class="cls-3" x="51.18" y="83.29" width="2.08" height="0.83" transform="translate(-44.26 104.29) rotate(-70.09)"/><rect class="cls-3" x="52.6" y="79.37" width="2.08" height="0.83" transform="translate(-39.65 102.99) rotate(-70.05)"/><rect class="cls-3" x="54.02" y="75.45" width="2.08" height="0.83" transform="translate(-35.02 101.78) rotate(-70.08)"/><rect class="cls-3" x="55.44" y="71.53" width="2.08" height="0.83" transform="translate(-30.4 100.53) rotate(-70.08)"/><rect class="cls-3" x="56.86" y="67.61" width="2.08" height="0.83" transform="translate(-25.79 99.26) rotate(-70.06)"/><rect class="cls-3" x="58.28" y="63.69" width="2.08" height="0.83" transform="translate(-21.16 98.04) rotate(-70.08)"/><rect class="cls-3" x="59.7" y="59.77" width="2.08" height="0.83" transform="matrix(0.34, -0.94, 0.94, 0.34, -16.55, 96.77)"/><rect class="cls-3" x="61.12" y="55.85" width="2.08" height="0.83" transform="translate(-11.92 95.54) rotate(-70.08)"/><rect class="cls-3" x="62.55" y="51.93" width="2.08" height="0.83" transform="translate(-7.31 94.27) rotate(-70.06)"/><rect class="cls-3" x="63.97" y="48.01" width="2.08" height="0.83" transform="translate(-2.67 93.05) rotate(-70.08)"/><rect class="cls-3" x="65.39" y="44.09" width="2.08" height="0.83" transform="translate(1.93 91.77) rotate(-70.05)"/><rect class="cls-3" x="66.81" y="40.17" width="2.08" height="0.83" transform="translate(6.57 90.55) rotate(-70.08)"/><rect class="cls-3" x="68.23" y="36.26" width="2.08" height="0.83" transform="translate(11.17 89.28) rotate(-70.06)"/><rect class="cls-3" x="69.65" y="32.34" width="2.08" height="0.83" transform="translate(15.81 88.05) rotate(-70.08)"/><rect class="cls-3" x="71.07" y="28.42" width="2.08" height="0.83" transform="translate(20.44 86.81) rotate(-70.09)"/><rect class="cls-3" x="72.49" y="24.5" width="2.08" height="0.83" transform="translate(25.05 85.56) rotate(-70.08)"/><rect class="cls-3" x="73.91" y="20.58" width="2.08" height="0.83" transform="translate(29.68 84.32) rotate(-70.09)"/><rect class="cls-3" x="75.33" y="16.66" width="2.08" height="0.83" transform="translate(34.3 83.06) rotate(-70.08)"/><rect class="cls-3" x="76.75" y="12.74" width="2.08" height="0.83" transform="translate(38.92 81.81) rotate(-70.08)"/><rect class="cls-3" x="78.17" y="8.82" width="2.08" height="0.83" transform="matrix(0.34, -0.94, 0.94, 0.34, 43.5, 80.55)"/><rect class="cls-3" x="79.59" y="4.9" width="2.08" height="0.83" transform="translate(48.17 79.32) rotate(-70.09)"/><rect class="cls-3" x="11.88" y="93.22" width="2.08" height="0.83" transform="translate(-51.34 24.32) rotate(-34.98)"/><rect class="cls-3" x="15.3" y="90.83" width="2.08" height="0.83" transform="translate(-49.33 25.82) rotate(-34.96)"/><rect class="cls-3" x="18.71" y="88.44" width="2.08" height="0.83" transform="translate(-47.35 27.35) rotate(-34.96)"/><rect class="cls-3" x="22.13" y="86.05" width="2.09" height="0.83" transform="translate(-45.37 28.88) rotate(-34.96)"/><rect class="cls-3" x="25.54" y="83.67" width="2.08" height="0.83" transform="translate(-43.38 30.4) rotate(-34.96)"/><rect class="cls-3" x="28.96" y="81.28" width="2.08" height="0.83" transform="translate(-41.41 31.96) rotate(-34.98)"/><rect class="cls-3" x="32.38" y="78.89" width="2.08" height="0.83" transform="translate(-39.46 33.53) rotate(-35.02)"/><rect class="cls-3" x="35.79" y="76.5" width="2.08" height="0.83" transform="translate(-37.45 35.03) rotate(-34.99)"/><rect class="cls-3" x="39.21" y="74.11" width="2.08" height="0.83" transform="translate(-35.46 36.56) rotate(-34.99)"/><rect class="cls-3" x="42.62" y="71.72" width="2.08" height="0.83" transform="translate(-33.48 38.09) rotate(-35)"/><rect class="cls-3" x="46.04" y="69.33" width="2.08" height="0.83" transform="translate(-31.47 39.57) rotate(-34.96)"/><rect class="cls-3" x="49.46" y="66.94" width="2.09" height="0.83" transform="translate(-29.48 41.09) rotate(-34.96)"/><rect class="cls-3" x="52.87" y="64.55" width="2.08" height="0.83" transform="translate(-27.51 42.67) rotate(-35)"/><rect class="cls-3" x="56.29" y="62.16" width="2.08" height="0.83" transform="translate(-25.52 44.17) rotate(-34.98)"/><rect class="cls-3" x="59.7" y="59.77" width="2.08" height="0.83" transform="translate(-23.53 45.7) rotate(-34.98)"/><rect class="cls-3" x="63.12" y="57.38" width="2.08" height="0.83" transform="translate(-21.54 47.22) rotate(-34.98)"/><rect class="cls-3" x="66.54" y="54.99" width="2.08" height="0.83" transform="translate(-19.55 48.71) rotate(-34.96)"/><rect class="cls-3" x="69.95" y="52.6" width="2.08" height="0.83" transform="translate(-17.57 50.24) rotate(-34.96)"/><rect class="cls-3" x="73.37" y="50.21" width="2.08" height="0.83" transform="translate(-15.58 51.83) rotate(-34.99)"/><rect class="cls-3" x="76.78" y="47.82" width="2.08" height="0.83" transform="translate(-13.6 53.32) rotate(-34.97)"/><rect class="cls-3" x="80.2" y="45.44" width="2.08" height="0.83" transform="translate(-11.61 54.82) rotate(-34.96)"/><rect class="cls-3" x="83.62" y="43.05" width="2.08" height="0.83" transform="translate(-9.63 56.36) rotate(-34.96)"/><rect class="cls-3" x="87.03" y="40.66" width="2.09" height="0.83" transform="translate(-7.65 57.85) rotate(-34.94)"/><rect class="cls-3" x="90.45" y="38.27" width="2.09" height="0.83" transform="translate(-5.65 59.41) rotate(-34.96)"/><rect class="cls-3" x="93.86" y="35.88" width="2.08" height="0.83" transform="translate(-3.65 61) rotate(-35)"/><rect class="cls-3" x="97.28" y="33.49" width="2.08" height="0.83" transform="translate(-1.68 62.49) rotate(-34.98)"/><rect class="cls-3" x="100.7" y="31.1" width="2.08" height="0.83" transform="translate(0.32 64.04) rotate(-34.99)"/><rect class="cls-3" x="104.11" y="28.71" width="2.08" height="0.83" transform="translate(2.31 65.58) rotate(-35)"/><rect class="cls-3" x="107.53" y="26.32" width="2.08" height="0.83" transform="translate(4.28 67.07) rotate(-34.98)"/><rect class="cls-3" x="1.34" y="59.77" width="2.08" height="0.83"/><rect class="cls-3" x="5.51" y="59.77" width="2.08" height="0.83"/><rect class="cls-3" x="9.68" y="59.77" width="2.08" height="0.83"/><rect class="cls-3" x="13.85" y="59.77" width="2.08" height="0.83"/><rect class="cls-3" x="18.02" y="59.77" width="2.08" height="0.83"/><rect class="cls-3" x="22.19" y="59.77" width="2.09" height="0.83"/><rect class="cls-3" x="26.36" y="59.77" width="2.08" height="0.83"/><rect class="cls-3" x="30.52" y="59.77" width="2.09" height="0.83"/><rect class="cls-3" x="34.69" y="59.77" width="2.08" height="0.83"/><rect class="cls-3" x="38.86" y="59.77" width="2.08" height="0.83"/><rect class="cls-3" x="43.03" y="59.77" width="2.09" height="0.83"/><rect class="cls-3" x="47.2" y="59.77" width="2.09" height="0.83"/><rect class="cls-3" x="51.37" y="59.77" width="2.08" height="0.83"/><rect class="cls-3" x="55.54" y="59.77" width="2.08" height="0.83"/><rect class="cls-3" x="59.7" y="59.77" width="2.08" height="0.83"/><rect class="cls-3" x="63.87" y="59.77" width="2.09" height="0.83"/><rect class="cls-3" x="68.04" y="59.77" width="2.08" height="0.83"/><rect class="cls-3" x="72.21" y="59.77" width="2.09" height="0.83"/><rect class="cls-3" x="76.38" y="59.77" width="2.08" height="0.83"/><rect class="cls-3" x="80.55" y="59.77" width="2.08" height="0.83"/><rect class="cls-3" x="84.72" y="59.77" width="2.08" height="0.83"/><rect class="cls-3" x="88.89" y="59.77" width="2.08" height="0.83"/><rect class="cls-3" x="93.05" y="59.77" width="2.08" height="0.83"/><rect class="cls-3" x="97.22" y="59.77" width="2.08" height="0.83"/><rect class="cls-3" x="101.39" y="59.77" width="2.08" height="0.83"/><rect class="cls-3" x="105.56" y="59.77" width="2.08" height="0.83"/><rect class="cls-3" x="109.73" y="59.77" width="2.08" height="0.83"/><rect class="cls-3" x="113.9" y="59.77" width="2.08" height="0.83"/><rect class="cls-3" x="118.07" y="59.77" width="2.08" height="0.83"/><rect class="cls-3" x="105.03" y="96.67" width="0.83" height="2.08" transform="translate(-37.18 115.68) rotate(-50)"/><rect class="cls-3" x="101.84" y="93.99" width="0.83" height="2.08" transform="translate(-36.28 112.18) rotate(-49.96)"/><rect class="cls-3" x="98.65" y="91.31" width="0.83" height="2.09" transform="matrix(0.64, -0.77, 0.77, 0.64, -35.36, 108.88)"/><rect class="cls-3" x="95.45" y="88.63" width="0.83" height="2.08" transform="translate(-34.44 105.48) rotate(-50)"/><rect class="cls-3" x="92.26" y="85.95" width="0.83" height="2.08" transform="translate(-33.54 102.02) rotate(-49.98)"/><rect class="cls-3" x="89.07" y="83.27" width="0.83" height="2.08" transform="matrix(0.64, -0.77, 0.77, 0.64, -32.62, 98.67)"/><rect class="cls-3" x="85.87" y="80.59" width="0.83" height="2.08" transform="translate(-31.71 95.23) rotate(-49.98)"/><rect class="cls-3" x="82.68" y="77.91" width="0.83" height="2.08" transform="translate(-30.8 91.82) rotate(-49.98)"/><rect class="cls-3" x="79.49" y="75.23" width="0.83" height="2.08" transform="translate(-29.89 88.42) rotate(-49.98)"/><rect class="cls-3" x="76.29" y="72.55" width="0.83" height="2.08" transform="translate(-28.97 85.05) rotate(-50)"/><rect class="cls-3" x="73.1" y="69.87" width="0.83" height="2.08" transform="translate(-28.06 81.58) rotate(-49.96)"/><rect class="cls-3" x="69.91" y="67.18" width="0.83" height="2.08" transform="translate(-27.14 78.25) rotate(-50)"/><rect class="cls-3" x="66.72" y="64.51" width="0.83" height="2.08" transform="translate(-26.23 74.81) rotate(-49.98)"/><rect class="cls-3" x="63.52" y="61.82" width="0.83" height="2.09" transform="translate(-25.32 71.43) rotate(-50)"/><rect class="cls-3" x="60.33" y="59.14" width="0.83" height="2.08" transform="translate(-24.41 68.01) rotate(-49.98)"/><rect class="cls-3" x="57.14" y="56.46" width="0.83" height="2.08" transform="translate(-23.5 64.61) rotate(-49.98)"/><rect class="cls-3" x="53.94" y="53.78" width="0.83" height="2.08" transform="translate(-22.58 61.21) rotate(-49.98)"/><rect class="cls-3" x="50.75" y="51.1" width="0.83" height="2.08" transform="translate(-21.67 57.8) rotate(-49.98)"/><rect class="cls-3" x="47.56" y="48.42" width="0.83" height="2.09" transform="translate(-20.76 54.42) rotate(-50)"/><rect class="cls-3" x="44.37" y="45.74" width="0.83" height="2.08" transform="translate(-19.85 51) rotate(-49.98)"/><rect class="cls-3" x="41.17" y="43.06" width="0.83" height="2.08" transform="translate(-18.93 47.62) rotate(-50)"/><rect class="cls-3" x="37.98" y="40.38" width="0.83" height="2.08" transform="translate(-18.02 44.21) rotate(-50)"/><polygon class="cls-3" points="34.14 38.39 35.73 39.73 36.27 39.1 34.67 37.76 34.14 38.39"/><rect class="cls-3" x="31.59" y="35.02" width="0.83" height="2.08" transform="translate(-16.19 37.39) rotate(-49.98)"/><rect class="cls-3" x="28.4" y="32.34" width="0.83" height="2.08" transform="translate(-15.28 34) rotate(-50)"/><rect class="cls-3" x="25.21" y="29.66" width="0.83" height="2.08" transform="translate(-14.37 30.59) rotate(-49.98)"/><rect class="cls-3" x="22.01" y="26.98" width="0.83" height="2.08" transform="translate(-13.46 27.19) rotate(-50)"/><rect class="cls-3" x="18.82" y="24.3" width="0.83" height="2.08" transform="translate(-12.54 23.78) rotate(-49.98)"/><rect class="cls-3" x="15.63" y="21.62" width="0.83" height="2.08" transform="translate(-11.63 20.38) rotate(-49.98)"/><path class="cls-3" d="M60.75,75.21a15,15,0,1,1,15-15,15,15,0,0,1-15,15"/><path class="cls-4" d="M60.75,75.21v-.62a14.41,14.41,0,1,1,10.18-4.22,14.36,14.36,0,0,1-10.18,4.22v1.24A15.65,15.65,0,1,0,45.1,60.19,15.64,15.64,0,0,0,60.75,75.83Z"/><path class="cls-5" d="M12.9,96.74a59.84,59.84,0,1,1,83.85,11.49A59.82,59.82,0,0,1,12.9,96.74"/><path class="cls-6" d="M12.9,96.74l.56-.43a59.13,59.13,0,1,1,47.15,23.38A58.87,58.87,0,0,1,13.46,96.31l-.56.43-.57.44A60.54,60.54,0,1,0,0,60.6,60.46,60.46,0,0,0,12.33,97.18Z"/><polyline class="cls-6" points="96.96 12.89 60.46 60.01 61.12 60.52 97.62 13.4"/><polyline class="cls-6" points="60.77 60.06 3.29 77.94 3.53 78.74 61.02 60.85"/><polyline class="cls-6" points="117.02 78.28 60.68 60.16 60.43 60.96 116.77 79.07"/><polyline class="cls-6" points="60.86 60.27 24.64 12.55 23.98 13.06 60.2 60.77"/><polyline class="cls-6" points="60.14 60.58 57.21 120.44 58.04 120.48 60.97 60.62"/><path class="cls-3" d="M69.53,60.59a9.29,9.29,0,1,1-9.28-9.28,9.29,9.29,0,0,1,9.28,9.28"/></g></g></svg>